<svg width="49" height="43" viewBox="0 0 49 43" fill="none" xmlns="http://www.w3.org/2000/svg">
<path fill-rule="evenodd" clip-rule="evenodd" d="M36.5684 18.5015C41.225 17.5965 44.2662 13.0879 43.3611 8.43128C42.4561 3.77469 37.9475 0.733469 33.2909 1.63853C28.6343 2.54359 25.5931 7.05219 26.4981 11.7088C26.6162 12.3163 25.872 12.9623 25.3016 12.7222C22.8542 11.6922 20.0851 11.3521 17.2829 11.8968C9.76067 13.3588 4.84793 20.6419 6.30995 28.1641C7.77196 35.6863 15.0551 40.599 22.5773 39.137C30.0995 37.675 35.0122 30.3919 33.5502 22.8697C33.4183 22.1908 33.2389 21.5332 33.0163 20.8997C32.6896 19.9701 33.7659 18.6397 34.751 18.6593C35.3491 18.6711 35.9575 18.6203 36.5684 18.5015Z" fill="#F2E6F6"/>
</svg>
