<svg width="207" height="284" viewBox="0 0 207 284" fill="none" xmlns="http://www.w3.org/2000/svg">
<path d="M18.3174 127.027L18.3556 126.965L18.3911 126.901C30.2889 105.537 49.2377 82.5822 62.5115 67.1128C72.6821 55.3464 82.0668 41.8938 88.8907 31.384C92.3085 26.1198 95.0969 21.5738 97.0348 18.3181C98.0034 16.6909 98.7628 15.3804 99.2844 14.4591C99.544 14.0007 99.7513 13.6271 99.8983 13.3538C99.9697 13.221 100.039 13.0891 100.097 12.9737C100.109 12.9481 100.126 12.9142 100.145 12.8748L103.5 7.03011L106.952 13.043L107.18 13.4399L107.233 13.4938C107.236 13.498 107.238 13.5022 107.241 13.5065C107.378 13.7336 107.575 14.0637 107.837 14.5021L107.853 14.529C108.388 15.4253 109.163 16.7223 110.146 18.3433C112.113 21.5854 114.915 26.1239 118.331 31.384C125.149 41.8864 134.458 55.336 144.477 67.0988L144.485 67.1085C157.755 82.5738 176.72 105.545 188.921 126.932L188.949 126.98L188.978 127.027C198.647 142.802 203.5 160.898 203.5 179.619C203.5 235.406 158.744 280.5 103.5 280.5C48.5442 280.5 3.5 235.4 3.5 179.619C3.5 160.935 8.62898 142.833 18.3174 127.027Z" stroke="#A67DB6" stroke-width="7"/>
<path fill-rule="evenodd" clip-rule="evenodd" d="M14.6118 178.725C14.6118 178.725 14.6118 178.725 14.6118 178.725C14.6118 228.754 54.9536 269.311 104.718 269.311C154.482 269.311 194.824 228.754 194.824 178.725L14.6118 178.725Z" fill="#A67DB6"/>
<ellipse cx="105" cy="181.999" rx="90" ry="47" transform="rotate(-0.833003 105 181.999)" fill="white"/>
<path d="M87.3223 180.005V187.939H99.5182V194.546H87.3223V209.879H80.5769V173.162H101.859V180.008H87.3223V180.005Z" fill="#A67DB6"/>
<path d="M87.8992 210.517H80V172.52H102.436V180.644H87.8962V187.296H100.092V195.181H87.8962V210.517H87.8992ZM81.1538 209.24H86.7454V193.906H98.9413V188.58H86.7454V179.366H101.285V173.8H81.1538V209.24Z" fill="#A67DB6"/>
<path d="M110.494 197.753C110.605 200.23 111.146 202.008 112.12 203.086C113.09 204.164 114.622 204.703 116.711 204.703C117.922 204.703 118.985 204.536 119.905 204.2C120.821 203.864 121.623 203.219 122.308 202.262L126.899 205.896C125.896 207.503 124.592 208.709 122.99 209.505C121.389 210.301 119.199 210.698 116.428 210.698C112.297 210.698 109.217 209.496 107.186 207.089C105.152 204.681 104.136 201.048 104.136 196.185C104.136 186.226 108.153 181.248 116.188 181.248C119.757 181.248 122.483 182.365 124.355 184.603C126.226 186.841 127.164 190.099 127.164 194.38V197.75H110.494V197.753ZM121.04 193.03C121.04 188.803 119.373 186.689 116.044 186.689C114.941 186.689 114.043 186.898 113.343 187.313C112.642 187.728 112.078 188.349 111.657 189.172C111.233 189.993 110.903 191.28 110.665 193.033H121.04V193.03Z" fill="#A67DB6"/>
<path d="M116.425 211.341C112.15 211.341 108.899 210.06 106.762 207.532C104.635 205.016 103.556 201.2 103.556 196.189C103.556 185.855 107.805 180.613 116.185 180.613C119.908 180.613 122.795 181.812 124.775 184.174C126.743 186.524 127.738 189.961 127.738 194.387V198.396H111.113C111.275 200.35 111.753 201.776 112.528 202.636C113.382 203.586 114.791 204.065 116.711 204.065C117.855 204.065 118.868 203.907 119.721 203.592C120.524 203.299 121.242 202.717 121.858 201.863L122.2 201.388L127.696 205.742L127.371 206.26C126.311 207.962 124.913 209.249 123.222 210.087C121.554 210.92 119.268 211.341 116.425 211.341ZM116.185 181.891C108.463 181.891 104.71 186.566 104.71 196.189C104.71 200.864 105.684 204.386 107.604 206.657C109.515 208.916 112.483 210.063 116.425 210.063C119.102 210.063 121.233 209.679 122.753 208.925C124.075 208.268 125.196 207.302 126.085 206.045L122.399 203.126C121.722 203.929 120.947 204.495 120.082 204.81C119.111 205.167 117.979 205.346 116.708 205.346C114.469 205.346 112.787 204.737 111.708 203.541C110.635 202.354 110.031 200.419 109.914 197.788L109.884 197.116H126.581V194.384C126.581 190.291 125.689 187.148 123.925 185.043C122.179 182.954 119.574 181.891 116.185 181.891ZM121.617 193.673H109.992L110.091 192.937C110.344 191.093 110.689 189.758 111.152 188.855C111.627 187.932 112.27 187.223 113.069 186.751C113.85 186.288 114.854 186.051 116.044 186.051C118.586 186.051 121.617 187.263 121.617 193.034V193.673ZM111.341 192.392H120.449C120.298 188.943 118.886 187.329 116.041 187.329C115.043 187.329 114.223 187.514 113.61 187.877C113 188.238 112.525 188.765 112.153 189.485C111.828 190.124 111.555 191.099 111.341 192.392Z" fill="#A67DB6"/>
</svg>
