<svg width="128" height="68" viewBox="0 0 128 68" fill="none" xmlns="http://www.w3.org/2000/svg">
<path d="M35.4114 0.571289H62.535L78.5664 18.9827H50.3963L47.1524 15.5345H19.6102L35.4114 0.571289ZM47.5082 48.93H75.5108L55.9006 67.5504H28.8188L15.843 52.42H43.741L47.5082 48.93ZM16.136 18.8782H43.6992L26.998 34.0713L40.4133 49.0136H12.8921L0 34.0713L16.136 18.8782ZM115.966 35.6387H105.083C103.953 35.576 103.053 34.6564 103.032 33.507C103.032 33.298 103.074 32.9846 103.137 32.7965L104.058 30.1006C105.397 26.318 109.206 24.0401 113.392 24.0192H128L126.849 27.3629H116.468C113.748 27.3838 111.404 28.3451 110.692 30.4559L110.525 30.9156C110.357 31.4172 110.064 32.4621 110.064 32.4621H111.885H123.103C124.233 32.5039 125.154 33.4443 125.154 34.5937C125.154 34.8027 125.133 35.1371 125.049 35.3252L123.961 38.5017C122.517 41.7828 118.98 44.1025 114.794 44.1443L99.5579 44.1234L100.793 40.5916H112.094C114.815 40.5707 116.657 39.5884 117.285 37.8121L117.515 37.1642C117.766 36.391 117.871 35.6178 117.871 35.6178L115.966 35.6387ZM69.1694 30.1424C70.5088 26.3598 74.3178 24.0819 78.5036 24.061H93.1955L92.0445 27.4047H81.5592C78.8385 27.4256 76.4944 28.3869 75.7829 30.4977L72.9994 38.8779C72.9575 39.0033 72.9575 39.1287 72.9575 39.275C72.9575 40.0064 73.5435 40.6125 74.276 40.6543H76.7037C79.4245 40.6334 81.2662 39.6511 81.8941 37.8748L82.6684 35.7014H78.5664L79.6547 32.5248H90.6423L88.5703 38.5644C87.1262 41.8455 83.5683 44.1652 79.4035 44.207H69.0648C67.0556 44.207 65.6324 42.8068 65.6115 41.0513C65.6115 40.6543 65.6743 40.2572 65.8208 39.9228L69.1694 30.1424ZM43.6154 44.1861H43.3015C42.0249 44.1443 41.0203 43.1621 40.9993 41.9917C40.9993 41.7828 41.0412 41.4484 41.104 41.2394L41.3133 40.6125L47.0268 24.0401H68.9392L67.7881 27.3838H53.8496C52.9706 27.3838 52.4264 27.9899 52.3008 28.4287L50.9823 32.5039H62.4931L61.4048 35.6805H49.8941L48.6383 39.3795C48.4709 39.881 48.5128 40.6334 49.6848 40.6334H63.9791L62.7861 44.1861H43.6154ZM93.0072 44.1861H92.5677C91.291 44.1443 90.2655 43.1621 90.2655 41.9917C90.2655 41.7828 90.3074 41.4484 90.3702 41.2394L90.5795 40.6125L90.7678 40.0482L96.293 24.0401H103.451L96.5023 44.1652H93.0072V44.1861Z" fill="#792582"/>
</svg>
