<svg width="68" height="68" viewBox="0 0 68 68" fill="none" xmlns="http://www.w3.org/2000/svg">
<circle cx="34" cy="34" r="33" stroke="#A67DB6" stroke-width="2"/>
<path d="M34.7978 15.105L33.7255 14L32.6532 15.105C32.2243 15.768 20 29.2486 20 39.8564C20 47.5912 26.2194 54 33.7255 54C41.2316 54 47.451 47.5912 47.451 39.8564C47.451 29.4696 35.4412 15.768 34.7978 15.105Z" fill="#95539C"/>
<path d="M36.8438 39.3711H39.2852C39.207 40.3021 38.9466 41.1322 38.5039 41.8613C38.0612 42.584 37.4395 43.1536 36.6387 43.5703C35.8379 43.987 34.8646 44.1953 33.7188 44.1953C32.8398 44.1953 32.0488 44.0391 31.3457 43.7266C30.6426 43.4076 30.0404 42.9583 29.5391 42.3789C29.0378 41.793 28.6536 41.0866 28.3867 40.2598C28.1263 39.4329 27.9961 38.5085 27.9961 37.4863V36.3047C27.9961 35.2826 28.1296 34.3581 28.3965 33.5312C28.6699 32.7044 29.0605 31.998 29.5684 31.4121C30.0762 30.8197 30.6849 30.3672 31.3945 30.0547C32.1107 29.7422 32.9147 29.5859 33.8066 29.5859C34.9395 29.5859 35.8965 29.7943 36.6777 30.2109C37.459 30.6276 38.0645 31.2038 38.4941 31.9395C38.9303 32.6751 39.1973 33.5182 39.2949 34.4688H36.8535C36.7884 33.8568 36.6452 33.3327 36.4238 32.8965C36.209 32.4603 35.89 32.1283 35.4668 31.9004C35.0436 31.666 34.4902 31.5488 33.8066 31.5488C33.2467 31.5488 32.7585 31.653 32.3418 31.8613C31.9251 32.0697 31.5768 32.3757 31.2969 32.7793C31.0169 33.1829 30.8053 33.681 30.6621 34.2734C30.5254 34.8594 30.457 35.5299 30.457 36.2852V37.4863C30.457 38.2025 30.5189 38.8535 30.6426 39.4395C30.7728 40.0189 30.9681 40.5169 31.2285 40.9336C31.4954 41.3503 31.834 41.6725 32.2441 41.9004C32.6543 42.1283 33.1458 42.2422 33.7188 42.2422C34.4154 42.2422 34.9785 42.1315 35.4082 41.9102C35.8444 41.6888 36.1732 41.3665 36.3945 40.9434C36.6224 40.5137 36.7721 39.9896 36.8438 39.3711Z" fill="white"/>
</svg>
