<svg width="50" height="50" viewBox="0 0 50 50" fill="none" xmlns="http://www.w3.org/2000/svg">
<path d="M24.9948 0C11.1953 0 0 11.1953 0 24.9948C0 38.8047 11.1953 50 24.9948 50C38.7944 50 50.0001 38.8047 50.0001 24.9948C50.0001 11.1953 38.8048 0 24.9948 0ZM24.9948 41.0251C18.7799 41.0251 13.7373 36.0656 13.7373 29.9543C13.7373 23.8431 22.7848 16.4246 24.9948 8.97489C27.2152 16.4246 36.2524 23.8431 36.2524 29.9543C36.2627 36.0656 31.2202 41.0251 24.9948 41.0251Z" fill="white"/>
<path d="M17.1093 29.7431C17.1093 29.3281 16.7773 28.9961 16.3623 28.9961C15.9473 28.9961 15.6153 29.3281 15.6153 29.7431C15.6153 34.8168 19.8278 38.9359 25.0052 38.9359C25.4202 38.9359 25.7522 38.6039 25.7522 38.1889C25.7522 37.7739 25.4202 37.4418 25.0052 37.4418C20.6474 37.4418 17.1093 33.9868 17.1093 29.7431Z" fill="white"/>
</svg>
