<svg width="68" height="68" viewBox="0 0 68 68" fill="none" xmlns="http://www.w3.org/2000/svg">
<circle cx="34" cy="34" r="33" stroke="#A67DB6" stroke-width="2"/>
<path fill-rule="evenodd" clip-rule="evenodd" d="M35.5716 10.086C35.3215 17.2292 34.9284 28.4557 34.6844 29.5729C34.3096 31.2886 25.8773 47.0477 24.4407 48.0009C23.8828 48.3711 22.4486 48.7892 20.8883 49.2441C18.4313 49.9604 15.6615 50.7679 15.5087 51.623C15.2589 53.021 15.6961 54.8002 20.693 55.0544C25.6899 55.3086 30.3745 54.7367 34.3721 51.3688C38.3696 48.0009 41.3053 45.7133 44.5533 44.8237C44.6443 44.7988 44.7357 44.7738 44.8274 44.7487C48.0123 43.8789 51.6325 42.8901 52.361 39.7401C52.9806 37.061 51.9782 35.2938 50.2711 32.2846C49.9132 31.6537 49.5244 30.9682 49.113 30.2083C46.7395 25.8237 47.1142 20.9943 49.113 16.8639C49.9898 15.0519 50.4935 12.9788 50.7662 11.1998C46.4079 8.3099 41.2567 6.5201 35.7087 6.22656C35.6713 7.23893 35.6246 8.57057 35.5716 10.086Z" fill="#95539C"/>
</svg>
