<svg width="50" height="50" viewBox="0 0 50 50" fill="none" xmlns="http://www.w3.org/2000/svg">
<path d="M24.9948 0C11.1953 0 0 11.1953 0 24.9948C0 38.8047 11.1953 50 24.9948 50C38.7944 50 50 38.8047 50 24.9948C50 11.1953 38.8047 0 24.9948 0Z" fill="white"/>
<path fill-rule="evenodd" clip-rule="evenodd" d="M33.0862 39.601V38.468C33.0862 37.3996 32.8691 36.3787 32.4792 35.4416C32.4718 35.4198 32.4792 35.3942 32.4976 35.3833L39.9399 30.8875C41.4115 29.9942 42.2355 28.3899 42.0884 26.6871C41.9412 24.988 40.856 23.5404 39.2556 22.9133L34.8373 21.1631C33.5313 20.6527 32.0561 21.3163 31.5889 22.6289C31.1437 23.8759 31.7728 25.2505 33.0163 25.7355L36.4891 27.1137C36.5259 27.1283 36.5296 27.183 36.4928 27.2012L28.5869 31.2157C28.5612 31.2303 28.5648 31.2594 28.5722 31.2886C28.5722 31.2886 28.5612 31.285 28.5244 31.2704C28.5097 31.2631 28.4949 31.2631 28.4802 31.2704C27.4428 31.8027 26.2692 32.1126 25.0294 32.1126C23.7897 32.1126 22.6161 31.8064 21.5787 31.2704C21.5639 31.2631 21.5492 31.2631 21.5345 31.2704C21.494 31.2886 21.483 31.2923 21.4867 31.2886C21.5088 31.2667 21.4977 31.2303 21.472 31.2157L13.5109 27.2049C13.4741 27.1866 13.4778 27.1319 13.5146 27.1174L17.1199 25.7391C18.3817 25.2432 19.0071 23.8358 18.5252 22.5815C18.0359 21.3017 16.5791 20.6636 15.2951 21.1668L10.7444 22.9169C9.14406 23.5441 8.0588 24.9916 7.91164 26.6908C7.76449 28.3899 8.58488 29.9979 10.0564 30.8875L17.554 35.4161C17.5724 35.427 17.5834 35.4526 17.5724 35.4744C17.1898 36.4006 16.9653 37.4069 16.9653 38.468V39.5211C19.484 40.5316 22.2392 41.0885 25.1262 41.0885C27.9361 41.0885 30.6218 40.561 33.0862 39.601ZM25.8277 15.9308C25.8277 16.383 25.4562 16.7512 25 16.7512C24.5438 16.7512 24.1723 16.383 24.1723 15.9308V10.4688C24.1723 10.0167 24.5438 9.64844 25 9.64844C25.4562 9.64844 25.8277 10.0167 25.8277 10.4688V15.9308ZM21.5419 31.2558L21.5529 31.2594C21.6706 31.1902 21.6044 31.223 21.5419 31.2558ZM28.4986 31.2594L28.5097 31.2558C28.4508 31.223 28.3846 31.1938 28.4986 31.2594ZM20.578 18.1696C20.7399 18.33 20.9496 18.4102 21.1629 18.4102C21.3763 18.4102 21.586 18.33 21.7479 18.1696C22.0716 17.8487 22.0716 17.331 21.7479 17.0101L17.8483 13.1451C17.5245 12.8243 17.0021 12.8243 16.6784 13.1451C16.3547 13.466 16.3547 13.9838 16.6784 14.3046L20.578 18.1696ZM29.422 18.1659C29.2601 18.3264 29.0504 18.4066 28.8371 18.4066C28.6274 18.4066 28.414 18.3264 28.2521 18.1659C27.9284 17.8451 27.9284 17.3273 28.2521 17.0065L32.1481 13.1451C32.4718 12.8243 32.9942 12.8243 33.3179 13.1451C33.6417 13.466 33.6417 13.9838 33.3179 14.3046L29.422 18.1659ZM30.419 24.4374C30.419 27.4036 27.9928 29.8083 25 29.8083C22.0072 29.8083 19.581 27.4036 19.581 24.4374C19.581 21.4712 22.0072 19.0666 25 19.0666C27.9928 19.0666 30.419 21.4712 30.419 24.4374Z" fill="#C997DD"/>
</svg>
