<svg width="68" height="68" viewBox="0 0 68 68" fill="none" xmlns="http://www.w3.org/2000/svg">
<circle cx="34" cy="34" r="33" stroke="#A67DB6" stroke-width="2"/>
<path d="M30.1379 23C26.0138 23 25.1149 25.1149 24.5862 26.1724L26 48H42.5L44.4138 24.9828C43.7528 25.3793 41.6379 26.1724 38.4655 26.1724C35.2931 26.1724 35.2931 23 30.1379 23Z" fill="#95539C"/>
<path d="M23.8682 21.1023C23.8085 20.3464 24.4058 19.7 25.1641 19.7H43.8359C44.5942 19.7 45.1915 20.3464 45.1319 21.1023L43.0683 47.2402C43.0149 47.9164 42.4507 48.4379 41.7724 48.4379H27.2276C26.5493 48.4379 25.9851 47.9164 25.9317 47.2402L23.8682 21.1023Z" stroke="#95539C" stroke-width="1.4"/>
</svg>
