<svg width="50" height="50" viewBox="0 0 50 50" fill="none" xmlns="http://www.w3.org/2000/svg">
<path fill-rule="evenodd" clip-rule="evenodd" d="M25 50C38.8071 50 50 38.8071 50 25C50 11.1929 38.8071 0 25 0C11.1929 0 0 11.1929 0 25C0 38.8071 11.1929 50 25 50ZM15.1163 33.7211C18.9002 33.7211 21.9805 30.7088 22.09 26.9514C22.2235 26.8762 22.3837 26.7924 22.566 26.7084C23.1508 26.4391 23.9346 26.182 24.7817 26.182C25.6288 26.182 26.4126 26.4391 26.9974 26.7084C27.2872 26.8419 27.521 26.975 27.6807 27.0736C27.7603 27.1228 27.821 27.1631 27.8604 27.19C27.8801 27.2035 27.8944 27.2136 27.903 27.2198L27.9118 27.2261L27.912 27.2263C27.912 27.2262 27.9119 27.2262 27.9224 27.2121C28.163 30.8471 31.1878 33.7211 34.8837 33.7211C38.7369 33.7211 41.8605 30.5975 41.8605 26.7443C41.8605 26.3721 41.8313 26.0067 41.7752 25.6503L44.2801 23.6464L43.6554 22.8655L41.517 24.5762C40.6051 21.7845 37.98 19.7676 34.8837 19.7676C31.3331 19.7676 28.402 22.4199 27.9636 25.8513C27.8268 25.7768 27.6712 25.6976 27.4993 25.6184C26.8216 25.3063 25.8612 24.982 24.7817 24.982C23.7022 24.982 22.7418 25.3063 22.0641 25.6184L22.0069 25.645C21.4797 22.3142 18.5954 19.7676 15.1163 19.7676C12.054 19.7676 9.45244 21.7406 8.51357 24.4847L6.48953 22.8655L5.86484 23.6464L8.24173 25.5479C8.17455 25.9366 8.13953 26.3364 8.13953 26.7443C8.13953 30.5975 11.2631 33.7211 15.1163 33.7211Z" fill="white"/>
<path d="M10.3775 26.0833C10.3339 25.8106 10.0776 25.6248 9.80488 25.6684C9.53219 25.7119 9.34643 25.9683 9.38998 26.241L10.3775 26.0833ZM14.4136 32.4611C14.6815 32.5281 14.953 32.3652 15.02 32.0973C15.0869 31.8294 14.924 31.558 14.6562 31.491L14.4136 32.4611ZM11.0465 29.6505L11.4625 29.3731L11.0465 29.6505ZM9.88372 26.1621C9.38998 26.241 9.38999 26.241 9.39 26.2411C9.39001 26.2411 9.39002 26.2412 9.39003 26.2413C9.39006 26.2415 9.39009 26.2416 9.39012 26.2419C9.39019 26.2423 9.39029 26.2429 9.39041 26.2436C9.39064 26.2451 9.39096 26.2471 9.39138 26.2496C9.39221 26.2547 9.3934 26.2619 9.39497 26.2712C9.39809 26.2897 9.40267 26.3164 9.40874 26.3506C9.42087 26.4188 9.43895 26.5166 9.46312 26.6373C9.51138 26.8784 9.58428 27.2126 9.68303 27.5861C9.87639 28.3173 10.1837 29.2576 10.6305 29.9278L11.4625 29.3731C11.1128 28.8485 10.8387 28.0447 10.6498 27.3304C10.5574 26.9811 10.489 26.6673 10.4437 26.441C10.4211 26.328 10.4043 26.2373 10.3933 26.1754C10.3878 26.1445 10.3837 26.1208 10.3811 26.1052C10.3798 26.0973 10.3788 26.0915 10.3782 26.0878C10.3779 26.086 10.3777 26.0847 10.3776 26.0839C10.3775 26.0835 10.3775 26.0833 10.3775 26.0832C10.3774 26.0831 10.3774 26.0831 10.3774 26.0831C10.3774 26.0831 10.3774 26.0832 10.3774 26.0832C10.3775 26.0832 10.3775 26.0833 9.88372 26.1621ZM10.6305 29.9278C11.2797 30.9016 12.2377 31.5318 13.0031 31.9146C13.3898 32.1079 13.7375 32.2431 13.9898 32.3305C14.1162 32.3742 14.2192 32.4061 14.292 32.4275C14.3285 32.4382 14.3574 32.4462 14.3779 32.4518C14.3882 32.4545 14.3964 32.4567 14.4024 32.4583C14.4054 32.459 14.4078 32.4597 14.4097 32.4601C14.4106 32.4604 14.4114 32.4606 14.4121 32.4607C14.4124 32.4608 14.4127 32.4609 14.413 32.461C14.4131 32.461 14.4132 32.461 14.4133 32.4611C14.4135 32.4611 14.4136 32.4611 14.5349 31.9761C14.6562 31.491 14.6563 31.491 14.6564 31.4911C14.6564 31.4911 14.6565 31.4911 14.6566 31.4911C14.6567 31.4911 14.6568 31.4912 14.6568 31.4912C14.6569 31.4912 14.6569 31.4912 14.6567 31.4911C14.6563 31.491 14.6554 31.4908 14.654 31.4904C14.6511 31.4897 14.6461 31.4884 14.639 31.4865C14.6249 31.4826 14.6028 31.4765 14.5733 31.4679C14.5144 31.4506 14.4267 31.4235 14.3169 31.3855C14.0968 31.3093 13.7905 31.1902 13.4504 31.0201C12.7623 30.6761 11.9761 30.1435 11.4625 29.3731L10.6305 29.9278Z" fill="white"/>
<path d="M30.7263 26.0833C30.6828 25.8106 30.4264 25.6248 30.1537 25.6684C29.881 25.7119 29.6953 25.9683 29.7388 26.241L30.7263 26.0833ZM34.7625 32.4611C35.0304 32.5281 35.3018 32.3652 35.3688 32.0973C35.4358 31.8294 35.2729 31.558 35.005 31.491L34.7625 32.4611ZM31.3953 29.6505L31.8114 29.3731L31.3953 29.6505ZM30.2326 26.1621C29.7388 26.241 29.7388 26.241 29.7388 26.2411C29.7388 26.2411 29.7389 26.2412 29.7389 26.2413C29.7389 26.2415 29.7389 26.2416 29.739 26.2419C29.739 26.2423 29.7391 26.2429 29.7392 26.2436C29.7395 26.2451 29.7398 26.2471 29.7402 26.2496C29.741 26.2547 29.7422 26.2619 29.7438 26.2712C29.7469 26.2897 29.7515 26.3164 29.7576 26.3506C29.7697 26.4188 29.7878 26.5166 29.812 26.6373C29.8602 26.8784 29.9331 27.2126 30.0319 27.5861C30.2252 28.3173 30.5325 29.2576 30.9793 29.9278L31.8114 29.3731C31.4616 28.8485 31.1875 28.0447 30.9986 27.3304C30.9063 26.9811 30.8378 26.6673 30.7925 26.441C30.7699 26.328 30.7531 26.2373 30.7421 26.1754C30.7366 26.1445 30.7326 26.1208 30.7299 26.1052C30.7286 26.0973 30.7277 26.0915 30.727 26.0878C30.7267 26.086 30.7265 26.0847 30.7264 26.0839C30.7263 26.0835 30.7263 26.0833 30.7263 26.0832C30.7263 26.0831 30.7263 26.0831 30.7263 26.0831C30.7263 26.0831 30.7263 26.0832 30.7263 26.0832C30.7263 26.0832 30.7263 26.0833 30.2326 26.1621ZM30.9793 29.9278C31.6285 30.9016 32.5865 31.5318 33.352 31.9146C33.7386 32.1079 34.0864 32.2431 34.3386 32.3305C34.465 32.3742 34.5681 32.4061 34.6409 32.4275C34.6773 32.4382 34.7062 32.4462 34.7268 32.4518C34.737 32.4545 34.7452 32.4567 34.7512 32.4583C34.7542 32.459 34.7566 32.4597 34.7585 32.4601C34.7595 32.4604 34.7603 32.4606 34.7609 32.4607C34.7612 32.4608 34.7615 32.4609 34.7618 32.461C34.7619 32.461 34.7621 32.461 34.7621 32.4611C34.7623 32.4611 34.7625 32.4611 34.8837 31.9761C35.005 31.491 35.0051 31.491 35.0052 31.4911C35.0053 31.4911 35.0054 31.4911 35.0054 31.4911C35.0056 31.4911 35.0056 31.4912 35.0057 31.4912C35.0058 31.4912 35.0057 31.4912 35.0056 31.4911C35.0052 31.491 35.0043 31.4908 35.0028 31.4904C34.9999 31.4897 34.9949 31.4884 34.9879 31.4865C34.9738 31.4826 34.9516 31.4765 34.9222 31.4679C34.8633 31.4506 34.7756 31.4235 34.6657 31.3855C34.4456 31.3093 34.1393 31.1902 33.7992 31.0201C33.1112 30.6761 32.325 30.1435 31.8114 29.3731L30.9793 29.9278Z" fill="white"/>
</svg>
