<svg width="68" height="68" viewBox="0 0 68 68" fill="none" xmlns="http://www.w3.org/2000/svg">
<circle cx="34" cy="34" r="33" stroke="#A67DB6" stroke-width="2"/>
<path fill-rule="evenodd" clip-rule="evenodd" d="M33.9999 32C38.4182 32 41.9999 28.4183 41.9999 24C41.9999 19.5817 38.4182 16 33.9999 16C29.5816 16 25.9999 19.5817 25.9999 24C25.9999 28.4183 29.5816 32 33.9999 32ZM26.3522 43.3745L26.3307 52.4518C28.7954 53.02 31.3627 53.3203 34 53.3203C36.9139 53.3203 39.7422 52.9537 42.4413 52.2642L42.4202 43.3745C42.4995 43.4018 48.0757 41.8434 52.357 40.6404C53.5991 40.285 54.6298 39.4101 55.1847 38.2345C55.7397 37.0588 55.7926 35.6645 55.2904 34.4615L51.2206 24.3456C49.5821 20.2445 43.5037 23.0059 45.1687 26.9702L48.0493 33.9147L42.1295 35.2817H26.6694L20.7496 33.9147L23.6302 26.9702C25.2687 22.9785 19.2168 20.2445 17.5519 24.3182L13.482 34.4342C12.9799 35.6645 13.0327 37.0315 13.5877 38.2071C14.1427 39.3828 15.1734 40.285 16.4155 40.6131C20.6967 41.8161 26.273 43.3745 26.3522 43.3745Z" fill="#95539C"/>
</svg>
