<svg width="68" height="68" viewBox="0 0 68 68" fill="none" xmlns="http://www.w3.org/2000/svg">
<circle cx="34" cy="34" r="33" stroke="#A67DB6" stroke-width="2"/>
<path fill-rule="evenodd" clip-rule="evenodd" d="M20.2274 23.1875C18.0183 23.1875 16.2274 24.9784 16.2274 27.1875V27.8242H14.3638C13.2592 27.8242 12.3638 28.7197 12.3638 29.8242V38.9606C12.3638 40.0652 13.2592 40.9606 14.3638 40.9606H16.2274V41.5966C16.2274 43.8057 18.0183 45.5966 20.2274 45.5966H47.7729C49.982 45.5966 51.7729 43.8057 51.7729 41.5966V40.9606H53.6365C54.7411 40.9606 55.6365 40.0652 55.6365 38.9606V29.8242C55.6365 28.7196 54.7411 27.8242 53.6365 27.8242H51.7729V27.1875C51.7729 24.9784 49.982 23.1875 47.7729 23.1875H20.2274Z" fill="#95539C"/>
<rect x="43.2729" y="27.8203" width="4.63636" height="13.9091" fill="#F8F8F8"/>
<rect x="37.0911" y="27.8203" width="4.63636" height="13.9091" fill="#F8F8F8"/>
</svg>
