<svg width="68" height="68" viewBox="0 0 68 68" fill="none" xmlns="http://www.w3.org/2000/svg">
<circle cx="34" cy="34" r="33" stroke="#A67DB6" stroke-width="2"/>
<path d="M33.75 14L33.75 53.5" stroke="#95539C" stroke-width="2" stroke-linecap="round"/>
<path d="M29.592 18.1562L33.7499 22.3141L37.9078 18.1562" stroke="#95539C" stroke-width="2" stroke-linecap="round"/>
<path d="M29.592 49.3438L33.7499 45.1859L37.9078 49.3438" stroke="#95539C" stroke-width="2" stroke-linecap="round"/>
<path d="M53.5 33.7422L14 33.7422" stroke="#95539C" stroke-width="2" stroke-linecap="round"/>
<path d="M49.342 29.5859L45.1841 33.7438L49.342 37.9017" stroke="#95539C" stroke-width="2" stroke-linecap="round"/>
<path d="M18.158 29.5859L22.3159 33.7438L18.158 37.9017" stroke="#95539C" stroke-width="2" stroke-linecap="round"/>
<path d="M43.3052 43.3125L24.1947 24.202" stroke="#95539C" stroke-width="2" stroke-linecap="round"/>
<path d="M44.0403 38.1641H38.1601V44.0442" stroke="#95539C" stroke-width="2" stroke-linecap="round"/>
<path d="M29.3398 23.4609V29.3411H23.4597" stroke="#95539C" stroke-width="2" stroke-linecap="round"/>
<path d="M24.1948 43.3125L43.3053 24.202" stroke="#95539C" stroke-width="2" stroke-linecap="round"/>
<path d="M29.3398 44.0469L29.3398 38.1667L23.4597 38.1667" stroke="#95539C" stroke-width="2" stroke-linecap="round"/>
<path d="M44.0403 29.3438L38.1601 29.3438L38.1601 23.4636" stroke="#95539C" stroke-width="2" stroke-linecap="round"/>
</svg>
