<svg width="68" height="68" viewBox="0 0 68 68" fill="none" xmlns="http://www.w3.org/2000/svg">
<circle cx="34" cy="34" r="33" stroke="#A67DB6" stroke-width="2"/>
<path d="M50.3 38C50.3 38.712 49.9421 39.4611 49.1438 40.2161C48.344 40.9725 47.149 41.686 45.6144 42.2998C42.549 43.526 38.2662 44.3 33.5 44.3C28.7338 44.3 24.451 43.526 21.3856 42.2998C19.851 41.686 18.656 40.9725 17.8562 40.2161C17.0579 39.4611 16.7 38.712 16.7 38C16.7 37.288 17.0579 36.5389 17.8562 35.7839C18.656 35.0275 19.851 34.314 21.3856 33.7002C24.451 32.474 28.7338 31.7 33.5 31.7C38.2662 31.7 42.549 32.474 45.6144 33.7002C47.149 34.314 48.344 35.0275 49.1438 35.7839C49.9421 36.5389 50.3 37.288 50.3 38Z" fill="#95539C" stroke="#95539C" stroke-width="1.4"/>
<rect x="16" y="31" width="35" height="7" fill="#95539C"/>
<path d="M50.3 31C50.3 31.712 49.9421 32.4611 49.1438 33.2161C48.344 33.9725 47.149 34.686 45.6144 35.2998C42.549 36.526 38.2662 37.3 33.5 37.3C28.7338 37.3 24.451 36.526 21.3856 35.2998C19.851 34.686 18.656 33.9725 17.8562 33.2161C17.0579 32.4611 16.7 31.712 16.7 31C16.7 30.288 17.0579 29.5389 17.8562 28.7839C18.656 28.0275 19.851 27.314 21.3856 26.7002C24.451 25.474 28.7338 24.7 33.5 24.7C38.2662 24.7 42.549 25.474 45.6144 26.7002C47.149 27.314 48.344 28.0275 49.1438 28.7839C49.9421 29.5389 50.3 30.288 50.3 31Z" fill="white" stroke="#95539C" stroke-width="1.4"/>
<path d="M23 31H43" stroke="#95539C" stroke-width="1.4" stroke-linecap="round"/>
<path d="M10 56L20 46" stroke="#A67DB6" stroke-width="2" stroke-linecap="round"/>
<path d="M46 20L56 10" stroke="#A67DB6" stroke-width="2" stroke-linecap="round"/>
</svg>
