<svg width="68" height="68" viewBox="0 0 68 68" fill="none" xmlns="http://www.w3.org/2000/svg">
<circle cx="34" cy="34" r="33" stroke="#A67DB6" stroke-width="2"/>
<path d="M53.0097 18.2102C53.1076 18.7126 52.8924 19.4127 52.0949 20.3238C51.3118 21.2185 50.0698 22.1917 48.4283 23.1747C45.1531 25.136 40.431 27.0517 35.0418 28.4349C29.6525 29.818 24.6691 30.3933 20.978 30.2199C19.1279 30.1331 17.643 29.8598 16.6023 29.4332C15.5425 28.9987 15.088 28.4705 14.9901 27.9681C14.8922 27.4658 15.1073 26.7657 15.9048 25.8545C16.688 24.9599 17.9299 23.9867 19.5715 23.0036C22.8466 21.0424 27.5687 19.1267 32.958 17.7435C38.3472 16.3603 43.3306 15.785 47.0218 15.9584C48.8718 16.0453 50.3568 16.3186 51.3974 16.7452C52.4572 17.1796 52.9117 17.7079 53.0097 18.2102Z" stroke="#A67DB6" stroke-width="1.4"/>
<path d="M14.9903 18.2102C14.8924 18.7126 15.1076 19.4127 15.9051 20.3238C16.6882 21.2185 17.9302 22.1917 19.5717 23.1747C22.8469 25.136 27.569 27.0517 32.9582 28.4349C38.3475 29.818 43.3309 30.3933 47.022 30.2199C48.8721 30.1331 50.357 29.8598 51.3977 29.4332C52.4575 28.9987 52.912 28.4705 53.0099 27.9681C53.1078 27.4658 52.8927 26.7657 52.0952 25.8545C51.312 24.9599 50.0701 23.9867 48.4285 23.0036C45.1534 21.0424 40.4313 19.1267 35.042 17.7435C29.6528 16.3603 24.6694 15.785 20.9782 15.9584C19.1282 16.0453 17.6432 16.3186 16.6026 16.7452C15.5428 17.1796 15.0883 17.7079 14.9903 18.2102Z" stroke="#A67DB6" stroke-width="1.4"/>
<ellipse cx="34" cy="38" rx="14" ry="16" fill="#95539C"/>
<circle cx="52.9318" cy="16.9318" r="1.93182" fill="#95539C"/>
<circle cx="14.9318" cy="27.9318" r="1.93182" fill="#95539C"/>
<path d="M29 44C29 44 31.2386 42 34 42C36.7614 42 39 44 39 44" stroke="#F8F8F8" stroke-width="2" stroke-linecap="round" stroke-linejoin="round"/>
</svg>
