<svg width="68" height="68" viewBox="0 0 68 68" fill="none" xmlns="http://www.w3.org/2000/svg">
<circle cx="34" cy="34" r="33" stroke="#A67DB6" stroke-width="2"/>
<path fill-rule="evenodd" clip-rule="evenodd" d="M27.3216 24.0258C23.2767 23.7739 17.5794 29.5994 15 32.8229C15.0927 32.8445 15.195 32.8652 15.3071 32.8839C15.9254 32.987 16.8243 33.0272 18.0223 32.8574C19.2234 32.6871 20.1148 32.3525 21.0791 31.9905L21.0792 31.9905L21.0793 31.9904C21.3015 31.907 21.5277 31.8221 21.7624 31.7375C23.0197 31.2839 24.3928 30.8981 26.3589 31.0242C28.3543 31.1522 29.6398 32.0378 30.6797 32.7543L30.821 32.8515C31.8793 33.5779 32.691 34.0793 34.0211 33.9897C35.4803 33.8915 36.7897 33.252 38.1816 32.5313C38.2564 32.4925 38.332 32.4532 38.4083 32.4135L38.4097 32.4128L38.4112 32.412C39.6538 31.7655 41.0826 31.0222 42.5593 31.0222C44.0127 31.0222 45.5608 31.5354 46.8928 31.977L46.9189 31.9856C48.3493 32.4598 49.5329 32.8475 50.5221 32.8475C51.5522 32.8475 52.5267 32.7526 53.2768 32.646C50.103 29.452 43.9479 23.5623 40.5391 24.0258C38.4714 24.307 37.4903 24.6262 36.7164 24.878C35.9169 25.1381 35.3386 25.3263 34.0119 25.3263C32.8805 25.3263 32.4539 25.1431 31.9088 24.9091C31.1959 24.6031 30.2805 24.2101 27.3216 24.0258ZM34.0119 45C25.5709 45 19.1109 39.1186 15.9914 34.9617C16.6521 34.9928 17.422 34.9625 18.303 34.8376C19.7406 34.6338 20.8625 34.2108 21.8399 33.8423C22.0462 33.7645 22.246 33.6892 22.441 33.6188C23.5556 33.2168 24.6391 32.918 26.2309 33.0201C27.0206 33.0708 27.6435 33.277 28.2204 33.5735L25.9755 36.3746C25.6301 36.8056 25.6995 37.4349 26.1305 37.7803C26.5614 38.1257 27.1908 38.0563 27.5362 37.6254L29.9164 34.6555C30.7973 35.2517 31.8244 35.8692 33.2559 35.9818V40.5C33.2559 41.0523 33.7036 41.5 34.2559 41.5C34.8081 41.5 35.2559 41.0523 35.2559 40.5V35.8335C36.3032 35.6171 37.2588 35.2199 38.1185 34.8038L40.3798 37.6254C40.7252 38.0563 41.3546 38.1257 41.7855 37.7803C42.2165 37.4349 42.2859 36.8056 41.9405 36.3746L39.9394 33.8777C40.9744 33.3588 41.784 33.0222 42.5593 33.0222C43.6377 33.0222 44.8744 33.4149 46.2896 33.884L46.4395 33.9338C47.7269 34.3612 49.1914 34.8475 50.5221 34.8475C51.264 34.8475 51.9795 34.8034 52.6206 34.7393C49.3959 38.9053 42.6047 45 34.0119 45Z" fill="#95539C"/>
<path d="M15 32.8229L14.6096 32.5105L14.1143 33.1295L14.8863 33.3098L15 32.8229ZM27.3216 24.0258L27.3526 23.5268L27.3216 24.0258ZM15.3071 32.8839L15.3893 32.3907H15.3893L15.3071 32.8839ZM18.0223 32.8574L17.9521 32.3623L18.0223 32.8574ZM21.0791 31.9905L21.2548 32.4586L21.2574 32.4576L21.0791 31.9905ZM21.0792 31.9905L20.9055 31.5216L20.9008 31.5234L21.0792 31.9905ZM21.0793 31.9904L21.2529 32.4593L21.255 32.4585L21.0793 31.9904ZM21.7624 31.7375L21.932 32.2078H21.932L21.7624 31.7375ZM26.3589 31.0242L26.3909 30.5253L26.3589 31.0242ZM30.6797 32.7543L30.3961 33.166L30.3963 33.1662L30.6797 32.7543ZM30.821 32.8515L30.5376 33.2634L30.538 33.2637L30.821 32.8515ZM34.0211 33.9897L34.0547 34.4886L34.0211 33.9897ZM38.1816 32.5313L38.4115 32.9753L38.4115 32.9753L38.1816 32.5313ZM38.4083 32.4135L38.1775 31.97L38.1775 31.97L38.4083 32.4135ZM38.4097 32.4128L38.1789 31.9692L38.1789 31.9692L38.4097 32.4128ZM38.4112 32.412L38.642 32.8556L38.642 32.8556L38.4112 32.412ZM46.8928 31.977L47.0502 31.5024V31.5024L46.8928 31.977ZM46.9189 31.9856L46.7616 32.4602L46.7616 32.4602L46.9189 31.9856ZM53.2768 32.646L53.3472 33.141L54.3341 33.0006L53.6315 32.2935L53.2768 32.646ZM40.5391 24.0258L40.4717 23.5304V23.5304L40.5391 24.0258ZM36.7164 24.878L36.8711 25.3535L36.7164 24.878ZM31.9088 24.9091L31.7115 25.3686V25.3686L31.9088 24.9091ZM15.9914 34.9617L16.0148 34.4623L14.954 34.4124L15.5915 35.2618L15.9914 34.9617ZM18.303 34.8376L18.2328 34.3425L18.303 34.8376ZM21.8399 33.8423L22.0163 34.3101L22.0163 34.3101L21.8399 33.8423ZM22.441 33.6188L22.2713 33.1485L22.2713 33.1485L22.441 33.6188ZM26.2309 33.0201L26.2629 32.5212L26.2309 33.0201ZM28.2204 33.5735L28.6106 33.8862L28.9934 33.4085L28.449 33.1288L28.2204 33.5735ZM25.9755 36.3746L26.3657 36.6873V36.6873L25.9755 36.3746ZM26.1305 37.7803L26.4432 37.3902H26.4432L26.1305 37.7803ZM27.5362 37.6254L27.146 37.3127L27.5362 37.6254ZM29.9164 34.6555L30.1966 34.2414L29.8146 33.9829L29.5262 34.3428L29.9164 34.6555ZM33.2559 35.9818H33.7559V35.5196L33.2951 35.4833L33.2559 35.9818ZM35.2559 35.8335L35.1547 35.3439L34.7559 35.4263V35.8335H35.2559ZM38.1185 34.8038L38.5087 34.4911L38.2595 34.1801L37.9007 34.3537L38.1185 34.8038ZM40.3798 37.6254L39.9897 37.9381V37.9381L40.3798 37.6254ZM41.7855 37.7803L41.4728 37.3902L41.4728 37.3902L41.7855 37.7803ZM41.9405 36.3746L41.5503 36.6873V36.6873L41.9405 36.3746ZM39.9394 33.8777L39.7153 33.4307L39.1625 33.7079L39.5492 34.1904L39.9394 33.8777ZM46.2896 33.884L46.4471 33.4095L46.4469 33.4094L46.2896 33.884ZM46.4395 33.9338L46.5971 33.4592L46.597 33.4592L46.4395 33.9338ZM52.6206 34.7393L53.016 35.0454L53.7274 34.1263L52.5709 34.2418L52.6206 34.7393ZM15.3904 33.1353C16.6644 31.5432 18.7088 29.3088 20.9263 27.5093C22.0349 26.6097 23.1747 25.8286 24.2729 25.2896C25.3762 24.7482 26.4003 24.4694 27.2905 24.5249L27.3526 23.5268C26.2204 23.4563 25.0155 23.8112 23.8323 24.3919C22.6441 24.9751 21.4399 25.8047 20.2962 26.7328C18.0089 28.5889 15.9151 30.879 14.6096 32.5105L15.3904 33.1353ZM15.3893 32.3907C15.2875 32.3737 15.1957 32.3551 15.1137 32.336L14.8863 33.3098C14.9897 33.3339 15.1025 33.3567 15.2249 33.3771L15.3893 32.3907ZM17.9521 32.3623C16.799 32.5258 15.9517 32.4845 15.3893 32.3907L15.2249 33.3771C15.899 33.4895 16.8497 33.5286 18.0924 33.3524L17.9521 32.3623ZM20.9034 31.5224C19.9387 31.8845 19.0932 32.2006 17.9521 32.3623L18.0924 33.3524C19.3535 33.1737 20.2908 32.8205 21.2548 32.4586L20.9034 31.5224ZM20.9008 31.5234L20.9007 31.5234L21.2574 32.4576L21.2575 32.4576L20.9008 31.5234ZM20.9056 31.5216L20.9055 31.5216L21.2528 32.4594L21.2529 32.4593L20.9056 31.5216ZM21.5927 31.2671C21.3545 31.3531 21.1254 31.4391 20.9036 31.5223L21.255 32.4585C21.4777 32.375 21.7008 32.2912 21.932 32.2078L21.5927 31.2671ZM26.3909 30.5253C24.3312 30.3932 22.8857 30.8007 21.5927 31.2671L21.932 32.2078C23.1536 31.7671 24.4543 31.4031 26.3269 31.5232L26.3909 30.5253ZM30.9634 32.3425C29.9184 31.6226 28.5342 30.6627 26.3909 30.5253L26.3269 31.5232C28.1744 31.6417 29.3612 32.4531 30.3961 33.166L30.9634 32.3425ZM31.1044 32.4396L30.9632 32.3424L30.3963 33.1662L30.5376 33.2634L31.1044 32.4396ZM33.9875 33.4909C32.8398 33.5682 32.1518 33.1585 31.1039 32.4392L30.538 33.2637C31.6067 33.9972 32.5422 34.5905 34.0547 34.4886L33.9875 33.4909ZM37.9517 32.0873C36.5514 32.8123 35.3289 33.4005 33.9875 33.4909L34.0547 34.4886C35.6317 34.3824 37.028 33.6917 38.4115 32.9753L37.9517 32.0873ZM38.1775 31.97C38.1012 32.0097 38.026 32.0488 37.9517 32.0873L38.4115 32.9753C38.4869 32.9363 38.5628 32.8967 38.639 32.8571L38.1775 31.97ZM38.1789 31.9692L38.1775 31.97L38.639 32.8571L38.6404 32.8564L38.1789 31.9692ZM38.1805 31.9684L38.1789 31.9692L38.6404 32.8564L38.642 32.8556L38.1805 31.9684ZM42.5593 30.5222C40.9385 30.5222 39.3986 31.3347 38.1805 31.9684L38.642 32.8556C39.9091 32.1963 41.2268 31.5222 42.5593 31.5222V30.5222ZM47.0502 31.5024C45.7357 31.0666 44.1083 30.5222 42.5593 30.5222V31.5222C43.9172 31.5222 45.3859 32.0042 46.7355 32.4516L47.0502 31.5024ZM47.0763 31.511L47.0502 31.5024L46.7355 32.4516L46.7616 32.4602L47.0763 31.511ZM50.5221 32.3475C49.6316 32.3475 48.5348 31.9945 47.0762 31.511L46.7616 32.4602C48.1637 32.925 49.4342 33.3475 50.5221 33.3475V32.3475ZM53.2064 32.1509C52.4735 32.2551 51.5233 32.3475 50.5221 32.3475V33.3475C51.5812 33.3475 52.5799 33.2501 53.3472 33.141L53.2064 32.1509ZM40.6065 24.5213C41.312 24.4253 42.2269 24.6555 43.3028 25.1778C44.3662 25.694 45.5242 26.4643 46.6915 27.3608C49.0251 29.153 51.3377 31.4039 52.9221 32.9984L53.6315 32.2935C52.0421 30.694 49.6903 28.403 47.3006 26.5678C46.1064 25.6505 44.8881 24.8357 43.7395 24.2782C42.6034 23.7267 41.4706 23.3945 40.4717 23.5304L40.6065 24.5213ZM36.8711 25.3535C37.6264 25.1077 38.5772 24.7972 40.6065 24.5213L40.4717 23.5304C38.3657 23.8168 37.3542 24.1447 36.5617 24.4025L36.8711 25.3535ZM34.0119 25.8263C35.4117 25.8263 36.046 25.6219 36.8711 25.3535L36.5617 24.4025C35.7879 24.6543 35.2654 24.8263 34.0119 24.8263V25.8263ZM31.7115 25.3686C31.9824 25.4848 32.2617 25.6057 32.625 25.6919C32.9891 25.7783 33.4192 25.8263 34.0119 25.8263V24.8263C33.4732 24.8263 33.1243 24.7826 32.8559 24.719C32.5869 24.6551 32.3803 24.5674 32.106 24.4497L31.7115 25.3686ZM27.2905 24.5249C30.1962 24.7058 31.055 25.0867 31.7115 25.3686L32.106 24.4497C31.3368 24.1195 30.3647 23.7144 27.3526 23.5268L27.2905 24.5249ZM15.5915 35.2618C18.7492 39.4697 25.339 45.5 34.0119 45.5V44.5C25.8028 44.5 19.4726 38.7675 16.3913 34.6616L15.5915 35.2618ZM18.2328 34.3425C17.3807 34.4633 16.6422 34.4918 16.0148 34.4623L15.9679 35.4612C16.662 35.4938 17.4633 35.4616 18.3732 35.3326L18.2328 34.3425ZM21.6635 33.3744C20.6866 33.7427 19.6104 34.1472 18.2328 34.3425L18.3732 35.3326C19.8708 35.1203 21.0385 34.6788 22.0163 34.3101L21.6635 33.3744ZM22.2713 33.1485C22.0724 33.2202 21.8691 33.2969 21.6635 33.3744L22.0163 34.3101C22.2232 34.2321 22.4196 34.1581 22.6107 34.0891L22.2713 33.1485ZM26.2629 32.5212C24.5775 32.4131 23.4216 32.7336 22.2713 33.1485L22.6107 34.0891C23.6895 33.7 24.7007 33.423 26.1989 33.5191L26.2629 32.5212ZM28.449 33.1288C27.8194 32.8053 27.1301 32.5768 26.2629 32.5212L26.1989 33.5191C26.9111 33.5648 27.4675 33.7488 27.9919 34.0182L28.449 33.1288ZM26.3657 36.6873L28.6106 33.8862L27.8303 33.2608L25.5854 36.0619L26.3657 36.6873ZM26.4432 37.3902C26.2277 37.2175 26.193 36.9028 26.3657 36.6873L25.5854 36.0619C25.0673 36.7084 25.1714 37.6524 25.8178 38.1705L26.4432 37.3902ZM27.146 37.3127C26.9733 37.5282 26.6587 37.5629 26.4432 37.3902L25.8178 38.1705C26.4642 38.6886 27.4083 38.5845 27.9263 37.9381L27.146 37.3127ZM29.5262 34.3428L27.146 37.3127L27.9263 37.9381L30.3065 34.9682L29.5262 34.3428ZM33.2951 35.4833C31.9974 35.3812 31.0599 34.8257 30.1966 34.2414L29.6361 35.0696C30.5346 35.6777 31.6513 36.3571 33.2166 36.4802L33.2951 35.4833ZM33.7559 40.5V35.9818H32.7559V40.5H33.7559ZM34.2559 41C33.9797 41 33.7559 40.7761 33.7559 40.5H32.7559C32.7559 41.3284 33.4274 42 34.2559 42V41ZM34.7559 40.5C34.7559 40.7761 34.532 41 34.2559 41V42C35.0843 42 35.7559 41.3284 35.7559 40.5H34.7559ZM34.7559 35.8335V40.5H35.7559V35.8335H34.7559ZM37.9007 34.3537C37.0574 34.7618 36.1441 35.1394 35.1547 35.3439L35.357 36.3232C36.4623 36.0948 37.4601 35.6779 38.3363 35.2539L37.9007 34.3537ZM37.7284 35.1165L39.9897 37.9381L40.77 37.3127L38.5087 34.4911L37.7284 35.1165ZM39.9897 37.9381C40.5078 38.5845 41.4518 38.6886 42.0982 38.1705L41.4728 37.3902C41.2574 37.5629 40.9427 37.5282 40.77 37.3127L39.9897 37.9381ZM42.0982 38.1705C42.7447 37.6524 42.8487 36.7084 42.3306 36.0619L41.5503 36.6873C41.723 36.9028 41.6883 37.2175 41.4728 37.3902L42.0982 38.1705ZM42.3306 36.0619L40.3295 33.565L39.5492 34.1904L41.5503 36.6873L42.3306 36.0619ZM42.5593 32.5222C41.6515 32.5222 40.7439 32.915 39.7153 33.4307L40.1635 34.3247C41.2049 33.8025 41.9166 33.5222 42.5593 33.5222V32.5222ZM46.4469 33.4094C45.052 32.947 43.7342 32.5222 42.5593 32.5222V33.5222C43.5413 33.5222 44.6967 33.8827 46.1323 34.3586L46.4469 33.4094ZM46.597 33.4592L46.4471 33.4095L46.1321 34.3586L46.282 34.4083L46.597 33.4592ZM50.5221 34.3475C49.2878 34.3475 47.9042 33.8933 46.5971 33.4592L46.282 34.4083C47.5495 34.8292 49.095 35.3475 50.5221 35.3475V34.3475ZM52.5709 34.2418C51.9433 34.3045 51.2447 34.3475 50.5221 34.3475V35.3475C51.2833 35.3475 52.0156 35.3023 52.6703 35.2369L52.5709 34.2418ZM34.0119 45.5C42.8352 45.5 49.7554 39.2577 53.016 35.0454L52.2252 34.4333C49.0363 38.553 42.3742 44.5 34.0119 44.5V45.5Z" fill="#95539C"/>
</svg>
