<svg width="69" height="68" viewBox="0 0 69 68" fill="none" xmlns="http://www.w3.org/2000/svg">
<circle cx="34.125" cy="34" r="33" stroke="#A67DB6" stroke-width="2"/>
<path d="M44.125 54.5C44.125 51.7152 43.0188 49.0445 41.0496 47.0754C39.0805 45.1062 36.4098 44 33.625 44C30.8402 44 28.1695 45.1062 26.2004 47.0754C24.2312 49.0445 23.125 51.7152 23.125 54.5L33.625 54.5H44.125Z" fill="#95539C"/>
<rect x="16.125" y="30" width="35" height="12" rx="6" fill="#95539C"/>
<path d="M21.125 26.5C21.125 19.5964 26.7214 14 33.625 14C40.5286 14 46.125 19.5964 46.125 26.5V33H21.125V26.5Z" fill="#95539C"/>
<path d="M24.125 28.5385C24.125 28.5385 28.7564 29.1074 30.875 27.6154C32.6467 26.3677 33.625 23 33.625 23C33.625 23 34.6033 26.3677 36.375 27.6154C38.4936 29.1074 43.125 28.5385 43.125 28.5385V37.5C43.125 42.7467 38.8717 47 33.625 47C28.3783 47 24.125 42.7467 24.125 37.5V28.5385Z" fill="white"/>
<path d="M12.3616 27.4628C12.2392 26.5242 13.0061 25.7082 13.9505 25.7723L15.9854 25.9104C16.6988 25.9588 17.2789 26.504 17.3713 27.213L17.4412 27.749C17.5336 28.4581 17.1128 29.1338 16.4357 29.3635L14.5042 30.0187C13.6078 30.3228 12.6573 29.7307 12.5349 28.7921L12.3616 27.4628Z" fill="#95539C"/>
<path d="M13.5353 21.8144C13.6575 20.8757 14.6079 20.2836 15.5043 20.5875L17.4359 21.2423C18.1131 21.4719 18.5341 22.1475 18.4418 22.8566L18.372 23.3927C18.2797 24.1017 17.6997 24.647 16.9863 24.6955L14.9514 24.834C14.007 24.8982 13.24 24.0824 13.3622 23.1438L13.5353 21.8144Z" fill="#95539C"/>
<path d="M17.5078 16.2071C18.2191 15.5826 19.324 15.7651 19.7968 16.5851L20.8156 18.352C21.1728 18.9714 21.0431 19.7568 20.5057 20.2286L20.0994 20.5852C19.5621 21.0569 18.7665 21.0837 18.1986 20.6493L16.5785 19.4102C15.8267 18.8351 15.7889 17.7159 16.5003 17.0915L17.5078 16.2071Z" fill="#95539C"/>
<path d="M54.9451 27.4628C55.0675 26.5242 54.3005 25.7082 53.3561 25.7723L51.3212 25.9104C50.6078 25.9588 50.0278 26.504 49.9353 27.213L49.8654 27.749C49.773 28.4581 50.1939 29.1338 50.871 29.3635L52.8025 30.0187C53.6989 30.3228 54.6494 29.7307 54.7718 28.7921L54.9451 27.4628Z" fill="#95539C"/>
<path d="M53.7714 21.8144C53.6492 20.8757 52.6988 20.2836 51.8023 20.5875L49.8707 21.2423C49.1935 21.4719 48.7726 22.1475 48.8649 22.8566L48.9347 23.3927C49.027 24.1017 49.6069 24.647 50.3203 24.6955L52.3552 24.834C53.2996 24.8982 54.0667 24.0824 53.9445 23.1438L53.7714 21.8144Z" fill="#95539C"/>
<path d="M49.7989 16.2071C49.0875 15.5826 47.9827 15.7651 47.5099 16.5851L46.491 18.352C46.1339 18.9714 46.2636 19.7568 46.8009 20.2286L47.2072 20.5852C47.7445 21.0569 48.5401 21.0837 49.1081 20.6493L50.7281 19.4102C51.48 18.8351 51.5177 17.7159 50.8064 17.0915L49.7989 16.2071Z" fill="#95539C"/>
<rect x="29.4854" y="32.2148" width="1" height="3" rx="0.5" fill="#95539C"/>
<rect x="32.2822" y="33.1719" width="1" height="4.24319" rx="0.5" transform="rotate(120.77 32.2822 33.1719)" fill="#95539C"/>
<rect width="1" height="3" rx="0.5" transform="matrix(-1 0 0 1 37.9229 32.2148)" fill="#95539C"/>
<rect width="1" height="4.24319" rx="0.5" transform="matrix(0.511599 0.859224 0.859224 -0.511599 35.126 33.1719)" fill="#95539C"/>
<rect x="30.125" y="38" width="7" height="3" rx="1.5" fill="#95539C"/>
</svg>
