<svg width="69" height="68" viewBox="0 0 69 68" fill="none" xmlns="http://www.w3.org/2000/svg">
<circle cx="34.125" cy="34" r="33" stroke="#A67DB6" stroke-width="2"/>
<path fill-rule="evenodd" clip-rule="evenodd" d="M12.2762 30.5238C15.1818 26.3634 21.7209 17 27.125 17C30.6382 17 31.4793 17.5844 32.1769 18.069C32.6711 18.4124 33.0933 18.7057 34.3426 18.7057C35.6456 18.7057 36.2481 18.3992 36.9371 18.0486C37.8411 17.5886 38.8942 17.0528 41.874 17.0337C46.0738 17.0067 51.1034 23.2948 54.715 27.81C55.6189 28.9401 56.434 29.9592 57.125 30.7404C54.238 35.8271 45.6396 44.0005 34.3426 44.0005C23.0455 44.0005 14.8237 35.8271 12.125 30.7404C12.1743 30.6699 12.2247 30.5977 12.2762 30.5238ZM17.6783 30.0035C20.0616 27.2011 24.4848 22 28.7917 22C30.943 22 31.7097 22.3383 32.3826 22.6351C32.9086 22.8672 33.3772 23.0739 34.4053 23.0739C35.4118 23.0739 35.8811 22.8758 36.4127 22.6514C37.1186 22.3534 37.9342 22.0091 40.2631 22.0212C43.5357 22.0382 47.4587 25.9948 50.2694 28.8295C50.965 29.531 51.5924 30.1638 52.125 30.6512C49.8795 33.8539 43.1919 39 34.4053 39C25.6187 39 19.224 33.8539 17.125 30.6512C17.2944 30.455 17.4792 30.2376 17.6783 30.0035Z" fill="#95539C"/>
<path d="M24.125 30.9999C24.125 30.9999 25.125 28.0007 28.125 28C32.125 27.9991 31.625 29.5 34.125 29.5C36.625 29.5 36.125 27.9999 40.125 28C43.125 28.0001 44.125 30.9999 44.125 30.9999V41.9999C44.125 47.5228 39.6478 51.9999 34.125 51.9999C28.6022 51.9999 24.125 47.5228 24.125 41.9999V30.9999Z" fill="#95539C"/>
<path fill-rule="evenodd" clip-rule="evenodd" d="M34.125 39C35.2296 39 36.125 38.1046 36.125 37C36.125 35.8954 35.2296 35 34.125 35C33.0204 35 32.125 35.8954 32.125 37C32.125 38.1046 33.0204 39 34.125 39ZM42.125 39C42.125 40.1046 41.2296 41 40.125 41C39.0204 41 38.125 40.1046 38.125 39C38.125 37.8954 39.0204 37 40.125 37C41.2296 37 42.125 37.8954 42.125 39ZM38.125 45C38.125 46.1046 37.2296 47 36.125 47C35.0204 47 34.125 46.1046 34.125 45C34.125 43.8954 35.0204 43 36.125 43C37.2296 43 38.125 43.8954 38.125 45Z" fill="white"/>
<path fill-rule="evenodd" clip-rule="evenodd" d="M19.7083 43.8891C19.9227 43.5675 19.8358 43.1329 19.5141 42.9184C19.1925 42.704 18.7579 42.7909 18.5434 43.1126L18.0331 43.878C17.9492 44.0039 17.7846 44.0476 17.6493 43.98L16.958 43.6343C16.4123 43.3615 15.7623 43.4019 15.2547 43.7403L14.2376 44.4184C13.9159 44.6329 13.829 45.0675 14.0434 45.3891C14.2579 45.7108 14.6925 45.7977 15.0141 45.5833L16.0313 44.9052C16.1209 44.8455 16.2356 44.8383 16.3319 44.8865L17.0232 45.2322C17.7901 45.6156 18.7224 45.368 19.198 44.6546L19.7083 43.8891ZM20.9076 47.4316C20.9974 47.0556 20.7655 46.6779 20.3895 46.588C20.0135 46.4981 19.6358 46.7301 19.5459 47.1061L19.332 48.0009C19.2968 48.148 19.1576 48.2459 19.0072 48.2293L18.239 48.1442C17.6326 48.0771 17.0368 48.34 16.6776 48.8331L15.958 49.8213C15.7304 50.1338 15.7992 50.5716 16.1117 50.7992C16.4243 51.0268 16.8621 50.958 17.0897 50.6455L17.8093 49.6573C17.8727 49.5703 17.9779 49.5239 18.0849 49.5357L18.8531 49.6208C19.7053 49.7152 20.4943 49.1602 20.6937 48.3264L20.9076 47.4316ZM23.5427 49.3046C23.9275 49.2671 24.2698 49.5487 24.3073 49.9334L24.3964 50.8491C24.4795 51.7024 23.9142 52.4841 23.0778 52.6723L22.3237 52.8421C22.2186 52.8657 22.1343 52.9438 22.1027 53.0468L21.7441 54.2154C21.6307 54.585 21.2392 54.7927 20.8696 54.6793C20.5 54.5659 20.2923 54.1743 20.4057 53.8047L20.7643 52.6361C20.9433 52.0528 21.4211 51.6102 22.0162 51.4763L22.7703 51.3065C22.9179 51.2733 23.0177 51.1354 23.003 50.9848L22.9139 50.0691C22.8764 49.6843 23.158 49.342 23.5427 49.3046ZM47.977 43.8891C47.7626 43.5675 47.8495 43.1329 48.1712 42.9184C48.4928 42.704 48.9274 42.7909 49.1419 43.1126L49.6522 43.878C49.7361 44.0039 49.9007 44.0476 50.036 43.98L50.7273 43.6343C51.273 43.3615 51.923 43.4019 52.4306 43.7403L53.4477 44.4184C53.7694 44.6329 53.8563 45.0675 53.6419 45.3891C53.4274 45.7108 52.9928 45.7977 52.6712 45.5833L51.654 44.9052C51.5644 44.8455 51.4497 44.8383 51.3534 44.8865L50.6621 45.2322C49.8952 45.6156 48.9629 45.368 48.4873 44.6546L47.977 43.8891ZM47.2958 46.588C46.9198 46.6779 46.6879 47.0556 46.7777 47.4316L46.9916 48.3264C47.191 49.1602 47.98 49.7152 48.8322 49.6208L49.6004 49.5357C49.7074 49.5239 49.8126 49.5703 49.876 49.6573L50.5956 50.6455C50.8232 50.958 51.261 51.0268 51.5736 50.7992C51.8861 50.5716 51.9549 50.1338 51.7273 49.8213L51.0077 48.8331C50.6485 48.34 50.0527 48.0771 49.4463 48.1442L48.6781 48.2293C48.5277 48.2459 48.3885 48.148 48.3533 48.0009L48.1394 47.1061C48.0495 46.7301 47.6718 46.4981 47.2958 46.588ZM43.378 49.9334C43.4155 49.5487 43.7578 49.2671 44.1426 49.3046C44.5273 49.342 44.8089 49.6843 44.7714 50.0691L44.6823 50.9848C44.6676 51.1354 44.7674 51.2733 44.915 51.3065L45.6691 51.4763C46.2643 51.6102 46.742 52.0528 46.921 52.6361L47.2796 53.8047C47.393 54.1743 47.1853 54.5659 46.8157 54.6793C46.4461 54.7927 46.0546 54.585 45.9412 54.2154L45.5826 53.0468C45.551 52.9438 45.4667 52.8657 45.3616 52.8421L44.6075 52.6723C43.7711 52.4841 43.2058 51.7024 43.2889 50.8491L43.378 49.9334Z" fill="#95539C"/>
</svg>
