<svg width="69" height="68" viewBox="0 0 69 68" fill="none" xmlns="http://www.w3.org/2000/svg">
<circle cx="34.125" cy="34" r="33" stroke="#A67DB6" stroke-width="2"/>
<path d="M53.1347 18.2063C53.2326 18.7087 53.0174 19.4088 52.2199 20.3199C51.4368 21.2146 50.1948 22.1877 48.5533 23.1708C45.2781 25.1321 40.556 27.0478 35.1668 28.431C29.7775 29.8141 24.7941 30.3894 21.103 30.216C19.2529 30.1292 17.768 29.8558 16.7273 29.4292C15.6675 28.9948 15.213 28.4666 15.1151 27.9642C15.0172 27.4619 15.2323 26.7617 16.0298 25.8506C16.813 24.9559 18.0549 23.9828 19.6965 22.9997C22.9716 21.0385 27.6937 19.1227 33.083 17.7396C38.4722 16.3564 43.4556 15.7811 47.1468 15.9545C48.9968 16.0414 50.4818 16.3147 51.5224 16.7413C52.5822 17.1757 53.0367 17.704 53.1347 18.2063Z" stroke="#A67DB6" stroke-width="1.4"/>
<path d="M15.1153 18.2063C15.0174 18.7087 15.2326 19.4088 16.0301 20.3199C16.8132 21.2146 18.0552 22.1877 19.6967 23.1708C22.9719 25.1321 27.694 27.0478 33.0832 28.431C38.4725 29.8141 43.4559 30.3894 47.147 30.216C48.9971 30.1292 50.482 29.8558 51.5227 29.4292C52.5825 28.9948 53.037 28.4666 53.1349 27.9642C53.2328 27.4619 53.0177 26.7617 52.2202 25.8506C51.437 24.9559 50.1951 23.9828 48.5535 22.9997C45.2784 21.0385 40.5563 19.1227 35.167 17.7396C29.7778 16.3564 24.7944 15.7811 21.1032 15.9545C19.2532 16.0414 17.7682 16.3147 16.7276 16.7413C15.6678 17.1757 15.2133 17.704 15.1153 18.2063Z" stroke="#A67DB6" stroke-width="1.4"/>
<ellipse cx="34.125" cy="38" rx="14" ry="16" fill="#95539C"/>
<circle cx="53.0568" cy="16.9318" r="1.93182" fill="#95539C"/>
<circle cx="15.0568" cy="27.9318" r="1.93182" fill="#95539C"/>
<path d="M29.125 44C29.125 44 31.3636 42 34.125 42C36.8864 42 39.125 44 39.125 44" stroke="#F8F8F8" stroke-width="2" stroke-linecap="round" stroke-linejoin="round"/>
</svg>
