<svg width="69" height="68" viewBox="0 0 69 68" fill="none" xmlns="http://www.w3.org/2000/svg">
<circle cx="34.125" cy="34" r="33" stroke="#A67DB6" stroke-width="2"/>
<path fill-rule="evenodd" clip-rule="evenodd" d="M31.2533 33.5H18.125C17.0204 33.5 16.125 34.3954 16.125 35.5V43H51.625V35.5C51.625 34.3954 50.7296 33.5 49.625 33.5H35.4967C35.0153 33.5 34.625 33.8903 34.625 34.3717C34.625 34.7469 34.8749 35.0752 35.1678 35.3097C35.6338 35.683 36.125 36.3786 36.125 37.5C36.125 38.5 35.125 40 33.625 40C32.125 40 30.625 39 30.625 37.5C30.625 36.3786 31.1162 35.683 31.5822 35.3097C31.8751 35.0752 32.125 34.7469 32.125 34.3717C32.125 33.8903 31.7347 33.5 31.2533 33.5ZM51.625 44H16.125V49.5C16.125 50.6046 17.0204 51.5 18.125 51.5H49.625C50.7296 51.5 51.625 50.6046 51.625 49.5V44Z" fill="#95539C"/>
<path fill-rule="evenodd" clip-rule="evenodd" d="M33.2761 24.9998C33.4582 23.8354 33.7826 21.8969 34.125 20.503C34.6392 18.4094 35.6488 15.692 36.3542 13.9001C36.4428 13.675 36.7669 13.7734 36.7206 14.0109C36.368 15.8169 35.875 18.4883 35.625 20.503C35.4469 21.9388 35.2827 23.9231 35.194 25.0741C36.323 25.5048 37.125 26.5977 37.125 27.878C37.125 29.5349 35.7819 30.878 34.125 30.878C32.4681 30.878 31.125 29.5349 31.125 27.878C31.125 26.516 32.0327 25.366 33.2761 24.9998Z" fill="#95539C"/>
<path d="M34.125 20.503L34.6106 20.6223V20.6223L34.125 20.503ZM33.2761 24.9998L33.4173 25.4795L33.7212 25.39L33.7701 25.0771L33.2761 24.9998ZM36.3542 13.9001L35.8889 13.717V13.717L36.3542 13.9001ZM36.7206 14.0109L36.2298 13.915V13.915L36.7206 14.0109ZM35.625 20.503L36.1212 20.5646L35.625 20.503ZM35.194 25.0741L34.6955 25.0356L34.6667 25.4081L35.0158 25.5412L35.194 25.0741ZM33.6394 20.3838C33.2914 21.8006 32.9642 23.758 32.7821 24.9226L33.7701 25.0771C33.9522 23.9127 34.2738 21.9932 34.6106 20.6223L33.6394 20.3838ZM35.8889 13.717C35.1832 15.5099 34.1624 18.2546 33.6394 20.3838L34.6106 20.6223C35.1161 18.5642 36.1145 15.874 36.8194 14.0833L35.8889 13.717ZM37.2113 14.1067C37.289 13.7088 37.0372 13.3956 36.7329 13.3035C36.4262 13.2106 36.0393 13.335 35.8889 13.717L36.8194 14.0833C36.7962 14.1422 36.7429 14.2084 36.6584 14.246C36.5811 14.2803 36.5041 14.2791 36.4431 14.2606C36.382 14.2421 36.3194 14.2012 36.2754 14.133C36.2273 14.0586 36.2178 13.9768 36.2298 13.915L37.2113 14.1067ZM36.1212 20.5646C36.3688 18.5685 36.8589 15.912 37.2113 14.1067L36.2298 13.915C35.8771 15.7219 35.3811 18.408 35.1288 20.4415L36.1212 20.5646ZM35.6925 25.1125C35.7813 23.9615 35.9447 21.9876 36.1212 20.5646L35.1288 20.4415C34.9491 21.8899 34.7842 23.8847 34.6955 25.0356L35.6925 25.1125ZM35.0158 25.5412C35.9574 25.9004 36.625 26.8119 36.625 27.878H37.625C37.625 26.3836 36.6886 25.1091 35.3722 24.6069L35.0158 25.5412ZM36.625 27.878C36.625 29.2587 35.5057 30.378 34.125 30.378V31.378C36.058 31.378 37.625 29.811 37.625 27.878H36.625ZM34.125 30.378C32.7443 30.378 31.625 29.2587 31.625 27.878H30.625C30.625 29.811 32.192 31.378 34.125 31.378V30.378ZM31.625 27.878C31.625 26.7437 32.3808 25.7847 33.4173 25.4795L33.1349 24.5202C31.6845 24.9473 30.625 26.2883 30.625 27.878H31.625Z" fill="#95539C"/>
<mask id="path-5-outside-1_3117_31537" maskUnits="userSpaceOnUse" x="19.125" y="22" width="8" height="20" fill="black">
<rect fill="white" x="19.125" y="22" width="8" height="20"/>
<path fill-rule="evenodd" clip-rule="evenodd" d="M22.2761 34.2264C22.4582 33.062 22.7826 31.1235 23.125 29.7296C23.6392 27.6359 24.6488 24.9185 25.3542 23.1267C25.4428 22.9016 25.7669 23 25.7206 23.2374C25.368 25.0435 24.875 27.7148 24.625 29.7296C24.4469 31.1653 24.2827 33.1497 24.194 34.3006C25.323 34.7313 26.125 35.8243 26.125 37.1046C26.125 38.7614 24.7819 40.1046 23.125 40.1046C21.4681 40.1046 20.125 38.7614 20.125 37.1046C20.125 35.7426 21.0327 34.5925 22.2761 34.2264Z"/>
</mask>
<path fill-rule="evenodd" clip-rule="evenodd" d="M22.2761 34.2264C22.4582 33.062 22.7826 31.1235 23.125 29.7296C23.6392 27.6359 24.6488 24.9185 25.3542 23.1267C25.4428 22.9016 25.7669 23 25.7206 23.2374C25.368 25.0435 24.875 27.7148 24.625 29.7296C24.4469 31.1653 24.2827 33.1497 24.194 34.3006C25.323 34.7313 26.125 35.8243 26.125 37.1046C26.125 38.7614 24.7819 40.1046 23.125 40.1046C21.4681 40.1046 20.125 38.7614 20.125 37.1046C20.125 35.7426 21.0327 34.5925 22.2761 34.2264Z" fill="white"/>
<path d="M23.125 29.7296L24.0961 29.9681L23.125 29.7296ZM22.2761 34.2264L22.5586 35.1857L23.1662 35.0067L23.2641 34.3809L22.2761 34.2264ZM25.3542 23.1267L24.4237 22.7604V22.7604L25.3542 23.1267ZM25.7206 23.2374L24.7391 23.0458L24.7391 23.0458L25.7206 23.2374ZM24.625 29.7296L25.6174 29.8527L24.625 29.7296ZM24.194 34.3006L23.1969 34.2237L23.1395 34.9687L23.8376 35.235L24.194 34.3006ZM22.1539 29.4911C21.8002 30.9309 21.4702 32.9072 21.2881 34.0719L23.2641 34.3809C23.4462 33.2167 23.7651 31.3161 24.0961 29.9681L22.1539 29.4911ZM24.4237 22.7604C23.7175 24.5544 22.6855 27.3263 22.1539 29.4911L24.0961 29.9681C24.5929 27.9455 25.5802 25.2827 26.2847 23.493L24.4237 22.7604ZM26.702 23.429C26.8342 22.752 26.4 22.2097 25.8778 22.0515C25.3506 21.8919 24.6801 22.109 24.4237 22.7604L26.2847 23.493C26.2162 23.667 26.0725 23.8357 25.8614 23.9295C25.6648 24.0169 25.4634 24.0157 25.2982 23.9657C25.133 23.9157 24.9686 23.8063 24.8554 23.6309C24.734 23.443 24.7034 23.2286 24.7391 23.0458L26.702 23.429ZM25.6174 29.8527C25.8627 27.8753 26.3497 25.2336 26.702 23.429L24.7391 23.0458C24.3862 24.8534 23.8872 27.5543 23.6326 29.6065L25.6174 29.8527ZM25.191 34.3775C25.2798 33.2265 25.4424 31.2629 25.6174 29.8527L23.6326 29.6065C23.4513 31.0677 23.2857 33.0729 23.1969 34.2237L25.191 34.3775ZM23.8376 35.235C24.5919 35.5227 25.125 36.2526 25.125 37.1046H27.125C27.125 35.3959 26.0541 33.9399 24.5504 33.3663L23.8376 35.235ZM25.125 37.1046C25.125 38.2092 24.2296 39.1046 23.125 39.1046V41.1046C25.3341 41.1046 27.125 39.3137 27.125 37.1046H25.125ZM23.125 39.1046C22.0204 39.1046 21.125 38.2092 21.125 37.1046H19.125C19.125 39.3137 20.9159 41.1046 23.125 41.1046V39.1046ZM21.125 37.1046C21.125 36.198 21.7289 35.43 22.5586 35.1857L21.9936 33.2671C20.3364 33.7551 19.125 35.2871 19.125 37.1046H21.125Z" fill="#95539C" mask="url(#path-5-outside-1_3117_31537)"/>
<mask id="path-7-outside-2_3117_31537" maskUnits="userSpaceOnUse" x="40.125" y="22" width="8" height="20" fill="black">
<rect fill="white" x="40.125" y="22" width="8" height="20"/>
<path fill-rule="evenodd" clip-rule="evenodd" d="M43.2761 34.2264C43.4582 33.062 43.7826 31.1235 44.125 29.7296C44.6392 27.6359 45.6488 24.9185 46.3542 23.1267C46.4428 22.9016 46.7669 23 46.7206 23.2374C46.368 25.0435 45.875 27.7148 45.625 29.7296C45.4469 31.1653 45.2827 33.1497 45.194 34.3006C46.323 34.7313 47.125 35.8243 47.125 37.1046C47.125 38.7614 45.7819 40.1046 44.125 40.1046C42.4681 40.1046 41.125 38.7614 41.125 37.1046C41.125 35.7426 42.0327 34.5925 43.2761 34.2264Z"/>
</mask>
<path fill-rule="evenodd" clip-rule="evenodd" d="M43.2761 34.2264C43.4582 33.062 43.7826 31.1235 44.125 29.7296C44.6392 27.6359 45.6488 24.9185 46.3542 23.1267C46.4428 22.9016 46.7669 23 46.7206 23.2374C46.368 25.0435 45.875 27.7148 45.625 29.7296C45.4469 31.1653 45.2827 33.1497 45.194 34.3006C46.323 34.7313 47.125 35.8243 47.125 37.1046C47.125 38.7614 45.7819 40.1046 44.125 40.1046C42.4681 40.1046 41.125 38.7614 41.125 37.1046C41.125 35.7426 42.0327 34.5925 43.2761 34.2264Z" fill="white"/>
<path d="M44.125 29.7296L45.0961 29.9681L44.125 29.7296ZM43.2761 34.2264L43.5586 35.1857L44.1662 35.0067L44.2641 34.3809L43.2761 34.2264ZM46.3542 23.1267L45.4237 22.7604V22.7604L46.3542 23.1267ZM46.7206 23.2374L45.7391 23.0458L45.7391 23.0458L46.7206 23.2374ZM45.625 29.7296L46.6174 29.8527L45.625 29.7296ZM45.194 34.3006L44.1969 34.2237L44.1395 34.9687L44.8376 35.235L45.194 34.3006ZM43.1539 29.4911C42.8002 30.9309 42.4702 32.9072 42.2881 34.0719L44.2641 34.3809C44.4462 33.2167 44.7651 31.3161 45.0961 29.9681L43.1539 29.4911ZM45.4237 22.7604C44.7175 24.5544 43.6855 27.3263 43.1539 29.4911L45.0961 29.9681C45.5929 27.9455 46.5802 25.2827 47.2847 23.493L45.4237 22.7604ZM47.702 23.429C47.8342 22.752 47.4 22.2097 46.8778 22.0515C46.3506 21.8919 45.6801 22.109 45.4237 22.7604L47.2847 23.493C47.2162 23.667 47.0725 23.8357 46.8614 23.9295C46.6648 24.0169 46.4634 24.0157 46.2982 23.9657C46.133 23.9157 45.9686 23.8063 45.8554 23.6309C45.734 23.443 45.7034 23.2286 45.7391 23.0458L47.702 23.429ZM46.6174 29.8527C46.8627 27.8753 47.3497 25.2336 47.702 23.429L45.7391 23.0458C45.3862 24.8534 44.8872 27.5543 44.6326 29.6065L46.6174 29.8527ZM46.191 34.3775C46.2798 33.2265 46.4424 31.2629 46.6174 29.8527L44.6326 29.6065C44.4513 31.0677 44.2857 33.0729 44.1969 34.2237L46.191 34.3775ZM44.8376 35.235C45.5919 35.5227 46.125 36.2526 46.125 37.1046H48.125C48.125 35.3959 47.0541 33.9399 45.5504 33.3663L44.8376 35.235ZM46.125 37.1046C46.125 38.2092 45.2296 39.1046 44.125 39.1046V41.1046C46.3341 41.1046 48.125 39.3137 48.125 37.1046H46.125ZM44.125 39.1046C43.0204 39.1046 42.125 38.2092 42.125 37.1046H40.125C40.125 39.3137 41.9159 41.1046 44.125 41.1046V39.1046ZM42.125 37.1046C42.125 36.198 42.7289 35.43 43.5586 35.1857L42.9936 33.2671C41.3364 33.7551 40.125 35.2871 40.125 37.1046H42.125Z" fill="#95539C" mask="url(#path-7-outside-2_3117_31537)"/>
<circle cx="20.625" cy="46.5" r="1" fill="#95539C" stroke="#E5E5E5"/>
<circle cx="33.625" cy="46.5" r="1" fill="#95539C" stroke="#E5E5E5"/>
<circle cx="46.625" cy="46.5" r="1" fill="#95539C" stroke="#E5E5E5"/>
<circle cx="40.625" cy="48.5" r="1" fill="#95539C" stroke="#E5E5E5"/>
<circle cx="26.625" cy="48.5" r="1" fill="#95539C" stroke="#E5E5E5"/>
</svg>
