<svg width="69" height="68" viewBox="0 0 69 68" fill="none" xmlns="http://www.w3.org/2000/svg">
<circle cx="34.125" cy="34" r="33" stroke="#A67DB6" stroke-width="2"/>
<path fill-rule="evenodd" clip-rule="evenodd" d="M27.4466 24.0258C23.4017 23.7739 17.7044 29.5994 15.125 32.8229C15.2177 32.8445 15.32 32.8652 15.4321 32.8839C16.0504 32.987 16.9493 33.0272 18.1473 32.8574C19.3484 32.6871 20.2398 32.3525 21.2041 31.9905L21.2042 31.9905L21.2043 31.9904C21.4265 31.907 21.6527 31.8221 21.8874 31.7375C23.1447 31.2839 24.5178 30.8981 26.4839 31.0242C28.4793 31.1522 29.7648 32.0378 30.8047 32.7543L30.946 32.8515C32.0043 33.5779 32.816 34.0793 34.1461 33.9897C35.6053 33.8915 36.9147 33.252 38.3066 32.5313C38.3814 32.4925 38.457 32.4532 38.5333 32.4135L38.5347 32.4128L38.5362 32.412C39.7788 31.7655 41.2076 31.0222 42.6843 31.0222C44.1377 31.0222 45.6858 31.5354 47.0178 31.977L47.0439 31.9856C48.4743 32.4598 49.6579 32.8475 50.6471 32.8475C51.6772 32.8475 52.6517 32.7526 53.4018 32.646C50.228 29.452 44.0729 23.5623 40.6641 24.0258C38.5964 24.307 37.6153 24.6262 36.8414 24.878C36.0419 25.1381 35.4636 25.3263 34.1369 25.3263C33.0055 25.3263 32.5789 25.1431 32.0338 24.9091C31.3209 24.6031 30.4055 24.2101 27.4466 24.0258ZM34.1369 45C25.6959 45 19.2359 39.1186 16.1164 34.9617C16.7771 34.9928 17.547 34.9625 18.428 34.8376C19.8656 34.6338 20.9875 34.2108 21.9649 33.8423C22.1712 33.7645 22.371 33.6892 22.566 33.6188C23.6806 33.2168 24.7641 32.918 26.3559 33.0201C27.1456 33.0708 27.7685 33.277 28.3454 33.5735L26.1005 36.3746C25.7551 36.8056 25.8245 37.4349 26.2555 37.7803C26.6864 38.1257 27.3158 38.0563 27.6612 37.6254L30.0414 34.6555C30.9223 35.2517 31.9494 35.8692 33.3809 35.9818V40.5C33.3809 41.0523 33.8286 41.5 34.3809 41.5C34.9331 41.5 35.3809 41.0523 35.3809 40.5V35.8335C36.4282 35.6171 37.3838 35.2199 38.2435 34.8038L40.5048 37.6254C40.8502 38.0563 41.4796 38.1257 41.9105 37.7803C42.3415 37.4349 42.4109 36.8056 42.0655 36.3746L40.0644 33.8777C41.0994 33.3588 41.909 33.0222 42.6843 33.0222C43.7627 33.0222 44.9994 33.4149 46.4146 33.884L46.5645 33.9338C47.8519 34.3612 49.3164 34.8475 50.6471 34.8475C51.389 34.8475 52.1045 34.8034 52.7456 34.7393C49.5209 38.9053 42.7297 45 34.1369 45Z" fill="#95539C"/>
<path d="M15.125 32.8229L14.7346 32.5105L14.2393 33.1295L15.0113 33.3098L15.125 32.8229ZM27.4466 24.0258L27.4776 23.5268L27.4466 24.0258ZM15.4321 32.8839L15.5143 32.3907H15.5143L15.4321 32.8839ZM18.1473 32.8574L18.0771 32.3623L18.1473 32.8574ZM21.2041 31.9905L21.3798 32.4586L21.3824 32.4576L21.2041 31.9905ZM21.2042 31.9905L21.0305 31.5216L21.0258 31.5234L21.2042 31.9905ZM21.2043 31.9904L21.3779 32.4593L21.38 32.4585L21.2043 31.9904ZM21.8874 31.7375L22.057 32.2078H22.057L21.8874 31.7375ZM26.4839 31.0242L26.5159 30.5253L26.4839 31.0242ZM30.8047 32.7543L30.5211 33.166L30.5213 33.1662L30.8047 32.7543ZM30.946 32.8515L30.6626 33.2634L30.663 33.2637L30.946 32.8515ZM34.1461 33.9897L34.1797 34.4886L34.1461 33.9897ZM38.3066 32.5313L38.5365 32.9753L38.5365 32.9753L38.3066 32.5313ZM38.5333 32.4135L38.3025 31.97L38.3025 31.97L38.5333 32.4135ZM38.5347 32.4128L38.3039 31.9692L38.3039 31.9692L38.5347 32.4128ZM38.5362 32.412L38.767 32.8556L38.767 32.8556L38.5362 32.412ZM47.0178 31.977L47.1752 31.5024V31.5024L47.0178 31.977ZM47.0439 31.9856L46.8866 32.4602L46.8866 32.4602L47.0439 31.9856ZM53.4018 32.646L53.4722 33.141L54.4591 33.0006L53.7565 32.2935L53.4018 32.646ZM40.6641 24.0258L40.5967 23.5304V23.5304L40.6641 24.0258ZM36.8414 24.878L36.9961 25.3535L36.8414 24.878ZM32.0338 24.9091L31.8365 25.3686V25.3686L32.0338 24.9091ZM16.1164 34.9617L16.1398 34.4623L15.079 34.4124L15.7165 35.2618L16.1164 34.9617ZM18.428 34.8376L18.3578 34.3425L18.428 34.8376ZM21.9649 33.8423L22.1413 34.3101L22.1413 34.3101L21.9649 33.8423ZM22.566 33.6188L22.3963 33.1485L22.3963 33.1485L22.566 33.6188ZM26.3559 33.0201L26.3879 32.5212L26.3559 33.0201ZM28.3454 33.5735L28.7356 33.8862L29.1184 33.4085L28.574 33.1288L28.3454 33.5735ZM26.1005 36.3746L26.4907 36.6873V36.6873L26.1005 36.3746ZM26.2555 37.7803L26.5682 37.3902H26.5682L26.2555 37.7803ZM27.6612 37.6254L27.271 37.3127L27.6612 37.6254ZM30.0414 34.6555L30.3216 34.2414L29.9396 33.9829L29.6512 34.3428L30.0414 34.6555ZM33.3809 35.9818H33.8809V35.5196L33.4201 35.4833L33.3809 35.9818ZM35.3809 35.8335L35.2797 35.3439L34.8809 35.4263V35.8335H35.3809ZM38.2435 34.8038L38.6337 34.4911L38.3845 34.1801L38.0257 34.3537L38.2435 34.8038ZM40.5048 37.6254L40.1147 37.9381V37.9381L40.5048 37.6254ZM41.9105 37.7803L41.5978 37.3902L41.5978 37.3902L41.9105 37.7803ZM42.0655 36.3746L41.6753 36.6873V36.6873L42.0655 36.3746ZM40.0644 33.8777L39.8403 33.4307L39.2875 33.7079L39.6742 34.1904L40.0644 33.8777ZM46.4146 33.884L46.5721 33.4095L46.5719 33.4094L46.4146 33.884ZM46.5645 33.9338L46.7221 33.4592L46.722 33.4592L46.5645 33.9338ZM52.7456 34.7393L53.141 35.0454L53.8524 34.1263L52.6959 34.2418L52.7456 34.7393ZM15.5154 33.1353C16.7894 31.5432 18.8338 29.3088 21.0513 27.5093C22.1599 26.6097 23.2997 25.8286 24.3979 25.2896C25.5012 24.7482 26.5253 24.4694 27.4155 24.5249L27.4776 23.5268C26.3454 23.4563 25.1405 23.8112 23.9573 24.3919C22.7691 24.9751 21.5649 25.8047 20.4212 26.7328C18.1339 28.5889 16.0401 30.879 14.7346 32.5105L15.5154 33.1353ZM15.5143 32.3907C15.4125 32.3737 15.3207 32.3551 15.2387 32.336L15.0113 33.3098C15.1147 33.3339 15.2275 33.3567 15.3499 33.3771L15.5143 32.3907ZM18.0771 32.3623C16.924 32.5258 16.0767 32.4845 15.5143 32.3907L15.3499 33.3771C16.024 33.4895 16.9747 33.5286 18.2174 33.3524L18.0771 32.3623ZM21.0284 31.5224C20.0637 31.8845 19.2182 32.2006 18.0771 32.3623L18.2174 33.3524C19.4785 33.1737 20.4158 32.8205 21.3798 32.4586L21.0284 31.5224ZM21.0258 31.5234L21.0257 31.5234L21.3824 32.4576L21.3825 32.4576L21.0258 31.5234ZM21.0306 31.5216L21.0305 31.5216L21.3778 32.4594L21.3779 32.4593L21.0306 31.5216ZM21.7177 31.2671C21.4795 31.3531 21.2504 31.4391 21.0286 31.5223L21.38 32.4585C21.6027 32.375 21.8258 32.2912 22.057 32.2078L21.7177 31.2671ZM26.5159 30.5253C24.4562 30.3932 23.0107 30.8007 21.7177 31.2671L22.057 32.2078C23.2786 31.7671 24.5793 31.4031 26.4519 31.5232L26.5159 30.5253ZM31.0884 32.3425C30.0434 31.6226 28.6592 30.6627 26.5159 30.5253L26.4519 31.5232C28.2994 31.6417 29.4862 32.4531 30.5211 33.166L31.0884 32.3425ZM31.2294 32.4396L31.0882 32.3424L30.5213 33.1662L30.6626 33.2634L31.2294 32.4396ZM34.1125 33.4909C32.9648 33.5682 32.2768 33.1585 31.2289 32.4392L30.663 33.2637C31.7317 33.9972 32.6672 34.5905 34.1797 34.4886L34.1125 33.4909ZM38.0767 32.0873C36.6764 32.8123 35.4539 33.4005 34.1125 33.4909L34.1797 34.4886C35.7567 34.3824 37.153 33.6917 38.5365 32.9753L38.0767 32.0873ZM38.3025 31.97C38.2262 32.0097 38.151 32.0488 38.0767 32.0873L38.5365 32.9753C38.6119 32.9363 38.6878 32.8967 38.764 32.8571L38.3025 31.97ZM38.3039 31.9692L38.3025 31.97L38.764 32.8571L38.7654 32.8564L38.3039 31.9692ZM38.3055 31.9684L38.3039 31.9692L38.7654 32.8564L38.767 32.8556L38.3055 31.9684ZM42.6843 30.5222C41.0635 30.5222 39.5236 31.3347 38.3055 31.9684L38.767 32.8556C40.0341 32.1963 41.3518 31.5222 42.6843 31.5222V30.5222ZM47.1752 31.5024C45.8607 31.0666 44.2333 30.5222 42.6843 30.5222V31.5222C44.0422 31.5222 45.5109 32.0042 46.8605 32.4516L47.1752 31.5024ZM47.2013 31.511L47.1752 31.5024L46.8605 32.4516L46.8866 32.4602L47.2013 31.511ZM50.6471 32.3475C49.7566 32.3475 48.6598 31.9945 47.2012 31.511L46.8866 32.4602C48.2887 32.925 49.5592 33.3475 50.6471 33.3475V32.3475ZM53.3314 32.1509C52.5985 32.2551 51.6483 32.3475 50.6471 32.3475V33.3475C51.7062 33.3475 52.7049 33.2501 53.4722 33.141L53.3314 32.1509ZM40.7315 24.5213C41.437 24.4253 42.3519 24.6555 43.4278 25.1778C44.4912 25.694 45.6492 26.4643 46.8165 27.3608C49.1501 29.153 51.4627 31.4039 53.0471 32.9984L53.7565 32.2935C52.1671 30.694 49.8153 28.403 47.4256 26.5678C46.2314 25.6505 45.0131 24.8357 43.8645 24.2782C42.7284 23.7267 41.5956 23.3945 40.5967 23.5304L40.7315 24.5213ZM36.9961 25.3535C37.7514 25.1077 38.7022 24.7972 40.7315 24.5213L40.5967 23.5304C38.4907 23.8168 37.4792 24.1447 36.6867 24.4025L36.9961 25.3535ZM34.1369 25.8263C35.5367 25.8263 36.171 25.6219 36.9961 25.3535L36.6867 24.4025C35.9129 24.6543 35.3904 24.8263 34.1369 24.8263V25.8263ZM31.8365 25.3686C32.1074 25.4848 32.3867 25.6057 32.75 25.6919C33.1141 25.7783 33.5442 25.8263 34.1369 25.8263V24.8263C33.5982 24.8263 33.2493 24.7826 32.9809 24.719C32.7119 24.6551 32.5053 24.5674 32.231 24.4497L31.8365 25.3686ZM27.4155 24.5249C30.3212 24.7058 31.18 25.0867 31.8365 25.3686L32.231 24.4497C31.4618 24.1195 30.4897 23.7144 27.4776 23.5268L27.4155 24.5249ZM15.7165 35.2618C18.8742 39.4697 25.464 45.5 34.1369 45.5V44.5C25.9278 44.5 19.5976 38.7675 16.5163 34.6616L15.7165 35.2618ZM18.3578 34.3425C17.5057 34.4633 16.7672 34.4918 16.1398 34.4623L16.0929 35.4612C16.787 35.4938 17.5883 35.4616 18.4982 35.3326L18.3578 34.3425ZM21.7885 33.3744C20.8116 33.7427 19.7354 34.1472 18.3578 34.3425L18.4982 35.3326C19.9958 35.1203 21.1635 34.6788 22.1413 34.3101L21.7885 33.3744ZM22.3963 33.1485C22.1974 33.2202 21.9941 33.2969 21.7885 33.3744L22.1413 34.3101C22.3482 34.2321 22.5446 34.1581 22.7357 34.0891L22.3963 33.1485ZM26.3879 32.5212C24.7025 32.4131 23.5466 32.7336 22.3963 33.1485L22.7357 34.0891C23.8145 33.7 24.8257 33.423 26.3239 33.5191L26.3879 32.5212ZM28.574 33.1288C27.9444 32.8053 27.2551 32.5768 26.3879 32.5212L26.3239 33.5191C27.0361 33.5648 27.5925 33.7488 28.1169 34.0182L28.574 33.1288ZM26.4907 36.6873L28.7356 33.8862L27.9553 33.2608L25.7104 36.0619L26.4907 36.6873ZM26.5682 37.3902C26.3527 37.2175 26.318 36.9028 26.4907 36.6873L25.7104 36.0619C25.1923 36.7084 25.2964 37.6524 25.9428 38.1705L26.5682 37.3902ZM27.271 37.3127C27.0983 37.5282 26.7837 37.5629 26.5682 37.3902L25.9428 38.1705C26.5892 38.6886 27.5333 38.5845 28.0513 37.9381L27.271 37.3127ZM29.6512 34.3428L27.271 37.3127L28.0513 37.9381L30.4315 34.9682L29.6512 34.3428ZM33.4201 35.4833C32.1224 35.3812 31.1849 34.8257 30.3216 34.2414L29.7611 35.0696C30.6596 35.6777 31.7763 36.3571 33.3416 36.4802L33.4201 35.4833ZM33.8809 40.5V35.9818H32.8809V40.5H33.8809ZM34.3809 41C34.1047 41 33.8809 40.7761 33.8809 40.5H32.8809C32.8809 41.3284 33.5524 42 34.3809 42V41ZM34.8809 40.5C34.8809 40.7761 34.657 41 34.3809 41V42C35.2093 42 35.8809 41.3284 35.8809 40.5H34.8809ZM34.8809 35.8335V40.5H35.8809V35.8335H34.8809ZM38.0257 34.3537C37.1824 34.7618 36.2691 35.1394 35.2797 35.3439L35.482 36.3232C36.5873 36.0948 37.5851 35.6779 38.4613 35.2539L38.0257 34.3537ZM37.8534 35.1165L40.1147 37.9381L40.895 37.3127L38.6337 34.4911L37.8534 35.1165ZM40.1147 37.9381C40.6328 38.5845 41.5768 38.6886 42.2232 38.1705L41.5978 37.3902C41.3824 37.5629 41.0677 37.5282 40.895 37.3127L40.1147 37.9381ZM42.2232 38.1705C42.8697 37.6524 42.9737 36.7084 42.4556 36.0619L41.6753 36.6873C41.848 36.9028 41.8133 37.2175 41.5978 37.3902L42.2232 38.1705ZM42.4556 36.0619L40.4545 33.565L39.6742 34.1904L41.6753 36.6873L42.4556 36.0619ZM42.6843 32.5222C41.7765 32.5222 40.8689 32.915 39.8403 33.4307L40.2885 34.3247C41.3299 33.8025 42.0416 33.5222 42.6843 33.5222V32.5222ZM46.5719 33.4094C45.177 32.947 43.8592 32.5222 42.6843 32.5222V33.5222C43.6663 33.5222 44.8217 33.8827 46.2573 34.3586L46.5719 33.4094ZM46.722 33.4592L46.5721 33.4095L46.2571 34.3586L46.407 34.4083L46.722 33.4592ZM50.6471 34.3475C49.4128 34.3475 48.0292 33.8933 46.7221 33.4592L46.407 34.4083C47.6745 34.8292 49.22 35.3475 50.6471 35.3475V34.3475ZM52.6959 34.2418C52.0683 34.3045 51.3697 34.3475 50.6471 34.3475V35.3475C51.4083 35.3475 52.1406 35.3023 52.7953 35.2369L52.6959 34.2418ZM34.1369 45.5C42.9602 45.5 49.8804 39.2577 53.141 35.0454L52.3502 34.4333C49.1613 38.553 42.4992 44.5 34.1369 44.5V45.5Z" fill="#95539C"/>
</svg>
