<svg width="69" height="68" viewBox="0 0 69 68" fill="none" xmlns="http://www.w3.org/2000/svg">
<circle cx="34.125" cy="34" r="33" stroke="#A67DB6" stroke-width="2"/>
<path fill-rule="evenodd" clip-rule="evenodd" d="M20.3524 23.1836C18.1433 23.1836 16.3524 24.9744 16.3524 27.1836V27.8203H14.4888C13.3842 27.8203 12.4888 28.7157 12.4888 29.8203V38.9567C12.4888 40.0612 13.3842 40.9567 14.4888 40.9567H16.3524V41.5927C16.3524 43.8018 18.1433 45.5927 20.3524 45.5927H47.8979C50.107 45.5927 51.8979 43.8018 51.8979 41.5927V40.9567H53.7615C54.8661 40.9567 55.7615 40.0612 55.7615 38.9567V29.8203C55.7615 28.7157 54.8661 27.8203 53.7615 27.8203H51.8979V27.1836C51.8979 24.9745 50.107 23.1836 47.8979 23.1836H20.3524Z" fill="#95539C"/>
<rect x="43.3979" y="27.8203" width="4.63636" height="13.9091" fill="#F8F8F8"/>
<rect x="37.2158" y="27.8203" width="4.63636" height="13.9091" fill="#F8F8F8"/>
</svg>
