<svg width="69" height="68" viewBox="0 0 69 68" fill="none" xmlns="http://www.w3.org/2000/svg">
<circle cx="34.125" cy="34" r="33" stroke="#A67DB6" stroke-width="2"/>
<path fill-rule="evenodd" clip-rule="evenodd" d="M34.1248 15H23.8846C23.161 15 22.6699 15.7476 22.9239 16.4252C23.5838 18.1854 24.3459 20.6856 24.3459 22.5C24.3459 23.8152 23.2888 26.0913 22.0594 28.7386C20.4845 32.1299 18.6267 36.1304 18.3459 39.5C17.9849 43.8309 18.1396 49.8444 18.2957 53.0595C18.3214 53.5884 18.7593 54 19.2888 54H32.5649C33.0238 54 33.4275 53.6879 33.4914 53.2335C33.5947 52.4999 33.6288 51.5662 33.3457 51C33.0494 50.4074 32.5518 49.5952 32.1783 49.0107C31.9767 48.6952 31.96 48.2943 32.1418 47.967L33.3612 45.7723C33.7422 45.0865 34.7285 45.0865 35.1095 45.7723L36.3289 47.967C36.5107 48.2943 36.494 48.6952 36.2924 49.0107C35.9189 49.5952 35.4213 50.4074 35.125 51C34.8419 51.5662 34.876 52.4999 34.9793 53.2335C35.0432 53.6879 35.4469 54 35.9058 54H49.1819C49.7114 54 50.1493 53.5884 50.175 53.0595C50.3311 49.8444 50.4858 43.8309 50.1248 39.5C49.844 36.1304 47.9862 32.1299 46.4113 28.7386C45.1819 26.0913 44.1248 23.8152 44.1248 22.5C44.1248 20.6856 44.8869 18.1854 45.5468 16.4252C45.8008 15.7476 45.3097 15 44.5861 15H34.3459H34.1248Z" fill="#95539C"/>
<mask id="path-3-inside-1_3365_45231" fill="white">
<path fill-rule="evenodd" clip-rule="evenodd" d="M34.2384 34.8777C34.1624 34.8702 34.0876 34.8702 34.0116 34.8777C32.5258 35.0234 28.9599 34.9228 25.6618 33.4061C23.5597 32.4395 22.074 31.5478 21.1372 30.8943C20.5668 30.4964 19.6987 30.6649 19.3962 31.2911L18.2144 33.7366C18.1645 33.8399 18.131 33.95 18.1268 34.0646C18.0703 35.6192 19.2896 39.0536 24.7215 41.6764C30.5987 44.5143 31.5782 46.3386 32.0136 47.1494C32.1006 47.3116 32.1659 47.4332 32.2443 47.5143C32.6204 47.9034 33.6548 48.0007 34.125 48.0007C34.5952 48.0007 35.6296 47.9034 36.0057 47.5143C36.0841 47.4332 36.1494 47.3116 36.2364 47.1494C36.6718 46.3386 37.6513 44.5143 43.5285 41.6764C48.9604 39.0536 50.1797 35.6192 50.1232 34.0646C50.119 33.95 50.0855 33.8399 50.0356 33.7366L48.8538 31.2911C48.5512 30.6649 47.6832 30.4964 47.1128 30.8943C46.176 31.5478 44.6903 32.4395 42.5882 33.4061C39.2901 34.9228 35.7242 35.0234 34.2384 34.8777Z"/>
</mask>
<path fill-rule="evenodd" clip-rule="evenodd" d="M34.2384 34.8777C34.1624 34.8702 34.0876 34.8702 34.0116 34.8777C32.5258 35.0234 28.9599 34.9228 25.6618 33.4061C23.5597 32.4395 22.074 31.5478 21.1372 30.8943C20.5668 30.4964 19.6987 30.6649 19.3962 31.2911L18.2144 33.7366C18.1645 33.8399 18.131 33.95 18.1268 34.0646C18.0703 35.6192 19.2896 39.0536 24.7215 41.6764C30.5987 44.5143 31.5782 46.3386 32.0136 47.1494C32.1006 47.3116 32.1659 47.4332 32.2443 47.5143C32.6204 47.9034 33.6548 48.0007 34.125 48.0007C34.5952 48.0007 35.6296 47.9034 36.0057 47.5143C36.0841 47.4332 36.1494 47.3116 36.2364 47.1494C36.6718 46.3386 37.6513 44.5143 43.5285 41.6764C48.9604 39.0536 50.1797 35.6192 50.1232 34.0646C50.119 33.95 50.0855 33.8399 50.0356 33.7366L48.8538 31.2911C48.5512 30.6649 47.6832 30.4964 47.1128 30.8943C46.176 31.5478 44.6903 32.4395 42.5882 33.4061C39.2901 34.9228 35.7242 35.0234 34.2384 34.8777Z" fill="white"/>
<path d="M25.6618 33.4061L26.0796 32.4976H26.0796L25.6618 33.4061ZM24.7215 41.6764L24.2866 42.5769L24.7215 41.6764ZM32.0136 47.1494L32.8946 46.6763L32.8946 46.6763L32.0136 47.1494ZM32.2443 47.5143L32.9633 46.8193L32.9633 46.8193L32.2443 47.5143ZM36.0057 47.5143L35.2866 46.8193L35.2866 46.8193L36.0057 47.5143ZM36.2364 47.1494L37.1175 47.6224V47.6224L36.2364 47.1494ZM43.5285 41.6764L43.0937 40.7759V40.7759L43.5285 41.6764ZM42.5882 33.4061L42.1704 32.4976H42.1704L42.5882 33.4061ZM48.8538 31.2911L47.9535 31.7262L48.8538 31.2911ZM50.1232 34.0646L51.1225 34.0283L50.1232 34.0646ZM50.0356 33.7366L50.936 33.3015L50.0356 33.7366ZM34.0116 34.8777L34.1092 35.8729L34.0116 34.8777ZM34.2384 34.8777L34.1408 35.8729L34.2384 34.8777ZM25.244 34.3147C28.7448 35.9245 32.4989 36.0309 34.1092 35.8729L33.9139 33.8824C32.5527 34.016 29.1751 33.9211 26.0796 32.4976L25.244 34.3147ZM20.565 31.7145C21.5558 32.4056 23.094 33.326 25.244 34.3147L26.0796 32.4976C24.0255 31.553 22.5923 30.6901 21.7093 30.0741L20.565 31.7145ZM19.1148 34.1717L20.2965 31.7262L18.4958 30.856L17.314 33.3015L19.1148 34.1717ZM25.1563 40.7759C19.9709 38.2721 19.0881 35.1488 19.1262 34.1009L17.1275 34.0283C17.0526 36.0896 18.6084 39.8352 24.2866 42.5769L25.1563 40.7759ZM32.8946 46.6763C32.6424 46.2066 32.2215 45.4392 31.0698 44.4231C29.9452 43.431 28.145 42.219 25.1563 40.7759L24.2866 42.5769C27.1751 43.9716 28.8033 45.0907 29.7466 45.9229C30.6628 46.7312 30.9494 47.2814 31.1325 47.6224L32.8946 46.6763ZM32.9633 46.8193C32.982 46.8386 32.9924 46.8526 32.995 46.8561C32.9975 46.8595 32.9949 46.8562 32.9865 46.8424C32.978 46.8285 32.9667 46.8089 32.9507 46.78C32.9345 46.7506 32.917 46.7181 32.8946 46.6763L31.1325 47.6224C31.1936 47.7362 31.3283 48.0054 31.5252 48.2092L32.9633 46.8193ZM34.125 47.0007C33.9431 47.0007 33.6341 46.9807 33.3457 46.9229C33.2027 46.8943 33.0881 46.8609 33.007 46.828C32.9163 46.7911 32.9225 46.7771 32.9633 46.8193L31.5252 48.2092C31.7541 48.446 32.0307 48.5901 32.2544 48.681C32.4877 48.7757 32.7317 48.8397 32.953 48.884C33.3935 48.9722 33.8367 49.0007 34.125 49.0007V47.0007ZM34.125 49.0007C34.4133 49.0007 34.8565 48.9722 35.297 48.884C35.5183 48.8397 35.7623 48.7757 35.9956 48.681C36.2193 48.5901 36.4959 48.446 36.7248 48.2092L35.2866 46.8193C35.3275 46.7771 35.3337 46.7911 35.243 46.828C35.1618 46.8609 35.0473 46.8943 34.9043 46.9229C34.6159 46.9807 34.3069 47.0007 34.125 47.0007V49.0007ZM36.7248 48.2092C36.9217 48.0054 37.0564 47.7362 37.1175 47.6224L35.3554 46.6763C35.333 46.7181 35.3155 46.7506 35.2993 46.78C35.2833 46.8089 35.272 46.8285 35.2635 46.8424C35.2551 46.8562 35.2525 46.8595 35.255 46.8561C35.2576 46.8526 35.268 46.8386 35.2866 46.8193L36.7248 48.2092ZM37.1175 47.6224C37.3006 47.2814 37.5872 46.7312 38.5034 45.9229C39.4467 45.0907 41.0749 43.9716 43.9634 42.5769L43.0937 40.7759C40.105 42.219 38.3048 43.431 37.1802 44.4231C36.0285 45.4392 35.6076 46.2066 35.3554 46.6763L37.1175 47.6224ZM43.9634 42.5769C49.6416 39.8352 51.1974 36.0896 51.1225 34.0283L49.1238 34.1009C49.1619 35.1488 48.2791 38.2721 43.0937 40.7759L43.9634 42.5769ZM50.936 33.3015L49.7542 30.856L47.9535 31.7262L49.1352 34.1717L50.936 33.3015ZM46.5407 30.0741C45.6577 30.6901 44.2245 31.553 42.1704 32.4976L43.006 34.3147C45.156 33.326 46.6942 32.4056 47.685 31.7145L46.5407 30.0741ZM42.1704 32.4976C39.0749 33.9211 35.6973 34.016 34.336 33.8824L34.1408 35.8729C35.7511 36.0309 39.5052 35.9245 43.006 34.3147L42.1704 32.4976ZM17.314 33.3015C17.2204 33.4952 17.1379 33.7419 17.1275 34.0283L19.1262 34.1009C19.1241 34.1581 19.1086 34.1845 19.1148 34.1717L17.314 33.3015ZM49.7542 30.856C49.1466 29.5986 47.543 29.3749 46.5407 30.0741L47.685 31.7145C47.7219 31.6887 47.7927 31.6688 47.872 31.686C47.9075 31.6937 47.9305 31.7062 47.9422 31.7147C47.9519 31.7219 47.9531 31.7255 47.9535 31.7262L49.7542 30.856ZM21.7093 30.0741C20.707 29.3749 19.1034 29.5986 18.4958 30.856L20.2965 31.7262C20.2969 31.7255 20.2981 31.7219 20.3078 31.7147C20.3195 31.7062 20.3425 31.6937 20.378 31.686C20.4573 31.6688 20.5281 31.6887 20.565 31.7145L21.7093 30.0741ZM51.1225 34.0283C51.1121 33.7419 51.0296 33.4952 50.936 33.3015L49.1352 34.1717C49.1414 34.1845 49.1259 34.1581 49.1238 34.1009L51.1225 34.0283ZM34.1092 35.8729C34.1203 35.8718 34.1297 35.8718 34.1408 35.8729L34.336 33.8824C34.1951 33.8686 34.0549 33.8686 33.9139 33.8824L34.1092 35.8729Z" fill="#95539C" mask="url(#path-3-inside-1_3365_45231)"/>
<path d="M19.125 34C21.0548 35.6667 26.7039 39 33.8618 39C41.0197 39 47.0197 35.6667 49.125 34" stroke="#95539C" stroke-linecap="round"/>
<circle cx="34.125" cy="26" r="2" fill="white"/>
<path d="M31.2461 24C30.9675 24.2785 30.7466 24.6092 30.5958 24.9732C30.4451 25.3371 30.3675 25.7272 30.3675 26.1211C30.3675 26.515 30.4451 26.9051 30.5958 27.269C30.7466 27.633 30.9675 27.9636 31.2461 28.2422" stroke="white" stroke-linecap="round"/>
<path d="M37.2461 24C37.5246 24.2785 37.7456 24.6092 37.8963 24.9732C38.0471 25.3371 38.1247 25.7272 38.1247 26.1211C38.1247 26.515 38.0471 26.9051 37.8963 27.269C37.7456 27.633 37.5246 27.9636 37.2461 28.2422" stroke="white" stroke-linecap="round"/>
<path d="M29.5645 23C29.1128 23.4517 28.7545 23.9879 28.51 24.578C28.2656 25.1682 28.1398 25.8007 28.1398 26.4395C28.1398 27.0782 28.2656 27.7107 28.51 28.3009C28.7545 28.891 29.1128 29.4272 29.5645 29.8789" stroke="white" stroke-linecap="round"/>
<path d="M38.9277 23C39.3794 23.4517 39.7377 23.9879 39.9821 24.578C40.2266 25.1682 40.3524 25.8007 40.3524 26.4395C40.3524 27.0782 40.2266 27.7107 39.9821 28.3009C39.7377 28.891 39.3794 29.4272 38.9277 29.8789" stroke="white" stroke-linecap="round"/>
<path d="M17.125 18.5L18.125 21.5L19.625 20L20.625 23" stroke="#95539C" stroke-linecap="round"/>
<path d="M51.625 18.5L50.625 21.5L49.125 20L48.125 23" stroke="#95539C" stroke-linecap="round"/>
<path d="M20.625 25L19.625 28L18.125 26.5L17.125 29.5" stroke="#95539C" stroke-linecap="round"/>
<path d="M48.125 25L49.125 28L50.625 26.5L51.625 29.5" stroke="#95539C" stroke-linecap="round"/>
</svg>
