<svg width="69" height="68" viewBox="0 0 69 68" fill="none" xmlns="http://www.w3.org/2000/svg">
<circle cx="34.125" cy="34" r="33" stroke="#A67DB6" stroke-width="2"/>
<path fill-rule="evenodd" clip-rule="evenodd" d="M18.125 53.3818V27C18.125 18.1634 25.2884 11 34.125 11C42.9616 11 50.125 18.1634 50.125 27V53.3818C45.4942 56.307 40.0073 58 34.125 58C28.2427 58 22.7558 56.307 18.125 53.3818Z" fill="#95539C"/>
<path fill-rule="evenodd" clip-rule="evenodd" d="M31.5255 16.1289C30.3024 16.3255 29.1536 16.7439 28.1214 17.3416C28.1238 17.3946 28.125 17.448 28.125 17.5017C28.125 19.4347 26.558 21.0017 24.625 21.0017C24.5713 21.0017 24.518 21.0005 24.4649 20.9981C23.6128 22.4698 23.125 24.1787 23.125 26.0017V33.0017C23.125 38.5245 27.6022 43.0017 33.125 43.0017H35.125C40.6478 43.0017 45.125 38.5245 45.125 33.0017V26.0017C45.125 24.1787 44.6372 22.4698 43.7851 20.9981C43.732 21.0005 43.6787 21.0017 43.625 21.0017C41.692 21.0017 40.125 19.4347 40.125 17.5017C40.125 17.448 40.1262 17.3946 40.1286 17.3416C39.3521 16.892 38.5096 16.5438 37.6191 16.3152C37.0054 17.3262 35.8941 18.0017 34.625 18.0017C33.2795 18.0017 32.1113 17.2424 31.5255 16.1289Z" fill="white"/>
<path d="M42.125 42C42.125 38.6863 38.5433 36 34.125 36C29.7067 36 26.125 38.6863 26.125 42" stroke="#95539C"/>
<path d="M41.904 43.7773C40.8826 44.7988 39.6699 45.609 38.3353 46.1618C37.0008 46.7146 35.5704 46.9992 34.1258 46.9992C32.6813 46.9992 31.2509 46.7146 29.9163 46.1618C28.5817 45.609 27.3691 44.7988 26.3477 43.7773" stroke="white" stroke-linecap="round"/>
</svg>
