<svg width="69" height="68" viewBox="0 0 69 68" fill="none" xmlns="http://www.w3.org/2000/svg">
<circle cx="34.125" cy="34" r="33" stroke="#A67DB6" stroke-width="2"/>
<path fill-rule="evenodd" clip-rule="evenodd" d="M39.6641 16.1882C37.9974 14.0216 32.7757 10.5099 26.1641 15.1882C16.7641 21.8394 18.6604 38.0739 20.0477 49.951C20.2894 52.0203 20.5157 53.9574 20.6641 55.6884H48.6649C47.8316 47.5217 47.125 31.198 47.125 27.998C47.125 23.998 46.6632 16.1882 39.6641 16.1882ZM40.6655 24.1884C39.4988 26.0217 36.2655 29.8884 32.6655 30.6884C29.0655 31.4884 25.8321 31.3551 24.6655 31.1884C24.3321 36.3551 25.7655 46.7884 34.1655 47.1884C42.5655 47.5884 44.3318 36.6884 44.1649 31.1884L40.6655 24.1884Z" fill="#95539C"/>
<path d="M31.125 42C31.125 42 32.692 40 34.625 40C36.558 40 38.125 42 38.125 42" stroke="#95539C" stroke-width="1.4" stroke-linecap="round"/>
</svg>
