<svg width="69" height="68" viewBox="0 0 69 68" fill="none" xmlns="http://www.w3.org/2000/svg">
<circle cx="34.125" cy="34" r="33" stroke="#A67DB6" stroke-width="2"/>
<path fill-rule="evenodd" clip-rule="evenodd" d="M41.6751 21.0469C43.2331 22.4897 45.7562 22.2986 47.3106 20.6201C48.8649 18.9416 48.862 16.4113 47.304 14.9685C45.746 13.5257 43.223 13.7168 41.6686 15.3953C40.1142 17.0738 40.1171 19.6041 41.6751 21.0469ZM32.606 22.8723C33.5133 21.9314 35.9009 20.3601 38.1929 21.6021C40.485 22.8441 41.249 24.4718 41.3445 25.1304V37.1271C41.249 37.7387 40.7715 38.9619 39.6255 38.9619C38.4794 38.9619 37.8109 37.9269 37.6199 37.4094V29.0822C37.5244 28.7059 37.1615 27.9531 36.4739 27.9531C35.7863 27.9531 35.3278 28.7059 35.1846 29.0822L34.7591 33.941C34.1743 35.5035 33.1525 35.9725 32.7517 36.1565C32.6103 36.2214 32.5462 36.2508 32.606 36.2803C32.8352 36.3932 36.4261 39.4323 38.1929 40.9378C38.8137 41.7376 40.0839 43.7605 40.1985 45.4542C40.3131 47.1478 40.2462 50.5822 40.1985 52.0877C40.103 52.7933 39.5152 54.0629 38.0518 54.0629C36.672 54.0629 35.8567 53.3312 35.6143 52.0877C35.6143 51.9562 35.615 51.8173 35.6157 51.672C35.6252 49.6851 35.6405 46.5013 34.0385 44.6074C33.2836 43.7148 31.945 42.857 30.4888 41.9239L30.4888 41.9239C27.8005 40.2013 24.7115 38.2218 24.154 35.2923C23.4664 31.6792 29.5022 25.5068 32.606 22.8723ZM24.154 39.6676L29.3112 44.0428C29.1202 44.7485 28.6809 46.2446 28.4517 46.5833C28.2224 46.922 25.491 51.2408 24.154 53.3579C23.7242 53.6402 22.6069 54.12 21.5754 53.7813C20.2862 53.3579 19.8564 51.5231 20.2862 50.2529C20.5397 49.5035 21.8403 47.4278 22.8642 45.7936L22.8643 45.7935C23.5759 44.6577 24.154 43.7351 24.154 43.6194V39.6676Z" fill="#95539C"/>
</svg>
