<svg width="69" height="68" viewBox="0 0 69 68" fill="none" xmlns="http://www.w3.org/2000/svg">
<circle cx="34.125" cy="34" r="33" stroke="#A67DB6" stroke-width="2"/>
<path d="M19.1381 42.5L18.4614 42.6791H18.4614L19.1381 42.5ZM19.1381 29V28.3H18.4828L18.4396 28.9538L19.1381 29ZM25.4886 53L25.9107 52.4416L25.4886 53ZM44.5407 53L44.1186 52.4416L44.5407 53ZM50.8912 42.5L50.2145 42.3209L50.8912 42.5ZM50.8912 29L51.5897 28.9538L51.5465 28.3H50.8912V29ZM19.8148 42.3209C19.7336 42.0142 19.6686 41.224 19.6343 40.0698C19.6011 38.9509 19.5977 37.5739 19.6131 36.1576C19.6439 33.3228 19.7495 30.3618 19.8365 29.0462L18.4396 28.9538C18.3502 30.3048 18.2441 33.2938 18.2132 36.1424C18.1977 37.5677 18.2009 38.9657 18.235 40.1114C18.2679 41.2218 18.3308 42.1858 18.4614 42.6791L19.8148 42.3209ZM25.9107 52.4416C24.078 51.0564 22.6815 49.0331 21.672 47.0743C20.6656 45.1214 20.0692 43.2823 19.8148 42.3209L18.4614 42.6791C18.7362 43.7177 19.3657 45.6552 20.4276 47.7157C21.4864 49.7702 23.0006 51.9969 25.0665 53.5584L25.9107 52.4416ZM35.0146 56.3C32.0767 56.3 28.5275 54.4195 25.9107 52.4416L25.0665 53.5584C27.7419 55.5805 31.6019 57.7 35.0146 57.7V56.3ZM35.0146 57.7C38.4274 57.7 42.2874 55.5805 44.9628 53.5584L44.1186 52.4416C41.5017 54.4195 37.9526 56.3 35.0146 56.3V57.7ZM44.9628 53.5584C47.0287 51.9969 48.5429 49.7702 49.6017 47.7157C50.6636 45.6552 51.2931 43.7177 51.5679 42.6791L50.2145 42.3209C49.9601 43.2823 49.3637 45.1214 48.3573 47.0743C47.3478 49.0331 45.9513 51.0564 44.1186 52.4416L44.9628 53.5584ZM51.5679 42.6791C51.6985 42.1858 51.7614 41.2218 51.7943 40.1114C51.8284 38.9657 51.8316 37.5677 51.8161 36.1424C51.7852 33.2938 51.6791 30.3048 51.5897 28.9538L50.1928 29.0462C50.2798 30.3618 50.3854 33.3228 50.4162 36.1576C50.4316 37.5739 50.4282 38.9509 50.395 40.0698C50.3607 41.224 50.2957 42.0142 50.2145 42.3209L51.5679 42.6791ZM50.8912 28.3H35.0146V29.7H50.8912V28.3ZM19.1381 29.7H35.0146V28.3H19.1381V29.7Z" fill="#95539C"/>
<path d="M25.125 38L29.3361 40.1056C30.0732 40.4741 30.0732 41.5259 29.3361 41.8944L25.125 44" stroke="#95539C" stroke-width="1.4" stroke-linecap="round"/>
<path d="M45.125 38L40.9139 40.1056C40.1768 40.4741 40.1768 41.5259 40.9139 41.8944L45.125 44" stroke="#95539C" stroke-width="1.4" stroke-linecap="round"/>
<path d="M20.6242 22.4997C17.2911 24.5 17.7901 31.5 18.1234 35C19.9565 33.9997 25.0236 31.3989 26.6236 30.9989C28.6236 30.4989 29.6236 31.9989 35.6236 33.4989C40.4236 34.6989 48.7903 35.1664 51.6236 35L52.125 28.5C52.125 27 51.8236 26.6989 52.6236 25.4989C53.4236 24.2989 54.7903 21.1667 55.1236 20C54.2903 20.6669 52.0236 21 49.6236 21C46.6236 21 48.6236 18.999 39.6236 16.999C32.4236 15.399 27.2903 19.4995 26.1236 21.4997C25.1238 21.333 22.6241 21.2995 20.6242 22.4997Z" fill="#95539C"/>
<path d="M26.9375 10L25.9022 13.8637L28.0929 13.4154L27.0576 17.2791" stroke="#95539C" stroke-linecap="round"/>
<path d="M19.125 11.5156L20.1603 15.3793L21.8333 13.8958L22.8686 17.7595" stroke="#95539C" stroke-linecap="round"/>
<path d="M13.125 16.4141L15.9534 19.2425L16.6605 17.1212L19.489 19.9496" stroke="#95539C" stroke-linecap="round"/>
<path d="M19.125 43C18.5997 43 18.0796 42.8965 17.5943 42.6955C17.109 42.4945 16.668 42.1999 16.2966 41.8284C15.9251 41.457 15.6305 41.016 15.4295 40.5307C15.2285 40.0454 15.125 39.5253 15.125 39C15.125 38.4747 15.2285 37.9546 15.4295 37.4693C15.6305 36.984 15.9251 36.543 16.2966 36.1716C16.668 35.8001 17.109 35.5055 17.5943 35.3045C18.0796 35.1035 18.5997 35 19.125 35" stroke="#95539C" stroke-width="1.4"/>
<path d="M51.125 43C51.6503 43 52.1704 42.8965 52.6557 42.6955C53.141 42.4945 53.582 42.1999 53.9534 41.8284C54.3249 41.457 54.6195 41.016 54.8205 40.5307C55.0215 40.0454 55.125 39.5253 55.125 39C55.125 38.4747 55.0215 37.9546 54.8205 37.4693C54.6195 36.984 54.3249 36.543 53.9534 36.1716C53.582 35.8001 53.141 35.5055 52.6557 35.3045C52.1704 35.1035 51.6503 35 51.125 35" stroke="#95539C" stroke-width="1.4"/>
<path d="M39.125 51C39.125 50.2044 38.7563 49.4413 38.0999 48.8787C37.4435 48.3161 36.5533 48 35.625 48C34.6967 48 33.8065 48.3161 33.1501 48.8787C32.4937 49.4413 32.125 50.2044 32.125 51L35.625 51H39.125Z" fill="#95539C"/>
</svg>
