<svg width="69" height="68" viewBox="0 0 69 68" fill="none" xmlns="http://www.w3.org/2000/svg">
<circle cx="34.125" cy="34" r="33" stroke="#A67DB6" stroke-width="2"/>
<path fill-rule="evenodd" clip-rule="evenodd" d="M11.0464 27.9711C16.4508 25.3238 26.0063 21 29.4152 21C32.4652 21 33.8027 21.9925 34.9066 22.9925C35.8027 21.9925 36.9342 21 39.9756 21C42.8421 21 52.5215 25.3979 58.144 27.9761C57.8904 28.0079 57.597 28.0336 57.2621 28.0547C56.6825 28.0911 56.0213 28.1116 55.2815 28.1345C55.0709 28.141 54.8539 28.1478 54.6306 28.1551C52.6327 28.2209 50.1974 28.3345 47.6726 28.8122C46.3643 29.0597 45.049 29.4243 43.7234 29.7918L43.7233 29.7918C43.0357 29.9825 42.3452 30.1739 41.6516 30.3501C39.5866 30.8747 37.3805 31.3 34.8027 31.3C32.2561 31.3 29.9353 30.871 27.7377 30.3431C26.9784 30.1607 26.2221 29.963 25.4733 29.7673L25.4732 29.7672C24.0895 29.4056 22.7318 29.0507 21.4292 28.8115C18.8214 28.3326 16.4293 28.2202 14.4892 28.1556C14.2785 28.1485 14.074 28.1421 13.8757 28.1359C13.1536 28.1132 12.5129 28.093 11.9498 28.0565C11.6054 28.0341 11.3052 28.0063 11.0464 27.9711ZM10.1498 28.4138C10.1415 28.4179 10.1332 28.422 10.125 28.4261C10.129 28.4353 10.1331 28.4445 10.1371 28.4537L10.1498 28.4138ZM10.5662 29.3134C12.9902 33.6918 20.5004 40.9925 34.9066 40.9925C49.3233 40.9925 56.5062 33.6812 58.7284 29.3039C58.3157 29.377 57.8471 29.4207 57.3498 29.4519C56.7459 29.4898 56.0543 29.5113 55.3102 29.5343L55.3101 29.5343L55.3093 29.5343C55.1022 29.5408 54.8911 29.5473 54.6767 29.5543C52.6885 29.6198 50.3447 29.7315 47.9329 30.1878C46.6776 30.4253 45.4643 30.7621 44.1792 31.1189C43.4791 31.3133 42.7575 31.5136 41.9963 31.707C39.8717 32.2467 37.541 32.7 34.8027 32.7C32.0985 32.7 29.6566 32.2439 27.4107 31.7043C26.5872 31.5065 25.8022 31.3011 25.0427 31.1023C23.6981 30.7504 22.4333 30.4193 21.1763 30.1885C18.6753 29.7292 16.3689 29.6189 14.4426 29.5548C14.2405 29.5481 14.0416 29.5418 13.8467 29.5357L13.8463 29.5357C13.1201 29.5129 12.4478 29.4917 11.8591 29.4535C11.3964 29.4235 10.959 29.3817 10.5662 29.3134ZM59.1134 28.4555C59.1173 28.4457 59.1212 28.4359 59.125 28.4261C59.1169 28.4224 59.1087 28.4186 59.1006 28.4149L59.1134 28.4555Z" fill="#95539C"/>
<path d="M25.3027 30.6316C25.4219 30.6589 25.5564 30.6894 25.7045 30.7224C26.3397 30.864 27.2276 31.0527 28.2392 31.2415C30.2538 31.6175 32.7917 32 34.8027 32C36.8138 32 39.3517 31.6175 41.3662 31.2415C42.3779 31.0527 43.2658 30.864 43.9009 30.7224C44.0491 30.6894 44.1836 30.6589 44.3027 30.6316V41C44.3027 46.2467 40.0494 50.5 34.8027 50.5C29.556 50.5 25.3027 46.2467 25.3027 41V30.6316Z" fill="#95539C" stroke="#E5E5E5"/>
<path d="M34.8027 32.5V41" stroke="#E5E5E5" stroke-linecap="round"/>
</svg>
