<svg width="69" height="68" viewBox="0 0 69 68" fill="none" xmlns="http://www.w3.org/2000/svg">
<circle cx="34.125" cy="34" r="33" stroke="#A67DB6" stroke-width="2"/>
<path fill-rule="evenodd" clip-rule="evenodd" d="M34.125 50C35.6569 50.0002 52.125 40.7017 52.125 29.2318C52.125 17.7618 37.9548 17.4749 34.125 25.6367C30.2952 17.4749 16.125 17.7618 16.125 29.2318C16.125 30.8096 16.4366 32.3462 16.9781 33.8233C17.0255 33.8132 17.0746 33.8078 17.125 33.8078H21.3848L25.414 30.674C25.9037 30.2932 26.6184 30.4454 26.9103 30.9928L30.0079 36.8008L32.7368 29.3937C33.0353 28.5835 34.1512 28.507 34.5575 29.2688L37.6783 35.1202L40.3337 30.9475C40.6771 30.4078 41.4321 30.3249 41.8844 30.7773L44.9149 33.8078L50.125 33.8078C50.5116 33.8078 50.825 34.1212 50.825 34.5078C50.825 34.8944 50.5116 35.2078 50.125 35.2078L44.7493 35.2078C44.484 35.2078 44.2297 35.1025 44.0422 34.9149L41.2471 32.1198L38.4915 36.45C38.0805 37.0959 37.1258 37.0592 36.7655 36.3837L33.7421 30.7149L31.0132 38.1219C30.7147 38.9321 29.5988 39.0087 29.1925 38.2468L25.8986 32.0708L22.136 34.9972C21.9605 35.1337 21.7444 35.2078 21.5221 35.2078H17.559C21.6003 43.7648 32.8705 49.9998 34.125 50Z" fill="#95539C"/>
<path d="M10.125 34.5078L18.125 34.5078" stroke="#95539C" stroke-width="1.4" stroke-linecap="round"/>
<path d="M50.125 34.5078L58.125 34.5078" stroke="#95539C" stroke-width="1.4" stroke-linecap="round"/>
</svg>
