<svg width="69" height="68" viewBox="0 0 69 68" fill="none" xmlns="http://www.w3.org/2000/svg">
<circle cx="34.125" cy="34" r="33" stroke="#A67DB6" stroke-width="2"/>
<path d="M31.1253 53.9977C35.6253 54.9977 38.1253 51.9977 39.1253 50.4977C39.4585 49.8313 40.325 47.8985 41.125 45.4985C42.125 42.4985 43.125 41.9985 49.125 35.4985C55.125 28.9985 51.625 21.4978 48.125 17.4978C44.625 13.4978 35.8267 12.2169 30.625 17.9984C26.125 22.9999 27.625 27.9978 28.625 33.9978C29.625 39.9978 27.6253 39.4978 26.1253 43.9978C24.6253 48.4978 26.6253 52.9977 31.1253 53.9977Z" fill="#95539C"/>
<path d="M47.625 27C47.125 24.5 46.7444 19.5 40.625 19.5C35.125 19.5 32.125 21.5 32.125 26C32.125 27.8439 32.3218 29.4123 32.4885 30.3425C32.5603 30.7427 32.8905 31.0298 33.2819 31.1402C34.3745 31.4483 35.625 32.1786 35.625 33.5C35.625 34.9059 34.2096 35.9 33.0746 36.3466C32.7947 36.4568 32.5579 36.6614 32.4218 36.9297C31.8953 37.9678 31.125 39.1318 31.125 41.5C31.125 43.5 31.3952 45.5 33.625 45.5C35.8548 45.5 36.625 43 36.625 41C36.625 39 41.625 37 42.625 35C43.625 33 44.125 27 39.125 26C36.3515 25.4453 34.2917 26.5 33.625 27" stroke="white" stroke-width="1.4" stroke-linecap="round"/>
<path d="M20.3184 44.3848C21.5255 43.1776 22.4831 41.7445 23.1364 40.1673C23.7897 38.59 24.126 36.8996 24.126 35.1924C24.126 33.4852 23.7897 31.7947 23.1364 30.2175C22.4831 28.6403 21.5255 27.2072 20.3184 26" stroke="#95539C" stroke-width="1.4" stroke-linecap="round"/>
<path d="M17.125 41C17.7591 40.1464 18.2621 39.133 18.6052 38.0178C18.9484 36.9025 19.125 35.7072 19.125 34.5C19.125 33.2928 18.9484 32.0975 18.6052 30.9822C18.2621 29.867 17.7591 28.8536 17.125 28" stroke="#95539C" stroke-width="1.4" stroke-linecap="round"/>
<path d="M13.125 39C13.442 38.4747 13.6935 37.8511 13.8651 37.1648C14.0367 36.4785 14.125 35.7429 14.125 35C14.125 34.2571 14.0367 33.5215 13.8651 32.8352C13.6935 32.1489 13.442 31.5253 13.125 31" stroke="#95539C" stroke-width="1.4" stroke-linecap="round"/>
</svg>
