<svg width="69" height="68" viewBox="0 0 69 68" fill="none" xmlns="http://www.w3.org/2000/svg">
<circle cx="34.125" cy="34" r="33" stroke="#A67DB6" stroke-width="2"/>
<path d="M21.4628 39.5828C22.6383 41.5941 21.9526 46.4067 21.4628 48.5616C21.4628 48.5616 24.9746 50.0355 27.3403 49.9993C29.5672 49.9653 32.8505 48.5616 32.8505 48.5616C32.728 47.4845 32.4097 45.1867 32.1158 44.6121C31.7485 43.8938 36.1912 44.2911 39.0953 44.859C42.7688 45.5773 42.0341 40.9083 42.0341 40.19V37.429C42.7688 37.1896 44.3116 36.6389 44.6055 36.3516C44.9728 35.9924 45.3402 35.2741 44.9728 34.9149C44.6055 34.5558 41.2994 30.6051 41.2994 29.5277C41.2994 28.4502 40.9321 22.7026 36.1566 20.1886C31.3811 17.6745 23.2995 19.1111 19.6261 24.8576C15.9527 30.604 19.9934 37.0687 21.4628 39.5828Z" fill="#95539C" stroke="#95539C"/>
<path d="M47.125 39L52.5397 38.9999C55.8718 39.0031 56.5897 36.0814 55.8718 34.8265C54.2031 31.9095 50.8736 33.1626 50.4571 33.9914" stroke="#95539C" stroke-width="1.4" stroke-linecap="round"/>
<path d="M47.125 42L49.816 42.0001C52.8913 41.9969 53.5539 44.9186 52.8913 46.1735C51.3512 49.0905 48.2783 47.8374 47.8938 47.0086" stroke="#95539C" stroke-width="1.4" stroke-linecap="round"/>
</svg>
