<svg width="88" height="88" viewBox="0 0 88 88" fill="none" xmlns="http://www.w3.org/2000/svg">
<path d="M44 88C68.3005 88 88 68.3005 88 44C88 19.6995 68.3005 0 44 0C19.6995 0 0 19.6995 0 44C0 68.3005 19.6995 88 44 88Z" fill="#A67DB6"/>
<path d="M30.5302 30.5307V38.4029H42.7261V44.959H30.5302V60.1745H23.7848V23.7402H45.0667V30.5337H30.5302V30.5307Z" fill="white"/>
<path d="M31.1071 60.8088H23.2079V23.1035H45.6436V31.165H31.1041V37.7662H43.2999V45.5903H31.1041V60.8088H31.1071ZM24.3617 59.5408H29.9533V44.3253H42.1492V39.0401H29.9533V29.897H44.4928V24.3745H24.3617V59.5408Z" fill="white"/>
<path d="M53.702 48.1439C53.8132 50.6017 54.354 52.3655 55.3275 53.4351C56.298 54.5048 57.8304 55.0396 59.9186 55.0396C61.1295 55.0396 62.1931 54.8743 63.1125 54.5408C64.029 54.2073 64.8312 53.5673 65.5163 52.6178L70.1074 56.2234C69.1038 57.8189 67.7998 59.0147 66.1983 59.805C64.5968 60.5952 62.4065 60.9888 59.6362 60.9888C55.5048 60.9888 52.425 59.7959 50.3939 57.4072C48.3597 55.0186 47.3442 51.413 47.3442 46.5875C47.3442 36.7053 51.3614 31.7656 59.3958 31.7656C62.9653 31.7656 65.6905 32.8743 67.5624 35.0948C69.4343 37.3152 70.3718 40.5482 70.3718 44.7968V48.1409H53.702V48.1439ZM64.2483 43.4567C64.2483 39.2622 62.5807 37.165 59.2516 37.165C58.1489 37.165 57.2505 37.3723 56.5504 37.7839C55.8503 38.1956 55.2854 38.8115 54.8648 39.6288C54.4411 40.443 54.1106 41.72 53.8733 43.4597H64.2483V43.4567Z" fill="white"/>
<path d="M59.6332 61.6259C55.3576 61.6259 52.1065 60.3549 49.9702 57.846C47.8429 55.3492 46.7643 51.5633 46.7643 46.5907C46.7643 36.3358 51.0128 31.1348 59.3928 31.1348C63.1156 31.1348 66.003 32.3246 67.9831 34.6682C69.9511 36.9998 70.9457 40.4101 70.9457 44.8029V48.781H54.321C54.4832 50.719 54.961 52.1342 55.7361 52.9875C56.5895 53.931 57.9986 54.4057 59.9186 54.4057C61.0634 54.4057 62.0759 54.2495 62.9293 53.937C63.7315 53.6456 64.4496 53.0687 65.0656 52.2214L65.4081 51.7496L70.9036 56.0703L70.5791 56.5841C69.5184 58.2727 68.1213 59.5497 66.4297 60.382C64.7621 61.2082 62.4756 61.6259 59.6332 61.6259ZM59.3928 32.4027C51.6709 32.4027 47.9181 37.0419 47.9181 46.5907C47.9181 51.2298 48.8916 54.7242 50.8115 56.9777C52.7225 59.2192 55.6911 60.3579 59.6332 60.3579C62.3103 60.3579 64.4406 59.9763 65.961 59.2282C67.283 58.5762 68.4037 57.6177 69.2931 56.3708L65.6064 53.4743C64.9304 54.2705 64.1552 54.8324 63.2898 55.1449C62.3193 55.4994 61.1866 55.6767 59.9156 55.6767C57.6772 55.6767 55.9945 55.0728 54.9159 53.8859C53.8432 52.7081 53.2393 50.7881 53.1221 48.1771L53.0921 47.5101H69.7889V44.7999C69.7889 40.7376 68.8965 37.6188 67.1328 35.5306C65.3871 33.4574 62.782 32.4027 59.3928 32.4027ZM64.8252 44.0938H53.2002L53.2994 43.3637C53.5518 41.5338 53.8973 40.2088 54.36 39.3134C54.8348 38.397 55.4778 37.6939 56.277 37.2252C57.0582 36.7655 58.0617 36.5311 59.2516 36.5311C61.7935 36.5311 64.8252 37.733 64.8252 43.4598V44.0938ZM54.5493 42.8228H63.6564C63.5062 39.4005 62.094 37.7991 59.2486 37.7991C58.251 37.7991 57.4308 37.9823 56.8178 38.3429C56.2079 38.7005 55.7331 39.2233 55.3606 39.9384C55.0361 40.5723 54.7626 41.5398 54.5493 42.8228Z" fill="white"/>
</svg>
