<svg width="12" height="70" viewBox="0 0 12 70" fill="none" xmlns="http://www.w3.org/2000/svg">
<path d="M10.7378 2.82552C10.7378 14.9783 9.73077 31.02 7.71678 50.9505H4.19231C2.23427 29.8047 1.25524 13.763 1.25524 2.82552C2.87762 0.941841 4.47203 0 6.03846 0C7.6049 0 9.17133 0.941841 10.7378 2.82552ZM2.09441 68.2682C1.03147 67.1137 0.5 65.7161 0.5 64.0755C0.5 62.4349 1.03147 61.0373 2.09441 59.8828C3.15734 58.7283 4.44406 58.151 5.95455 58.151C7.46504 58.151 8.75175 58.7283 9.81469 59.8828C10.8776 61.0373 11.4091 62.4349 11.4091 64.0755C11.4091 65.7161 10.8776 67.1137 9.81469 68.2682C8.75175 69.4227 7.46504 70 5.95455 70C4.44406 70 3.15734 69.4227 2.09441 68.2682Z" fill="#792582"/>
</svg>
