<svg width="68" height="69" viewBox="0 0 68 69" fill="none" xmlns="http://www.w3.org/2000/svg">
<circle cx="34" cy="34.8877" r="33" stroke="#A67DB6" stroke-width="2"/>
<path fill-rule="evenodd" clip-rule="evenodd" d="M31.0407 53.9267C30.7808 54.6399 30.6071 55.1388 30.6657 55.3117C30.706 55.4307 30.8705 55.5834 31.1108 55.7522C31.1125 55.1733 31.0967 54.5528 31.0407 53.9267ZM37.4376 53.0712C39.398 50.3896 43.3635 46.635 45.7475 45.9449C48.8414 45.0492 51.6405 42.8336 51.62 41.725C51.6036 40.8382 50.6076 39.634 50.6076 39.634C50.6076 39.634 53.3234 39.0591 53.9239 37.5982C54.5244 36.1373 52.6797 34.673 52.6797 34.673C52.6797 34.673 54.9483 33.3165 54.6872 32.0663C54.426 30.8161 52.3975 29.6473 52.3975 29.6473C52.3975 29.6473 54.6469 28.713 54.6053 27.6319C54.5637 26.5507 52.273 25.8357 52.273 25.8357C52.273 25.8357 54.6936 24.5089 54.0691 23.5035C53.6705 22.8617 53.1946 22.6163 52.7569 22.3906C52.3374 22.1743 51.953 21.9761 51.7053 21.4645C51.5347 21.1121 51.4517 20.6783 51.3653 20.2267C51.1954 19.3385 51.0123 18.3818 50.1237 17.8423C49.3518 17.3737 49.0208 17.462 48.6814 17.5526C48.4313 17.6192 48.1767 17.6872 47.7379 17.5347C47.3565 17.4021 47.1316 17.1821 46.9075 16.9629C46.5239 16.5877 46.1427 16.215 44.9829 16.2874C44.0038 16.3486 43.4802 16.9467 43.0321 17.4585C42.6393 17.9072 42.3046 18.2895 41.7721 18.1857C41.5548 18.1433 41.3362 18.0921 41.1212 18.0417C40.2088 17.8279 39.36 17.629 38.9323 18.1843C38.6086 18.6047 38.5543 19.3143 38.5122 19.864C38.4856 20.2117 38.4638 20.4954 38.382 20.6017C38.2944 20.7154 37.9426 20.588 37.5304 20.4387C36.9474 20.2276 36.2436 19.9728 35.9961 20.2942C35.794 20.5566 35.937 21.0848 36.0801 21.613C36.2362 22.1893 36.3924 22.7657 36.1001 22.9971C35.8894 23.164 35.4842 23.1811 35.0362 23.2C35.0298 23.2003 35.0234 23.2006 35.0171 23.2008C35.9983 23.43 37.5258 23.8552 38.1599 24.3988C39.1296 25.2299 37.4216 27.329 37.4216 27.329C37.4216 27.329 40.5149 27.7235 40.9305 29.2473C41.3461 30.7711 39.1533 32.697 39.1533 32.697C39.1533 32.697 41.069 33.23 41.6232 33.9226C42.3158 34.7885 41.45 38.2517 39.5452 40.8491C37.8243 43.1959 36.9514 50.2073 37.4376 53.0712Z" fill="#95539C"/>
<path fill-rule="evenodd" clip-rule="evenodd" d="M17.3354 39.2779C17.3354 39.2779 14.7033 42.0485 17.3354 43.4338C17.8623 43.7111 18.4025 43.9884 18.9497 44.2693C21.8191 45.7422 24.879 47.313 27.2059 49.4944C29.1054 51.2752 30.0281 54.1955 30.588 55.9673C30.8448 56.7799 31.0252 57.3509 31.1886 57.4598C31.7081 57.8061 35.1713 56.9403 35.5176 56.7672C35.8639 56.594 36.3834 55.9014 35.5176 53.8234C34.6518 51.7455 35.5176 43.4338 37.4224 40.8364C39.3271 38.239 40.1929 34.7757 39.5003 33.9099C38.9462 33.2173 37.4224 32.871 37.4224 32.871C37.4224 32.871 39.2232 30.7584 38.8076 29.2346C38.3921 27.7108 36.0371 27.6762 36.0371 27.6762C36.0371 27.6762 37.0068 25.2172 36.0371 24.3861C35.0674 23.5549 32.747 23.8666 32.747 23.8666C32.747 23.8666 33.9591 21.7539 33.2665 20.9227C32.5739 20.0915 30.3228 20.9227 30.3228 20.9227C30.3228 20.9227 31.431 18.3946 30.3228 17.979C29.6154 17.7137 29.0886 17.8097 28.6041 17.8979C28.1398 17.9825 27.7143 18.06 27.2059 17.8058C26.8557 17.6307 26.5252 17.3377 26.1813 17.0326C25.5046 16.4326 24.7759 15.7863 23.7427 15.9011C22.8452 16.0008 22.6368 16.2727 22.4231 16.5515C22.2657 16.7569 22.1054 16.9661 21.6647 17.113C21.2816 17.2407 20.9692 17.2037 20.658 17.1667C20.1251 17.1035 19.5957 17.0407 18.721 17.8058C17.9826 18.4517 17.9327 19.2451 17.8899 19.924C17.8525 20.5191 17.8205 21.0262 17.3354 21.2689C17.1373 21.3679 16.9329 21.4607 16.7318 21.552C15.8785 21.9392 15.0846 22.2996 15.0846 23.0005C15.0846 23.5311 15.4745 24.1264 15.7766 24.5877C15.9677 24.8793 16.1236 25.1174 16.1236 25.2516C16.1236 25.395 15.7671 25.5088 15.3494 25.642C14.7587 25.8305 14.0457 26.058 14.0457 26.4637C14.0457 26.7949 14.4813 27.1261 14.9169 27.4573C15.3922 27.8186 15.8676 28.18 15.7773 28.5416C15.7121 28.8025 15.4016 29.0632 15.0581 29.3516C14.4891 29.8294 13.8297 30.3832 14.0457 31.139C14.2164 31.7368 14.6399 32.3346 15.0045 32.8493C15.3793 33.3783 15.6918 33.8195 15.6041 34.0828C15.5448 34.2604 15.3034 34.5191 15.0251 34.8171C14.4896 35.3908 13.8178 36.1104 14.0457 36.6802C14.3227 37.3728 17.3354 39.2779 17.3354 39.2779ZM23.6566 21.632C23.5775 21.3674 23.2989 21.217 23.0343 21.2961C22.7698 21.3752 22.6194 21.6538 22.6985 21.9184L23.4007 24.2676C22.8443 24.1096 22.0614 23.7745 21.2388 23.1163C21.0231 22.9438 20.7085 22.9788 20.536 23.1944C20.3635 23.4101 20.3985 23.7247 20.6141 23.8972C21.827 24.8676 23.0107 25.256 23.7275 25.3608L25.4417 31.0959L26.681 35.2418C25.5659 34.8833 23.9181 34.2272 22.5963 33.3122C21.7141 32.7014 21.148 32.2158 20.8015 31.8652C20.628 31.6898 20.514 31.5526 20.4436 31.4545C20.3965 31.3889 20.3771 31.3519 20.371 31.3402C20.3695 31.3375 20.3688 31.3361 20.3687 31.3362L20.3687 31.3363C20.2957 31.0771 20.0292 30.9213 19.7662 30.9871C19.4983 31.0541 19.3354 31.3255 19.4024 31.5934C19.4403 31.7451 19.5319 31.8991 19.6311 32.0374C19.7393 32.1883 19.89 32.3657 20.0903 32.5683C20.4913 32.9739 21.1085 33.4984 22.0271 34.1344C23.7384 35.3191 25.9113 36.0834 27.0235 36.3876L28.4438 41.1392L29.3646 44.2197C28.1685 43.8696 26.4438 43.3168 25.2892 42.7919C23.8162 42.1224 22.3168 41.0524 21.7583 40.6056C21.5426 40.4331 21.228 40.468 21.0555 40.6837C20.883 40.8993 20.9179 41.2139 21.1336 41.3864C21.7294 41.8631 23.3007 42.9865 24.8754 43.7023C26.3169 44.3575 28.5476 45.0358 29.7044 45.3565L32.2223 53.7799C32.3014 54.0445 32.58 54.1949 32.8446 54.1158C33.1091 54.0367 33.2595 53.7581 33.1804 53.4936L30.583 44.804L29.4692 41.0778C30.1637 40.0213 31.547 37.7162 32.4711 35.4721C33.4452 33.1063 33.9285 31.569 34.0522 31.074C34.1192 30.8061 33.9563 30.5346 33.6884 30.4676C33.4205 30.4006 33.1491 30.5635 33.0821 30.8314C32.975 31.2599 32.5117 32.7471 31.5464 35.0913C30.8261 36.8406 29.8085 38.6426 29.09 39.8092L27.9009 35.8312L26.4701 31.0445C27 30.2951 27.729 29.1627 28.3628 27.9608C29.0464 26.6645 29.6602 25.2124 29.737 24.0595C29.7554 23.784 29.5469 23.5457 29.2714 23.5274C28.9959 23.509 28.7576 23.7175 28.7393 23.993C28.6776 24.918 28.1568 26.2076 27.4783 27.4943C27.0318 28.341 26.5348 29.1541 26.1013 29.8108L24.5883 24.7489L23.6566 21.632Z" fill="#95539C"/>
</svg>
