<svg width="68" height="69" viewBox="0 0 68 69" fill="none" xmlns="http://www.w3.org/2000/svg">
<circle cx="34" cy="34.8877" r="33" stroke="#A67DB6" stroke-width="2"/>
<path d="M45.2398 20.7612C49.1386 20.4613 52.6125 17.3872 53.8621 15.8877C55.3616 16.2626 54.9867 17.3872 54.6119 17.7621C54.237 18.137 50.4882 19.2616 48.9886 21.8858C47.789 23.9851 47.739 28.2588 47.864 30.1332C47.3641 29.6334 46.2145 28.4088 45.6147 27.509C45.0149 26.6093 45.8646 24.385 46.3645 23.3853C45.7397 23.5103 44.0402 23.6852 42.2408 23.3853C40.4413 23.0854 39.4916 21.5109 39.2417 20.7612C39.6166 20.8861 41.341 21.0611 45.2398 20.7612Z" fill="#95539C"/>
<path fill-rule="evenodd" clip-rule="evenodd" d="M48.6138 21.5107C45.8647 21.5107 39.3167 22.7853 35.118 27.8837C32.8812 30.6 31.121 33.4524 29.4021 36.2378C27.088 39.9878 24.8489 43.6164 21.6223 46.6278C17.1237 50.8265 13.9997 53.3757 13 54.1255C17.2487 55.1252 27.1705 55.4751 32.8687 48.8771C37.8445 43.1158 43.0031 32.5979 46.0444 26.3972C47.3567 23.7216 48.2748 21.8497 48.6138 21.5107ZM41.4912 31.6324C41.4912 32.8747 40.4841 33.8817 39.2419 33.8817C37.9996 33.8817 36.9926 32.8747 36.9926 31.6324C36.9926 30.3902 37.9996 29.3831 39.2419 29.3831C40.4841 29.3831 41.4912 30.3902 41.4912 31.6324ZM37.7423 37.6305C37.7423 38.8728 36.7353 39.8798 35.4931 39.8798C34.2508 39.8798 33.2438 38.8728 33.2438 37.6305C33.2438 36.3883 34.2508 35.3812 35.4931 35.3812C36.7353 35.3812 37.7423 36.3883 37.7423 37.6305ZM31.7442 45.8779C32.9865 45.8779 33.9935 44.8709 33.9935 43.6286C33.9935 42.3864 32.9865 41.3793 31.7442 41.3793C30.502 41.3793 29.4949 42.3864 29.4949 43.6286C29.4949 44.8709 30.502 45.8779 31.7442 45.8779ZM29.4949 48.877C29.4949 50.1192 28.4879 51.1263 27.2457 51.1263C26.0034 51.1263 24.9964 50.1192 24.9964 48.877C24.9964 47.6347 26.0034 46.6277 27.2457 46.6277C28.4879 46.6277 29.4949 47.6347 29.4949 48.877Z" fill="#95539C"/>
<circle cx="38.492" cy="30.8826" r="0.749764" fill="#95539C"/>
<circle cx="34.7429" cy="36.8806" r="0.749764" fill="#95539C"/>
<circle cx="30.9944" cy="42.8796" r="0.749764" fill="#95539C"/>
<circle cx="26.4959" cy="48.1277" r="0.749764" fill="#95539C"/>
</svg>
