<svg width="68" height="68" viewBox="0 0 68 68" fill="none" xmlns="http://www.w3.org/2000/svg">
<path d="M18.088 20.8867V41.9924H29.1947V54.4994C29.1947 55.7948 30.26 56.8445 31.5747 56.8445C32.8893 56.8445 33.9547 55.7948 33.9547 54.4994C33.9547 55.7948 35.02 56.8445 36.3346 56.8445C37.6493 56.8445 38.7147 55.7948 38.7147 54.4994V41.9924H49.8213V20.8867H33.9547H18.088ZM30.7813 38.0839V41.2107H29.1947V28.7036L26.0213 31.8304V34.9571C26.0213 36.2891 24.8921 37.3631 23.5259 37.3002C22.2463 37.2413 21.2613 36.1551 21.2613 34.8922V31.4284C21.2613 30.1838 21.762 28.9919 22.6563 28.1128L28.4013 22.4521C28.8382 22.0217 29.6995 21.6704 30.3156 21.6704H33.1613V22.6085H30.7813C30.3424 22.6085 29.988 22.9577 29.988 23.3902C29.988 23.8226 30.3424 24.1718 30.7813 24.1718H33.1613V25.7352H30.7813C30.3424 25.7352 29.988 26.0845 29.988 26.5169C29.988 26.9494 30.3424 27.2986 30.7813 27.2986H33.1613V28.862H30.7813C30.3424 28.862 29.988 29.2112 29.988 29.6437C29.988 30.0762 30.3424 30.4254 30.7813 30.4254H33.1613V31.9888H30.7813C30.3424 31.9888 29.988 32.338 29.988 32.7704C29.988 33.2029 30.3424 33.5521 30.7813 33.5521H33.1613V37.3042H31.5747C31.1378 37.3022 30.7813 37.6535 30.7813 38.0839ZM35.5413 41.2107H33.9547H32.368V38.8656H35.5413V41.2107ZM34.748 33.5501H37.128C37.5669 33.5501 37.9213 33.2009 37.9213 32.7684C37.9213 32.3359 37.5669 31.9867 37.128 31.9867H34.748V30.4233H37.128C37.5669 30.4233 37.9213 30.0741 37.9213 29.6417C37.9213 29.2092 37.5669 28.86 37.128 28.86H34.748V27.2966H37.128C37.5669 27.2966 37.9213 26.9474 37.9213 26.5149C37.9213 26.0824 37.5669 25.7332 37.128 25.7332H34.748V24.1698H37.128C37.5669 24.1698 37.9213 23.8206 37.9213 23.3881C37.9213 22.9557 37.5669 22.6064 37.128 22.6064H34.748V21.6684H37.9213C38.3582 21.6684 38.9681 21.9181 39.2751 22.2207L45.253 28.1108C46.1452 28.9899 46.648 30.1838 46.648 31.4263V34.9551C46.648 36.287 45.5188 37.3611 44.1526 37.2982C42.873 37.2393 41.888 36.153 41.888 34.8901V31.8304L38.7147 28.7036V41.2107H37.128V38.0839C37.128 37.6514 36.7736 37.3022 36.3346 37.3022H34.748V33.5501Z" fill="#792582" fill-opacity="0.78"/>
<path d="M28.3169 24.5565L24.5089 28.3087C24.1998 28.6132 24.1998 29.1086 24.5089 29.4132C24.6634 29.5655 24.8674 29.6426 25.0694 29.6426C25.2734 29.6426 25.4753 29.5655 25.6299 29.4132L29.4379 25.6611C29.7469 25.3565 29.7469 24.8611 29.4379 24.5565C29.1288 24.252 28.626 24.252 28.3169 24.5565Z" fill="#A67DB6"/>
<path d="M23.6413 30.2676C23.2024 30.2676 22.848 30.6168 22.848 31.0493V34.9577C22.848 35.3902 23.2024 35.7394 23.6413 35.7394C24.0802 35.7394 24.4346 35.3902 24.4346 34.9577V31.0493C24.4346 30.6188 24.0802 30.2676 23.6413 30.2676Z" fill="#A67DB6"/>
<path d="M42.2795 29.4151C42.4341 29.5674 42.6381 29.6446 42.84 29.6446C43.0419 29.6446 43.2459 29.5674 43.4005 29.4151C43.7096 29.1106 43.7096 28.6152 43.4005 28.3106L39.5925 24.5585C39.2834 24.2539 38.7806 24.2539 38.4715 24.5585C38.1624 24.863 38.1624 25.3585 38.4715 25.663L42.2795 29.4151Z" fill="#A67DB6"/>
<path d="M43.4747 34.9577C43.4747 35.3902 43.8291 35.7394 44.268 35.7394C44.7069 35.7394 45.0614 35.3902 45.0614 34.9577V31.0493C45.0614 30.6168 44.7069 30.2676 44.268 30.2676C43.8291 30.2676 43.4747 30.6168 43.4747 31.0493V34.9577Z" fill="#A67DB6"/>
<path d="M38.7147 16.1969V14.6335C38.7147 12.0428 36.584 9.94336 33.9547 9.94336C31.3254 9.94336 29.1947 12.0428 29.1947 14.6335V16.1969C29.1947 18.7876 31.3254 20.887 33.9547 20.887C36.584 20.887 38.7147 18.7876 38.7147 16.1969Z" fill="#792582" fill-opacity="0.78"/>
<path d="M58.3873 10.7556C58.3275 10.6074 58.2369 10.4673 58.1132 10.3455C57.9916 10.2257 57.8495 10.1363 57.699 10.0754C51.5708 4.19752 43.2088 0.571289 34 0.571289C15.2526 0.571289 0 15.6 0 34.0723C0 43.1135 3.65551 51.3263 9.58182 57.3586C9.63951 57.5433 9.73636 57.72 9.88472 57.8661C10.0331 58.0123 10.2124 58.1098 10.4019 58.1646C16.5219 63.9857 24.8427 67.5713 34 67.5713C52.7474 67.5713 68 52.5425 68 34.0703C68 25.0169 64.3342 16.7898 58.3873 10.7556ZM34 65.1369C25.7596 65.1369 18.2508 62.004 12.6274 56.8875L20.6947 48.9386C21.1769 48.4635 21.1769 47.692 20.6947 47.2169C20.2125 46.7418 19.4294 46.7418 18.9452 47.2169L10.8759 55.1678C5.66461 49.6208 2.47273 42.208 2.47273 34.0723C2.47273 16.9441 16.6167 3.00773 34 3.00773C42.2568 3.00773 49.7822 6.15276 55.4076 11.2896L49.9202 16.6964C49.4381 17.1715 49.4381 17.9431 49.9202 18.4182C50.1613 18.6557 50.4787 18.7755 50.7939 18.7755C51.1092 18.7755 51.4265 18.6557 51.6676 18.4182L57.155 13.0113C62.3478 18.5522 65.5273 25.9508 65.5273 34.0703C65.5273 51.2005 51.3833 65.1369 34 65.1369Z" fill="#A67DB6"/>
</svg>
