<svg width="69" height="69" viewBox="0 0 69 69" fill="none" xmlns="http://www.w3.org/2000/svg">
<path d="M58.5203 10.9073C58.4606 10.7569 58.3699 10.6147 58.2463 10.491C58.1247 10.3695 57.9825 10.2788 57.8321 10.217C51.7038 4.25153 43.3419 0.571289 34.1331 0.571289C15.3857 0.571289 0.133057 15.8239 0.133057 34.5713C0.133057 43.7472 3.78857 52.0823 9.71487 58.2044C9.77257 58.3919 9.86942 58.5712 10.0178 58.7195C10.1661 58.8679 10.3454 58.9668 10.535 59.0224C16.655 64.9302 24.9757 68.5713 34.1331 68.5713C52.8805 68.5713 68.1331 53.3187 68.1331 34.5713C68.1331 25.381 64.4672 17.0335 58.5203 10.9073ZM34.1331 66.0986C25.8927 66.0986 18.3838 62.919 12.7605 57.7263L20.8277 49.659C21.3099 49.1769 21.3099 48.3938 20.8277 47.9117C20.3455 47.4295 19.5625 47.4295 19.0783 47.9117L11.0089 55.981C5.79766 50.3535 2.60578 42.8281 2.60578 34.5713C2.60578 17.188 16.7498 3.04402 34.1331 3.04402C42.3899 3.04402 49.9152 6.2359 55.5407 11.4492L46.6718 20.3181C46.1897 20.8003 46.1897 21.5833 46.6718 22.0675C46.9129 22.3086 47.2303 22.4302 47.5455 22.4302C47.8629 22.4302 48.1781 22.3086 48.4192 22.0675L57.2881 13.1987C62.4808 18.8221 65.6603 26.3309 65.6603 34.5713C65.6603 51.9546 51.5163 66.0986 34.1331 66.0986Z" fill="#A67DB6"/>
<path d="M39.1753 41.5276C43.2265 39.1044 44.9595 34.5113 44.23 29.9532L42.0478 17.707H25.0952L22.913 29.9532C22.1836 34.5113 23.9165 39.1044 27.9677 41.5276C29.3792 42.3725 30.9988 42.9082 32.7318 43.0381V51.1713L25.0952 52.012V52.8527H42.0478V52.012L34.4112 51.1713V43.0401C36.1421 42.9082 37.7618 42.3725 39.1753 41.5276ZM33.5705 41.3896C31.8973 41.3896 30.257 40.9383 28.829 40.0852C27.9965 39.5865 27.2609 38.9684 26.6427 38.2451C26.0472 37.5486 25.5609 36.7553 25.1962 35.8898C24.4729 34.1651 24.2545 32.2096 24.5698 30.2335L26.5026 19.3885H40.6384L42.5712 30.2335C42.8844 32.2096 42.6681 34.1651 41.9448 35.8898C41.5821 36.7553 41.0938 37.5486 40.4982 38.2451C39.8801 38.9684 39.1444 39.5865 38.3119 40.0852C36.8839 40.9383 35.2437 41.3896 33.5705 41.3896Z" fill="#792582" fill-opacity="0.78"/>
<path d="M39.2187 37.1515C39.7008 36.5869 40.0965 35.944 40.3911 35.2393C40.9928 33.8071 41.1721 32.1751 40.9104 30.5143L40.6611 29.1193C40.558 29.0389 40.4468 28.9647 40.3252 28.8947C39.9955 28.703 39.6019 28.5485 39.1671 28.4413C38.7303 28.3342 38.2522 28.2744 37.7494 28.2744C37.2467 28.2744 36.7665 28.3342 36.3317 28.4413C35.8949 28.5485 35.5034 28.703 35.1737 28.8947C34.5287 29.2676 33.9868 29.8961 33.5705 30.3907C33.1543 30.8852 32.6124 31.5116 31.9674 31.8867C31.6377 32.0783 31.2441 32.2328 30.8093 32.34C30.3725 32.4471 29.8944 32.5069 29.3916 32.5069C28.8888 32.5069 28.4087 32.4471 27.9739 32.34C27.5371 32.2328 27.1456 32.0783 26.8159 31.8867C26.5439 31.728 26.3131 31.5446 26.1379 31.3427C26.0411 32.715 26.2492 34.0482 26.7499 35.2413C27.0467 35.9461 27.4402 36.589 27.9224 37.1536C28.4211 37.7367 29.0187 38.2395 29.6945 38.6434C30.8608 39.3419 32.2023 39.7108 33.5726 39.7108C34.9429 39.7108 36.2844 39.3419 37.4507 38.6434C38.1245 38.2374 38.72 37.7367 39.2187 37.1515Z" fill="#792582" fill-opacity="0.78"/>
</svg>
