<svg width="68" height="69" viewBox="0 0 68 69" fill="none" xmlns="http://www.w3.org/2000/svg">
<g clip-path="url(#clip0_1797_11591)">
<path d="M58.3873 10.9073C58.3275 10.7569 58.2368 10.6147 58.1132 10.491C57.9916 10.3695 57.8495 10.2788 57.699 10.217C51.5708 4.25153 43.2088 0.571289 34 0.571289C15.2526 0.571289 0 15.8239 0 34.5713C0 43.7472 3.65551 52.0823 9.58182 58.2044C9.63951 58.3919 9.73636 58.5712 9.88473 58.7195C10.0331 58.8679 10.2124 58.9668 10.4019 59.0224C16.5219 64.9302 24.8427 68.5713 34 68.5713C52.7474 68.5713 68 53.3187 68 34.5713C68 25.381 64.3342 17.0335 58.3873 10.9073ZM34 66.0986C25.7596 66.0986 18.2508 62.919 12.6274 57.7263L20.6947 49.659C21.1768 49.1769 21.1768 48.3938 20.6947 47.9117C20.2125 47.4295 19.4295 47.4295 18.9452 47.9117L10.8759 55.981C5.66461 50.3535 2.47273 42.8281 2.47273 34.5713C2.47273 17.188 16.6167 3.04402 34 3.04402C42.2568 3.04402 49.7822 6.2359 55.4076 11.4492L46.5388 20.3181C46.0566 20.8003 46.0566 21.5833 46.5388 22.0675C46.7799 22.3086 47.0972 22.4302 47.4125 22.4302C47.7298 22.4302 48.0451 22.3086 48.2862 22.0675L57.155 13.1987C62.3478 18.8221 65.5273 26.3309 65.5273 34.5713C65.5273 51.9546 51.3833 66.0986 34 66.0986Z" fill="#A67DB6"/>
<path d="M44.5792 25.2598H33.897H23.2148C20.6473 25.2598 18.2261 26.2674 16.3983 28.0952C14.5706 29.9229 13.5629 32.3441 13.5629 34.9116C13.5629 40.2342 17.8923 44.5635 23.2148 44.5635H33.897H44.5792C47.1467 44.5635 49.5679 43.5559 51.3956 41.7281C53.2234 39.8983 54.231 37.4792 54.231 34.9116C54.231 29.5912 49.8996 25.2598 44.5792 25.2598ZM23.8268 28.9565C22.1309 28.9565 20.5298 29.6241 19.3203 30.8337C18.1086 32.0433 17.443 33.6444 17.443 35.3403C17.443 35.7421 17.1175 36.0697 16.7136 36.0697C16.3118 36.0697 15.9841 35.7441 15.9841 35.3403C15.9841 33.2549 16.8022 31.2891 18.2879 29.8034C19.7736 28.3177 21.7394 27.4996 23.8247 27.4996C24.2266 27.4996 24.5542 27.8252 24.5542 28.2291C24.5563 28.6289 24.2286 28.9565 23.8268 28.9565ZM49.5926 39.9272C48.245 41.2748 46.4646 42.0166 44.5792 42.0166H35.1704V27.8108H44.5792C48.4964 27.8108 51.6821 30.9965 51.6821 34.9137C51.68 36.7992 50.9382 38.5795 49.5926 39.9272Z" fill="#792582" fill-opacity="0.78"/>
</g>
<defs>
<clipPath id="clip0_1797_11591">
<rect width="68" height="68" fill="white" transform="translate(0 0.571289)"/>
</clipPath>
</defs>
</svg>
