<svg width="68" height="69" viewBox="0 0 68 69" fill="none" xmlns="http://www.w3.org/2000/svg">
<circle cx="34" cy="34.8877" r="33" stroke="#A67DB6" stroke-width="2"/>
<path fill-rule="evenodd" clip-rule="evenodd" d="M27.1803 52.5767C28.2561 53.347 31.6064 54.8877 36.4014 54.8877C42.3951 54.8877 45.3919 52.3456 45.3919 51.4212C45.3919 50.6817 45.0845 50.1887 44.9309 50.0346C45.6993 49.2643 47.0978 47.5387 46.5445 46.7992C45.9913 46.0597 44.9309 46.4911 44.4698 46.7992C39.7056 50.0346 29.5778 54.0559 27.1803 44.2572C24.9087 34.9731 33.4144 31.4989 39.836 28.8759C41.8862 28.0385 43.724 27.2878 44.9309 26.4625C50 22.9961 51.6158 18.8362 51.8463 18.1429C52.0768 17.4496 52.3074 16.5252 50.4632 16.5252H47.6968L48.8495 15.6008C49.0032 15.4467 49.2183 15.0924 48.8495 14.9075C48.3884 14.6764 35.0179 16.5252 30.4074 17.4496C25.7969 18.374 23.2611 20.454 24.8748 23.6894C26.1657 26.2777 29.7158 30.3142 31.3295 32.009C29.5621 31.5468 25.7047 29.9753 24.4137 27.387C23.5052 25.5653 23.1812 24.4763 22.9893 23.8311C22.8404 23.3304 22.771 23.0971 22.5695 22.9961C22.1085 22.765 21.6474 22.9961 21.1864 23.2272C20.7253 23.4583 18.1895 26.4626 17.4979 29.2358C16.9277 31.5226 16.9844 32.5522 17.0218 33.2318C17.0298 33.3764 17.0369 33.5051 17.0369 33.6267C17.0369 34.32 17.959 35.9377 20.0338 36.8621C21.6935 37.6016 23.1843 38.0946 23.7222 38.2487C22.8769 38.3257 20.8176 38.3873 19.3422 38.0176C17.8668 37.6478 17.1906 37.2473 17.0369 37.0932C17.0369 37.9406 17.1291 39.9588 17.4979 41.253C17.8668 42.5472 18.7274 44.4114 19.1117 45.1817C19.6496 45.2587 21.002 45.3666 22.1085 45.1817C23.215 44.9968 24.1064 44.3343 24.4137 44.0262C24.1832 44.4884 23.4917 45.5052 22.5695 45.875L20.2643 46.7992C20.5717 47.5694 21.463 49.2949 22.5695 50.0346C23.6761 50.7743 25.0285 51.5755 25.5664 51.8836C25.9508 51.7295 26.8117 51.3752 27.1803 51.1903C27.549 51.0054 28.2559 50.1889 28.5632 49.8037L27.1803 52.5767ZM44.5 19.8877C45.3284 19.8877 46 19.2161 46 18.3877C46 17.5593 45.3284 16.8877 44.5 16.8877C43.6716 16.8877 43 17.5593 43 18.3877C43 19.2161 43.6716 19.8877 44.5 19.8877Z" fill="#95539C"/>
<circle cx="44" cy="18.8877" r="1" fill="#95539C"/>
</svg>
