<svg width="68" height="69" viewBox="0 0 68 69" fill="none" xmlns="http://www.w3.org/2000/svg">
<circle cx="34" cy="34.8877" r="33" stroke="#A67DB6" stroke-width="2"/>
<path fill-rule="evenodd" clip-rule="evenodd" d="M20.0279 24.707L18.7852 22.167L22.0031 22.4937L22.6427 24.0085C23.1587 23.6876 23.7206 23.4417 24.323 23.283C28.4889 22.1855 33.0193 25.6735 34.442 31.0737C35.8646 36.4739 33.6408 41.7413 29.475 42.8388C28.3807 43.1271 27.2612 43.099 26.1795 42.8029C25.3841 43.5936 24.4237 44.1697 23.3293 44.458C19.1634 45.5555 14.633 42.0675 13.2103 36.6673C11.7877 31.2671 14.0115 25.9997 18.1773 24.9022C18.79 24.7408 19.4105 24.6786 20.0279 24.707Z" fill="#95539C"/>
<circle r="4.5" transform="matrix(-0.928149 -0.372209 -0.372209 0.928149 51.7783 31.3748)" fill="#95539C"/>
<circle r="4.5" transform="matrix(-0.928149 -0.372209 -0.372209 0.928149 46.7509 46.5974)" fill="#95539C"/>
<circle r="4.5" transform="matrix(-0.928149 -0.372209 -0.372209 0.928149 53.4414 40.6619)" fill="#95539C"/>
<circle r="4.5" transform="matrix(-0.928149 -0.372209 -0.372209 0.928149 43.4248 28.0252)" fill="#95539C"/>
<circle r="4.5" transform="matrix(-0.928149 -0.372209 -0.372209 0.928149 37.4692 42.8758)" fill="#95539C"/>
<circle r="4.5" transform="matrix(-0.928149 -0.372209 -0.372209 0.928149 38.2041 51.7898)" fill="#95539C"/>
<circle r="4.5" transform="matrix(-0.928149 -0.372209 -0.372209 0.928149 44.1596 36.9392)" fill="#95539C"/>
<path fill-rule="evenodd" clip-rule="evenodd" d="M34.7111 29.2247C35.6001 29.0008 36.5655 29.0456 37.4815 29.4129C39.7882 30.338 40.9083 32.9578 39.9833 35.2646C39.2453 37.1046 37.429 38.1896 35.5534 38.0837C35.5554 38.0788 35.5574 38.0739 35.5593 38.0689C36.772 35.0449 36.3498 31.7705 34.7111 29.2247Z" fill="#95539C"/>
<path d="M48.0556 28.2661C48.6391 27.2055 49.8151 24.5886 49.851 22.6057C49.8868 20.6227 48.4196 18.5486 47.6815 17.7595" stroke="#95539C"/>
<path d="M52.999 22.3871C51.3989 23.187 50.5009 25.5543 50.501 26.3877C51.6683 26.3877 54.001 26.3877 56.001 25.3877C57.1322 24.8221 58.1663 22.8875 58.499 21.8871C57.3324 21.7205 54.5991 21.5872 52.999 22.3871Z" fill="#95539C"/>
</svg>
