<svg width="68" height="69" viewBox="0 0 68 69" fill="none" xmlns="http://www.w3.org/2000/svg">
<circle cx="34" cy="34.8877" r="33" stroke="#A67DB6" stroke-width="2"/>
<path d="M43.7689 24.5232L43.6336 24.5912L43.5588 24.7229C43.4443 24.9243 43.3492 25.1532 43.3521 25.4139C43.3551 25.6814 43.4599 25.9057 43.5912 26.0998C43.7177 26.2869 43.8958 26.4842 44.0979 26.6992C44.1731 26.7791 44.2522 26.8622 44.3367 26.9509C44.4914 27.1133 44.6643 27.2948 44.8643 27.5113C45.5554 28.2595 46.2864 28.6151 47.1281 28.5689C47.9185 28.5256 48.7261 28.1281 49.5888 27.5981C50.2815 27.1725 51.0044 27.0069 51.875 26.8075C51.9743 26.7847 52.0754 26.7615 52.1787 26.7375C53.1734 26.5058 54.2917 26.2021 55.5105 25.3853C56.0291 25.0377 56.3772 24.6025 56.3914 24.0699C56.405 23.5575 56.1013 23.1386 55.7755 22.8323C55.1942 22.2859 54.2648 21.8375 53.4702 21.5295C53.3628 20.884 52.9448 20.0637 51.8253 19.5385C51.2904 19.2876 50.7573 19.3785 50.3012 19.5995C49.8571 19.8145 49.4436 20.1704 49.0797 20.5361C48.7526 20.865 48.4386 21.2303 48.1599 21.5546C48.126 21.594 48.0927 21.6329 48.0598 21.671C47.7433 22.0384 47.4946 22.3168 47.2993 22.4739C46.9543 22.7514 46.3054 23.1482 45.605 23.5435C44.9146 23.9331 44.2074 24.3028 43.7689 24.5232Z" stroke="#95539C"/>
<path fill-rule="evenodd" clip-rule="evenodd" d="M37.4706 24.824C36.5782 25.345 33.2252 26.641 26.9526 27.657C19.1119 28.927 12.1318 32.0531 13.088 38.8915C14.0442 45.7299 20.5463 52.2752 27.9089 53.6429C35.2715 55.0106 39.4787 50.5168 40.6261 43.5807C41.4066 38.8625 44.0011 36.2237 45.9117 34.2806C46.8098 33.3672 47.5567 32.6075 47.8931 31.8577C48.9449 29.5131 50.0227 26.1791 46.2676 23.7491C43.399 21.8929 38.7137 24.1727 37.4706 24.824ZM22.3792 46.9238C26.9993 50.5774 32.6832 51.0877 35.0746 48.0636C37.466 45.0395 35.6593 39.6263 31.0392 35.9727C26.4191 32.3192 20.7352 31.8089 18.3438 34.833C15.9524 37.857 17.7591 43.2703 22.3792 46.9238Z" fill="#95539C"/>
<ellipse cx="24.6484" cy="39.6055" rx="4.12123" ry="3.41674" transform="rotate(38.3368 24.6484 39.6055)" fill="#95539C"/>
</svg>
