<svg width="68" height="69" viewBox="0 0 68 69" fill="none" xmlns="http://www.w3.org/2000/svg">
<path d="M42.2558 14.3633C38.6581 14.3633 35.7405 18.6021 35.7405 23.8321C35.7405 28.0461 37.6328 31.6152 40.2519 32.8434V52.7515C40.2519 53.8766 41.1472 54.7874 42.2558 54.7874C43.3623 54.7874 44.2617 53.8766 44.2617 52.7515V32.8454C46.8788 31.6173 48.7731 28.0482 48.7731 23.8341C48.7731 18.6021 45.8555 14.3633 42.2558 14.3633Z" fill="#792582" fill-opacity="0.78"/>
<path d="M29.0933 14.3115C28.3827 14.3115 27.8061 14.8968 27.8061 15.618V23.8421C27.8061 24.5634 27.3777 25.1486 26.8478 25.1486C26.3199 25.1486 25.8895 24.5634 25.8895 23.8421V15.618C25.8895 15.2574 25.7453 14.9297 25.5118 14.6948C25.2804 14.4599 24.9576 14.3115 24.6023 14.3115C23.8876 14.3115 23.311 14.8968 23.311 15.618V23.8421C23.311 24.5634 22.8826 25.1486 22.3547 25.1486C21.8248 25.1486 21.3964 24.5634 21.3964 23.8421V15.618C21.3964 15.2574 21.2502 14.9297 21.0188 14.6948C20.7873 14.4599 20.4645 14.3115 20.1092 14.3115C19.3966 14.3115 18.822 14.8968 18.822 15.618V26.6611C18.822 29.3091 20.4117 31.5717 22.5983 32.4495V52.8048C22.5983 53.9279 23.4957 54.8387 24.6043 54.8387C25.7108 54.8387 26.6102 53.9279 26.6102 52.8048V32.464C28.8151 31.5964 30.3886 29.3256 30.3886 26.6652V15.618C30.3886 15.2574 30.2444 14.9297 30.011 14.6948C29.7714 14.4578 29.4486 14.3115 29.0933 14.3115Z" fill="#792582" fill-opacity="0.78"/>
<path d="M57.6617 10.9097C57.6028 10.7592 57.5135 10.617 57.3917 10.4934C57.2719 10.3718 57.1318 10.2812 56.9836 10.2193C50.9455 4.2537 42.7045 0.571289 33.6331 0.571289C15.1614 0.571289 0.133057 15.8244 0.133057 34.5723C0.133057 43.7485 3.73481 52.0839 9.57397 58.2061C9.63081 58.3937 9.72623 58.5729 9.87241 58.7213C10.0186 58.8697 10.1952 58.9686 10.382 59.0242C16.412 64.9322 24.6104 68.5713 33.6331 68.5713C52.1048 68.5713 67.1331 53.3182 67.1331 34.5703C67.131 25.3859 63.5191 17.036 57.6617 10.9097ZM33.631 66.1047C25.5118 66.1047 18.1134 62.9251 12.5727 57.7322L20.5213 49.6647C20.9964 49.1825 20.9964 48.3994 20.5213 47.9172C20.0463 47.435 19.2747 47.435 18.7997 47.9172L10.849 55.9868C5.71231 50.3612 2.56739 42.8356 2.56739 34.5785C2.56739 17.1947 16.5034 3.05027 33.631 3.05027C41.7664 3.05027 49.1811 6.24225 54.7238 11.4557L49.3171 16.9433C48.8421 17.4255 48.8421 18.2086 49.3171 18.6907C49.5547 18.9318 49.8674 19.0534 50.178 19.0534C50.4886 19.0534 50.8013 18.9318 51.0388 18.6907L56.4455 13.2032C61.5619 18.8268 64.6947 26.3358 64.6947 34.5764C64.6947 51.9602 50.7607 66.1047 33.631 66.1047Z" fill="#A67DB6"/>
</svg>
