<svg width="36" height="31" viewBox="0 0 36 31" fill="none" xmlns="http://www.w3.org/2000/svg">
<path d="M33.115 3.58199C31.795 4.902 30.574 6.486 29.452 8.334C28.396 10.182 27.703 12.03 27.373 13.878C29.815 13.878 31.828 14.571 33.412 15.957C35.062 17.343 35.887 19.29 35.887 21.798C35.887 24.24 35.128 26.286 33.61 27.936C32.158 29.52 30.244 30.312 27.868 30.312C25.492 30.312 23.545 29.487 22.027 27.837C20.575 26.121 19.849 24.042 19.849 21.6C19.849 17.508 20.839 13.581 22.819 9.819C24.799 5.991 27.307 3.021 30.343 0.908998L33.115 3.58199ZM14.008 3.58199C12.688 4.902 11.467 6.486 10.345 8.334C9.289 10.182 8.596 12.03 8.266 13.878C10.708 13.878 12.721 14.571 14.305 15.957C15.955 17.343 16.78 19.29 16.78 21.798C16.78 24.24 16.021 26.286 14.503 27.936C13.051 29.52 11.137 30.312 8.761 30.312C6.385 30.312 4.438 29.487 2.92 27.837C1.468 26.121 0.742 24.042 0.742 21.6C0.742 17.508 1.732 13.581 3.712 9.819C5.692 5.991 8.2 3.021 11.236 0.908998L14.008 3.58199Z" fill="#792582"/>
</svg>
