<svg width="68" height="68" viewBox="0 0 68 68" fill="none" xmlns="http://www.w3.org/2000/svg">
<circle cx="34" cy="34" r="33" stroke="#A67DB6" stroke-width="2"/>
<circle cx="23.5" cy="52.5" r="2.5" fill="#95539C"/>
<path fill-rule="evenodd" clip-rule="evenodd" d="M51 29C51 38.3888 43.3888 46 34 46C33.2971 46 32.6043 45.9573 31.9238 45.8745C31.9739 45.5905 32 45.2983 32 45C32 42.2386 29.7614 40 27 40C25.3747 40 23.9305 40.7755 23.0173 41.9766C19.3365 38.8583 17 34.202 17 29C17 19.6112 24.6112 12 34 12C43.3888 12 51 19.6112 51 29ZM29.0731 25.5921V28.2141H33.0809V29.7995H29.0731V33.8645H27V24H28.5064H29.0731H33.5647V25.5921H29.0731ZM37.9319 34C37.3514 34 36.8309 33.9097 36.3702 33.729C35.9095 33.5438 35.5179 33.2886 35.1955 32.9634C34.8776 32.6382 34.6334 32.2611 34.463 31.832C34.2925 31.3984 34.2073 30.9377 34.2073 30.4499V30.1789C34.2073 29.6233 34.2879 29.1152 34.4492 28.6545C34.6104 28.1938 34.8407 27.794 35.1402 27.4553C35.4442 27.1165 35.8128 26.8568 36.2458 26.6762C36.6788 26.491 37.1672 26.3984 37.7108 26.3984C38.2405 26.3984 38.7104 26.4842 39.1204 26.6558C39.5304 26.8275 39.8736 27.0714 40.15 27.3875C40.4311 27.7037 40.643 28.0831 40.7858 28.5257C40.9286 28.9639 41 29.4517 41 29.9892V30.8022H36.2256C36.2457 30.9635 36.2801 31.1171 36.3287 31.2629C36.4163 31.5113 36.5383 31.7258 36.695 31.9065C36.8562 32.0872 37.0497 32.2272 37.2754 32.3266C37.5058 32.4259 37.766 32.4756 38.0563 32.4756C38.4156 32.4756 38.7496 32.4079 39.0582 32.2724C39.3715 32.1323 39.641 31.9223 39.8667 31.6423L40.8342 32.6721C40.6775 32.8934 40.4633 33.1057 40.1915 33.3089C39.9243 33.5122 39.6018 33.6793 39.2241 33.8103C38.8463 33.9368 38.4156 34 37.9319 34ZM36.2873 29.2846C36.2729 29.355 36.2604 29.4273 36.2498 29.5014H39.0444V29.3523C39.0444 29.0813 38.9937 28.8397 38.8924 28.6274C38.7957 28.4106 38.6482 28.2389 38.4501 28.1125C38.2521 27.986 37.9987 27.9228 37.69 27.9228C37.4274 27.9228 37.2017 27.9792 37.0128 28.0921C36.824 28.2051 36.6696 28.3631 36.5499 28.5664C36.4347 28.7696 36.3472 29.009 36.2873 29.2846Z" fill="#95539C"/>
<circle cx="27" cy="45" r="4" fill="#95539C"/>
</svg>
