<svg width="69" height="68" viewBox="0 0 69 68" fill="none" xmlns="http://www.w3.org/2000/svg">
<circle cx="34.9688" cy="34" r="33" stroke="#A67DB6" stroke-width="2"/>
<path fill-rule="evenodd" clip-rule="evenodd" d="M23.0465 15.0785C26.2521 14.5552 29.6546 15.5296 32.1266 18.0016C34.5983 20.4733 35.5727 23.8753 35.0499 27.0805C31.8443 27.6037 28.4418 26.6293 25.9698 24.1573C23.4981 21.6856 22.5237 18.2837 23.0465 15.0785Z" fill="#95539C"/>
<path fill-rule="evenodd" clip-rule="evenodd" d="M35.2362 27.0805C38.4418 27.6037 41.8443 26.6293 44.3163 24.1573C46.788 21.6856 47.7624 18.2837 47.2396 15.0785C44.0341 14.5552 40.6316 15.5296 38.1596 18.0016C35.6879 20.4733 34.7134 23.8753 35.2362 27.0805Z" fill="#95539C"/>
<path fill-rule="evenodd" clip-rule="evenodd" d="M35.0499 37.4662C31.8443 37.9895 28.4418 37.0151 25.9698 34.5431C23.4981 32.0714 22.5237 28.6694 23.0465 25.4642C26.2521 24.941 29.6546 25.9153 32.1266 28.3873C34.5983 30.859 35.5727 34.261 35.0499 37.4662Z" fill="#95539C"/>
<path fill-rule="evenodd" clip-rule="evenodd" d="M47.2396 25.4642C44.0341 24.941 40.6316 25.9153 38.1596 28.3873C35.6879 30.859 34.7134 34.261 35.2362 37.4662C38.4418 37.9895 41.8443 37.0151 44.3163 34.5431C46.788 32.0714 47.7624 28.6694 47.2396 25.4642Z" fill="#95539C"/>
<path fill-rule="evenodd" clip-rule="evenodd" d="M35.0499 47.9184C31.8443 48.4416 28.4418 47.4672 25.9698 44.9952C23.4981 42.5235 22.5237 39.1216 23.0465 35.9164C26.2521 35.3931 29.6546 36.3675 32.1266 38.8395C34.5983 41.3112 35.5727 44.7132 35.0499 47.9184Z" fill="#95539C"/>
<path fill-rule="evenodd" clip-rule="evenodd" d="M47.2396 35.9164C44.0341 35.3931 40.6316 36.3675 38.1596 38.8395C35.6879 41.3112 34.7134 44.7132 35.2362 47.9184C38.4418 48.4416 41.8443 47.4672 44.3163 44.9952C46.788 42.5235 47.7624 39.1216 47.2396 35.9164Z" fill="#95539C"/>
<path d="M35.4045 56.9989V24.5986" stroke="#95539C" stroke-width="1.4" stroke-linecap="round"/>
</svg>
