<svg width="68" height="68" viewBox="0 0 68 68" fill="none" xmlns="http://www.w3.org/2000/svg">
<circle cx="34" cy="34" r="33" stroke="#A67DB6" stroke-width="2"/>
<path fill-rule="evenodd" clip-rule="evenodd" d="M27.9133 58.2836C27.2696 56.4565 26.3418 53.2712 26.3418 50.9879C26.3418 49.3009 27.1198 47.0349 27.8749 44.8356C28.5869 42.7621 29.2785 40.7479 29.2785 39.334C29.2785 36.4206 27.443 32.0504 26.3418 33.5071C25.4608 34.6725 20.4684 34.9525 19 33.5071C20.1013 33.1315 22.2304 30.7251 23.4051 24.0241C24.8734 15.6479 27.0759 7.64779 34.0506 8.01198C39.6304 8.30332 39.8017 12.2608 39.1899 14.2031V18.9397C39.1899 20.6878 36.9873 21.8532 35.8861 22.2174C35.8861 22.703 36.1063 24.0383 36.9873 25.495C37.425 26.2187 38.3843 26.7104 39.4738 27.2689C41.1259 28.1158 43.0772 29.116 43.962 31.3106C45.1367 34.2241 43.4726 35.4494 42.1266 35.6922C42.3328 35.8968 42.539 36.0979 42.7439 36.2977C45.2137 38.7065 47.5 40.9364 47.5 47C47.5 51.7344 43.3502 55.3582 40.6582 56.4507L41.495 57.9034C39.1217 58.6167 36.6056 59 34 59C31.9039 59 29.8658 58.752 27.9133 58.2836Z" fill="#95539C"/>
</svg>
