<svg width="68" height="68" viewBox="0 0 68 68" fill="none" xmlns="http://www.w3.org/2000/svg">
<circle cx="34" cy="34" r="33" stroke="#A67DB6" stroke-width="2"/>
<path fill-rule="evenodd" clip-rule="evenodd" d="M30.0066 31.726C36.5003 27.9423 39.694 21.3216 37.14 16.9384C34.586 12.5551 27.2514 12.0691 20.7577 15.8529C14.264 19.6366 11.0702 26.2573 13.6243 30.6405C16.1783 35.0237 23.5129 35.5097 30.0066 31.726ZM29.4864 18.1159C29.5499 17.8471 29.3836 17.5778 29.1149 17.5142C28.8462 17.4507 28.5769 17.6169 28.5133 17.8855L28.5132 17.8857L28.5132 17.8857L28.5121 17.8903L28.5064 17.9129C28.501 17.9338 28.4923 17.9663 28.4802 18.0093C28.456 18.0952 28.4178 18.223 28.3636 18.3844C28.255 18.7075 28.0824 19.1634 27.8287 19.6867C27.3198 20.7364 26.4936 22.0382 25.2201 23.0888C23.7605 24.2929 22.199 24.8973 20.9983 25.2002C20.3987 25.3515 19.8922 25.4267 19.5382 25.4641C19.3614 25.4828 19.2231 25.492 19.1307 25.4965C19.0846 25.4987 19.05 25.4998 19.0278 25.5003L19.0041 25.5008L18.9995 25.5008L18.9995 25.5008L18.9994 25.5008L18.9992 25.5008H18.9991C18.7233 25.5012 18.4998 25.7249 18.4998 26.0008C18.4998 26.2769 18.7236 26.5008 18.9998 26.5008V26.0008C18.9998 26.5008 19 26.5008 19.0002 26.5008H19.0007L19.0018 26.5008L19.0052 26.5008L19.0156 26.5007L19.0513 26.5C19.0816 26.4993 19.1246 26.498 19.1795 26.4953C19.2892 26.4899 19.4464 26.4794 19.6433 26.4586C20.0368 26.417 20.5907 26.3344 21.2429 26.1698C22.5458 25.8412 24.2535 25.1824 25.8564 23.8602C27.2752 22.6898 28.1798 21.2548 28.7285 20.1229C29.0037 19.5554 29.1917 19.0593 29.3115 18.7031C29.3714 18.5248 29.4144 18.3811 29.4427 18.2806C29.4569 18.2302 29.4674 18.1907 29.4746 18.1629L29.4829 18.1302L29.4852 18.1207L29.4859 18.1177L29.4862 18.1166L29.4863 18.1162C29.4863 18.116 29.4864 18.1159 28.9998 18.0008L29.4864 18.1159Z" fill="#95539C"/>
<path fill-rule="evenodd" clip-rule="evenodd" d="M24.0059 38.9975C24.0059 38.0008 24.103 37.0268 24.2884 36.0844C26.7286 35.878 29.3691 35.0531 31.8834 33.588C36.1042 31.1287 38.9308 27.4708 39.6911 24.0078C47.6623 24.3635 54.0156 30.9386 54.0156 38.9975C54.0156 47.2845 47.2977 54.0024 39.0107 54.0024C30.7238 54.0024 24.0059 47.2845 24.0059 38.9975ZM43.4775 46.6607C43.7315 46.5524 43.8496 46.2587 43.7413 46.0047C43.633 45.7506 43.3393 45.6325 43.0853 45.7408C41.9839 46.2104 40.7935 46.4245 39.6137 46.3664C38.4339 46.3082 37.3002 45.9797 36.3059 45.4109C35.3117 44.8421 34.485 44.0492 33.8923 43.0993C33.2998 42.1495 32.957 41.0679 32.8928 39.9434C32.877 39.6677 32.6408 39.4569 32.3651 39.4727C32.0894 39.4884 31.8787 39.7247 31.8944 40.0004C31.9681 41.2915 32.3621 42.5357 33.0439 43.6286C33.7257 44.7215 34.6744 45.6296 35.8093 46.2789C36.944 46.928 38.2316 47.2995 39.5645 47.3651C40.8973 47.4308 42.2385 47.189 43.4775 46.6607Z" fill="#95539C"/>
</svg>
