<svg width="30" height="43" viewBox="0 0 30 43" fill="none" xmlns="http://www.w3.org/2000/svg">
<path d="M16.1719 1.3028L15 0.142578L13.8281 1.3028C13.3594 1.99893 0 16.1536 0 27.2917C0 35.4133 6.79687 42.1426 15 42.1426C23.2031 42.1426 30 35.4133 30 27.2917C30 16.3857 16.6406 1.99893 16.1719 1.3028ZM15 4.78346C16.1719 6.17573 18.2812 8.72821 20.3906 11.7448C21.7969 13.8332 22.9688 15.6895 23.9062 17.5459C22.2656 17.7779 22.0312 18.4741 19.9219 18.4741C18.2812 18.4741 17.8125 18.01 16.875 17.7779C16.4062 17.7779 15.9375 17.5459 15.2344 17.5459C12.8906 17.5459 12.8906 18.4741 10.5469 18.4741C9.60937 18.4741 9.14063 18.242 8.67188 18.242C7.96875 18.01 7.5 17.7779 6.32813 17.5459C8.90625 12.2089 13.125 7.1039 15 4.78346Z" fill="#A67DB6"/>
</svg>
