<svg width="69" height="68" viewBox="0 0 69 68" fill="none" xmlns="http://www.w3.org/2000/svg">
<circle cx="34.9688" cy="34" r="33" stroke="#A67DB6" stroke-width="2"/>
<path d="M37.3381 15C38.0453 16.8698 38.1868 20.899 33.0949 22.0571C26.7302 23.5048 22.3102 22.419 22.1334 26.4C21.9566 30.381 25.969 30 28.969 30C31.9094 30 43.1706 29.4571 45.469 30C47.7674 30.5429 48.2996 31.9952 48.2996 33.0952C48.2996 34.5 47.0602 35.8095 45.469 35.8095C43.8778 35.8095 26.469 35 23.9014 35.8095C22.0073 36.4067 20.5422 37.8 21.0726 39.7905C21.603 41.781 22.487 42.3238 30.2662 42.5048C38.0453 42.6857 45.4709 42.5048 46.8853 43.0476C48.2996 43.5905 49.3604 44.1333 48.83 45.4C48.2996 46.6667 47.946 45.9429 42.6421 47.5714C38.3989 48.8743 37.5738 51.7333 37.6917 53" stroke="#95539C" stroke-width="5" stroke-linecap="round"/>
<circle cx="31.4688" cy="29.5" r="1.5" fill="white"/>
<circle cx="37.4688" cy="29.5" r="1.5" fill="white"/>
<circle cx="48.4688" cy="33.5" r="1.5" fill="white"/>
</svg>
