<svg width="69" height="68" viewBox="0 0 69 68" fill="none" xmlns="http://www.w3.org/2000/svg">
<circle cx="34.9688" cy="34" r="33" stroke="#A67DB6" stroke-width="2"/>
<path d="M12.9688 31.6242C12.9688 20.9385 18.5075 18 22.2 18C25.1012 17.9997 28.0025 20.6714 28.2663 23.3428C28.53 26.0142 26.6838 27.8513 26.6838 28.9528C26.6838 30.0213 27.475 30.5556 27.475 31.6242C27.475 32.6927 26.42 33.2049 26.42 34.8298C26.42 36.1655 28.2663 36.1655 28.2663 39.6384C28.2663 44.7211 24.5738 46.584 21.4087 46.0497C18.2437 45.5155 12.9688 42.3929 12.9688 31.6242Z" fill="#95539C"/>
<path d="M57.4062 31.6242C57.4062 20.9385 51.8675 18 48.175 18C45.2738 17.9997 42.3725 20.6714 42.1087 23.3428C41.845 26.0142 43.6912 27.8513 43.6912 28.9528C43.6912 30.0213 42.9 30.5556 42.9 31.6242C42.9 32.6927 43.955 33.2049 43.955 34.8298C43.955 36.1655 42.1087 36.1655 42.1087 39.6384C42.1087 44.7211 45.8012 46.584 48.9663 46.0497C52.1313 45.5155 57.4062 42.3929 57.4062 31.6242Z" fill="#95539C"/>
<path d="M33.637 51.6111V36.7106C33.7256 36.0011 33.5307 34.3159 32.0427 33.2516C30.5547 32.1873 28.4113 31.9212 27.5256 31.9212C29.0313 32.0099 32.0427 31.7616 32.0427 30.0586C32.0427 28.3557 32.0427 27.0431 32.0427 26.5996" stroke="#95539C" stroke-width="2" stroke-linecap="round" stroke-linejoin="round"/>
<path d="M36.738 51.6111V36.7106C36.6494 36.0011 36.8443 34.3159 38.3323 33.2516C39.8203 32.1873 41.9637 31.9212 42.8494 31.9212C41.3437 32.0099 38.3323 31.7616 38.3323 30.0586C38.3323 28.3557 38.3323 27.0431 38.3323 26.5996" stroke="#95539C" stroke-width="2" stroke-linecap="round" stroke-linejoin="round"/>
</svg>
