<svg width="68" height="68" viewBox="0 0 68 68" fill="none" xmlns="http://www.w3.org/2000/svg">
<circle cx="34" cy="34" r="33" stroke="#A67DB6" stroke-width="2"/>
<path d="M36.5382 17.5269C40.0638 19.3562 39.2677 24.5011 38.8128 26.3304C38.6232 26.6354 38.2441 27.337 38.2441 27.7028C38.2441 28.1602 38.8128 28.1602 38.4716 29.7608C38.1304 31.3614 36.9931 31.9331 35.8559 32.0474C34.7186 32.1617 32.899 32.5047 32.899 33.648C32.899 34.5627 34.8702 35.1724 35.8559 35.363C35.818 35.1343 35.7649 34.5627 35.8559 34.1054C35.9696 33.5337 36.5382 33.0764 37.4481 33.305C38.3579 33.5337 38.4716 34.677 38.2441 36.5063C38.0622 37.9697 37.3343 39.2502 36.9931 39.7076C37.4481 39.7457 38.6308 39.799 39.7226 39.7076C41.0873 39.5932 41.656 39.1359 43.4756 39.1359C45.2952 39.1359 45.7501 41.0795 46.7737 42.7945C47.7972 44.5095 48.707 44.2808 50.2992 44.2808C51.8914 44.2808 50.413 45.8814 49.3894 46.7961C48.3659 47.7107 46.5462 47.1391 45.0678 45.8814C43.5893 44.6238 42.7932 44.0521 41.656 44.2808C40.5187 44.5095 39.7226 49.54 37.4481 50.226C35.1735 50.912 28.5773 52.6269 24.7106 46.7961C20.345 40.2129 26.8921 34.0203 24.3694 30.4468C21.8674 26.9025 20.9576 24.2724 23.5733 19.4705C26.1891 14.6687 33.0127 15.6976 36.5382 17.5269Z" fill="#95539C"/>
<path d="M36.5 39.5C39.1667 38.6667 45 37.0596 45 32C45 24.5 49 22.5 52 22.5" stroke="#95539C" stroke-width="1.4" stroke-linecap="round"/>
</svg>
