<svg width="69" height="68" viewBox="0 0 69 68" fill="none" xmlns="http://www.w3.org/2000/svg">
<circle cx="34.9688" cy="34" r="33" stroke="#A67DB6" stroke-width="2"/>
<path fill-rule="evenodd" clip-rule="evenodd" d="M23.0465 15.0785C26.2521 14.5552 29.6546 15.5296 32.1266 18.0016C34.5983 20.4733 35.5727 23.8753 35.0499 27.0805C31.8443 27.6037 28.4418 26.6293 25.9698 24.1573C23.4981 21.6856 22.5237 18.2837 23.0465 15.0785Z" fill="#95539C"/>
<path fill-rule="evenodd" clip-rule="evenodd" d="M35.2362 27.0805C38.4418 27.6037 41.8443 26.6293 44.3163 24.1573C46.788 21.6856 47.7624 18.2837 47.2396 15.0785C44.0341 14.5552 40.6316 15.5296 38.1596 18.0016C35.6879 20.4733 34.7134 23.8753 35.2362 27.0805Z" fill="#95539C"/>
<path fill-rule="evenodd" clip-rule="evenodd" d="M35.0499 37.4633C31.8443 37.9865 28.4418 37.0122 25.9698 34.5402C23.4981 32.0685 22.5237 28.6665 23.0465 25.4613C26.2521 24.938 29.6546 25.9124 32.1266 28.3844C34.5983 30.8561 35.5727 34.2581 35.0499 37.4633Z" fill="#95539C"/>
<path fill-rule="evenodd" clip-rule="evenodd" d="M47.2396 25.4613C44.0341 24.938 40.6316 25.9124 38.1596 28.3844C35.6879 30.8561 34.7134 34.2581 35.2362 37.4633C38.4418 37.9865 41.8443 37.0122 44.3163 34.5402C46.788 32.0685 47.7624 28.6665 47.2396 25.4613Z" fill="#95539C"/>
<path fill-rule="evenodd" clip-rule="evenodd" d="M35.0499 47.9164C31.8443 48.4397 28.4418 47.4653 25.9698 44.9933C23.4981 42.5216 22.5237 39.1196 23.0465 35.9144C26.2521 35.3912 29.6546 36.3655 32.1266 38.8375C34.5983 41.3092 35.5727 44.7112 35.0499 47.9164Z" fill="#95539C"/>
<path fill-rule="evenodd" clip-rule="evenodd" d="M47.2396 35.9144C44.0341 35.3912 40.6316 36.3655 38.1596 38.8375C35.6879 41.3092 34.7134 44.7112 35.2362 47.9164C38.4418 48.4397 41.8443 47.4653 44.3163 44.9933C46.788 42.5216 47.7624 39.1196 47.2396 35.9144Z" fill="#95539C"/>
<path d="M35.4043 57.0019V24.6016" stroke="#95539C" stroke-width="1.4" stroke-linecap="round"/>
</svg>
