<svg width="30" height="44" viewBox="0 0 30 44" fill="none" xmlns="http://www.w3.org/2000/svg">
<path d="M16.1719 1.33702L15 0.142578L13.8281 1.33702C13.125 2.05369 0 16.8648 0 28.0926C0 36.4537 6.79688 43.1426 15 43.1426C23.2031 43.1426 30 36.2148 30 27.8537C29.7656 16.8648 16.6406 2.05369 16.1719 1.33702ZM15 4.92036C16.1719 6.35369 18.2812 8.98147 20.3906 12.087C24.6094 18.537 26.7187 24.0315 26.7187 28.0926C26.7187 28.5704 26.7188 29.287 26.4844 29.7648H26.0156C23.2031 29.7648 23.2031 30.9592 20.3906 30.9592C18.5156 30.9592 17.8125 30.4815 16.6406 30.0037C16.1719 29.7648 15.7031 29.7648 14.7656 29.7648C11.9531 29.7648 11.9531 30.9592 9.375 30.9592C8.4375 30.9592 7.73437 30.7204 7.26562 30.7204C6.32812 30.4815 5.625 30.0037 3.98438 30.0037H3.28125C3.28125 29.5259 3.04687 28.8092 3.04687 28.3315C3.04687 19.7315 11.7188 8.74258 15 4.92036Z" fill="#A67DB6"/>
</svg>
