<svg width="72" height="72" viewBox="0 0 72 72" fill="none" xmlns="http://www.w3.org/2000/svg">
<circle cx="36" cy="36" r="35" stroke="#A67DB6" stroke-width="2"/>
<path fill-rule="evenodd" clip-rule="evenodd" d="M18.2274 25.6406C18.2274 24.5361 19.1229 23.6406 20.2274 23.6406H26.2729C27.3775 23.6406 28.2729 24.5361 28.2729 25.6406V32.1406H44.5002V25.6406C44.5002 24.5361 45.3956 23.6406 46.5002 23.6406H52.5456C53.6502 23.6406 54.5456 24.5361 54.5456 25.6406V29.8242H58.9548C59.5071 29.8242 59.9548 30.2719 59.9548 30.8242V40.4151C59.9548 40.9674 59.5071 41.4151 58.9548 41.4151H54.5456V46.3679C54.5456 47.4725 53.6502 48.3679 52.5456 48.3679H46.5002C45.3956 48.3679 44.5002 47.4725 44.5002 46.3679V39.8679H28.2729V46.3679C28.2729 47.4725 27.3775 48.3679 26.2729 48.3679H20.2275C19.1229 48.3679 18.2274 47.4725 18.2274 46.3679V41.4151H13.8184C13.2661 41.4151 12.8184 40.9674 12.8184 40.4151V30.8242C12.8184 30.2719 13.2661 29.8242 13.8184 29.8242H18.2274V25.6406Z" fill="#95539C"/>
</svg>
