<svg width="69" height="68" viewBox="0 0 69 68" fill="none" xmlns="http://www.w3.org/2000/svg">
<circle cx="34.9688" cy="34" r="33" stroke="#A67DB6" stroke-width="2"/>
<path d="M37.3379 15C38.0451 16.8698 38.1865 20.899 33.0947 22.0571C26.7299 23.5048 22.31 22.419 22.1332 26.4C21.9564 30.381 25.9688 30 28.9688 30C31.9092 30 43.1704 29.4571 45.4688 30C47.7671 30.5429 48.2994 31.9952 48.2994 33.0952C48.2994 34.5 47.06 35.8095 45.4688 35.8095C43.8776 35.8095 26.4688 35 23.9012 35.8095C22.007 36.4067 20.542 37.8 21.0724 39.7905C21.6028 41.781 22.4868 42.3238 30.2659 42.5048C38.0451 42.6857 45.4706 42.5048 46.885 43.0476C48.2994 43.5905 49.3602 44.1333 48.8298 45.4C48.2994 46.6667 47.9458 45.9429 42.6418 47.5714C38.3987 48.8743 37.5736 51.7333 37.6915 53" stroke="#95539C" stroke-width="5" stroke-linecap="round"/>
<circle cx="31.4688" cy="29.5" r="1.5" fill="white"/>
<circle cx="37.4688" cy="29.5" r="1.5" fill="white"/>
<circle cx="48.4688" cy="33.5" r="1.5" fill="white"/>
</svg>
