<svg width="72" height="72" viewBox="0 0 72 72" fill="none" xmlns="http://www.w3.org/2000/svg">
<circle cx="36" cy="36" r="35" stroke="#A67DB6" stroke-width="2"/>
<path fill-rule="evenodd" clip-rule="evenodd" d="M18.2272 25.6406C18.2272 24.5361 19.1226 23.6406 20.2272 23.6406H26.2727C27.3772 23.6406 28.2727 24.5361 28.2727 25.6406V32.1406H44.4999V25.6406C44.4999 24.5361 45.3954 23.6406 46.4999 23.6406H52.5454C53.65 23.6406 54.5454 24.5361 54.5454 25.6406V29.8242H58.9546C59.5069 29.8242 59.9546 30.2719 59.9546 30.8242V40.4151C59.9546 40.9674 59.5069 41.4151 58.9546 41.4151H54.5454V46.3679C54.5454 47.4725 53.65 48.3679 52.5454 48.3679H46.4999C45.3954 48.3679 44.4999 47.4725 44.4999 46.3679V39.8679H28.2727V46.3679C28.2727 47.4725 27.3772 48.3679 26.2727 48.3679H20.2272C19.1226 48.3679 18.2272 47.4725 18.2272 46.3679V41.4151H13.8181C13.2658 41.4151 12.8181 40.9674 12.8181 40.4151V30.8242C12.8181 30.2719 13.2658 29.8242 13.8181 29.8242H18.2272V25.6406Z" fill="#95539C"/>
</svg>
