<svg width="68" height="68" viewBox="0 0 68 68" fill="none" xmlns="http://www.w3.org/2000/svg">
<circle cx="34" cy="34" r="33" stroke="#A67DB6" stroke-width="2"/>
<path fill-rule="evenodd" clip-rule="evenodd" d="M20.2273 23.1816C18.0182 23.1816 16.2273 24.9725 16.2273 27.1816V27.8184H14.3636C13.2591 27.8184 12.3636 28.7138 12.3636 29.8184V38.9547C12.3636 40.0593 13.2591 40.9547 14.3636 40.9547H16.2273V41.5907C16.2273 43.7999 18.0182 45.5907 20.2273 45.5907H47.7728C49.9819 45.5907 51.7728 43.7999 51.7728 41.5907V40.9547H53.6364C54.7409 40.9547 55.6364 40.0593 55.6364 38.9547V29.8184C55.6364 28.7138 54.7409 27.8184 53.6364 27.8184H51.7728V27.1816C51.7728 24.9725 49.9819 23.1816 47.7727 23.1816H20.2273Z" fill="#95539C"/>
<rect x="43.2727" y="27.8184" width="4.63636" height="13.9091" fill="#F8F8F8"/>
<rect x="37.0909" y="27.8184" width="4.63636" height="13.9091" fill="#F8F8F8"/>
</svg>
