<svg width="68" height="68" viewBox="0 0 68 68" fill="none" xmlns="http://www.w3.org/2000/svg">
<circle cx="34" cy="34" r="33" stroke="#A67DB6" stroke-width="2"/>
<path fill-rule="evenodd" clip-rule="evenodd" d="M34 32C38.4183 32 42 28.4183 42 24C42 19.5817 38.4183 16 34 16C29.5817 16 26 19.5817 26 24C26 28.4183 29.5817 32 34 32ZM26.3524 43.3745L26.3308 52.4499C28.7955 53.0181 31.3627 53.3184 34 53.3184C36.914 53.3184 39.7423 52.9518 42.4414 52.2622L42.4203 43.3745C42.4996 43.4018 48.0758 41.8434 52.3571 40.6404C53.5992 40.285 54.6299 39.4101 55.1849 38.2345C55.7398 37.0588 55.7927 35.6645 55.2906 34.4615L51.2207 24.3456C49.5822 20.2445 43.5039 23.0059 45.1688 26.9702L48.0494 33.9147L42.1296 35.2817H26.6695L20.7497 33.9147L23.6303 26.9702C25.2688 22.9785 19.2169 20.2445 17.552 24.3182L13.4821 34.4342C12.98 35.6645 13.0329 37.0315 13.5878 38.2071C14.1428 39.3828 15.1735 40.285 16.4156 40.6131C20.6969 41.8161 26.2731 43.3745 26.3524 43.3745Z" fill="#95539C"/>
</svg>
