<svg width="50" height="50" viewBox="0 0 50 50" fill="none" xmlns="http://www.w3.org/2000/svg">
<path fill-rule="evenodd" clip-rule="evenodd" d="M25 50C38.8071 50 50 38.8071 50 25C50 11.1929 38.8071 0 25 0C11.1929 0 0 11.1929 0 25C0 38.8071 11.1929 50 25 50ZM25.0001 48.553C37.995 48.553 48.5295 38.0185 48.5295 25.0236C48.5295 12.0286 37.995 1.49414 25.0001 1.49414C12.0052 1.49414 1.47068 12.0286 1.47068 25.0236C1.47068 38.0185 12.0052 48.553 25.0001 48.553Z" fill="#A67DB6"/>
<path fill-rule="evenodd" clip-rule="evenodd" d="M9.59058 40.6872C9.8471 39.7671 11.5939 38.688 12.9292 38.0204C14.3737 37.2981 18.7069 35.8537 19.4295 35.6128L19.4296 35.6128L19.4297 35.6128C20.1519 35.372 20.8742 34.6497 21.115 34.409C21.3557 34.1682 21.3557 32.2422 21.115 31.5199C20.9946 31.1588 20.6936 30.6772 20.3927 30.1957C20.0917 29.7142 19.7908 29.2327 19.6704 28.8715C19.4778 28.2937 19.2692 26.7047 19.1889 25.9825C19.0284 25.8219 18.6111 25.212 18.2259 24.0564C17.8407 22.9007 18.2259 21.9698 18.4666 21.6488C18.2259 21.4883 17.8888 20.3969 18.4666 17.3152C19.0444 14.2335 22.3186 12.5001 24.967 12.5H24.9671C27.6154 12.5001 30.8896 14.2335 31.4674 17.3152C32.0453 20.3969 31.7082 21.4883 31.4674 21.6488C31.7082 21.9698 32.0934 22.9007 31.7082 24.0564C31.323 25.212 30.9057 25.8219 30.7452 25.9825C30.6649 26.7047 30.4563 28.2937 30.2637 28.8715C30.1433 29.2327 29.8423 29.7142 29.5414 30.1957L29.5414 30.1957C29.2404 30.6773 28.9395 31.1588 28.8191 31.5199C28.5783 32.2422 28.5783 34.1682 28.8191 34.409C29.0599 34.6497 29.7821 35.372 30.5044 35.6128L30.5045 35.6128L30.5045 35.6128L30.5046 35.6129C31.2276 35.8538 35.5605 37.2982 37.0049 38.0204C38.4446 38.7402 40.3626 39.9384 40.3754 40.8998C36.4109 44.71 31.025 47.0522 25.0921 47.0522C19.0496 47.0522 13.5746 44.6227 9.59058 40.6872Z" fill="#97559E"/>
</svg>
