<svg width="50" height="50" viewBox="0 0 50 50" fill="none" xmlns="http://www.w3.org/2000/svg">
<path fill-rule="evenodd" clip-rule="evenodd" d="M25 50C38.8071 50 50 38.8071 50 25C50 11.1929 38.8071 0 25 0C11.1929 0 0 11.1929 0 25C0 38.8071 11.1929 50 25 50ZM25.0001 48.553C37.995 48.553 48.5295 38.0185 48.5295 25.0236C48.5295 12.0286 37.995 1.49414 25.0001 1.49414C12.0052 1.49414 1.47068 12.0286 1.47068 25.0236C1.47068 38.0185 12.0052 48.553 25.0001 48.553Z" fill="#A67DB6"/>
<path fill-rule="evenodd" clip-rule="evenodd" d="M10.9795 41.9052C11.1493 41.5219 11.3512 41.1822 11.5868 40.9475C12.5564 39.9818 14.4957 38.6941 18.0509 37.4064C20.8951 36.3762 21.3907 34.6164 21.283 33.8652C20.7443 33.7579 19.4084 33.4789 18.3741 33.2213C17.3399 32.9638 15.7885 32.041 15.1421 31.6117C15.4653 31.2898 16.241 30.2596 16.7581 28.7144C16.9929 28.0127 17.0571 26.9286 17.1367 25.5855C17.2761 23.2317 17.4626 20.0826 18.6973 16.803C20.2487 12.6824 26.7775 12.6169 27.7471 14.2276C29.3631 13.9055 31.6256 14.8716 32.5952 16.803C33.5648 18.7344 33.5648 27.1048 33.5648 28.7144C33.5648 29.8558 34.3267 31.0707 34.7249 31.7056C34.7759 31.787 34.8209 31.8589 34.8577 31.9198C34.4267 32.2417 32.9831 32.9638 31.9488 33.2213C30.9145 33.4789 29.1477 33.7579 28.3935 33.8652C28.3935 34.1871 28.4582 35.0241 28.7167 35.7967C28.9473 36.4858 30.3295 37.0109 32.5112 37.8399C33.3875 38.1728 34.3927 38.5548 35.5041 39.016C37.271 39.7493 38.3532 41.0046 38.9773 42.1874C35.1947 45.2343 30.3853 47.0581 25.15 47.0581C19.7551 47.0581 14.8124 45.1213 10.9795 41.9052Z" fill="#97559E"/>
</svg>
