<svg width="68" height="68" viewBox="0 0 68 68" fill="none" xmlns="http://www.w3.org/2000/svg">
<circle cx="34" cy="34" r="33" stroke="#A67DB6" stroke-width="2"/>
<path fill-rule="evenodd" clip-rule="evenodd" d="M24.0004 19.9662L30.5004 16.4995L36.0004 19.4995L41.0553 16C42.6868 16.0293 44.0004 17.361 44.0004 18.9995V36.6778C44.4581 37.3561 44.8373 38.0982 45.1511 38.8933C45.9387 40.8885 46.3209 43.2315 46.5106 45.7733C46.7 48.3117 46.7 51.0956 46.7 53.9825V53.9995C46.7 54.3861 46.3866 54.6995 46 54.6995C45.6134 54.6995 45.3 54.3861 45.3 53.9995C45.3 51.0936 45.2996 48.3589 45.1144 45.8775C44.9427 43.5768 44.6144 41.5346 44.0004 39.8112V42.9995C44.0004 46.8655 40.8664 49.9995 37.0004 49.9995H31.0004C27.1344 49.9995 24.0004 46.8655 24.0004 42.9995V39.8089C23.3859 41.5327 23.0573 43.5758 22.8856 45.8775C22.7004 48.3589 22.7 51.0936 22.7 53.9995C22.7 54.3861 22.3866 54.6995 22 54.6995C21.6134 54.6995 21.3 54.3861 21.3 53.9995L21.3 53.9826L21.3 53.9825C21.3 51.0955 21.3 48.3117 21.4894 45.7733C21.6791 43.2315 22.0613 40.8885 22.8489 38.8933C23.1629 38.0977 23.5423 37.3552 24.0004 36.6766V19.9662ZM40 22.1061C40.3866 22.1061 40.7 22.4196 40.7 22.8061V37.8061C40.7 38.1927 40.3866 38.5061 40 38.5061C39.6134 38.5061 39.3 38.1927 39.3 37.8061V22.8061C39.3 22.4196 39.6134 22.1061 40 22.1061ZM40 41.1061C40.3866 41.1061 40.7 41.4195 40.7 41.8061V44.8061C40.7 45.1927 40.3866 45.5061 40 45.5061C39.6134 45.5061 39.3 45.1927 39.3 44.8061V41.8061C39.3 41.4195 39.6134 41.1061 40 41.1061Z" fill="#95539C"/>
</svg>
