<svg width="68" height="68" viewBox="0 0 68 68" fill="none" xmlns="http://www.w3.org/2000/svg">
<circle cx="34" cy="34" r="33" stroke="#A67DB6" stroke-width="2"/>
<path d="M53.0098 18.2063C53.1077 18.7087 52.8926 19.4088 52.0951 20.3199C51.3119 21.2146 50.0699 22.1877 48.4284 23.1708C45.1533 25.1321 40.4312 27.0478 35.0419 28.431C29.6526 29.8141 24.6693 30.3894 20.9781 30.216C19.128 30.1292 17.6431 29.8558 16.6024 29.4292C15.5427 28.9948 15.0881 28.4666 14.9902 27.9642C14.8923 27.4619 15.1074 26.7617 15.9049 25.8506C16.6881 24.9559 17.93 23.9828 19.5716 22.9997C22.8467 21.0385 27.5688 19.1227 32.9581 17.7396C38.3473 16.3564 43.3307 15.7811 47.0219 15.9545C48.872 16.0414 50.3569 16.3147 51.3976 16.7413C52.4573 17.1757 52.9119 17.704 53.0098 18.2063Z" stroke="#A67DB6" stroke-width="1.4"/>
<path d="M14.9902 18.2063C14.8923 18.7087 15.1074 19.4088 15.9049 20.3199C16.6881 21.2146 17.9301 22.1877 19.5716 23.1708C22.8467 25.1321 27.5688 27.0478 32.9581 28.431C38.3474 29.8141 43.3307 30.3894 47.0219 30.216C48.872 30.1292 50.3569 29.8558 51.3976 29.4292C52.4573 28.9948 52.9119 28.4666 53.0098 27.9642C53.1077 27.4619 52.8926 26.7617 52.0951 25.8506C51.3119 24.9559 50.07 23.9828 48.4284 22.9997C45.1533 21.0385 40.4312 19.1227 35.0419 17.7396C29.6527 16.3564 24.6693 15.7811 20.9781 15.9545C19.128 16.0414 17.6431 16.3147 16.6024 16.7413C15.5427 17.1757 15.0881 17.704 14.9902 18.2063Z" stroke="#A67DB6" stroke-width="1.4"/>
<ellipse cx="34" cy="38" rx="14" ry="16" fill="#95539C"/>
<circle cx="52.9318" cy="16.9318" r="1.93182" fill="#95539C"/>
<circle cx="14.9318" cy="27.9318" r="1.93182" fill="#95539C"/>
<path d="M29 44C29 44 31.2386 42 34 42C36.7614 42 39 44 39 44" stroke="#F8F8F8" stroke-width="2" stroke-linecap="round" stroke-linejoin="round"/>
</svg>
