<svg width="119" height="164" viewBox="0 0 119 164" fill="none" xmlns="http://www.w3.org/2000/svg">
<path d="M11.7988 73.8028L11.837 73.7404L11.8726 73.6766C18.6307 61.5415 29.431 48.4483 37.0637 39.553C42.9724 32.717 48.4086 24.9217 52.3493 18.8523C54.3256 15.8084 55.9388 13.1785 57.0619 11.2917C57.623 10.349 58.0651 9.58612 58.3713 9.0454C58.5232 8.77721 58.6482 8.55208 58.7398 8.38165C58.7836 8.30027 58.8322 8.20838 58.8756 8.12117C58.879 8.11428 58.883 8.10618 58.8875 8.09701L59.5 7.03012L60.1939 8.23894L60.4218 8.63584L60.4635 8.6779C60.5325 8.7929 60.6189 8.93769 60.7249 9.11522C61.0329 9.63101 61.4804 10.3804 62.0487 11.317C63.185 13.1901 64.8042 15.8125 66.7778 18.8523C70.7136 24.914 76.1046 32.7062 81.9238 39.5385L81.9322 39.5482C89.5616 48.4395 100.378 61.5495 107.315 73.708L107.342 73.7558L107.371 73.8028C112.778 82.6248 115.5 92.756 115.5 103.259C115.5 134.52 90.4251 159.766 59.5 159.766C28.7379 159.766 3.5 134.514 3.5 103.259C3.5 92.7927 6.37257 82.6553 11.7988 73.8028Z" stroke="#A67DB6" stroke-width="7"/>
<path fill-rule="evenodd" clip-rule="evenodd" d="M8.40039 102.745C8.40039 102.745 8.40039 102.745 8.40039 102.745C8.40039 131.506 31.592 154.821 60.2004 154.821C88.8087 154.821 112 131.506 112 102.745L8.40039 102.745Z" fill="#A67DB6"/>
<ellipse cx="60.3618" cy="104.627" rx="51.7391" ry="27.0193" transform="rotate(-0.833003 60.3618 104.627)" fill="#F2E6F7"/>
<path d="M50.201 75.2621V79.4803H57.2122V82.9933H50.201V91.1463H46.3232V71.6235H58.5578V75.2637H50.201V75.2621Z" fill="#A67DB6"/>
<path d="M50.5323 91.4865H45.9912V71.2827H58.889V75.6023H50.5306V79.1395H57.5417V83.3319H50.5306V91.4865H50.5323ZM46.6545 90.8071H49.869V82.6541H56.8802V79.8221H49.869V74.9229H58.2275V71.9637H46.6545V90.8071Z" fill="#A67DB6"/>
<path d="M63.5202 84.7014C63.5841 86.0183 63.895 86.9634 64.4547 87.5366C65.0126 88.1097 65.8935 88.3963 67.094 88.3963C67.7901 88.3963 68.4016 88.3077 68.9301 88.129C69.457 87.9503 69.9182 87.6074 70.312 87.0986L72.9513 89.0306C72.3744 89.8855 71.6247 90.5263 70.7041 90.9497C69.7834 91.3732 68.5242 91.5841 66.9316 91.5841C64.5566 91.5841 62.7861 90.9449 61.6185 89.665C60.4491 88.385 59.8652 86.453 59.8652 83.8674C59.8652 78.5721 62.1746 75.9253 66.7935 75.9253C68.8455 75.9253 70.4122 76.5194 71.4883 77.7092C72.5644 78.8989 73.1033 80.6313 73.1033 82.9078V84.6998H63.5202V84.7014ZM69.5831 82.1898C69.5831 79.9422 68.6244 78.8184 66.7106 78.8184C66.0766 78.8184 65.5602 78.9295 65.1577 79.1501C64.7552 79.3707 64.4305 79.7007 64.1887 80.1386C63.9451 80.575 63.7551 81.2592 63.6187 82.1914H69.5831V82.1898Z" fill="#A67DB6"/>
<path d="M66.9303 91.9258C64.4723 91.9258 62.6034 91.2448 61.3753 89.9005C60.1523 88.5626 59.5322 86.534 59.5322 83.8694C59.5322 78.3745 61.9746 75.5876 66.7921 75.5876C68.9322 75.5876 70.5922 76.2252 71.7305 77.481C72.8619 78.7304 73.4336 80.5577 73.4336 82.9115V85.0431H63.8764C63.9697 86.0816 64.2443 86.8399 64.69 87.2971C65.1805 87.8027 65.9906 88.057 67.0944 88.057C67.7525 88.057 68.3346 87.9733 68.8251 87.8059C69.2863 87.6497 69.6992 87.3406 70.0533 86.8866L70.2502 86.6338L73.4094 88.949L73.2229 89.2243C72.6131 90.1291 71.8099 90.8133 70.8375 91.2593C69.8788 91.7021 68.5643 91.9258 66.9303 91.9258ZM66.7921 76.2671C62.3529 76.2671 60.1955 78.7529 60.1955 83.8694C60.1955 86.3553 60.7552 88.2277 61.8589 89.4352C62.9575 90.6362 64.6641 91.2464 66.9303 91.2464C68.4693 91.2464 69.694 91.042 70.568 90.6411C71.328 90.2917 71.9723 89.7781 72.4836 89.11L70.3642 87.5579C69.9755 87.9846 69.5299 88.2857 69.0324 88.4531C68.4745 88.6431 67.8233 88.7381 67.0927 88.7381C65.8058 88.7381 64.8385 88.4145 64.2184 87.7785C63.6018 87.1474 63.2546 86.1186 63.1872 84.7195L63.1699 84.3621H72.7686V82.9099C72.7686 80.7332 72.2556 79.062 71.2416 77.9431C70.2381 76.8322 68.7405 76.2671 66.7921 76.2671ZM69.9151 82.5315H63.2321L63.2891 82.1403C63.4342 81.1598 63.6329 80.4498 63.8989 79.97C64.1718 79.479 64.5414 79.1023 65.0009 78.8511C65.45 78.6048 66.0269 78.4792 66.7109 78.4792C68.1722 78.4792 69.9151 79.1232 69.9151 82.1918V82.5315ZM64.0077 81.8505H69.2431C69.1568 80.0167 68.3449 79.1586 66.7092 79.1586C66.1357 79.1586 65.6642 79.2568 65.3118 79.45C64.9612 79.6416 64.6882 79.9217 64.4741 80.3049C64.2875 80.6446 64.1303 81.163 64.0077 81.8505Z" fill="#A67DB6"/>
</svg>
