<svg width="68" height="68" viewBox="0 0 68 68" fill="none" xmlns="http://www.w3.org/2000/svg">
<circle cx="34" cy="34" r="33" stroke="#A67DB6" stroke-width="2"/>
<path fill-rule="evenodd" clip-rule="evenodd" d="M23.095 45.0109C19.1041 44.5697 16 41.1862 16 37.0776C16 32.6693 19.5736 29.0957 23.9819 29.0957C24.9734 29.0957 25.9226 29.2765 26.7984 29.6068C27.5995 25.2783 31.3944 22 35.9549 22C41.0979 22 45.2671 26.1692 45.2671 31.3123C45.2671 31.7913 45.2309 32.2619 45.1612 32.7215C45.4844 32.6696 45.8161 32.6426 46.154 32.6426C49.5827 32.6426 52.3621 35.4221 52.3621 38.8508C52.3621 41.9783 50.0494 44.5657 47.0408 44.9961V45.0599H23.095V45.0109Z" fill="#95539C"/>
</svg>
