<svg width="68" height="68" viewBox="0 0 68 68" fill="none" xmlns="http://www.w3.org/2000/svg">
<circle cx="34" cy="34" r="33" stroke="#A67DB6" stroke-width="2"/>
<path fill-rule="evenodd" clip-rule="evenodd" d="M41.5501 21.0469C43.1081 22.4897 45.6312 22.2986 47.1856 20.6201C48.7399 18.9416 48.737 16.4113 47.179 14.9685C45.621 13.5257 43.098 13.7168 41.5436 15.3953C39.9892 17.0738 39.9921 19.6041 41.5501 21.0469ZM32.481 22.8723C33.3883 21.9314 35.7759 20.3601 38.0679 21.6021C40.36 22.8441 41.124 24.4718 41.2195 25.1304V37.1271C41.124 37.7387 40.6465 38.9619 39.5005 38.9619C38.3544 38.9619 37.6859 37.9269 37.4949 37.4094V29.0822C37.3994 28.7059 37.0365 27.9531 36.3489 27.9531C35.6613 27.9531 35.2028 28.7059 35.0596 29.0822L34.6341 33.941C34.0493 35.5035 33.0275 35.9725 32.6267 36.1565C32.4853 36.2214 32.4212 36.2508 32.481 36.2803C32.7102 36.3932 36.3011 39.4323 38.0679 40.9378C38.6887 41.7376 39.9589 43.7605 40.0735 45.4542C40.1881 47.1478 40.1212 50.5822 40.0735 52.0877C39.978 52.7933 39.3902 54.0629 37.9268 54.0629C36.547 54.0629 35.7317 53.3312 35.4893 52.0877C35.4893 51.9562 35.49 51.8173 35.4907 51.672C35.5002 49.6852 35.5155 46.5013 33.9135 44.6074C33.1586 43.7148 31.82 42.857 30.3638 41.9239C27.6755 40.2013 24.5865 38.2218 24.029 35.2923C23.3414 31.6792 29.3772 25.5068 32.481 22.8723ZM24.029 39.6676L29.1862 44.0428C28.9952 44.7485 28.5559 46.2446 28.3267 46.5833C28.0974 46.922 25.366 51.2408 24.029 53.3579C23.5992 53.6402 22.4819 54.12 21.4504 53.7813C20.1612 53.3579 19.7314 51.5231 20.1612 50.2529C20.4147 49.5035 21.7153 47.4277 22.7393 45.7935C23.4509 44.6577 24.029 43.7351 24.029 43.6194V39.6676Z" fill="#95539C"/>
</svg>
