<svg width="68" height="68" viewBox="0 0 68 68" fill="none" xmlns="http://www.w3.org/2000/svg">
<circle cx="34" cy="34" r="33" stroke="#A67DB6" stroke-width="2"/>
<path fill-rule="evenodd" clip-rule="evenodd" d="M35.5716 10.084C35.3215 17.2273 34.9284 28.4538 34.6844 29.5709C34.3096 31.2866 25.8773 47.0458 24.4407 47.999C23.8828 48.3692 22.4486 48.7873 20.8883 49.2422C18.4313 49.9585 15.6615 50.766 15.5087 51.621C15.2589 53.019 15.6961 54.7983 20.693 55.0525C25.6899 55.3066 30.3745 54.7347 34.3721 51.3668C38.3696 47.999 41.3053 45.7113 44.5533 44.8217C44.6443 44.7968 44.7357 44.7718 44.8274 44.7468C48.0123 43.8769 51.6325 42.8881 52.361 39.7381C52.9806 37.059 51.9782 35.2919 50.2711 32.2827C49.9132 31.6518 49.5244 30.9663 49.113 30.2064C46.7395 25.8218 47.1142 20.9924 49.113 16.8619C49.9898 15.0499 50.4935 12.9768 50.7662 11.1979C46.4079 8.30795 41.2567 6.51815 35.7087 6.22461C35.6713 7.23697 35.6246 8.56861 35.5716 10.084Z" fill="#95539C"/>
</svg>
