<svg width="72" height="72" viewBox="0 0 72 72" fill="none" xmlns="http://www.w3.org/2000/svg">
<circle cx="36" cy="36" r="35" stroke="#A67DB6" stroke-width="2"/>
<path d="M50.3105 48.9608L48.3727 46.6707L43.7924 50.5463L45.7302 52.8365L50.3105 48.9608ZM49.9955 57.8773C51.0657 59.1421 52.9587 59.2998 54.2235 58.2296C55.4883 57.1594 55.646 55.2664 54.5758 54.0016L49.9955 57.8773ZM45.7302 52.8365L49.9955 57.8773L54.5758 54.0016L50.3105 48.9608L45.7302 52.8365Z" fill="#95539C"/>
<circle cx="36.0003" cy="34.9993" r="14.3469" fill="#95539C"/>
<path d="M27.0815 21.4277L32.6209 32.7894H42.5917L38.5296 41.6657L29.2973 42.7309V50.8971" stroke="#F8F8F8" stroke-width="2" stroke-linecap="round"/>
<path d="M37.1631 32.2851L40.2651 25.9134L38.0937 19.877" stroke="#F8F8F8" stroke-width="2"/>
<path d="M30.1836 29.4225L24.4567 32.2859L20.8774 27.6328" stroke="#F8F8F8" stroke-width="2"/>
<path d="M20.8774 40.817L28.0024 36.9395L31.7346 38.232" stroke="#F8F8F8" stroke-width="2"/>
<path d="M49.5711 24.5312C48.7026 24.8133 45.5902 27.2338 44.1426 28.4088" stroke="#F8F8F8" stroke-width="2"/>
<path d="M53.449 35.3887L44.1739 37.1398L42.3903 44.8449L35.6123 46.2458" stroke="#F8F8F8" stroke-width="2"/>
<circle cx="36" cy="35" r="17.5" stroke="#95539C" stroke-width="3"/>
</svg>
