<svg width="68" height="68" viewBox="0 0 68 68" fill="none" xmlns="http://www.w3.org/2000/svg">
<circle cx="34" cy="34" r="33" stroke="#A67DB6" stroke-width="2"/>
<path fill-rule="evenodd" clip-rule="evenodd" d="M29.6781 58.5435C29.0876 56.5188 28.1237 53.5036 26.9216 52.2962C25.2143 50.5814 23.507 48.2622 21.9646 46.1672C21.6318 45.7151 21.3067 45.2735 20.9909 44.8506C20.1177 43.6812 19.2444 41.4355 18.3361 39.0996C17.3938 36.6765 16.4138 34.1563 15.3569 32.6399C13.2812 29.6617 13.5777 28.4701 15.3569 27.5767C17.1361 26.6833 20.3979 29.3636 21.584 30.853C22.1112 31.5149 22.6383 33.1179 23.1655 34.7209C23.8245 36.7248 24.4834 38.7287 25.1424 38.8942C26.3285 39.192 27.5147 35.3203 27.8112 32.6399C28.1077 29.9595 27.2181 20.1314 26.9216 17.1531C26.6251 14.1749 26.9216 10.601 28.9973 10.601C30.6439 10.601 30.7977 12.6626 30.939 14.5556C30.9758 15.0489 31.0117 15.5309 31.073 15.9619C31.1492 16.4976 31.2255 17.5252 31.3168 18.7563C31.5807 22.3156 31.9709 27.5767 32.8522 27.5767C33.871 27.5767 34.0147 24.501 34.2229 20.0478C34.2571 19.3161 34.293 18.5471 34.3349 17.7486C34.6314 12.0899 35.8175 8.21824 37.5967 8.51607C38.9581 8.74395 38.7569 12.2848 38.5874 15.2695C38.5354 16.1855 38.4863 17.0492 38.4863 17.7486C38.4863 18.2876 38.4766 18.9535 38.466 19.6827C38.4178 22.982 38.3508 27.5767 39.0794 27.5767C39.969 27.5767 41.1551 22.2158 41.4516 18.6419C41.7481 15.068 43.2308 11.1963 45.01 11.4942C46.7892 11.792 46.1961 18.3441 45.603 21.0245C45.5301 21.3542 45.4392 21.7514 45.3375 22.1958C44.6127 25.3641 43.3402 30.9259 44.1204 31.4483C44.6983 31.8352 44.9008 31.3423 45.297 30.3778C45.5106 29.8577 45.7806 29.2005 46.1961 28.4701C46.3871 28.1345 46.6395 27.6599 46.9361 27.1024C48.4818 24.1965 51.227 19.0357 52.7198 19.5354C54.499 20.1311 51.8302 27.2788 50.9406 29.3636C50.051 31.4483 47.3822 40.0852 46.7892 43.0634C46.2641 45.7001 44.3445 50.4378 43.4996 52.523C43.3902 52.793 43.2988 53.0186 43.2308 53.1894C42.965 53.8568 42.935 55.6567 42.9947 57.3027C39.9011 58.229 36.6224 58.7266 33.2274 58.7266C32.0288 58.7266 30.8447 58.6645 29.6781 58.5435Z" fill="#95539C"/>
<path d="M32.2184 45.7647C33.0175 44.3554 34.2995 42.5 34.2995 42.5C34.2995 42.5 35.7 44.2847 36.554 45.7647C37.3925 47.218 38.68 48.8453 38.6351 50.4985C38.5726 52.7971 36.7418 54.1366 34.2995 54.0897C31.9035 54.0438 30.1956 52.7535 30.1373 50.4985C30.0945 48.8453 31.3911 47.2237 32.2184 45.7647Z" fill="#F8F8F8"/>
<path d="M36.8551 34.1729C37.6543 32.7636 38.9362 30.9082 38.9362 30.9082C38.9362 30.9082 40.3368 32.6929 41.1907 34.1729C42.0292 35.6262 43.3167 37.2535 43.2718 38.9067C43.2093 41.2053 41.3785 42.5448 38.9362 42.4979C36.5403 42.452 34.8324 41.1617 34.774 38.9067C34.7312 37.2535 36.0278 35.6319 36.8551 34.1729Z" fill="#F8F8F8"/>
</svg>
