<svg width="72" height="72" viewBox="0 0 72 72" fill="none" xmlns="http://www.w3.org/2000/svg">
<circle cx="36" cy="36" r="35" stroke="#A67DB6" stroke-width="2"/>
<path fill-rule="evenodd" clip-rule="evenodd" d="M18.2273 25.6367C18.2273 24.5321 19.1227 23.6367 20.2273 23.6367H26.2727C27.3773 23.6367 28.2727 24.5321 28.2727 25.6367V32.1367H44.5V25.6367C44.5 24.5321 45.3954 23.6367 46.5 23.6367H52.5455C53.65 23.6367 54.5455 24.5321 54.5455 25.6367V29.8185H58.9546C59.5068 29.8185 59.9546 30.2663 59.9546 30.8185V40.4094C59.9546 40.9617 59.5068 41.4094 58.9546 41.4094H54.5455V46.364C54.5455 47.4686 53.65 48.364 52.5455 48.364H46.5C45.3954 48.364 44.5 47.4686 44.5 46.364V39.864H28.2727V46.364C28.2727 47.4686 27.3773 48.364 26.2727 48.364H20.2273C19.1227 48.364 18.2273 47.4686 18.2273 46.364V41.4094H13.8182C13.2659 41.4094 12.8182 40.9617 12.8182 40.4094V30.8185C12.8182 30.2663 13.2659 29.8185 13.8182 29.8185H18.2273V25.6367Z" fill="#95539C"/>
</svg>
