<svg width="68" height="68" viewBox="0 0 68 68" fill="none" xmlns="http://www.w3.org/2000/svg">
<circle cx="34" cy="34" r="33" stroke="#A67DB6" stroke-width="2"/>
<path d="M17 31.5C17 31.0055 16.8534 30.5222 16.5787 30.1111C16.304 29.7 15.9135 29.3795 15.4567 29.1903C14.9999 29.0011 14.4972 28.9516 14.0123 29.048C13.5273 29.1445 13.0819 29.3826 12.7322 29.7322C12.3826 30.0819 12.1445 30.5273 12.048 31.0123C11.9516 31.4972 12.0011 31.9999 12.1903 32.4567C12.3795 32.9135 12.7 33.304 13.1111 33.5787C13.5222 33.8534 14.0055 34 14.5 34L21 34" stroke="#95539C" stroke-width="1.4" stroke-linecap="round"/>
<path d="M17 42.7266C17 43.221 16.8534 43.7044 16.5787 44.1155C16.304 44.5266 15.9135 44.847 15.4567 45.0363C14.9999 45.2255 14.4972 45.275 14.0123 45.1785C13.5273 45.0821 13.0819 44.844 12.7322 44.4943C12.3826 44.1447 12.1445 43.6992 12.048 43.2143C11.9516 42.7293 12.0011 42.2267 12.1903 41.7699C12.3795 41.313 12.7 40.9226 13.1111 40.6479C13.5222 40.3732 14.0055 40.2266 14.5 40.2266L21 40.2266" stroke="#95539C" stroke-width="1.4" stroke-linecap="round"/>
<path d="M24 37.2266H18" stroke="#95539C" stroke-width="1.4" stroke-linecap="round"/>
<path fill-rule="evenodd" clip-rule="evenodd" d="M37.699 42.4601L35.4525 59.9601C36.4223 59.9067 37.3779 59.8002 38.3165 59.6433V51.6173C38.2471 50.7507 38.3812 49.4631 39.0438 48.3601C39.7442 47.1942 41.0006 46.3 42.9997 46.3C44.9989 46.3 46.2553 47.1942 46.9558 48.3601C47.6186 49.463 47.7529 50.7507 47.6836 51.6173V56.1121C49.638 54.9001 51.4198 53.4362 52.9838 51.7657C53.0872 49.6948 52.7148 47.4255 51.3218 45.5208C48.5093 41.675 46.3414 39.8395 45.609 39.4025L44.7301 36.7804C45.4625 33.5756 46.8394 26.2919 46.4879 22.7958C46.1363 19.2996 42.8258 17.5516 41.2145 17.1145C40.7751 16.5318 39.1931 15.5413 36.3806 16.2405C34.3833 16.7371 31.9605 18.2201 29.7568 19.569C28.0816 20.5943 26.5332 21.5421 25.3945 21.9202C23.2851 22.6207 21.5859 21.9207 21 21.4832C21.4394 23.2313 22.7578 26.9023 24.5156 27.6015C26.2734 28.3007 26.7128 29.0582 26.7128 29.3496L27.5917 32.8457L26.7128 35.9048L28.4706 36.3419C28.7635 37.5072 29.5253 39.9254 30.2284 40.275C30.9315 40.6246 34.6228 39.839 36.3806 39.4025L37.699 42.4601ZM46.2836 56.9211V51.5882V51.558L46.2862 51.5278C46.3436 50.8651 46.2337 49.8765 45.7558 49.0811C45.3076 48.3352 44.5058 47.7 42.9997 47.7C41.4936 47.7 40.692 48.3352 40.2439 49.0811C39.7661 49.8764 39.6563 50.865 39.7139 51.5277L39.7165 51.5579V51.5882V59.3696C42.0382 58.8487 44.2425 58.0172 46.2836 56.9211Z" fill="#95539C"/>
</svg>
