<svg width="68" height="68" viewBox="0 0 68 68" fill="none" xmlns="http://www.w3.org/2000/svg">
<circle cx="34" cy="34" r="33" stroke="#A67DB6" stroke-width="2"/>
<path fill-rule="evenodd" clip-rule="evenodd" d="M39.5391 16.1902C37.8724 14.0235 32.6507 10.5119 26.0391 15.1902C16.6391 21.8414 18.5354 38.0758 19.9227 49.953C20.1644 52.0223 20.3907 53.9593 20.5391 55.6904H48.5399C47.7066 47.5237 47 31.2 47 28C47 24 46.5382 16.1902 39.5391 16.1902ZM40.5405 24.1904C39.3738 26.0237 36.1405 29.8904 32.5405 30.6904C28.9405 31.4904 25.7071 31.357 24.5405 31.1904C24.2071 36.357 25.6405 46.7904 34.0405 47.1904C42.4405 47.5904 44.2068 36.6904 44.0399 31.1904L40.5405 24.1904Z" fill="#95539C"/>
<path d="M31 42C31 42 32.567 40 34.5 40C36.433 40 38 42 38 42" stroke="#95539C" stroke-width="1.4" stroke-linecap="round"/>
</svg>
