<svg width="68" height="68" viewBox="0 0 68 68" fill="none" xmlns="http://www.w3.org/2000/svg">
<circle cx="34" cy="34" r="33" stroke="#A67DB6" stroke-width="2"/>
<path d="M21.3378 39.5828C22.5133 41.5941 21.8276 46.4067 21.3378 48.5616C21.3378 48.5616 24.8496 50.0355 27.2153 49.9993C29.4422 49.9653 32.7255 48.5616 32.7255 48.5616C32.603 47.4845 32.2847 45.1867 31.9908 44.6121C31.6235 43.8938 36.0662 44.2911 38.9703 44.859C42.6438 45.5773 41.9091 40.9083 41.9091 40.19V37.429C42.6438 37.1896 44.1866 36.6389 44.4805 36.3516C44.8478 35.9924 45.2152 35.2741 44.8478 34.9149C44.4805 34.5558 41.1744 30.6051 41.1744 29.5277C41.1744 28.4502 40.8071 22.7026 36.0316 20.1886C31.2561 17.6745 23.1745 19.1111 19.5011 24.8576C15.8277 30.604 19.8684 37.0687 21.3378 39.5828Z" fill="#95539C" stroke="#95539C"/>
<path d="M47 39L52.4147 38.9999C55.7468 39.0031 56.4647 36.0814 55.7468 34.8265C54.0781 31.9095 50.7486 33.1626 50.3321 33.9914" stroke="#95539C" stroke-width="1.4" stroke-linecap="round"/>
<path d="M47 42L49.691 42.0001C52.7663 41.9969 53.4289 44.9186 52.7663 46.1735C51.2262 49.0905 48.1533 47.8374 47.7688 47.0086" stroke="#95539C" stroke-width="1.4" stroke-linecap="round"/>
</svg>
