<svg width="54" height="54" viewBox="0 0 54 54" fill="none" xmlns="http://www.w3.org/2000/svg">
<circle cx="27" cy="27" r="26" stroke="#A67DB6" stroke-width="2"/>
<path d="M8.68994 25.7137C8.68994 17.2281 13.177 14.8945 16.1684 14.8945C18.5188 14.8943 20.8692 17.0159 21.0828 19.1373C21.2965 21.2588 19.8008 22.7176 19.8008 23.5923C19.8008 24.4409 20.4418 24.8651 20.4418 25.7137C20.4418 26.5623 19.5871 26.969 19.5871 28.2594C19.5871 29.3201 21.0828 29.3201 21.0828 32.0779C21.0828 36.1142 18.0914 37.5936 15.5274 37.1693C12.9633 36.745 8.68994 34.2654 8.68994 25.7137Z" stroke="#792582" stroke-width="2"/>
<path d="M44.6899 25.7137C44.6899 17.2281 40.2029 14.8945 37.2115 14.8945C34.8611 14.8943 32.5107 17.0159 32.297 19.1373C32.0834 21.2588 33.5791 22.7176 33.5791 23.5923C33.5791 24.4409 32.9381 24.8651 32.9381 25.7137C32.9381 26.5623 33.7927 26.969 33.7927 28.2594C33.7927 29.3201 32.297 29.3201 32.297 32.0779C32.297 36.1142 35.2884 37.5936 37.8525 37.1693C40.4165 36.745 44.6899 34.2654 44.6899 25.7137Z" stroke="#792582" stroke-width="2"/>
<path d="M25.4339 41.5847V29.752C25.5056 29.1885 25.3478 27.8503 24.1423 27.0051C22.9369 26.1599 21.2004 25.9486 20.4829 25.9486C21.7027 26.0191 24.1423 25.8218 24.1423 24.4695C24.1423 23.1172 24.1423 22.0748 24.1423 21.7227" stroke="#792582" stroke-width="2" stroke-linecap="round" stroke-linejoin="round"/>
<path d="M27.946 41.5847V29.752C27.8743 29.1885 28.0321 27.8503 29.2376 27.0051C30.443 26.1599 32.1794 25.9486 32.897 25.9486C31.6772 26.0191 29.2376 25.8218 29.2376 24.4695C29.2376 23.1172 29.2376 22.0748 29.2376 21.7227" stroke="#792582" stroke-width="2" stroke-linecap="round" stroke-linejoin="round"/>
</svg>
