<svg width="352" height="104" viewBox="0 0 352 104" fill="none" xmlns="http://www.w3.org/2000/svg">
<path d="M-3.66134 144.37C-2.65082 144.241 -2.83675 143.483 -3.246 143.122C-4.02206 142.41 -5.0735 142.127 -5.45091 140.834C-5.75859 139.825 -7.11724 140.905 -7.93575 140.183C-6.67813 138.364 -4.36557 138.394 -2.63302 137.041C-4.38928 135.928 -6.04251 137.523 -7.61688 136.988C-9.27614 136.434 -10.8622 137.731 -12.8433 137.418C-11.6296 135.992 -9.72379 136.244 -8.75923 134.538C-10.5489 134.76 -11.0177 132.685 -12.7265 132.746C-13.0852 132.754 -13.0893 132.575 -12.3617 131.128C-13.6253 130.798 -14.896 131.092 -16.4037 131.646C-16.1662 130 -15.8509 128.997 -14.368 128.751C-14.0941 128.723 -13.7587 128.62 -13.4656 128.507C-12.5865 128.169 -11.005 128.079 -11.4016 126.871C-11.8174 125.748 -13.2129 126.596 -14.1153 126.839C-15.1643 127.139 -16.1571 127.586 -17.2853 127.644C-18.8668 127.734 -19.3225 127.183 -18.7319 125.751C-18.5414 125.302 -18.1387 124.901 -18.0331 124.432C-17.8451 123.401 -18.3104 122.893 -19.3538 122.97C-19.6276 122.998 -19.9631 123.101 -20.2137 123.223C-22.0008 124.028 -23.5055 123.777 -24.57 121.97C-24.7903 121.562 -25.5078 121.579 -25.7786 120.802C-24.1501 119.515 -21.9578 118.892 -20.2621 117.306C-21.3313 116.707 -22.2761 116.94 -23.1881 117.226C-24.1425 117.503 -25.1298 117.727 -26.1171 117.951C-26.5375 118.035 -26.9619 117.94 -27.1301 117.499C-27.3216 116.963 -27.1639 116.462 -26.6627 116.217C-25.1783 115.569 -23.6938 114.92 -22.1533 114.418C-19.9514 113.752 -18.0122 112.669 -16.029 111.193C-19.2647 111.894 -22.3154 112.368 -25.2884 113.485C-26.1155 113.791 -27.0179 114.034 -27.9435 114.183C-28.8267 114.341 -29.5947 113.989 -29.8887 113.117C-30.206 112.15 -29.8443 111.337 -28.809 110.9C-27.3341 110.294 -25.5733 110.199 -24.6279 108.579C-24.8603 107.631 -25.7491 108.012 -26.6964 107.664C-25.0751 107.001 -23.6522 106.428 -22.0733 105.755C-21.9162 106.641 -22.4316 108.135 -20.6116 107.383C-18.8862 106.655 -16.9732 106.282 -15.5529 105.126C-15.5075 104.331 -17.4643 105.097 -16.3068 103.524C-15.1492 101.951 -13.9603 100.833 -12.0514 100.28C-11.2435 100.06 -10.8312 99.6161 -10.2361 100.735C-9.88441 101.351 -8.47927 100.461 -8.25694 99.0794C-8.10737 98.2183 -7.95932 97.7596 -6.97357 97.9377C-6.63404 98.0144 -6.11917 97.9071 -5.84937 97.6996C-3.18006 95.7525 -0.0141029 94.7678 2.80021 93.1668C3.97797 92.4933 5.00365 92.0988 6.38654 92.0981C7.81187 92.1071 7.6184 89.6024 9.09578 89.5784C11.7767 89.558 13.9144 88.3856 15.9496 86.8769C17.906 87.4981 18.817 86.2274 20.1428 85.0953C21.8521 83.6472 24.102 82.7686 26.2711 82.0508C27.7172 81.5723 29.434 81.8709 31.0059 81.8235C34.14 81.7713 34.192 81.7383 35.1723 78.3803C37.3817 79.4614 39.3634 78.388 41.2409 77.3806C42.2009 76.8817 42.7572 75.7993 43.4353 74.9682C44.0517 74.2127 45.3068 75.5702 46.3476 74.9106C46.9817 74.4722 47.6527 74.266 47.9912 73.3581C48.6587 71.585 49.7829 71.3469 51.4543 72.4406C52.6644 73.2063 53.9695 72.5617 55.177 72.7451C55.3751 74.0427 53.3177 72.6828 53.8552 74.0572C54.1028 74.7395 54.8284 75.0825 55.613 74.7677C56.9221 74.303 58.2833 73.8052 59.602 73.2979C60.2826 73.0491 60.5019 72.4722 60.5939 71.8666C60.8602 70.0922 62.1365 69.5753 63.9221 69.1735C63.6861 70.4178 62.7741 70.7038 62.14 71.1422C61.6004 71.5571 61.2401 71.9679 61.5301 72.6599C61.8858 73.4562 62.5649 73.6097 63.2975 73.3278C64.9942 72.727 66.6908 72.1261 68.3642 71.4305C73.2996 69.3245 78.3512 67.6922 83.5711 66.5006C85.9235 65.9585 88.1831 65.0374 90.5356 64.4953C95.7458 63.3463 100.559 60.989 105.592 59.4418C111.012 57.7586 116.511 56.3169 122.066 55.0222C124.702 54.4099 127.143 53.0823 129.835 52.6169C133.358 52.0262 136.714 50.5924 140.294 50.1486C141.757 49.9873 143.218 49.2437 144.472 48.632C147.238 47.2438 150.399 47.4662 153.071 46.1014C154.981 45.1462 157.31 45.8963 159.104 44.4673C159.218 44.3588 159.577 44.3504 159.619 44.36C160.794 46.8628 161.111 45.4579 161.532 43.9869C161.59 43.7315 162.166 43.5486 162.554 43.4125C166.08 42.017 169.742 41.0102 173.361 39.9937C173.739 39.9002 174.192 39.8684 174.522 39.9877C176.374 40.6749 178.015 39.9271 179.345 38.9748C180.892 37.8481 182.53 37.905 184.225 37.7065C184.499 37.6789 184.99 37.4768 184.885 37.9452C184.639 39.232 185.526 39.2536 186.338 39.2134C187.646 39.151 189.138 38.8619 189.897 37.8701C191.007 36.5101 189.208 36.7746 188.497 36.1666C189.939 35.5081 190.892 35.634 191.746 36.9904C192.459 38.1807 193.49 38.9506 194.966 37.942C195.392 37.6355 195.78 37.4994 196.35 37.539C198.262 37.5683 200.067 37.0814 201.788 36.1729C202.758 35.6314 203.793 35.1943 204.948 35.4107C205.246 35.4779 205.595 35.512 205.836 35.4323C210.577 33.5955 215.765 33.3364 220.492 31.3623C221.423 30.9911 222.275 30.3782 223.35 30.7554C223.967 30.9844 224.53 30.6642 224.778 29.9596C225.036 29.2125 224.83 28.5397 224.427 27.9563C224.056 27.425 223.607 27.6367 223.129 27.9761C222.182 28.6123 221.18 29.1016 220.02 28.7053C219.191 28.4283 219.254 27.9504 219.705 27.3363C220.198 26.7319 220.911 26.5352 221.609 26.6035C223.28 26.7126 224.722 26.0542 226.23 25.5001C227.78 24.9556 229.322 24.0513 231.156 24.4213C232.057 24.5802 232.843 23.863 233.647 23.463C235.808 22.3854 237.908 21.3834 240.516 21.8834C241.756 22.1191 243.189 21.5032 244.465 20.9863C246.715 20.1078 248.712 18.7694 251.224 18.3082C252.854 18.0054 254.683 17.2108 256.376 16.43C257.369 15.9833 258.358 15.3567 257.962 13.746C259.536 15.6678 261.09 15.3032 263.121 15.0016C265.983 14.5746 268.7 13.8016 271.426 12.986C270.576 9.43801 270.609 9.49018 274.396 8.91445C276.932 8.54803 279.675 9.43664 282.013 7.7726C282.169 7.67366 282.443 7.64607 282.603 7.72702C285.066 9.26804 286.707 7.1333 288.566 6.21103C289.767 5.63235 290.985 5.37089 292.012 5.96091C294.108 7.15055 296.278 6.03039 298.406 6.28759C299.623 6.42848 301.296 5.73287 302.77 5.52897C304.39 5.2687 306.073 4.53051 307.715 5.75194C308.402 6.26522 309.426 5.28839 310.259 5.74529C310.399 6.31375 310.007 6.26998 309.766 6.34974C309.369 6.52844 309.005 6.7593 309.13 7.19044C309.256 7.62158 309.802 7.96876 310.053 7.84643C311.666 6.82402 313.382 7.52496 315.048 7.45417C316.134 7.38639 316.847 7.18969 316.952 5.73677C317.072 4.01881 317.6 4.04878 319.003 4.94761C320.91 6.18403 322.276 8.23775 325.055 8.37382C324.146 9.24211 323.944 10.1362 323.935 11.1634C323.964 12.4226 324.62 12.4813 325.485 12.0058C325.84 11.8175 325.843 11.0128 326.559 11.3984C328.259 12.3643 330.087 11.9721 331.886 11.7077C332.391 11.6429 332.958 11.5026 333.373 11.6411C335.673 12.5189 337.893 12.1705 340.104 11.4623C342.85 10.5616 345.917 10.8074 348.49 9.28602C349.001 8.99879 349.724 8.75952 350.237 9.05453C351.509 9.74469 352.718 9.5258 354.054 9.33569C355.665 9.11799 356.817 10.1391 356.948 11.7348C357.112 13.3826 357.723 13.8341 359.212 13.3652C359.883 13.1589 360.531 12.8578 360.939 12.2342C361.143 11.9224 361.584 11.3509 361.824 11.6735C363.374 13.5006 364.425 11.4114 365.71 11.2543C371.202 10.4375 376.332 8.06224 381.978 7.54884C386.119 7.18718 390.141 5.76956 394.194 4.80647C398.72 3.72644 403.296 3.01579 407.862 2.3477C409.482 2.08743 410.739 3.04263 411.417 4.58308C412.685 7.46491 411.323 10.7366 408.354 12.0342C407.466 12.415 405.988 12.439 406.229 13.7462C406.512 15.063 407.788 14.5461 408.766 14.3644C410.49 14.0382 411.765 14.9082 413.168 15.807C409.747 18.1211 406.341 20.1701 402.238 20.7639C400.533 21.0049 399.078 22.5107 397.112 21.932C396.782 21.8127 396.412 22.2661 396.392 22.7536C396.394 23.3358 396.68 23.8479 397.228 23.7927C400.528 23.599 403.915 24.0067 407.073 22.6622C407.669 22.3942 408.127 22.1399 408.712 22.3168C409.339 22.5033 410.214 21.9852 410.593 22.8762C411.005 23.8194 409.321 23.573 409.76 24.7909C410.57 25.153 411.716 25.4121 412.859 25.0888C413.53 24.8825 414.03 25.0402 414.624 25.1745C415.888 25.5049 416.122 26.05 415.353 27.0844C414.922 27.6133 414.415 28.0804 413.847 28.6231C414.138 28.9127 414.283 29.2587 414.538 29.3162C415.302 29.4889 415.815 29.7839 415.741 30.7068C415.667 31.6296 415.278 32.1681 414.366 32.4541C412.825 32.9561 411.284 33.458 409.81 34.0642C409.025 34.3791 408.263 34.7886 407.115 35.3343C410.21 36.8394 412.954 34.9541 415.628 35.5584C415.502 36.5143 414.761 36.4363 414.237 36.5862C409.143 38.209 404.016 39.7795 398.889 41.35C398.123 41.5797 397.348 41.852 396.536 41.8922C394.27 42.0511 391.859 41.8641 389.863 44.1871C389.483 42.3114 389.911 41.6027 391.06 41.057C391.708 40.7559 391.842 40.1599 391.49 39.5435C391.195 39.074 390.686 38.9588 390.151 39.1513C388.894 39.5831 387.713 40.0766 386.456 40.5084C383.313 41.5878 383.28 41.5356 385.579 43.8004C385.946 44.1518 386.841 44.5331 385.862 45.1172C384.685 45.7906 384.974 46.4826 385.689 47.2705C385.938 47.5505 386.21 47.9253 386.355 48.2713C386.912 49.5605 386.319 50.4108 384.903 50.3592C383.7 50.3557 382.507 49.9072 381.088 50.6603C382.17 51.7996 383.535 51.4818 384.662 51.826C386.576 52.4376 386.753 52.8357 385.746 54.5321C385.666 54.6928 385.363 54.8481 385.377 54.9854C385.449 58.2235 383.312 58.0088 380.955 58.3711C377.211 58.9564 373.549 59.9632 369.763 60.1366C368.234 60.1936 366.955 60.1283 366.546 58.3803C366.211 58.4835 365.937 58.5111 365.865 58.6292C363.849 61.4397 363.07 61.5321 360.506 59.2523C358.794 57.7467 358.053 57.6687 355.962 59.0305C356.761 59.8376 357.665 59.1918 358.533 59.2985C359.095 59.3807 359.4 59.8076 359.402 60.3899C359.386 61.0572 358.705 61.3061 358.3 61.125C356.401 60.2484 354.644 60.5225 352.847 61.3692C352.691 61.4681 352.375 61.4861 352.257 61.4148C350.217 59.3874 347.816 61.5294 345.647 60.8602C344.935 60.6546 344.415 60.9844 344.464 61.7561C344.494 62.613 345.159 62.6292 345.768 62.4984C346.146 62.4049 346.543 62.2262 346.921 62.1326C347.205 62.0625 347.521 62.0445 347.83 62.6513C346.342 63.1202 344.896 63.5988 343.306 63.329C342.617 63.218 341.693 62.9644 341.262 63.4933C339.858 65.3684 338.43 64.7772 337.052 63.5708C335.746 65.6023 336.537 67.4366 337.086 69.3506C336.624 69.425 336.33 69.5377 336.024 69.5132C335.495 69.4832 334.996 69.3255 334.691 69.8832C334.358 70.5686 334.824 71.0764 335.223 71.48C335.548 71.8218 336.1 71.9465 336.538 72.1797C336.933 72.4034 336.885 72.6163 336.78 73.0846C336.368 74.5129 336.847 75.1581 338.112 75.0861C339.189 75.0609 340.28 74.7707 341.375 74.6603C342.018 74.5818 342.573 74.8864 342.954 75.3751C343.325 75.9063 342.584 78.2 341.856 78.6617C341.335 78.9915 340.801 79.184 340.189 78.7325C339.394 78.1053 338.58 77.5632 337.549 76.7933C337.049 78.0226 336.031 78.777 335.305 79.8209C334.616 79.71 334.373 79.2075 334.097 78.6529C333.755 77.9939 333.023 77.8734 332.756 78.6631C332.183 80.4128 331.723 79.6825 331.279 78.6871C330.946 77.9855 330.76 77.2276 330.443 76.261C329.576 77.1389 330.555 77.9418 330.297 78.6889C329.863 80.0225 331.802 81.3111 330.253 82.8402C329.789 83.3169 331.709 84.6907 332.551 84.1204C333.186 83.682 334.223 83.8271 334.411 82.7957C334.479 82.4977 334.744 82.1104 335.013 82.3052C336.877 83.5321 337.074 81.4735 337.987 80.7851C338.877 81.3889 339.72 81.8032 340.991 81.5088C342.167 81.2377 343.451 81.0806 344.922 81.6814C346.189 82.1917 348.185 81.2556 349.712 80.6164C350.35 80.3579 350.955 80.0473 351.692 79.9453C352.047 80.7417 352.393 81.5805 352.828 82.6185C351.257 82.6659 349.895 83.1636 348.801 84.2586C348.626 84.4427 348.167 84.6969 348.059 84.583C346.797 83.8503 345.853 83.6818 345.473 85.5647C345.253 86.5439 344.188 87.1087 344.801 88.5449C345.48 90.0853 346.048 90.9296 347.776 90.7832C348.186 90.7419 348.578 90.7856 348.789 91.236C348.836 92.41 347.241 92.3627 347.024 93.5218C346.865 94.4255 346.237 94.6413 345.807 93.3809C345.513 92.509 344.875 92.7675 344.542 93.4529C344.3 93.935 343.839 94.5916 344.64 94.9964C345.323 95.3297 345.28 96.7071 346.41 96.2466C347.152 95.9221 347.941 95.7872 348.73 95.6523C349.518 95.5173 350.284 95.2877 350.109 94.0848C349.961 93.1566 350.848 92.1935 351.492 92.6972C353.78 94.4223 356.012 93.2266 358.486 92.9357C357.542 94.1542 356.679 95.212 355.816 96.2698C355.015 97.252 355.697 97.9877 356.447 98.0231C357.938 98.1364 359.329 98.4956 360.653 99.1527C361.133 99.3956 361.638 99.3308 362.064 99.0244C362.76 98.5105 363.511 97.1589 363.625 99.4219C363.656 99.8764 364.549 99.6755 364.923 99.4021C365.95 98.6052 366.999 98.3053 368.29 98.9103C369.176 99.3343 369.896 98.5127 370.177 97.8603C370.729 96.5981 371.825 96.4877 372.659 96.9446C373.78 97.5113 374.856 97.4861 375.849 97.0393C377.324 96.4331 378.36 96.9805 379.437 97.9399C379.086 98.3081 378.391 98.822 378.447 98.9689C380.031 101.833 377.111 101.531 375.767 102.346C376.706 103.721 377.929 103.639 379.061 103.761C379.674 103.81 380.274 103.722 380.811 104.112C381.347 104.502 381.75 105.487 381.32 105.614C379.642 106.13 379.648 108.279 378.023 108.762C377.446 108.944 376.351 109.055 376.88 110.069C377.278 110.875 377.889 111.729 378.976 111.259C380.21 110.733 381.375 110.906 383.055 110.973C382.163 112.158 381.274 112.539 380.316 112.636C379.589 112.695 378.97 112.868 378.289 113.117C376.153 113.887 376.3 113.831 376.773 116.086C377.042 117.265 377.476 117.318 378.397 116.99C379.707 116.525 381.057 116.472 382.111 117.337C383.132 118.149 384.377 117.178 385.359 118.161C385.534 119.364 383.49 119.528 383.763 120.887C384.026 121.305 384.479 121.273 384.847 121.222C385.225 121.128 385.599 120.855 386 120.856C390.995 120.464 394.635 116.588 399.415 115.566C399.793 115.472 400.318 115.322 400.47 115.044C401.942 112.468 404.714 112.244 407.077 111.257C409.493 110.237 411.81 109.061 414.17 107.894C414.974 107.494 416.261 106.532 416.843 107.514C417.49 108.6 415.982 109.154 415.202 109.648C412.037 111.618 408.763 113.473 405.575 115.347C405.064 115.635 404.544 115.965 404.099 116.356C403.767 116.639 403.945 117.037 403.986 117.449C404.031 118.041 405.412 117.458 404.785 118.256C404.335 118.87 403.533 119.853 402.593 118.879C401.879 118.091 401.221 118.435 400.39 118.56C397.708 118.983 395.328 120.638 392.506 120.492C392.062 120.481 391.457 120.792 391.201 121.137C390.318 122.28 389.406 122.566 388.059 121.814C387.023 121.266 386.322 122.003 385.941 122.901C385.541 123.884 385.759 124.694 387.009 124.887C387.91 125.046 388.782 125.333 389.522 125.813L389.705 125.989C389.633 127.494 388.33 127.736 387.342 127.961C385.694 128.349 384.524 129.382 382.997 130.021C383.803 131.59 385.793 130.877 386.463 132.057C386.522 132.786 386.125 132.965 385.691 132.912C383.308 132.597 382.664 134.465 381.898 136.082C381.655 136.564 382.227 137.588 381.425 137.585C380.316 137.559 379.355 138.46 378.205 138.021C375.853 137.176 375.853 137.176 375.834 139.633C375.838 139.813 375.715 139.964 375.676 140.134C375.185 140.336 374.903 140.004 374.654 139.724C374.264 139.278 374.03 138.733 373.394 139.573C372.573 140.641 371.42 141.007 370.074 141.239C369.191 141.398 367.822 141.536 367.83 143.282C367.852 144.764 366.177 145.862 365.182 145.726C363.403 145.503 363.169 146.345 362.806 147.561C361.957 147.369 361.33 145.795 361.178 146.074C360.243 147.653 358.964 146.2 357.962 146.69C357.754 146.822 357.55 147.133 357.492 147.389C357.396 147.815 357.616 148.222 358.093 148.285C359.267 148.417 359.986 149.384 361.037 149.667C362.258 149.988 362.388 150.599 361.927 151.658C360.851 154.054 360.893 154.064 363.563 154.488C363.86 154.555 364.157 154.623 364.402 154.723C364.482 154.964 364.622 155.131 364.584 155.301C364.244 156.611 365.858 157.96 365.076 158.857C363.777 160.264 361.961 161.196 360.338 162.261C359.288 162.963 358.342 162.212 357.58 161.637C356.398 160.744 355.387 159.889 354.826 162.178C354.486 163.488 352.946 162.603 352.32 163.402C352.269 164.419 353.497 164.115 353.735 164.84C353.621 164.949 353.531 165.152 353.394 165.166C351.788 165.563 350.824 165.882 349.291 168.131C348.413 169.454 347.743 169.258 346.649 168.966C346.107 168.798 345.538 168.356 344.96 168.942C345.351 170.372 347.058 170.714 347.609 172.225C346.333 172.742 345.398 172.934 344.927 171.261C344.666 170.441 343.908 170.046 343.005 170.29C342.508 170.714 342.879 171.246 342.816 171.723C342.626 173.157 341.925 173.894 340.411 173.686C339.807 173.594 339.217 173.639 338.594 173.633C338.245 173.599 338.017 173.816 337.908 174.104C337.717 174.553 338.639 177.983 339.034 178.207C339.548 178.502 340.15 178.996 340.676 178.444C341.922 177.07 343.194 177.76 344.111 178.639C345.405 179.826 346.947 178.921 348.361 179.375C349.063 179.624 348.823 178.316 348.882 177.659L348.863 177.744C350.091 177.44 350.75 176.694 351.42 175.503C352.151 174.236 352.768 177.239 353.999 176.131C356.575 173.805 359.908 173.663 363.012 172.754C364.302 172.374 365.8 171.863 366.524 170.237C367.057 169.059 368.986 169.406 369.534 167.964C370.146 168.415 369.667 169.157 370.132 169.665C370.597 170.173 371.124 170.605 371.538 169.759C372.014 168.838 372.581 168.697 373.514 168.908C374.066 169.033 376.013 169.697 376.351 170.176C377.017 171.177 377.666 171.86 378.54 170.357C378.754 170.003 379.006 169.478 379.378 169.607C381.061 170.256 380.94 168.618 381.4 167.961C381.948 167.906 381.998 168.275 382.172 168.494C383.439 170.391 383.58 170.557 385.434 169.455C387.497 168.221 389.125 168.32 390.851 169.963C391.951 171.017 392.972 171.83 391.923 173.517C391.434 174.301 391.88 174.894 392.667 175.161C394.859 175.925 395.391 177.522 395.217 179.675C395.113 181.128 396.83 183.799 398.035 184.787C399.174 185.671 399.873 186.724 400.466 188.245C401.971 192.254 401.082 196.393 401.817 200.452C402.215 202.645 401.027 204.748 400.462 206.857C400.276 207.487 399.638 207.745 399.061 207.928C394.742 209.278 390.367 210.482 386.114 211.937C384.332 212.518 382.648 213.659 380.765 213.502C377.962 213.271 375.954 215.054 373.61 215.956C373.464 216.013 369.272 216.005 369.216 215.858C368.331 214.047 367.219 214.825 366.074 215.551C365.241 216.078 364.357 216.639 363.42 217.233C362.86 216.748 363.879 215.591 362.724 215.375C362.045 215.221 361.544 215.466 361.122 215.952C360.268 216.968 359.142 217.608 357.691 218.309C358.016 215.877 361.07 215.985 361.15 213.453C359.483 214.911 357.083 214.279 355.82 216.32C355.454 216.953 355.226 216.186 354.84 215.919C353.875 215.254 352.795 213.712 351.462 215.469C351.135 215.932 350.497 216.191 350.13 215.839C348.517 214.088 346.982 215.754 345.843 216.257C344.453 216.883 343.669 216.795 342.729 215.822C342.405 215.48 342.124 214.746 341.59 214.938C339.738 215.638 337.974 215.15 336.23 214.577C336.018 214.529 335.455 214.849 335.48 214.541C335.575 211.744 334.21 213.449 333.396 213.891C332.186 214.513 331.064 213.946 329.375 213.922C332.078 215.383 330.543 217.05 330.028 218.544C330.86 219.403 331.66 218.823 332.396 218.721C332.807 218.68 333.279 218.563 333.334 219.112C333.402 219.799 332.93 219.916 332.336 219.782C332.123 219.734 331.954 219.695 331.741 219.647C331.147 219.513 330.646 219.758 330.606 220.33C330.547 220.988 331.203 221.047 331.67 221.152C332.349 221.306 333.037 221.417 333.726 221.528C333.812 222.531 332.547 222.603 332.519 223.716C334.644 223.391 334.681 225.994 336.478 226.535C337.189 226.74 337.194 227.905 336.225 228.446C335.965 228.611 335.662 228.766 335.388 228.794C331.516 229.351 327.988 231.148 324.251 232.093C320.429 233.019 316.608 233.945 312.786 234.871C311.704 235.119 310.655 235.419 309.587 235.804C306.34 236.949 303.029 237.588 299.645 237.762C299.328 237.78 299.022 237.756 298.771 237.878C293.304 240.759 287.249 241.896 281.362 243.474C273.576 245.562 265.771 247.735 257.962 249.728C248.579 252.171 239.183 254.477 229.786 256.783C223.13 258.41 216.451 259.943 209.738 261.424C204.245 262.643 198.685 263.758 193.135 264.83C188.28 265.791 183.467 266.761 178.658 267.911C176.022 268.524 173.298 268.534 170.597 269.042C161.892 270.654 153.099 272.067 144.348 273.49C140.593 274.118 136.866 275.02 133.158 275.838C132.213 276.071 131.23 276.476 130.322 275.555C129.89 275.099 129.369 275.429 129.268 276.077C129.166 276.725 128.727 276.894 128.221 276.959C125.284 277.324 122.552 278.362 119.662 278.917C118.632 279.132 117.486 278.873 115.901 278.783C120.119 277.678 123.473 275.662 127.34 275.328C127.562 275.333 127.87 274.956 127.876 274.733C127.948 274.213 127.482 274.107 127.08 274.106C125.948 273.984 124.89 274.327 123.775 274.522C120.809 275.015 117.884 275.92 114.962 276.02C118.34 275.083 121.846 274.176 125.328 273.173C128.811 272.17 132.302 271.125 135.752 270.07C137.481 269.522 139.188 268.878 141.01 268.708C141.515 268.644 142.073 268.546 142.004 267.859C141.936 267.173 141.304 267.209 140.841 267.283C138.064 267.729 135.254 268.123 132.481 268.749C124.697 270.435 116.893 272.206 109.132 273.986C108.05 274.234 107.213 274.582 106.246 273.334C105.278 272.086 103.555 273.397 102.183 272.953C104.16 270.715 104.141 270.8 106.48 270.121C109.773 269.165 113.043 268.114 116.313 267.063C116.837 266.914 117.48 266.835 117.6 266.102C117.183 265.381 116.545 265.639 116.03 265.747C110.078 267.22 104.092 268.641 98.196 270.262C91.4396 272.135 84.6505 273.956 77.6713 274.84C75.1026 275.154 72.6112 273.741 70.906 271.61C69.5156 269.864 67.9306 268.387 65.9333 267.354C64.7369 266.726 63.739 266.008 63.4945 264.521C63.2636 263.171 61.9358 262.334 61.0653 261.645C58.8588 259.759 57.5715 256.962 54.8719 255.681C54.3065 255.419 54.493 254.79 54.3151 254.392C53.4588 252.453 53.4815 250.176 51.5858 248.495C50.8426 247.835 50.6572 245.69 51.3136 244.362C51.8466 243.185 52.6768 242.075 53.6287 241.216C59.6772 235.558 65.7915 230.005 71.8304 224.39C76.2257 220.327 81.1328 216.962 85.8757 213.336C86.9029 212.539 88.0903 211.823 89.3281 211.476C91.2274 210.966 92.4587 209.857 93.3384 208.132C92.7897 207.203 91.9818 207.423 91.1931 207.558C84.6192 208.622 78.0685 209.781 71.4809 210.709C68.4398 211.14 65.4436 212.163 62.0164 212.328C64.2376 211.577 65.8772 209.845 68.1675 210.765C69.366 209.604 71.8589 210.615 72.3308 208.127C72.5132 207.318 73.4813 207.179 74.3453 207.105C76.0501 206.864 77.7316 206.528 79.3802 206.14C79.9896 206.01 81.0097 205.838 80.8101 204.942C80.5737 203.815 79.6834 204.598 79.0932 204.644C75.0992 204.949 71.2895 206.415 67.2778 206.403C66.5593 205.435 67.3501 203.511 65.3442 203.505C65.2073 203.518 65.0431 203.258 64.9966 203.068C63.8149 199.803 60.6252 198.322 58.5628 195.797C58.1495 195.256 57.4568 194.965 57.4694 194.118C57.4477 193.621 57.2001 192.939 56.7141 192.918C53.9963 192.707 54.8856 190.939 55.3914 189.487C53.7144 188.616 52.2749 189.857 50.5581 189.558C50.7461 188.527 52.8151 188.055 51.645 186.716C50.8744 185.782 51.0271 184.116 49.7306 183.733C46.9774 182.887 46.695 180.183 45.3854 178.277C44.8832 177.537 44.6412 176.632 44.4417 175.737C43.8182 173.358 44.5089 171.68 46.8574 170.958C48.8183 170.372 50.0936 168.871 51.8479 168.014C49.6353 167.738 47.7633 168.523 45.9515 169.635C45.0764 170.153 44.3422 170.837 43.1978 170.176C42.3313 169.666 41.4602 170.364 40.6099 170.575C36.684 171.567 32.94 173.137 28.9308 173.707C28.657 173.735 28.3543 173.89 28.0163 173.411C28.1755 172.507 29.0971 172.179 29.6912 172.313C31.2191 172.658 32.164 172.424 33.2543 171.15C34.0981 170.177 35.7276 169.874 37.0135 169.315C37.4627 169.103 37.9775 168.996 37.9477 168.139C35.6407 167.886 33.404 166.53 30.7746 167.904C30.9808 165.803 33.4368 166.582 33.7456 164.817C32.5612 164.729 31.5795 164.73 30.4978 164.978C29.4584 165.235 28.7481 164.627 28.4404 163.618C28.1559 162.704 28.3575 161.81 28.8891 161.035C29.1453 160.69 29.5601 160.829 29.9557 161.052C32.0515 162.242 32.009 162.232 33.2394 160.139C33.6148 159.463 33.9013 158.588 34.7941 158.387C36.8727 157.873 38.2864 155.955 40.5101 155.787C41.0057 155.764 41.2619 155.42 41.2634 155.017C41.2649 154.615 41.1488 154.141 40.6011 154.196C39.7891 154.237 39.3334 153.686 39.5527 153.109C40.2489 151.208 38.3689 151.634 37.757 151.182C36.792 150.517 36.315 151.841 36.0957 152.417C35.4858 153.935 34.5344 153.407 33.5062 153.219C32.6478 153.07 31.3372 153.937 31.5994 151.983C31.653 151.547 31.0644 151.191 30.7658 151.526C30.026 152.433 28.3829 152.598 28.4057 154.08C28.4395 155.117 28.0176 155.603 27.092 155.752C25.746 155.984 26.4296 154.931 26.2477 154.353C26.0193 153.585 25.3155 153.739 24.735 153.742C23.9847 153.707 23.6436 154.032 23.3627 154.685C23.0721 155.38 23.8154 156.04 23.2606 156.72C21.8024 156.659 22.2233 155.188 21.6691 154.481C21.0724 153.764 20.7535 153.2 19.9562 154.362C18.9644 155.794 17.1884 156.153 15.6479 156.655C15.4069 156.735 15.0441 156.563 14.8511 156.43C14.5924 156.193 14.6692 155.852 14.8637 155.583C15.1103 155.28 15.3528 154.798 15.6883 154.695C19.1746 153.872 21.6772 151.082 25.117 150.07C27.1204 149.494 28.7544 147.984 30.7769 147.322C31.2069 147.196 31.5864 146.7 31.4469 146.132C31.2186 145.364 30.4587 145.371 29.967 145.573C28.5538 146.104 27.1967 146.782 25.8163 147.364C22.5119 148.765 19.0666 150 15.6596 151.064C11.7706 152.288 8.01702 153.901 4.04871 154.883C2.96695 155.131 2.33033 154.987 1.72152 153.731C4.50801 153.242 6.82666 151.663 9.4818 150.966C10.1952 150.769 11.1113 150.663 10.9789 149.469C10.8779 148.731 11.0835 148.017 9.93608 148.16C9.15697 148.252 8.58603 148.213 8.70832 147.077C8.87054 145.369 7.65742 145.408 6.49077 145.636C4.80927 145.972 3.51073 147.379 1.50486 147.373C1.3351 147.334 1.21334 147.083 1.14362 146.799C0.485806 144.771 0.476202 144.814 -1.45591 145.272C-2.29514 145.037 -3.3087 145.971 -3.66134 144.37ZM284.773 129.251C285.083 129.456 285.294 129.906 285.753 129.652C285.857 129.586 285.986 129.212 285.953 129.16C285.445 128.643 285.085 129.053 284.701 129.369C284.105 128.653 283.465 127.927 282.878 127.167C283.38 126.923 284.134 127.138 284.473 126.23C283.579 125.446 282.485 125.154 281.235 124.961C281.547 126.15 282.764 126.291 283.048 127.206C282.618 127.332 282.188 127.459 281.768 127.543C281.329 126.325 280.553 125.613 278.954 125.385C279.518 127.034 280.081 128.101 281.839 127.425C282.111 129.186 283.361 129.379 284.773 129.251ZM334.607 107.047C333.597 107.176 332.596 107.263 331.406 107.397C332.249 109.198 333.297 110.286 335.014 110.584C335.745 110.705 336.54 111.332 337.031 110.145C337.412 109.247 338.094 108.596 337.561 107.401C336.681 105.368 335.547 107.035 334.49 106.975C335.04 106.116 336.294 105.504 335.704 104.163C335.582 103.911 335.385 103.598 335.173 103.55C334.791 103.464 334.342 103.676 334.246 104.101C334.067 105.09 334.196 106.104 334.607 107.047ZM325.295 82.0776C323.817 82.5039 323.472 81.2627 322.862 80.4088C322.186 79.4506 321.19 79.3151 320.161 79.5298C319.131 79.7445 319.562 80.6026 319.503 81.2604C319.34 82.9687 319.298 82.9591 316.647 82.4495C318.129 81.2184 318.645 79.7241 318.5 77.9911C318.432 77.3046 318.335 76.7457 317.523 76.7859C315.814 76.8471 314.167 76.8327 312.675 75.7348C312.106 75.2929 311.514 75.7409 311.059 76.175C310.718 76.5006 310.584 77.0966 310.923 77.1734C312.617 77.3772 311.966 78.483 312.137 79.506C312.397 80.728 312.9 82.4526 314.98 81.5357C315.618 81.2772 315.937 81.8415 315.864 82.362C315.744 83.0953 315.007 83.1973 314.436 83.1577C313.771 83.1415 312.481 83.5211 312.573 82.9155C312.846 80.5163 311 80.5913 309.729 79.9012C309.248 79.6583 309.016 78.7109 308.39 79.509C307.825 80.2316 307.402 81.1203 307.771 82.0539C308.005 82.599 308.69 82.53 309.087 82.3513C309.881 81.9939 310.273 82.0377 310.756 82.8628C311.328 83.8869 310.529 84.0644 310.032 84.489C309.71 84.7294 309.497 85.0838 309.678 85.6619C310.603 85.9155 311.665 85.753 312.663 86.4707C313.661 87.1885 314.295 85.3632 315.424 85.305C316.099 85.2786 316.77 85.0723 317.462 85.3631C318.612 85.802 321.515 85.787 322.984 85.4032C323.457 85.2862 323.976 85.3588 324.471 85.3366C326.194 85.4127 326.46 85.0254 325.928 83.4285C325.769 82.9452 325.454 82.5609 325.243 82.1105C326.032 81.9756 326.892 83.1095 327.413 82.3773C327.874 81.7207 328.465 81.2728 329.057 80.8248C329.379 80.5844 329.131 79.902 328.73 79.9008C327.749 79.9026 326.939 80.5251 325.938 80.612C325.273 80.5958 325.665 81.6242 325.295 82.0776ZM276.237 132.288C276.533 131.371 275.411 131.207 275.415 131.387C275.272 133.01 273.642 133.313 272.949 134.409C272.132 135.656 272.436 136.485 272.927 137.67C273.662 139.358 275.237 138.506 276.263 139.096C277.728 139.919 278.503 139.647 278.793 137.967C278.856 137.489 279.102 137.187 279.56 137.335C279.814 137.393 279.969 137.696 280.185 137.924C280.585 138.327 279.789 139.087 280.887 139.559C280.904 137.505 282.142 137.158 283.76 137.3C284.279 137.373 285.331 137.655 285.315 136.935C285.335 134.076 286.75 135.515 288.023 135.803C289.688 136.134 291.305 136.679 293.089 135.292C294.334 134.321 296.521 133.92 298.163 134.157C299.804 134.394 300.585 133.899 301.34 132.728C301.482 132.491 301.59 131.621 301.922 132.322C302.915 134.247 303.793 132.924 304.4 132.211C305.182 131.314 305.705 131.567 306.302 132.283C306.551 132.563 306.667 133.037 307.088 132.953C308.075 132.729 307.502 130.72 308.349 131.314C310.279 132.645 311.686 131.352 313.292 130.955L313.302 130.912C313.24 130.988 313.179 131.063 313.159 131.148C313.14 131.234 313.196 131.381 313.239 131.39C314.543 132.132 314.744 130.254 315.706 130.337C316.669 130.42 317.249 131.804 318.408 131.216C318.857 131.004 319.151 130.489 319.591 130.32C320.91 129.813 321.878 128.287 323.698 128.922C324.24 129.089 324.851 128.556 324.495 127.76C324.35 127.414 323.53 127.094 324.49 126.595C325.964 127.376 326.832 128.87 328.285 130.138C328.601 129.135 328.434 128.292 329.39 127.613C330.918 126.572 330.63 125.477 328.966 124.743C328.401 124.481 327.816 124.305 327.255 124.222C325.284 123.866 323.371 124.239 321.462 124.792C320.12 125.205 321.36 126.827 320.197 127.236C317.989 125.752 318.036 125.942 315.12 126.804C313.537 127.296 311.983 129.048 310.025 127.442C309.649 127.133 308.972 127.562 308.682 128.257C308.039 129.723 307.475 129.058 306.832 128.152C306.461 127.621 306.672 126.684 305.677 126.549C305.132 127.186 306.587 128.052 305.481 128.607C304.615 129.083 303.728 129.061 302.933 128.434C302.556 128.125 302.147 127.764 301.761 127.498C300.165 126.466 299.527 126.725 299.104 128.598C298.826 129.833 298.116 130.209 297.132 129.629C296.737 129.405 296.441 128.936 296.074 128.584C295.327 127.744 294.541 127.074 292.609 127.532C295.102 128.543 294.239 130.988 296.07 132.163C293.908 132.256 293.634 132.283 293.403 130.934C293.155 129.267 291.691 129.428 291.223 129.725C289.808 130.658 288.169 131.003 286.806 131.903C286.13 132.332 286.429 132.981 287.018 133.338C287.489 133.624 288.19 132.887 288.588 133.693C288.222 134.326 287.571 134.448 286.986 134.271C284.549 133.407 282.007 133.011 279.531 132.317C278.362 131.963 277.394 132.103 276.237 132.288ZM118.54 62.5477C117.375 62.3738 117.408 62.426 117.141 63.2157C117.031 63.5042 117.626 64.6231 116.737 64.0192C115.503 63.1588 114.636 64.0367 113.626 64.1662C112.257 64.3042 111.154 65.0393 110.038 65.6372C109.641 65.8159 109.216 65.72 109.039 65.3218C108.894 64.9758 109.078 64.7492 109.447 64.6982C111.813 64.2934 110.143 62.7973 110.08 61.8883C109.981 60.7472 108.89 61.0374 108.134 61.2245C106.674 61.5657 105.242 62.1816 103.768 62.3855C102.347 62.5564 101.51 62.9042 101.504 64.5136C101.497 65.1385 100.763 65.8227 100.342 64.922C99.8313 63.8223 99.278 64.0999 98.4565 64.1827C96.7285 64.329 95.1359 64.864 93.5666 65.4936C93.127 65.6627 92.4383 65.5518 92.5394 66.2905C92.6172 66.9346 93.2073 66.889 93.7166 67.0041C94.2683 67.1288 94.7438 66.2072 95.2981 66.9141C94.861 67.6655 93.3043 67.4478 93.5544 68.7125C93.9288 70.8106 91.498 68.3371 91.6713 69.9423C89.8513 70.6943 88.2188 71.8019 86.31 72.3548C84.4956 72.8843 83.1642 74.2389 81.1704 74.7726C75.8602 76.1675 70.7262 78.3628 65.6347 80.5678C64.5474 81.0379 63.7051 81.6082 63.8839 82.991C66.9756 82.9291 69.798 81.6878 72.7078 81.048C78.4753 79.8012 83.7285 77.2748 89.061 74.9901C91.2781 74.0595 93.3391 73.2277 95.7047 74.2099C96.2372 74.4197 96.7273 74.62 96.9466 74.0432C97.4276 72.899 97.9617 72.7065 99.1349 73.2402C99.7003 73.5022 100.518 73.2396 101.189 73.0333C105.886 71.5893 110.55 70.0931 115.396 69.175C118.423 68.6064 121.313 67.0671 124.269 66.6167C127.594 66.1154 130.624 64.7421 133.939 64.2834C136.57 63.8936 139.089 62.8076 141.785 62.5221C142.428 62.4435 142.942 62.3362 143.364 61.8499C144.507 60.542 146.103 60.187 147.741 60.2439C149.294 60.2817 150.759 59.718 152.232 59.5141C153.885 59.306 155.695 58.5966 156.764 56.8247C157.486 55.6008 156.625 54.8692 156.217 54.1059C155.8 53.3852 154.901 53.8085 154.418 54.3704C153.052 56.0752 150.907 55.5008 150.075 54.6415C148.41 52.923 147.32 54.1978 146.769 55.0577C146.028 56.3667 144.759 56.2588 143.803 56.9376C143.481 57.1781 142.999 57.3376 142.86 56.7692C142.465 55.1585 141.472 55.6053 140.554 56.1138C138.667 57.1638 136.036 56.569 134.616 58.7091C134.493 58.8602 133.936 58.958 133.785 58.8345C132.496 57.8271 131.266 58.5335 130.061 58.9323C129.484 59.1152 128.856 59.3311 128.491 58.5773C127.526 56.5248 125.683 57.182 124.121 57.1869C123.276 57.1749 122.806 57.8741 123.53 58.6194C124.428 59.583 125.029 60.4794 123.872 61.65C120.022 58.9451 119.181 59.113 118.54 62.5477ZM279.686 168.819L279.653 168.767C280.851 170.38 279.401 171.663 278.834 173.19C280.174 173.18 280.926 172.813 281.765 172.063C282.84 171.053 283.623 169.754 285.226 169.176C286.19 168.857 286.667 167.533 286.006 166.31C285.786 165.902 285.179 165.228 285.544 164.997C287.157 163.975 287.514 161.997 288.859 160.78C289.252 160.421 289.624 160.55 289.896 160.925C290.178 161.257 290.285 161.774 289.685 161.862C288.349 162.052 288.521 162.672 289.089 163.517C289.427 163.996 290.077 164.277 289.999 165.02C289.511 165.402 289.109 165.803 288.588 166.133C287.547 166.793 286.954 167.643 287.615 168.866C288.243 170.037 289.289 170.542 290.673 170.139C291.061 170.003 291.416 169.815 291.826 169.773C293.489 169.523 293.832 169.779 293.684 171.625C293.644 172.198 293.642 172.6 294.165 172.852C295.008 173.267 295.741 172.985 296.46 172.566C297.032 172.203 296.803 171.838 296.517 171.326C295.748 169.988 296.843 169.878 297.755 169.592C297.518 171.239 297.518 171.239 298.914 171.375C299.697 171.463 299.657 172.036 299.401 172.38C298.723 173.211 297.937 173.929 296.657 175.25C298.94 174.424 299.815 175.293 300.345 177.292C299.498 174.326 301.722 175.142 302.64 174.634C303.661 174.059 303.847 174.817 303.802 175.612C303.787 175.877 303.908 176.129 304.074 175.987C305.192 174.987 306.877 176.218 308.023 175.09C307.573 174.317 306.535 174.172 306.284 173.31C305.881 173.711 305.241 174.372 305.288 173.174C305.314 171.48 306.767 170.376 307.452 168.92C307.985 167.743 308.643 168.384 309.369 168.727C309.487 168.799 309.997 168.511 310.045 168.298C310.261 167.542 310.401 166.723 310.446 165.928C310.53 164.963 309.102 165.758 309.02 164.934C309.896 164.014 310.673 165.711 311.772 164.796C310.888 163.97 310.582 162.558 308.867 162.842C308.121 162.986 307.656 162.478 307.568 161.877C307.444 161.043 308.164 160.222 308.707 160.389C310.437 160.825 311.009 159.478 311.791 158.581C312.418 158.767 312.459 159.179 312.5 159.591C312.64 161.144 313.467 160.839 314.319 160.226C314.641 159.986 314.779 159.569 315.026 159.267C315.344 158.847 315.812 158.55 316.321 158.665C316.948 158.852 317.182 159.397 317.303 160.05C317.413 160.746 316.708 161.303 317.064 162.099C318.4 161.909 318.974 163.516 320.575 163.34C319.533 160.644 320.818 159.1 323.214 158.165C323.706 157.963 324.01 157.405 323.851 156.922C323.133 154.567 323.982 152.387 324.448 150.121C324.63 149.312 324.529 148.574 323.775 148.358C322.139 147.899 321.577 146.832 322.022 145.054C320.438 145.949 320.291 146.005 318.688 145.598C316.491 145.056 315.512 145.64 314.621 147.811C314.001 149.371 312.804 150.129 311.097 149.788L311.149 149.755C310.469 150.004 309.729 150.911 309.072 149.867C308.11 148.397 307.004 148.952 305.963 149.612C305.182 150.107 304.666 150.616 303.577 150.102C302.254 149.445 301.696 150.929 300.854 151.5C299.699 152.268 300.73 153.038 300.864 153.829C299.848 154.181 299.239 152.925 298.336 153.168C297.391 153.402 297.806 154.927 296.554 155.137C295.313 153.916 293.915 152.795 292.069 154.257C291.851 154.432 291.473 154.525 291.219 154.468C289.54 153.999 288.887 154.522 288.781 156.377C288.703 158.105 288.283 158.189 286.061 157.955C286.184 157.804 286.242 157.549 286.388 157.492C287.352 157.173 288.318 156.452 287.877 155.636C287.315 154.57 286.758 153.28 285.676 152.543C285.515 152.462 284.991 152.612 284.91 152.773C284.304 154.471 283.03 155.57 281.747 156.712C281.354 157.07 281.819 157.578 282.475 157.637C282.876 157.638 283.176 156.9 283.717 157.47C283.276 158.042 282.825 158.656 282 158.558C279.938 158.406 278.316 159.068 276.767 160.597C275.971 161.357 274.728 161.926 273.274 162.045C271.451 162.215 269.589 162.957 268.013 164.211C267.629 164.527 266.933 165.041 267.14 165.312C268.723 167.191 266.345 167.056 265.885 167.713C266.121 168.84 267.515 168.395 267.611 169.356C267.693 170.18 266.46 170.304 266.421 171.861C270.659 169.687 274.849 168.71 278.75 166.639C275.955 169.541 271.49 169.561 268.646 172.677C270.65 173.085 271.994 170.884 273.864 171.888C273.937 172.754 272.766 172.803 272.8 173.84C274.098 173.82 275.514 173.871 276.212 172.553C276.988 170.894 278.511 170.075 279.686 168.819ZM318.195 121.28C318.053 122.5 318.276 123.49 319.304 123.678C320.587 123.923 321.671 123.273 322.505 122.343C323.225 121.522 323.762 120.524 324.45 119.651C325.939 117.795 327.785 117.72 329.43 119.524C330.426 120.644 330.903 120.707 331.343 119.151C331.548 118.436 332.437 118.056 333.134 118.526C334.655 119.497 336.156 118.18 336.555 117.599C337.831 115.695 339.526 116.884 340.962 116.448C341.444 116.288 342.292 116.883 342.2 117.488C341.939 119.04 343.095 119.256 343.984 119.86C345.067 120.597 346.114 120.7 346.958 119.727C348.049 118.452 348.068 116.98 347.338 115.473C346.851 114.468 346.347 114.13 345.03 114.235C343.439 114.368 341.421 116.194 340.067 113.695C340.001 113.591 339.652 113.556 339.505 113.613C338.1 114.503 335.919 114.681 335.15 115.716C333.983 117.331 333.633 116.312 332.965 115.714C331.531 114.361 330.983 114.416 329.215 115.135C327.688 115.774 326.409 117.096 324.503 116.844C322.597 116.592 320.779 116.942 318.907 117.727C316.345 118.803 315.474 118.114 315.155 115.178C316.69 114.899 318.134 114.823 319.333 116.033C319.766 116.489 320.2 116.542 320.659 116.288C321.368 115.912 321.229 115.343 320.962 114.746C320.434 113.329 319.863 111.902 319.987 110.364C320.018 109.834 319.548 109.146 319.089 109.401C317.382 110.447 314.565 110.078 314.262 113.008C315.505 113.826 315.917 111.995 316.969 112.277C316.915 112.713 316.593 112.953 316.262 113.236C315.092 114.269 312.262 113.764 313.087 116.635C312.898 116.682 312.676 116.676 312.51 116.818C310.111 118.557 307.267 117.915 304.604 118.252C302.88 116.207 300.679 117.857 298.698 117.544C297.882 117.404 296.964 117.912 297.22 118.955C297.601 120.428 296.732 120.723 295.725 121.033C294.279 121.511 293.53 122.461 293.765 123.99C293.875 124.687 294.3 124.782 294.83 124.41C296.907 122.911 297.266 122.903 299.258 124.158C299.879 124.567 300.239 125.543 301.278 125.286C302.153 123.783 299.252 122.009 301.561 120.473C301.652 122.641 302.442 123.491 304.345 123.16C305.176 123.035 305.907 123.155 306.719 123.115C307.701 123.113 308.55 123.305 308.66 121.63C308.779 119.912 309.62 119.744 311.538 120.536C312.113 120.755 312.698 120.932 313.27 120.569C314.415 119.843 315.58 120.017 316.753 120.551C317.319 120.813 317.975 120.872 318.416 120.3C319.691 118.799 319.953 120.603 320.669 120.989C321.032 121.16 321.328 121.63 320.892 121.979C320.002 122.762 319.486 121.885 318.884 121.39C318.851 121.338 318.619 121.375 318.195 121.28ZM340.249 141.567C339.942 141.543 339.805 141.556 339.763 141.547C339.029 140.844 338.563 139.352 337.22 140.167C335.98 140.916 337.591 141.682 337.546 142.478C337.502 142.87 337.722 143.278 337.306 143.542C336.838 143.839 336.276 143.757 335.919 143.363C335.66 143.125 335.639 142.628 335.442 142.315C335.057 141.646 334.448 141.777 333.838 141.908C333.135 142.062 332.84 142.577 332.908 143.264C332.953 143.856 333.073 144.509 333.876 144.512C334.225 144.546 334.674 144.334 334.937 144.751C334.947 145.693 333.422 145.93 333.89 147.02C334.246 147.817 334.738 148.599 335.344 149.273C336.059 150.061 336.549 148.874 337.163 148.924C338.135 148.964 339.107 149.005 339.878 149.94C340.625 150.78 341.537 150.494 341.999 149.435C342.632 148.012 343.138 146.56 343.828 144.882C344.942 146.073 345.915 147.099 346.804 148.105C347.161 148.499 347.547 148.765 348.091 148.53C349.565 147.924 349.811 146.637 348.905 145.314C348.37 144.521 347.683 144.008 346.83 143.636C346.222 143.365 345.819 142.781 346.132 142.181C347.026 140.593 346.154 138.92 346.92 137.303C345.495 137.294 344.405 137.182 343.833 138.529C343.624 139.064 343.343 139.716 342.56 139.629C341.065 139.335 340.649 140.584 340.249 141.567ZM251.825 22.9632C251.971 22.9068 252.486 22.7995 252.968 22.6399C253.356 22.5038 253.711 22.3155 253.689 21.8184C253.615 21.3543 253.295 21.1924 252.851 21.1816C251.648 21.1781 250.43 21.0372 249.241 21.1709C247.451 21.3928 245.619 21.6051 243.899 22.1112C242.179 22.6174 240.701 24.0283 238.727 23.0899C238.685 23.0803 238.571 23.1889 238.477 23.2123C235.319 24.5567 232.045 25.4275 228.682 26.0991C227.704 26.2808 227.051 26.8043 226.552 27.6312C225.982 28.5763 226.239 29.2161 227.358 29.2004C229.543 29.2022 231.803 29.2657 233.814 28.0646C235.001 27.3486 236.516 26.1697 237.568 26.4521C240.826 27.2334 243.089 24.1206 246.183 24.6411C247.694 23.2823 249.923 24.2782 251.825 22.9632ZM348.608 114.194C349.574 114.457 351.054 113.628 351.596 115.182C353.298 114.359 353.907 115.615 354.587 116.753C354.85 117.171 355.355 117.106 355.611 116.761C357.233 114.712 360.343 113.58 359.483 110.075C359.334 109.549 359.507 108.782 359.792 108.31C360.595 106.925 359.761 106.468 358.815 105.718C357.051 104.245 356.368 106.283 355.215 106.649C354.88 106.752 354.695 106.979 354.755 107.306C354.838 107.727 355.196 108.121 355.583 107.985C357.639 107.376 357.015 108.756 356.568 109.55C355.523 111.417 353.773 112.453 351.862 113.408C351.774 111.822 353.346 111.775 354.213 110.897C353.485 109.972 352.425 109.329 352.898 107.825C353.204 106.865 352.277 106.03 351.176 106.362C350.316 106.615 349.005 106.498 349.418 108.426C349.737 109.975 350.291 112.069 348.549 113.464C348.53 113.55 348.599 113.834 348.608 114.194ZM295.928 48.7269C296.341 49.2678 296.819 48.9284 297.282 48.854C303.715 47.6234 309.743 44.8248 316.339 44.2574C318.596 42.7541 321.281 42.9136 323.78 42.3151C325.901 41.8101 327.639 40.2343 329.793 39.7815C330.171 39.6879 330.469 39.3527 330.396 38.8886C330.322 38.4245 329.907 38.286 329.506 38.2848C329.105 38.2836 328.684 38.3676 328.306 38.4611C326.143 38.9565 323.524 38.9013 321.99 40.1654C319.864 41.8774 317.734 41.038 315.655 41.5525C315.372 41.6227 315.168 41.9345 314.884 42.0046C311.539 42.9935 308.352 44.4657 304.819 45.0989C302.17 45.5739 299.641 46.7025 297.074 47.599C296.592 47.7585 295.889 47.9126 295.928 48.7269ZM90.7624 130.545C88.4195 131.044 86.12 132.538 83.4088 133.088C82.757 133.21 82.4008 133.8 82.6908 134.492C82.9808 135.184 83.5093 135.214 84.1667 134.871C87.9506 132.728 92.2256 131.77 96.2202 130.078C102.276 127.554 108.499 125.471 114.644 123.146C115.282 122.887 116.665 122.887 116.197 121.797C115.795 120.811 114.791 121.703 114.078 121.899C106.28 124.432 98.7076 127.553 90.7624 130.545ZM339.702 104.037C340.577 104.906 341.465 105.912 341.913 107.087C341.544 107.541 341.251 107.654 340.982 107.459C340.351 107.092 339.612 106.612 339.189 107.501C338.784 108.304 339.126 108.963 340.003 109.43C341.637 110.291 343.475 109.857 345.157 110.505C346.18 110.915 347.025 109.54 348.018 109.094C348.415 108.915 348.299 108.441 348.121 108.043C347.593 106.626 347.041 106.502 345.48 107.491C344.96 107.821 344.547 108.265 343.912 107.718C343.395 107.243 343.279 106.77 343.475 106.098C343.905 104.585 344.813 104.119 346.366 104.156C348.447 104.224 350.099 103.031 351.891 102.005C350.179 100.499 348.755 101.475 347.343 101.603C347.091 100.741 348.744 100.533 347.941 99.5457C347.069 99.2591 346.641 99.9679 346.144 100.392C345.192 101.251 343.883 101.716 343.288 102.969C342.446 104.926 340.705 102.161 339.702 104.037ZM157.131 52.0305C157.312 53.011 157.403 53.7923 157.589 54.5502C157.98 55.9809 158.845 56.8924 160.451 56.4948C161.627 56.2237 162.914 56.6488 164.051 55.5635C164.62 55.0208 166.058 54.1825 166.515 54.3306C169.272 55.3565 169.561 52.6923 170.834 51.5932C171.497 51.0271 171.25 50.3447 170.231 50.1145C168.533 49.7307 166.823 50.1943 165.663 51.1849C164.389 52.2841 163.114 52.3986 161.837 51.9309C160.296 51.4482 158.921 51.8087 157.131 52.0305ZM292.284 139.853C291.226 142.567 292.86 144.816 293.044 147.363C290.724 145.586 288.907 145.533 286.777 147.065C285.707 147.852 284.769 148.848 283.441 149.398C284.625 150.874 285.827 149.893 286.927 149.963C288.408 150.118 289.068 148.97 289.847 147.893C290.527 149.031 290.42 150.887 292.256 149.87C293.079 149.384 294.091 148.852 294.053 147.636C294.046 146.874 294.275 146.254 294.631 145.664C296.014 143.291 295.13 141.078 292.284 139.853ZM330.809 110.439C330.03 108.16 328.818 107.797 326.204 108.906C325.315 109.287 324.257 109.629 323.305 109.101C322.557 108.663 322.721 108.924 322.312 109.548C321.353 111.031 322.995 111.268 323.195 112.163C323.357 112.826 323.089 114.018 324.354 113.946C325.123 113.897 325.943 114.216 326.701 113.627C327.572 112.929 328.705 112.648 329.782 112.623C331.363 112.533 331.762 111.952 330.809 110.439ZM330.463 44.7207C329.223 44.4851 328.172 44.2027 327.071 44.5355C323.966 45.4446 320.829 46.3015 317.748 47.3054C316.836 47.5914 315.799 48.4309 316.234 49.4689C316.58 50.3078 317.813 50.1836 318.682 49.888C322.099 48.781 325.66 48.02 328.961 46.4393C329.618 46.0957 330.322 45.9416 330.463 44.7207ZM342.075 13.2054C341.655 13.2893 341.362 13.4021 341.045 13.4201C339.615 13.6336 339.724 14.7321 339.767 15.7263C339.824 16.8578 340.711 16.8794 341.585 16.7636C342.879 16.5639 344.126 16.1747 345.453 16.0272C348.064 15.7225 348.022 15.7129 348.602 13.3384C348.846 12.4539 348.267 12.0546 347.906 11.4807C347.751 11.1773 347.317 11.1239 347.165 11.4028C345.892 13.4865 343.509 12.1872 342.075 13.2054ZM296.004 87.3585C295.599 89.549 295.493 91.4043 293.582 92.3595C293.124 92.6138 292.395 93.0755 292.567 93.6961C292.8 94.6436 293.66 94.3905 294.311 94.2693C294.963 94.1482 295.415 94.5188 295.928 94.8138C297.105 95.5273 297.871 95.2977 297.937 94.015C298.003 92.7324 298.446 91.7586 299.205 90.7668C300.158 89.5057 299.911 88.8233 298.364 88.5631C297.59 88.433 296.849 88.3551 296.004 87.3585ZM362.836 108.461C364.482 107.491 363.774 106.078 364.01 104.834C364.354 102.719 363.242 102.109 361.985 101.154C361.181 100.57 360.449 100.449 359.852 101.12C359.245 101.833 359.744 102.393 360.45 102.821C361.006 103.125 361.565 103.61 361.285 104.262C360.286 106.318 361.963 107.19 362.836 108.461ZM283.034 145.861C283.032 145.279 283.124 144.673 283.079 144.081C282.818 141.875 281.797 141.062 279.508 141.126C277.893 141.164 276.285 140.98 274.158 140.32C275.568 141.981 276.822 142.354 278.161 142.746C279.043 142.99 280.605 142.985 280.554 144.003C280.562 145.75 282.04 145.323 283.034 145.861ZM282.375 10.718C282.305 10.4338 282.236 10.1496 282.166 9.86533C279.277 10.0177 276.348 9.35575 273.609 11.0186C273.141 11.3154 272.267 11.4312 272.59 12.1753C272.89 12.8247 273.184 13.6966 274.227 13.6192C274.945 13.6024 275.629 13.5334 276.155 12.9812C277.032 12.0607 278.123 11.7705 279.356 11.6463C280.357 11.5593 281.368 11.0274 282.375 10.718ZM310.344 141.654C310.966 140.676 310.402 139.027 312.21 138.719C312.579 138.669 313.402 136.796 312.566 135.757C311.828 134.875 310.189 135.22 309.17 136.377C308.018 137.727 308.296 139.266 310.344 141.654ZM304.055 52.4433C304.529 53.311 305.302 53.4411 305.921 53.2678C308.335 52.6501 310.736 51.8951 313.127 51.1827C313.505 51.0892 313.836 50.8061 313.73 50.2898C313.567 49.6266 313.007 49.1421 312.421 49.3676C309.693 50.5855 306.582 50.7325 304.055 52.4433ZM85.8128 69.0208C85.4668 68.1819 84.8054 68.3456 84.2617 68.5807C82.565 69.1816 80.8588 69.825 79.2278 70.5302C78.287 70.944 76.9122 71.3044 77.6332 72.8544C78.0449 73.7977 79.4895 73.7215 80.8097 72.8118C81.0699 72.6469 81.3822 72.449 81.4398 72.1936C82.0416 70.3161 83.3931 69.8609 85.1388 70.0318C85.8467 70.0576 85.8866 69.4849 85.8128 69.0208ZM354.241 142.224C354.118 143.36 355.231 143.567 356.216 144.147C357.511 144.932 358.085 144.167 358.635 143.307C359.267 142.286 358.481 141.617 357.813 141.018C357.362 140.648 356.577 140.962 356.164 140.422C355.586 139.62 354.884 139.372 354.117 140.004C353.464 140.527 353.881 141.248 354.241 142.224ZM333.527 100.762C334.109 100.357 335.287 99.6833 334.609 99.1274C333.63 98.3246 334.204 97.5594 333.976 96.7919C333.883 96.4129 333.601 96.0807 333.177 95.9848C332.096 95.8301 331.48 96.5856 331.001 97.3274C330.388 98.2628 330.8 99.2061 331.358 100.093C331.926 100.937 332.615 101.048 333.527 100.762ZM296.767 140.151C296.799 141.59 298.279 142.148 297.759 143.462C297.359 144.446 295.623 145.619 297.215 146.471C298.124 146.99 298.235 144.912 299.106 144.214C299.987 143.474 301.28 142.289 300.53 140.867C299.781 139.445 298.225 140.212 296.767 140.151ZM354.447 150.012C354.391 151.252 356.331 151.153 355.67 152.302C354.787 153.847 356.157 154.694 356.573 155.817C356.82 156.499 357.586 156.269 358.083 155.845C358.518 155.496 358.79 154.886 358.319 154.601C356.864 153.735 356.612 152.872 357.571 151.389C357.899 150.926 357.223 149.968 356.491 149.847C355.845 149.746 355.124 149.583 354.447 150.012ZM361.736 155.865C360.164 155.913 359.732 157.828 358.193 157.928C357.645 157.983 356.978 158.369 357.037 159.098C357.113 160.145 358.068 159.868 358.652 160.045C359.472 160.365 359.983 160.078 360.227 159.193C360.385 158.692 360.736 158.324 361.363 158.51C362.107 158.768 362.997 159.372 363.449 158.355C363.873 157.467 362.505 157.202 362.277 156.435C362.188 156.236 361.877 156.031 361.736 155.865ZM344.754 39.8969C342.606 40.1273 340.473 40.0925 338.491 41.1659C338.24 41.2882 337.97 41.4957 337.786 41.7224C337.643 41.9586 337.514 42.3322 337.594 42.5739C337.729 42.9624 338.19 43.2904 338.555 43.0596C340.243 42.0989 342.104 41.7589 343.951 41.2815C344.381 41.155 344.784 40.7538 344.754 39.8969ZM366.089 115.595C367.112 116.005 367.825 115.808 368.318 116.591C368.974 117.634 369.834 117.381 370.48 116.498C371.196 115.496 370.262 115.285 369.687 115.066C368.217 114.465 368.58 113.249 368.84 112.1C366.404 112.221 367.202 114.415 366.089 115.595ZM371.208 134.829C372.657 137.304 374.69 137.584 376.401 135.734C376.927 135.182 376.702 134.594 376.417 134.082C375.976 133.266 375.689 134.141 375.279 134.183C373.994 134.34 372.733 134.592 371.208 134.829ZM276.952 16.9645C276.086 15.0685 274.206 15.4937 273.936 15.7012C272.034 17.0162 269.281 16.1702 267.659 18.2197C270.787 18.39 273.569 16.7367 276.952 16.9645ZM346.574 162.774C346.866 164.048 344.489 164.898 345.975 166.218C346.601 166.807 347.78 167.118 348.508 166.656C349.776 165.78 348.743 164.428 349.216 162.924C347.624 164.443 347.624 164.443 346.574 162.774ZM302.859 82.8677C303.47 82.3346 304.805 82.5469 304.617 81.2067C304.483 80.4157 302.852 79.734 301.95 79.9775C301.057 80.1784 300.498 80.6785 300.679 81.6589C300.803 82.4924 302 83.1208 302.859 82.8677ZM83.4438 91.3945C84.134 91.1031 84.9707 90.7553 85.7418 90.3031C86.054 90.1052 86.2021 89.6465 85.9818 89.2387C85.8039 88.8406 85.3987 88.6595 84.9783 88.7435C84.2225 88.9306 83.4146 89.1507 82.6723 89.4751C81.7836 89.8559 80.3759 90.1641 80.8574 91.3916C81.3581 92.5339 82.4525 91.4389 83.4438 91.3945ZM193.006 105.779C189.305 105.971 189.305 105.971 187.452 109.043C189.519 107.989 192.094 108.437 193.006 105.779ZM9.66229 144.429C11.0189 145.138 12.0117 144.692 12.898 143.729C13.6609 142.917 14.9109 143.11 15.7724 142.454C13.475 142.159 11.2473 142.147 9.66229 144.429ZM348.913 156.949C349.874 157.435 350.588 158.223 351.303 159.01C351.66 159.404 352.283 159.411 352.643 159C352.942 158.665 353.543 158.175 353.153 157.728C352.589 157.064 351.836 156.446 351.068 156.094C350.385 155.76 349.545 155.928 348.913 156.949ZM396.029 37.6162C395.329 37.9502 394.351 38.1319 394.725 39.2454C395.028 40.0747 395.45 40.9753 396.697 40.5861C397.997 40.164 397.94 39.0325 397.802 38.0617C397.588 37.0291 396.69 37.4524 396.029 37.6162ZM69.723 95.2732C69.6765 95.0837 69.63 94.8942 69.5932 94.6622C68.1719 94.8331 66.74 94.062 65.2692 94.8481C64.7063 95.1684 64.1298 95.3513 64.4102 96.0858C64.6482 96.8108 65.2904 96.7322 65.9189 96.5163C67.1664 96.1271 68.4659 95.705 69.723 95.2732ZM129.556 57.6101C130.48 57.8637 131.161 57.6149 131.799 57.3564C132.489 57.065 133.608 57.0494 133.371 55.922C133.149 54.932 132.148 55.019 131.345 55.0166C129.623 54.9405 129.491 56.1188 129.556 57.6101ZM261.345 19.1193C262.781 20.0703 263.832 20.3527 265.043 19.7315C265.596 19.4538 266.225 19.238 265.996 18.4704C265.768 17.7029 265.052 17.3173 264.381 17.5236C263.469 17.8097 262.669 18.3895 261.345 19.1193ZM165.279 116.38C166.981 116.944 167.839 116.109 168.747 115.643C169.3 115.365 169.774 114.846 169.38 114.22C168.92 113.489 168.16 113.497 167.559 113.987C166.792 114.619 166.218 115.384 165.279 116.38ZM114.927 59.5832C114.327 59.6713 113.529 59.8489 113.809 60.5834C114.188 61.4744 115.134 62.2252 116.05 62.119C116.924 62.0033 117.391 60.7218 117.186 60.049C116.874 58.86 115.768 59.4153 114.927 59.5832ZM252.939 27.9131C251.616 28.2406 250.293 28.568 248.961 28.938C248.437 29.0879 247.935 29.3326 248.202 29.9298C248.469 30.5271 249.133 30.9456 249.64 30.4785C250.663 29.5016 252.258 29.549 252.939 27.9131ZM258.564 20.7726C258.19 19.659 257.017 19.1254 255.878 19.6285C255.438 19.7976 255.234 20.1094 255.402 20.5502C255.706 21.3795 257.539 22.1518 258.239 21.8177C258.688 21.6061 258.604 21.1845 258.564 20.7726ZM318.699 26.6695C319.715 27.7044 320.922 27.8879 321.945 28.298C322.435 28.4983 322.965 28.1259 323.132 27.582C323.223 27.3787 322.989 26.8337 322.819 26.7953C321.569 26.6022 320.293 25.7322 318.699 26.6695ZM335.042 33.3167C335.863 34.6209 337.012 34.0752 337.923 34.1915C338.526 34.2833 338.779 33.7586 338.724 33.2093C338.689 32.5749 338.412 32.0202 337.643 32.07C336.717 32.2188 335.923 32.5761 335.042 33.3167ZM272.197 128.646C271.976 129.625 272.907 130.641 271.555 131.096C270.884 131.302 271.278 131.928 271.541 132.346C271.771 132.711 272.186 132.849 272.606 132.765C273.121 132.658 273.089 132.203 273.218 131.83C273.657 130.676 273.288 129.742 272.197 128.646ZM300.832 137.356C300.203 137.571 299.895 137.949 300.223 138.471C300.608 139.139 301.152 139.889 302.064 139.603C302.693 139.387 303.323 138.769 303.052 137.992C302.646 136.826 301.572 137.433 300.832 137.356ZM299.847 83.1712C299.594 82.7113 299.004 82.7568 298.608 82.5332C298.095 82.2382 298.229 81.6421 297.915 81.2578C297.642 80.883 297.175 80.7775 296.91 81.1648C296.449 81.8215 296.14 82.6016 296.495 83.3979C296.837 84.0569 297.46 84.0635 298.056 83.7954C298.6 83.5604 299.292 83.8512 299.847 83.1712ZM279.196 128.662C279.645 129.837 279.933 130.931 281.158 131.432C281.733 131.652 282.432 131.72 282.83 131.139C283.31 130.397 282.636 130.021 282.085 129.896C281.108 129.676 280.617 128.491 279.196 128.662ZM104.772 84.0449C105.162 83.1041 106.723 83.5016 106.907 82.2904C106.989 81.7273 105.022 81.5511 103.935 82.0212C103.245 82.3126 103.044 82.8043 103.292 83.4867C103.559 84.084 104.001 84.4971 104.772 84.0449ZM112.718 82.0378C113.47 81.6708 114.725 81.6414 114.286 80.4236C114.025 79.6039 113.056 80.1454 112.437 80.3187C111.681 80.5058 110.759 80.8344 111.152 81.8627C111.423 82.6399 112.161 82.1356 112.718 82.0378ZM366.494 138.327C366.868 138.053 367.511 137.573 367.325 136.815C367.083 135.91 366.233 136.12 365.624 136.251C364.92 136.405 364.668 136.93 364.925 137.57C365.14 138.2 365.559 138.518 366.494 138.327ZM70.8283 202.328C70.2326 202.596 69.3398 202.797 69.5065 203.64C69.6732 204.483 70.5741 204.642 71.1658 204.194C71.8095 203.713 73.2909 203.869 72.9463 202.628C72.6058 201.567 71.5594 202.449 70.8283 202.328ZM301.455 111.052C301.77 110.05 303.048 109.131 302.048 107.831C301.7 107.394 301.324 107.085 300.794 107.458C300.429 107.689 300.177 108.213 300.478 108.46C301.349 109.149 300.949 110.133 301.455 111.052ZM33.4578 86.181C34.0303 85.8182 35.2106 85.727 34.7427 84.6369C34.3173 83.5564 33.3846 84.3299 32.6712 84.5266C32.3357 84.6298 31.9946 84.9554 31.7905 85.2672C31.5055 85.7397 31.5272 86.2368 32.2159 86.3477C32.5979 86.4341 32.995 86.2554 33.4578 86.181ZM59.6067 97.0135C58.332 97.1281 57.3214 97.2576 56.5913 98.1217C56.3448 98.424 56.2912 98.8593 56.5211 99.2245C56.7934 99.5992 57.185 99.643 57.5068 99.4025C58.2314 98.7609 59.205 98.3993 59.6067 97.0135ZM325.238 101.126C325.072 101.267 324.916 101.366 324.835 101.527C324.521 102.127 325.357 104.553 325.988 104.92C326.223 105.062 326.563 105.139 326.8 104.879C326.923 104.728 327.098 104.544 327.042 104.397C326.777 103.398 326.124 102.534 326.195 101.431C326.206 100.986 325.625 100.989 325.238 101.126ZM377.956 11.7404C378.896 12.7136 379.916 12.5415 380.92 11.6498C381.199 11.3997 381.139 11.0729 380.965 10.8547C380.133 9.9954 379.347 10.7126 378.539 10.9327C378.204 11.0358 378.028 11.2199 377.956 11.7404ZM37.969 162.506C36.8135 162.289 35.8631 162.746 34.8799 163.15C34.4403 163.319 34.2362 163.631 34.3716 164.019C34.4605 164.218 34.8233 164.39 35.0779 164.447C36.6907 164.812 37.2758 163.602 37.969 162.506ZM343.033 93.0224C342.725 93.4002 342.511 93.7545 342.242 93.962C341.754 94.344 341.234 94.6738 341.608 95.385C341.829 95.7927 342.192 95.9642 342.579 95.8281C343.198 95.6548 343.601 95.2536 343.669 94.5532C343.69 94.0657 343.479 93.6154 343.033 93.0224ZM394.336 24.7498C394.381 25.3416 394.364 26.009 395.29 25.8603C396.669 25.6798 395.917 24.6598 395.976 24.002C396.031 23.1643 395.395 23.0204 394.785 23.1511C393.609 23.4222 394.079 24.11 394.336 24.7498ZM359.57 140.744C360.439 141.835 360.961 142.49 361.534 143.112C361.675 143.278 362.099 143.374 362.298 143.285C362.738 143.116 362.843 142.647 362.708 142.259C362.415 140.985 361.387 140.797 359.57 140.744ZM300.276 146.94C301.207 146.568 302.397 146.435 302.166 145.085C302.06 144.569 301.65 144.208 301.084 144.348C299.647 144.784 300.445 145.993 300.276 146.94ZM52.9145 99.3936C52.3517 99.7139 51.0496 99.5538 51.4558 100.719C51.8621 101.885 52.8099 100.847 53.485 100.82C53.7588 100.793 54.0615 100.637 54.2792 100.463C54.6011 100.222 54.8997 99.8871 54.7739 99.4559C54.6056 99.0152 54.2141 98.9715 53.8265 99.1076C53.5006 99.1682 53.2076 99.2809 52.9145 99.3936ZM325.17 36.5441C324.832 36.065 324.375 35.9169 323.874 36.1616C323.07 36.5616 322.704 37.1948 323.168 38.105C323.388 38.5128 323.846 38.6609 324.158 38.463C324.802 37.9821 325.455 37.4586 325.17 36.5441ZM351.889 100.036C352.608 99.6164 353.412 99.2164 353.053 98.2402C352.861 97.7048 352.209 97.8259 351.727 97.9854C350.995 98.2673 350.478 98.777 350.749 99.5541C350.856 100.07 351.317 100.398 351.889 100.036ZM319.182 12.4605C319.987 13.0451 320.697 12.6685 321.372 12.6421C321.773 12.6433 322.18 12.422 322.191 11.9771C322.155 11.3427 321.632 11.0902 321.137 11.1124C320.273 11.1856 319.422 11.3961 319.182 12.4605ZM308.528 107.774C309.426 107.351 309.595 106.405 309.693 105.576C309.727 105.226 309.071 105.167 308.697 105.441C308.106 105.889 307.151 106.165 307.567 107.288C307.745 107.687 308.046 107.934 308.528 107.774ZM75.536 93.2313C77.4843 93.4927 78.5004 93.1407 79.3785 91.8179C77.8082 91.463 76.881 92.014 75.536 93.2313ZM136.437 67.8458C136.082 68.0341 135.666 68.2979 135.876 68.7482C136.222 69.5871 136.978 69.4 137.63 69.2789C137.998 69.2279 138.509 68.9407 138.374 68.5521C138.118 67.5099 137.187 67.8811 136.437 67.8458ZM142.541 272.008C140.969 272.055 139.889 271.9 139.068 272.968C139.007 273.043 139.142 273.432 139.269 273.461C140.292 273.871 141.138 273.48 141.981 272.91C142.033 272.877 142.061 272.749 142.541 272.008ZM149.241 51.813C148.879 51.2392 148.424 50.6887 147.596 50.994C147.114 51.1535 147.231 51.6272 147.366 52.0157C147.594 52.7833 148.027 53.239 148.873 52.8486C149.332 52.5944 149.409 52.2538 149.241 51.813ZM272.15 38.6541C271.681 37.9663 270.883 38.1438 270.159 38.3831C269.824 38.4862 269.313 38.7735 269.609 39.243C270.125 40.1202 271.013 39.7394 271.773 39.7322C272.184 39.6908 272.365 39.2843 272.15 38.6541ZM276.956 125.739C275.935 124.927 275.513 124.026 274.577 124.62C274.316 124.785 274.315 125.187 274.479 125.448C274.962 126.273 275.696 125.589 276.956 125.739ZM42.2323 167.138C42.0792 166.433 41.6988 165.944 40.9758 166.183C40.3993 166.366 40.4018 166.948 40.5508 167.474C40.6999 168 40.7393 168.814 41.5896 168.604C42.3455 168.417 42.2773 167.73 42.2323 167.138ZM331.475 66.7399C330.318 66.9258 329.477 67.0938 329.204 68.1059C329.166 68.2762 329.462 68.7458 329.631 68.7841C330.659 68.9718 330.654 67.8073 331.246 67.3594C331.331 67.3785 331.36 67.2508 331.475 66.7399ZM99.8007 140.507C98.3522 140.404 97.3457 140.713 96.6029 142.425C98.0818 141.998 99.3086 142.096 99.8007 140.507ZM277.554 173.527C276.369 173.439 275.533 173.786 274.886 175.072C276.236 175.019 277.251 175.07 277.554 173.527ZM269.069 161.9C269.804 162.2 270.197 161.842 270.656 161.587C271.011 161.399 271.427 161.135 271.259 160.695C270.969 160.003 270.416 160.28 269.99 160.587C269.573 160.85 269.138 161.199 269.069 161.9ZM289.362 128.678C289.134 127.91 289.062 127.044 287.972 126.932C287.75 126.926 287.357 127.285 287.319 127.455C287.206 128.548 288.292 128.481 288.913 128.889C288.946 128.942 289.06 128.833 289.362 128.678ZM42.6711 150.951C42.0668 152.246 42.2664 153.141 43.1369 153.83C43.2547 153.901 43.623 153.85 43.6422 153.765C44.345 152.627 43.5073 151.99 42.6711 150.951ZM14.922 146.423C14.5425 146.919 13.2162 145.68 12.1244 147.357C13.4759 146.902 14.44 146.583 14.922 146.423ZM350.337 117.403C350.289 116.229 350.208 115.405 349.151 115.346C348.929 115.34 348.46 115.637 348.474 115.774C348.423 116.792 349.395 116.833 350.337 117.403ZM57.3004 145.219C57.6855 144.501 58.8602 144.632 58.9304 143.529C58.9592 143.401 58.6677 143.112 58.5732 143.135C57.638 143.327 57.3187 144.149 56.8912 144.858C56.9336 144.868 57.0418 144.982 57.3004 145.219ZM372.765 101.219C373.318 100.942 373.169 100.416 373.001 99.9752C372.889 99.6814 372.621 99.4865 372.256 99.7174C371.84 99.9812 371.404 100.33 371.671 100.927C371.859 101.283 372.302 101.294 372.765 101.219ZM331.393 105.873C331.121 105.498 330.7 105.582 330.365 105.685C329.831 105.878 329.588 106.36 329.747 106.843C329.896 107.369 330.364 107.072 330.7 106.969C331.182 106.809 331.523 106.484 331.393 105.873ZM61.1336 96.3743C60.7036 96.5008 60.3297 96.7743 60.4555 97.2054C60.6278 97.826 61.1316 98.1636 61.8026 97.9573C62.1805 97.8638 62.4791 97.5286 62.4053 97.0645C62.3139 96.2831 61.6717 96.3617 61.1336 96.3743ZM341.784 90.0554C342.081 89.138 342.23 88.2769 341.001 87.5963C340.761 88.6607 340.947 89.4186 341.784 90.0554ZM291.1 92.2906C291.227 92.3194 291.407 92.3152 291.534 92.344C291.715 91.9374 291.863 91.4787 292.044 91.0721C292.215 90.7082 293.042 90.4029 292.095 90.0546C291.595 89.8969 291.047 89.952 290.988 90.6098C290.916 91.1303 291.055 91.6988 291.1 92.2906ZM353.61 14.4704C354.135 14.3205 354.518 14.0045 354.294 13.4168C354.158 13.0283 353.687 12.7428 353.333 12.9311C352.832 13.1758 352.25 13.5812 352.53 14.3157C352.793 14.733 353.242 14.5214 353.61 14.4704ZM316.089 27.9587C315.021 28.3437 314.002 28.1135 313.809 29.3673C313.78 29.495 314.02 29.8176 314.104 29.8368C314.978 29.7211 315.786 29.501 316.089 27.9587ZM336.541 42.6938C336.226 42.3094 335.844 42.2231 335.503 42.5487C335.143 42.9595 334.41 43.2413 334.785 43.9525C335.005 44.3602 335.435 44.2337 335.79 44.0454C336.353 43.7252 336.831 43.3858 336.541 42.6938ZM354.355 102.159C354.293 102.234 354.189 102.3 354.17 102.385C354.16 102.428 354.311 102.552 354.353 102.561C355.232 102.223 356.124 103.409 357.275 102.461C356.144 101.937 355.286 101.788 354.355 102.159ZM313.172 111.509C313.782 111.378 313.887 110.91 313.823 110.403C313.782 109.991 313.552 109.626 313.09 109.7C312.48 109.831 312.45 110.361 312.429 110.848C312.408 111.336 312.677 111.531 313.172 111.509ZM3.99937 144.223C3.82961 144.184 3.6174 144.136 3.42843 144.183C2.92317 144.248 2.41791 144.313 2.20822 144.847C2.17942 144.975 2.29158 145.269 2.40931 145.34C3.11565 145.768 3.5047 145.23 3.87456 144.776C3.9554 144.616 3.96097 144.393 3.99937 144.223ZM194.221 57.8637C193.995 57.6784 193.94 57.1292 193.354 57.3546C192.82 57.5471 192.577 58.0292 192.642 58.5359C192.715 59 193.088 59.129 193.551 59.0546C194.117 58.9143 194.374 58.5695 194.221 57.8637ZM83.7447 203.995C83.3314 203.454 82.8301 203.699 82.3906 203.868C82.0455 204.013 81.5867 204.268 81.8823 204.737C82.2011 205.301 82.7543 205.024 83.1611 204.803C83.4541 204.69 83.9786 204.54 83.7447 203.995ZM265.998 40.6192C266.101 39.5686 265.823 39.4163 265.549 39.4439C264.959 39.4895 264.297 39.6532 264.078 40.2301C263.959 40.5611 264.42 40.8891 264.821 40.8903C265.444 40.8968 266.021 40.7139 265.998 40.6192ZM296.68 33.3258C297.299 33.1525 297.405 32.6842 297.34 32.1775C297.257 31.756 296.946 31.5515 296.474 31.6684C296.053 31.7524 295.732 31.9929 295.763 32.4474C295.775 32.9871 296.109 33.2863 296.68 33.3258ZM283.414 177.805C283.716 177.65 283.868 177.371 283.662 177.1C283.376 176.588 282.89 176.568 282.441 176.78C282.095 176.925 281.731 177.156 282.079 177.593C282.446 177.944 282.96 177.837 283.414 177.805ZM152.283 52.3664C151.876 52.5877 151.757 52.9187 151.892 53.3073C152.06 53.748 152.504 53.7588 152.849 53.6131C153.246 53.4344 153.375 53.0608 153.24 52.6722C153.071 52.2315 152.661 52.2729 152.283 52.3664ZM3.16219 142.199C2.77214 141.753 2.35176 141.837 1.89298 142.091C1.48625 142.312 1.367 142.643 1.69137 142.985C1.9733 143.317 2.38408 143.276 2.72917 143.13C3.08387 142.942 3.37288 142.649 3.16219 142.199ZM310.183 115.665C310.034 115.139 309.596 114.906 309.1 114.928C308.742 114.937 308.665 115.277 308.777 115.571C308.936 116.054 309.26 116.396 309.817 116.299C310.143 116.238 310.243 115.992 310.183 115.665ZM369.517 105.139C369.857 105.215 369.974 105.287 370.027 105.254C370.472 104.862 371.288 105.002 371.451 104.278C371.48 104.15 371.315 103.89 371.198 103.818C370.58 103.589 370.319 104.157 369.945 104.43C369.821 104.581 369.783 104.751 369.517 105.139ZM278.919 150.658C278.532 150.794 278.21 151.035 278.199 151.48C278.189 151.522 278.698 151.637 278.972 151.61C279.331 151.602 279.817 151.622 279.645 151.001C279.542 150.665 279.245 150.598 278.919 150.658ZM275.597 128.206C275.523 127.742 275.212 127.538 274.759 127.569C274.348 127.611 273.951 127.789 274.185 128.335C274.363 128.733 274.787 128.829 275.146 128.82C275.547 128.821 275.614 128.523 275.597 128.206ZM303.823 74.047C303.487 74.1502 303.312 74.3343 303.414 74.6706C303.54 75.1018 303.903 75.2733 304.333 75.1468C304.711 75.0532 305.085 74.7798 304.874 74.3294C304.611 73.9121 304.201 73.9535 303.823 74.047ZM330.484 29.1991C330.914 29.0726 331.118 28.7608 331.035 28.3392C330.952 27.9177 330.589 27.7462 330.178 27.7876C329.758 27.8715 329.478 28.1216 329.595 28.5953C329.74 28.9413 330.041 29.1883 330.484 29.1991ZM89.3834 203.122C89.1631 202.714 88.7715 202.67 88.3936 202.764C88.0156 202.857 87.6321 203.173 87.8524 203.581C88.0399 203.937 88.5451 203.872 88.923 203.778C89.2161 203.666 89.401 203.439 89.3834 203.122ZM364.387 118.79C364.94 118.512 364.952 118.067 364.708 117.564C364.609 117.408 364.384 117.223 364.289 117.246C363.745 117.481 363.682 117.959 363.746 118.466C363.764 118.783 364.052 118.893 364.387 118.79ZM289.08 124.587C288.978 124.251 288.733 124.151 288.43 124.306C288.18 124.428 288.07 124.717 288.182 125.01C288.294 125.304 288.53 125.447 288.832 125.292C289.083 125.169 289.15 124.871 289.08 124.587ZM310.88 72.4207C310.766 72.5292 310.516 72.6515 310.497 72.7367C310.528 73.1912 310.787 73.4287 311.249 73.3543C311.386 73.3405 311.699 73.1426 311.675 73.0479C311.634 72.6359 311.272 72.4644 310.88 72.4207ZM42.7116 148.991C42.609 148.655 42.364 148.554 42.0477 148.572C41.5328 148.68 41.4793 149.115 41.6667 149.471C41.8117 149.817 42.0224 150.267 42.5332 149.98C42.9304 149.801 42.847 149.38 42.7116 148.991ZM297.779 8.47268C297.777 7.89043 297.47 7.86585 297.154 7.88385C296.743 7.92523 296.431 8.12312 296.41 8.61062C296.399 9.05555 296.758 9.04715 297.032 9.01956C297.442 8.97818 297.755 8.7803 297.779 8.47268ZM393.526 177.682C393.427 177.526 393.211 177.298 393.169 177.288C392.795 177.562 392.378 177.826 392.122 178.17C391.98 178.407 392.262 178.739 392.555 178.626C392.994 178.457 393.411 178.193 393.526 177.682ZM387.252 9.68045C387.084 9.23972 386.815 9.04485 386.376 9.21395C386.083 9.32669 385.94 9.56295 386.043 9.89934C386.168 10.3305 386.479 10.5349 386.919 10.3658C387.16 10.2861 387.345 10.0594 387.252 9.68045ZM344.51 34.6513C344.462 34.8642 344.31 35.143 344.389 35.3847C344.459 35.6689 344.76 35.916 345.062 35.7606C345.459 35.5819 345.588 35.2084 345.316 34.8336C345.142 34.6153 344.897 34.5152 344.51 34.6513ZM359.506 175.049C359.028 175.388 358.834 175.657 358.946 175.951C358.969 176.046 359.318 176.08 359.465 176.024C359.748 175.954 359.985 175.694 359.873 175.4C359.832 174.988 359.516 175.006 359.506 175.049ZM54.2532 147.26C54.1274 146.828 53.9208 146.558 53.4483 146.675C52.9335 146.782 52.932 147.185 53.0249 147.564C53.1275 147.9 53.3053 148.298 53.7778 148.181C54.2598 148.022 54.2613 147.619 54.2532 147.26ZM349.88 54.7474C350.277 54.5687 350.491 54.2144 350.356 53.8258C350.243 53.532 349.852 53.4882 349.634 53.6627C349.426 53.7946 349.264 54.116 349.259 54.3385C349.224 54.6887 349.502 54.841 349.88 54.7474ZM183.981 109.601C183.584 109.779 183.399 110.006 183.511 110.3C183.581 110.584 183.797 110.812 184.142 110.666C184.539 110.487 184.753 110.133 184.618 109.744C184.562 109.598 184.108 109.629 183.981 109.601ZM305.845 69.6271C305.795 69.2577 305.55 69.1576 305.224 69.2181C305.035 69.2649 304.827 69.3968 304.798 69.5245C304.721 69.8651 304.999 70.0174 305.254 70.075C305.593 70.1517 305.844 70.0294 305.845 69.6271ZM403.845 36.385C403.467 36.4785 403.206 36.6434 403.276 36.9276C403.346 37.2119 403.633 37.3216 403.95 37.3036C404.266 37.2856 404.451 37.0589 404.381 36.7747C404.331 36.4053 404.086 36.3052 403.845 36.385ZM285.133 171.169C285.052 171.329 284.887 171.471 284.9 171.608C284.914 171.746 285.13 171.973 285.225 171.95C285.55 171.889 285.651 171.644 285.538 171.35C285.482 171.203 285.26 171.198 285.133 171.169ZM278.345 130.259C278.262 129.838 278.026 129.695 277.71 129.713C277.394 129.731 277.166 129.948 277.236 130.232C277.254 130.549 277.532 130.702 277.848 130.684C278.164 130.666 278.34 130.482 278.345 130.259ZM295.699 152.796C296.077 152.702 296.177 152.456 296.108 152.172C296.052 152.025 295.92 151.816 295.793 151.788C295.486 151.763 295.311 151.947 295.286 152.255C295.313 152.529 295.435 152.781 295.699 152.796ZM379.207 118.739C378.905 118.894 378.805 119.14 378.917 119.434C378.973 119.581 379.189 119.809 379.326 119.795C379.642 119.777 379.837 119.508 379.777 119.181C379.759 118.864 379.576 118.688 379.207 118.739ZM374.808 115.105C374.686 114.853 374.47 114.626 374.177 114.738C373.842 114.841 373.774 115.139 373.991 115.367C374.174 115.543 374.438 115.558 374.693 115.615C374.741 115.403 374.779 115.232 374.808 115.105ZM338.334 90.1256C338.064 90.3331 338.049 90.5981 338.265 90.826C338.383 90.8974 338.647 90.9123 338.751 90.8464C339.021 90.6389 339.046 90.3313 338.82 90.146C338.754 90.0417 338.513 90.1214 338.334 90.1256ZM260.067 20.0386C259.903 19.7777 259.635 19.5829 259.342 19.6956C259.049 19.8083 259.099 20.1777 259.178 20.4194C259.281 20.7558 259.569 20.8655 259.862 20.7528C260.164 20.5974 260.222 20.342 260.067 20.0386ZM304.731 7.31465C304.843 7.60847 305.079 7.75118 305.385 7.77576C305.787 7.77695 305.854 7.47893 305.836 7.16172C305.786 6.79235 305.617 6.35162 305.116 6.59628C304.781 6.69942 304.671 6.98785 304.731 7.31465ZM332.961 15.8433C332.531 15.9699 332.251 16.2199 332.283 16.6745C332.318 17.3089 332.885 17.1685 333.178 17.0558C333.513 16.9527 333.93 16.6888 333.686 16.1863C333.532 15.8829 333.315 15.6551 332.961 15.8433ZM252.678 43.1121C252.376 43.2675 251.923 43.2992 252.157 43.8443C252.278 44.0955 252.504 44.2808 252.84 44.1777C253.27 44.0512 253.507 43.7915 253.381 43.3604C253.321 43.0336 253.014 43.009 252.678 43.1121ZM370.888 102.227C370.738 101.701 370.366 101.572 370.007 101.58C369.734 101.608 369.464 101.816 369.566 102.152C369.702 102.541 369.993 102.83 370.404 102.789C370.593 102.742 370.722 102.368 370.888 102.227Z" fill="white"/>
<path d="M416.022 129.745C414.442 130.82 414.39 130.853 414.659 132.032C414.719 132.359 414.453 132.746 414.01 132.736C413.165 132.724 412.171 132.186 411.962 133.705C411.928 134.055 411.209 134.474 410.756 134.506C408.131 134.673 406.046 136.797 403.244 136.566C402.767 136.503 402.232 137.098 401.565 137.484C401.027 136.11 400.291 134.825 402.398 134.183C402.828 134.056 402.967 133.64 402.978 133.195C402.963 132.073 403.417 132.041 404.293 132.508C405.937 133.327 405.904 131.888 406.337 130.957C406.429 131.738 406.487 132.467 406.597 133.566C407.998 132.495 409.616 132.637 410.988 131.695C412.224 130.766 413.559 129.591 416.022 129.745Z" fill="white"/>
<path d="M365.098 148.079C365.49 149.107 366.039 150.037 367.381 149.624C368.094 149.427 368.587 148.823 368.623 148.07C368.618 146.906 367.09 147.947 366.811 146.811C367.885 146.203 368.958 145.596 369.864 146.919C370.596 148.024 371.425 147.317 372.487 147.154C372.19 148.474 372.035 149.557 370.851 150.453C369.782 151.241 368.575 152.042 367.961 153.38C367.7 153.947 367.216 154.509 366.303 153.81C365.432 153.121 363.318 153.001 363.634 151.999C363.997 150.783 363.126 149.11 365.098 148.079Z" fill="white"/>
<path d="M216.397 29.5418C215.255 30.8496 213.994 31.1015 212.333 30.9498C211.021 30.8323 208.939 29.78 208.546 32.5102C208.474 33.0306 207.808 33.0145 207.295 32.7194C205.84 31.8536 204.576 31.5232 203.705 33.6082C203.195 34.88 201.619 34.7475 200.737 34.5035C199.568 34.1497 197.708 35.4744 197.557 34.3662C197.383 32.761 199.407 33.0842 200.55 32.7609C204.723 31.4669 208.961 30.2771 213.133 28.983C214.4 28.5087 215.284 29.335 216.397 29.5418Z" fill="white"/>
<path d="M372.708 6.52725C370.204 8.3328 367.307 8.12538 364.513 8.25436C363.342 8.30295 362.069 8.01515 361.022 8.89723C360.753 9.10471 360.446 9.08013 360.291 8.77672C360.028 8.35938 360.242 8.00498 360.649 7.78371C361.004 7.59542 361.401 7.41673 361.779 7.32317C362.955 7.05212 364.139 7.14084 365.287 6.9975C366.349 6.83498 367.218 5.55474 368.59 5.99905C369.004 6.13756 369.303 5.80236 369.667 5.57149C371.414 4.35539 371.404 4.39797 372.708 6.52725Z" fill="white"/>
<path d="M355.192 74.1143C355.007 74.341 354.765 74.8231 354.647 74.7518C352.639 74.1636 351.014 75.6309 349.126 75.6963C348.135 75.7407 347.101 75.7755 346.545 76.8578C346.24 77.4155 345.712 77.3855 345.279 76.9298C344.847 76.4741 344.887 75.9015 345.313 75.595C346.643 74.6428 347.494 73.0453 349.551 73.0183C351.567 72.9817 353.451 72.7364 355.192 74.1143Z" fill="white"/>
<path d="M40.4336 198.456C36.4128 200.858 31.7341 201.232 27.3727 202.573C31.6547 200.99 35.904 199.356 40.4336 198.456Z" fill="white"/>
<path d="M409.098 116.144C411.633 114.793 414.125 113.432 416.65 112.124C414.612 114.437 411.824 115.328 409.098 116.144Z" fill="white"/>
<path d="M369.473 69.3332C371.035 66.9568 373.405 68.1189 375.028 67.0539C373.451 68.3084 371.59 68.6484 369.473 69.3332Z" fill="white"/>
<path d="M376.206 153.409C375 154.21 373.761 154.959 372.502 155.793C371.611 154.204 373.602 154.475 373.823 153.496C374.045 152.115 375.259 153.06 376.206 153.409Z" fill="white"/>
<path d="M303.567 1.9953C302.685 1.75127 301.467 2.99733 301.095 1.48146C300.979 1.00776 300.992 0.160466 301.738 0.015938C303.075 -0.174175 302.856 1.38728 303.567 1.9953Z" fill="white"/>
<path d="M347.036 70.5257C344.908 70.2685 344.58 68.3599 343.451 67.4335C343.418 67.3813 343.538 67.0503 343.661 66.8992C343.803 66.6629 344.016 66.7109 344.147 66.9196C344.954 68.0865 346.344 68.848 347.036 70.5257Z" fill="white"/>
<path d="M396.71 135.671C397.012 134.531 397.627 134.178 398.242 133.825C398.753 133.538 399.258 133.473 399.473 134.103C399.697 134.691 399.765 135.377 398.891 135.493C398.23 135.657 397.522 135.631 396.71 135.671Z" fill="white"/>
<path d="M361.854 72.2644C362.49 70.0368 364.061 70.3917 365.773 70.5104C364.977 72.6571 362.62 70.6478 361.854 72.2644Z" fill="white"/>
<path d="M366.908 157.258C368.085 155.6 369.592 156.433 371.197 156.438C369.842 157.697 368.506 157.888 366.908 157.258Z" fill="white"/>
<path d="M340.133 68.697C340.996 69.0262 342.001 69.1191 342.748 69.9592C341.246 70.2908 341.246 70.2908 340.133 68.697Z" fill="white"/>
<path d="M41.78 204.353C42.1898 203.327 43.797 203.914 43.458 202.45C43.3514 201.934 43.8238 201.817 44.1866 201.989C44.5918 202.17 44.6039 202.709 44.4422 203.031C43.9243 203.943 42.9795 204.177 41.78 204.353Z" fill="white"/>
<path d="M376.878 145.685C376.861 146.353 376.742 146.684 376.279 146.758C375.679 146.846 375.099 146.849 374.955 146.101C374.839 145.627 375.001 145.306 375.496 145.284C375.982 145.304 376.544 145.386 376.878 145.685Z" fill="white"/>
<path d="M26.727 164.886C26.876 165.412 26.6391 165.672 26.2187 165.756C25.8407 165.849 25.3971 165.839 25.1672 165.474C24.9374 165.108 25.1087 164.744 25.5482 164.575C26.0302 164.416 26.4835 164.384 26.727 164.886Z" fill="white"/>
<path d="M389.832 126.018C390 125.474 389.455 124.724 390.197 124.4C390.698 124.155 391.277 124.555 391.384 125.071C391.797 126.999 390.488 126.076 389.747 125.999C389.705 125.989 389.832 126.018 389.832 126.018Z" fill="white"/>
<path d="M399.315 127.087C398.767 128.529 397.912 128.56 396.572 128.57C397.294 127.346 398.158 127.273 399.315 127.087Z" fill="white"/>
<path d="M404.479 125.749C403.713 125.978 402.915 126.156 401.866 126.456C402.766 125.63 403.634 125.737 404.479 125.749Z" fill="white"/>
<path d="M356.972 79.0806C357.322 78.7124 357.739 78.4486 358.244 78.3838C358.749 78.319 359.32 78.3586 359.303 79.026C359.273 79.5561 358.721 79.4313 358.353 79.4823C357.796 79.5801 357.419 79.2713 357.033 79.0051L356.972 79.0806Z" fill="white"/>
<path d="M391.964 130.213C391.81 130.895 391.657 131.576 390.746 131.459C390.576 131.421 390.281 130.952 390.319 130.781C390.685 130.148 391.262 129.965 391.964 130.213Z" fill="white"/>
<path d="M37.163 204.652C36.6754 205.034 36.1045 204.994 35.0803 204.986C35.9787 204.563 36.4759 204.138 37.163 204.652Z" fill="white"/>
<path d="M387.084 57.6981C386.749 57.8013 386.513 57.6586 386.496 57.3414C386.468 57.0667 386.408 56.74 386.541 56.5463C386.736 56.277 387.056 56.4389 387.178 56.6902C387.323 57.0361 387.51 57.3917 387.084 57.6981Z" fill="white"/>
<path d="M349.6 61.5299C350.076 61.5929 350.15 62.057 350.304 62.3604C350.384 62.6021 350.293 62.8054 350.081 62.7574C349.657 62.6614 349.398 62.424 349.367 61.9695C349.301 61.8651 349.519 61.6906 349.6 61.5299Z" fill="white"/>
<path d="M309.167 1.29242C309.152 1.55746 308.934 1.73196 308.618 1.74996C308.301 1.76795 308.066 1.62524 308.143 1.28464C308.172 1.15692 308.347 0.972829 308.536 0.926054C308.777 0.846298 309.084 0.870881 309.167 1.29242Z" fill="white"/>
<path d="M47.8565 190.066C47.4538 190.467 46.9869 190.361 46.5105 190.298C46.9268 190.035 47.3239 189.856 47.8565 190.066Z" fill="white"/>
<path d="M348.92 177.488C348.215 178.045 347.507 178.019 346.716 177.572C347.471 176.4 348.156 177.316 348.859 177.564C348.901 177.573 348.92 177.488 348.92 177.488Z" fill="white"/>
<path d="M-3.66134 144.37C-4.57334 144.656 -5.45247 144.995 -6.41651 145.314C-5.62072 144.554 -4.52686 144.846 -3.66134 144.37Z" fill="white"/>
<path d="M287.741 3.33998C287.915 3.55824 287.909 3.78071 287.668 3.86046C287.427 3.94022 287.049 4.03377 286.856 3.90065C286.578 3.74835 286.58 3.34599 286.915 3.24285C287.208 3.13011 287.529 3.29201 287.741 3.33998Z" fill="white"/>
<path d="M-8.41727 142.714C-8.09138 142.653 -7.84633 142.753 -7.78621 143.08C-7.76297 143.175 -8.02319 143.34 -8.16972 143.396C-8.41073 143.476 -8.76946 143.484 -8.76793 143.082C-8.73913 142.954 -8.53096 142.822 -8.41727 142.714Z" fill="white"/>
<path d="M384.883 144.407C384.9 144.725 384.758 144.961 384.474 145.031C384.139 145.134 383.861 144.982 383.99 144.608C384.038 144.395 384.34 144.24 384.558 144.066C384.601 144.075 384.774 144.294 384.883 144.407Z" fill="white"/>
<path d="M357.043 78.9624C356.535 78.4449 355.62 79.5357 355.279 78.4743C355.247 78.4221 355.327 78.2615 355.38 78.2285C356.287 77.7625 356.62 78.4642 356.972 79.0806L357.043 78.9624Z" fill="white"/>
<path d="M350.386 87.1224C350.029 87.7131 349.524 87.7778 348.897 87.5913C349.365 87.2945 349.712 86.7464 350.386 87.1224Z" fill="white"/>
<path d="M362.94 90.9892C362.859 91.1499 362.801 91.4053 362.707 91.4287C362.305 91.4276 362.288 91.1104 362.345 90.8549C362.384 90.6846 362.493 90.3962 362.536 90.4058C362.895 90.3974 362.86 90.7476 362.94 90.9892Z" fill="white"/>
<path d="M311.116 149.703C311.416 150.352 312.254 150.989 311.161 151.682C310.848 151.88 310.461 152.016 310.398 152.494C310.367 153.024 310.563 153.739 309.624 153.751C309.539 153.731 309.421 153.66 309.388 153.608C309.108 152.873 309.209 152.225 309.961 151.858C310.912 151.402 311.245 150.716 311.159 149.713C311.168 149.67 311.116 149.703 311.116 149.703Z" fill="white"/>
<path d="M269.939 167.734C270.592 167.211 271.02 166.502 271.874 166.471C274.966 166.41 276.593 164.138 278.267 162.055C278.822 161.375 279.194 160.519 280.393 160.343C280.19 161.639 278.521 162.515 279.587 163.919C279.728 164.085 279.302 164.392 279.018 164.462C275.989 165.433 273.385 167.484 269.939 167.734Z" fill="white"/>
<path d="M279.686 168.819C279.875 168.772 280.064 168.725 280.262 168.636C281.194 168.265 280.566 167.094 281.294 166.632C281.45 166.533 281.682 166.496 281.861 166.492C282.814 166.617 283.724 166.734 284.932 166.917C283.494 169.142 281.826 169.616 279.686 168.819Z" fill="white"/>
<path d="M283.452 162.601C283.644 163.136 283.162 163.296 282.892 163.503C282.414 163.842 281.928 163.822 281.609 163.258C281.445 162.997 281.394 162.628 281.74 162.482C282.326 162.256 282.935 162.126 283.452 162.601Z" fill="white"/>
<path d="M318.802 159.136C317.233 158.379 317.784 157.519 318.015 156.497C318.979 157.163 318.735 158.047 318.802 159.136Z" fill="white"/>
<path d="M273.394 164.085C272.785 165.201 271.778 164.526 271.036 164.85C271.778 164.526 272.305 163.571 273.394 164.085Z" fill="white"/>
<path d="M303.136 173.225C302.716 173.308 302.191 173.458 301.915 172.904C301.638 172.349 301.927 172.056 302.504 171.874C303.038 171.681 303.42 171.767 303.654 172.312C303.737 172.734 303.576 173.055 303.136 173.225Z" fill="white"/>
<path d="M308.841 157.422C308.845 156.215 309.325 155.473 310.027 155.721C311.059 156.089 310.151 156.554 309.81 156.88C309.583 157.097 309.299 157.167 308.841 157.422Z" fill="white"/>
<path d="M290.21 167.842C290.503 167.729 290.81 167.754 290.912 168.09C291.029 168.564 290.782 168.866 290.352 168.993C290.163 169.039 289.824 168.963 289.8 168.868C289.632 168.427 289.836 168.115 290.21 167.842Z" fill="white"/>
<path d="M304.59 169.347C304.631 169.759 304.672 170.171 304.157 170.278C303.737 170.362 303.455 170.03 303.329 169.599C303.259 169.315 303.251 168.955 303.619 168.904C304.049 168.778 304.422 168.907 304.59 169.347Z" fill="white"/>
<path d="M275.185 163.461C275.715 163.089 276.141 162.782 276.524 162.466C276.857 163.168 276.182 163.194 275.869 163.392C275.756 163.501 275.543 163.453 275.185 163.461Z" fill="white"/>
<path d="M321.266 154.145C321.185 154.306 321.147 154.476 321.066 154.637C320.915 154.513 320.755 154.432 320.657 154.276C320.427 153.911 320.635 153.779 320.994 153.77C321.215 153.776 321.314 153.932 321.266 154.145Z" fill="white"/>
<path d="M118.54 62.5477C119.562 61.9732 120.593 61.3562 120.713 63.3967C119.707 63.7062 119.581 61.8881 118.54 62.5477Z" fill="white"/>
<path d="M276.237 132.288C276.779 132.456 277.364 132.633 277.896 132.842C278.344 133.033 278.825 133.276 278.733 133.882C278.685 134.094 278.396 134.387 278.155 134.467C277.516 134.725 277.013 134.388 276.684 133.866C276.337 133.43 276.901 132.707 276.237 132.288Z" fill="white"/>
<path d="M313.335 130.964C313.236 130.808 313.19 130.618 313.082 130.504C312.79 130.215 312.447 129.958 312.892 129.567C313.005 129.458 313.374 129.407 313.439 129.511C313.787 129.948 313.253 130.14 313.176 130.481C313.086 130.684 313.099 130.822 313.335 130.964Z" fill="white"/>
</svg>
