<svg width="102" height="56" viewBox="0 0 102 56" fill="none" xmlns="http://www.w3.org/2000/svg">
<path d="M96.5789 15.5087C93.0901 12.0067 88.4479 10.0681 83.5252 10.0681C78.1981 10.0681 74.4281 12.7884 70.7834 15.4461C68.0728 17.4159 64.8013 18.4478 61.3431 18.4478C60.6581 18.4478 59.9725 18.4165 59.2562 18.3227C56.5455 18.0101 53.7728 17.0095 52.2462 14.5081C50.5327 11.694 48.8192 9.19263 46.3268 6.97264C41.2486 2.5014 34.6438 0 27.8833 0C12.493 0 0 12.5382 0 27.9844C0 43.4305 12.493 55.9687 27.8833 55.9687C38.4447 55.9687 47.1057 50.0904 52.4331 41.2418C54.022 38.6153 57.0128 37.5522 59.9725 37.3021C60.2843 37.2708 60.5955 37.2708 60.9073 37.2708C63.3994 37.2708 65.954 38.0525 68.0728 39.4283C69.0696 40.0849 69.9732 40.9291 70.908 41.8046C72.1227 42.9614 73.3687 44.1496 74.9578 44.9938C77.5751 46.3696 80.5348 47.0888 83.5252 47.0888C88.4479 47.0888 93.0901 45.1502 96.5789 41.6483C100.068 38.1463 102 33.4874 102 28.5472C102 23.6069 100.068 19.0106 96.5789 15.5087Z" fill="#792582"/>
<path d="M9.06602 28.4532H10.1564V29.2036H8.97254L8.81676 30.5794H8.06909L8.22487 29.2036H6.85407L6.69829 30.5794H5.95056L6.10634 29.2036H5.01593V28.4532H6.19982L6.38672 26.9836H5.29632V26.2645H6.4802L6.63599 24.8887H7.38366L7.22788 26.2645H8.59867L8.75446 24.8887H9.50219L9.31528 26.2645H10.4056V27.0149H9.2218L9.06602 28.4532ZM8.31829 28.4532L8.50525 26.9836H7.13445L6.94749 28.4532H8.31829Z" fill="white"/>
<path d="M15.7953 26.1707H14.0506V30.6106H12.4618V26.1707H10.7171V24.8887H15.7953V26.1707Z" fill="white"/>
<path d="M21.0605 27.1712C21.4343 27.4839 21.6212 27.9529 21.6212 28.5783C21.6212 29.2349 21.4032 29.7351 20.9982 30.0791C20.562 30.4231 19.97 30.6107 19.2223 30.6107H16.5119V24.8574H18.1008V26.6709H19.4093C20.1258 26.7022 20.6866 26.8585 21.0605 27.1712ZM19.752 29.2036C19.9077 29.0473 20.0012 28.8597 20.0012 28.5783C20.0012 28.078 19.6897 27.8279 19.0977 27.8279H18.1008V29.4225H19.0977C19.3781 29.4225 19.5962 29.3599 19.752 29.2036ZM22.2444 24.8574H23.8332V30.5794H22.2444V24.8574Z" fill="white"/>
<path d="M30.4692 24.8574V30.5794H28.8491V28.3594H26.6372V30.5794H25.0171V24.8574H26.6372V27.0149H28.8491V24.8574H30.4692Z" fill="white"/>
<path d="M36.2638 29.3599V30.6107H31.6841V24.8574H36.1392V26.1081H33.273V27.0774H35.7965V28.2969H33.273V29.3287H36.2638V29.3599Z" fill="white"/>
<path d="M42.4947 28.3907H41.8093V30.5794H40.2204V28.3907H39.5662L38.4446 30.5794H36.5754L38.1954 27.5777L36.6688 24.8574H38.3512L39.5039 27.0774H40.2204V24.8574H41.8093V27.0774H42.4947L43.6475 24.8574H45.3298L43.8032 27.5777L45.4232 30.5794H43.554L42.4947 28.3907Z" fill="white"/>
<path d="M50.5326 29.3599V30.6107H45.9529V24.8574H50.4392V26.1081H47.5729V27.0774H50.0965V28.2969H47.5729V29.3287H50.5326V29.3599Z" fill="white"/>
<path d="M56.7636 24.8574V30.5794H55.1747V26.1707H53.5235L53.4923 27.1087C53.4612 27.9217 53.3989 28.5783 53.3054 29.1098C53.2119 29.6101 53.025 30.0166 52.7758 30.298C52.5266 30.5794 52.1527 30.7045 51.6854 30.7045C51.4673 30.7045 51.2181 30.6732 50.9377 30.6107L51.0311 29.2974C51.0934 29.3287 51.1869 29.3287 51.2492 29.3287C51.4673 29.3287 51.6231 29.2349 51.7477 29.0785C51.8723 28.9222 51.9346 28.6721 51.9969 28.3594C52.0592 28.0467 52.0904 27.6715 52.0904 27.1712L52.1838 24.8887H56.7636V24.8574Z" fill="white"/>
<path d="M62.5585 29.3599V30.6107H57.9475V24.8574H62.4339V26.1081H59.5675V27.0774H62.0908V28.2969H59.5675V29.3287H62.5585V29.3599Z" fill="white"/>
<path d="M67.7297 28.1718C67.9169 28.4219 68.0102 28.6721 68.0102 28.9848C68.0102 29.3287 67.8856 29.6414 67.6364 29.9228C67.3872 30.1729 67.0754 30.3918 66.6709 30.5169C66.2658 30.6419 65.8294 30.7357 65.331 30.7357C64.9572 30.7357 64.5521 30.7045 64.147 30.6107C63.7419 30.5169 63.3681 30.3918 62.9943 30.2042L63.462 29.0786C63.7112 29.2037 63.9917 29.2975 64.2716 29.3913C64.5521 29.4538 64.8326 29.4851 65.1131 29.4851C65.4869 29.4851 65.7674 29.4225 65.9853 29.2975C66.2032 29.1724 66.3278 29.0161 66.3278 28.7971C66.3278 28.6408 66.2658 28.5157 66.1099 28.4219C65.954 28.3281 65.7674 28.2969 65.5489 28.2969H64.085V27.1087H65.4243C65.6428 27.1087 65.7981 27.0775 65.9227 26.9837C66.0473 26.8899 66.1099 26.7648 66.1099 26.6397C66.1099 26.4521 66.0166 26.2957 65.8294 26.2019C65.6428 26.1081 65.3936 26.0456 65.1131 26.0456C64.8639 26.0456 64.6147 26.0769 64.3655 26.1394C64.085 26.2019 63.8358 26.2957 63.6173 26.4208L63.1502 25.2014C63.7732 24.92 64.4275 24.7637 65.1444 24.7637C65.6115 24.7637 66.0473 24.8262 66.4524 24.9513C66.8575 25.0763 67.1693 25.2639 67.4185 25.5141C67.6677 25.7642 67.761 26.0769 67.761 26.4208C67.761 26.7023 67.699 26.9211 67.5431 27.14C67.4185 27.3589 67.2 27.5152 66.9821 27.6403C67.2939 27.7341 67.5431 27.9217 67.7297 28.1718Z" fill="white"/>
<path d="M74.2722 24.8574V30.5794H72.6524V28.3594H70.4403V30.5794H68.8517V24.8574H70.4716V27.0149H72.6837V24.8574H74.2722Z" fill="white"/>
<path d="M79.4128 29.485H77.014L76.5776 30.6106H74.9265L77.4504 24.8887H79.039L81.5623 30.6106H79.8805L79.4128 29.485ZM78.9457 28.2969L78.198 26.4521L77.4504 28.2969H78.9457Z" fill="white"/>
<path d="M86.6409 24.8574V30.5794H85.0518V29.1411H84.1796L83.2447 30.5794H81.5623L82.715 28.8909C82.3412 28.7346 82.03 28.4845 81.8428 28.1718C81.6562 27.8591 81.5316 27.4839 81.5316 27.0461C81.5316 26.6084 81.6249 26.2019 81.8428 25.8893C82.0613 25.5766 82.3412 25.3265 82.7463 25.1389C83.1201 24.9512 83.5878 24.8887 84.0862 24.8887H86.6409V24.8574ZM83.1514 27.0149C83.1514 27.2963 83.2447 27.5152 83.4006 27.6715C83.5565 27.8279 83.8057 27.8904 84.0862 27.8904H85.0518V26.1394H84.117C83.4632 26.1394 83.1514 26.4521 83.1514 27.0149Z" fill="white"/>
</svg>
