<svg width="586" height="293" viewBox="0 0 586 293" fill="none" xmlns="http://www.w3.org/2000/svg">
<path d="M17.2154 0.382812V22.3887H12.9946V14.4666C11.3953 15.1582 9.90928 15.5022 8.53642 15.5022C6.05725 15.5022 4.15862 14.7958 2.83688 13.3792C1.51879 11.9627 0.857925 9.92487 0.857925 7.26567V0.382812H5.07873V6.6998C5.07873 8.20878 5.41829 9.34421 6.09376 10.1098C6.76924 10.8754 7.75141 11.2563 9.03664 11.2563C10.4424 11.2563 11.7641 10.9309 12.9946 10.2799V0.382812H17.2154Z" fill="#6D6C6C"/>
<path d="M38.4767 0.382812L30.6156 17.7989C29.8598 19.4743 28.9507 20.7429 27.8845 21.6047C26.8184 22.4627 25.6646 22.8917 24.4159 22.8917C23.4483 22.8917 22.4442 22.6402 21.4073 22.1372L22.4369 18.2723C23.1745 18.546 23.7915 18.6792 24.2844 18.6792C24.8139 18.6792 25.2885 18.5275 25.7084 18.2242C26.132 17.921 26.519 17.4439 26.8695 16.7929L27.0265 16.5414L19.746 0.382812H24.31L29.2172 12.2031L34.2815 0.382812H38.4767Z" fill="#6D6C6C"/>
<path d="M55.8889 12.8652C56.4877 13.7676 56.7871 14.8771 56.7871 16.1975C56.7871 18.1466 56.1664 19.6667 54.9286 20.7577C53.6872 21.8488 51.9164 22.3924 49.6125 22.3924H40.51V0.382812H49.1086C51.2555 0.382812 52.9241 0.874709 54.1217 1.8622C55.3156 2.846 55.9144 4.25142 55.9144 6.07476C55.9144 7.16581 55.6844 8.12372 55.228 8.95218C54.7716 9.78063 54.129 10.4353 53.3038 10.9161C54.4284 11.3118 55.2901 11.9627 55.8889 12.8652ZM44.7563 9.49955H48.7398C49.6709 9.49955 50.3756 9.27394 50.8502 8.82273C51.3249 8.37152 51.5622 7.70579 51.5622 6.82555C51.5622 5.96751 51.3212 5.30548 50.8356 4.84687C50.35 4.38456 49.6526 4.15526 48.7398 4.15526H44.7563V9.49955ZM52.4567 15.787C52.4567 13.9636 51.4527 13.0501 49.4481 13.0501H44.7527V18.6126H49.4481C51.4563 18.6163 52.4567 17.6732 52.4567 15.787Z" fill="#6D6C6C"/>
<path d="M63.7866 21.3073C62.2641 20.3346 61.0701 18.981 60.1975 17.2538C59.3248 15.5266 58.8904 13.5701 58.8904 11.3917C58.8904 9.21331 59.3248 7.25682 60.1975 5.52963C61.0701 3.80245 62.2641 2.4488 63.7866 1.47611C65.3092 0.496011 67.0179 0.0078125 68.9202 0.0078125C70.5195 0.0078125 71.9653 0.344374 73.2579 1.0138C74.5504 1.68322 75.6348 2.64852 76.5148 3.906L73.7727 6.92396C72.524 5.20417 70.9759 4.34612 69.1284 4.34612C67.9855 4.34612 66.9668 4.6457 66.0686 5.24115C65.1704 5.8403 64.4731 6.67246 63.9728 7.74132C63.4726 8.81018 63.2207 10.027 63.2207 11.388C63.2207 12.7491 63.4726 13.9658 63.9728 15.0347C64.4731 16.1036 65.1741 16.9357 66.0686 17.5349C66.9668 18.1303 67.9855 18.4299 69.1284 18.4299C70.9759 18.4299 72.524 17.5608 73.7727 15.8188L76.5148 18.8367C75.6348 20.1164 74.5431 21.0891 73.2433 21.7585C71.9434 22.428 70.4903 22.7645 68.891 22.7645C67.0106 22.7682 65.3092 22.28 63.7866 21.3073Z" fill="#6D6C6C"/>
<path d="M93.2408 4.5325H87.3331V22.3887H83.1123V4.5325H77.2302V0.382812H93.2444V4.5325H93.2408Z" fill="#6D6C6C"/>
<path d="M111.311 12.8652C111.91 13.7676 112.209 14.8771 112.209 16.1975C112.209 18.1466 111.588 19.6667 110.351 20.7577C109.109 21.8488 107.338 22.3924 105.035 22.3924H95.932V0.382812H104.531C106.678 0.382812 108.346 0.874709 109.544 1.8622C110.738 2.846 111.337 4.25142 111.337 6.07476C111.337 7.16581 111.106 8.12372 110.65 8.95218C110.194 9.78063 109.551 10.4353 108.726 10.9161C109.85 11.3118 110.712 11.9627 111.311 12.8652ZM100.178 9.49955H104.162C105.093 9.49955 105.798 9.27394 106.272 8.82273C106.747 8.37152 106.984 7.70579 106.984 6.82555C106.984 5.96751 106.743 5.30548 106.258 4.84687C105.772 4.38456 105.075 4.15526 104.162 4.15526H100.178V9.49955ZM107.882 15.787C107.882 13.9636 106.878 13.0501 104.874 13.0501H100.178V18.6126H104.874C106.878 18.6163 107.882 17.6732 107.882 15.787Z" fill="#6D6C6C"/>
<path d="M131.995 0.382812L124.134 17.7989C123.378 19.4743 122.469 20.7429 121.403 21.6047C120.337 22.4627 119.183 22.8917 117.934 22.8917C116.967 22.8917 115.963 22.6402 114.926 22.1372L115.955 18.2723C116.693 18.546 117.31 18.6792 117.803 18.6792C118.332 18.6792 118.807 18.5275 119.227 18.2242C119.65 17.921 120.037 17.4439 120.388 16.7929L120.545 16.5414L113.264 0.382812H117.828L122.736 12.2031L127.8 0.382812H131.995Z" fill="#6D6C6C"/>
<path d="M148.323 18.3019V22.3887H134.025V0.382812H147.98V4.46962H138.271V9.24805H146.844V13.2091H138.271V18.3019H148.323Z" fill="#6D6C6C"/>
<path d="M176.153 0.382812V22.3887H151.778V0.382812H156.024V18.239H161.855V0.382812H166.101V18.239H171.903V0.382812H176.153Z" fill="#6D6C6C"/>
<path d="M194.869 9.40709C196.074 10.6017 196.676 12.3733 196.676 14.7181C196.676 17.2109 196.012 19.1156 194.683 20.4248C193.354 21.7341 191.488 22.3887 189.078 22.3887H180.742V0.382812H184.989V7.61333H189.684C191.937 7.61333 193.664 8.21248 194.869 9.40709ZM191.44 17.6436C192.065 16.9927 192.379 16.0495 192.379 14.8143C192.379 12.5286 191.2 11.3858 188.844 11.3858H184.992V18.6163H188.844C189.951 18.6163 190.816 18.2908 191.44 17.6436Z" fill="#6D6C6C"/>
<path d="M223.9 0.382812L216.039 17.7989C215.283 19.4743 214.374 20.7429 213.308 21.6047C212.241 22.4627 211.088 22.8917 209.839 22.8917C208.871 22.8917 207.867 22.6402 206.83 22.1372L207.86 18.2723C208.598 18.546 209.215 18.6792 209.707 18.6792C210.237 18.6792 210.712 18.5275 211.131 18.2242C211.555 17.921 211.938 17.4439 212.293 16.7929L212.45 16.5414L205.173 0.382812H209.737L214.644 12.2031L219.708 0.382812H223.9Z" fill="#6D6C6C"/>
<path d="M229.347 21.3073C227.825 20.3346 226.631 18.981 225.758 17.2538C224.889 15.5266 224.451 13.5701 224.451 11.3917C224.451 9.21331 224.885 7.25682 225.758 5.52963C226.627 3.80245 227.825 2.4488 229.347 1.47611C230.87 0.496011 232.578 0.0078125 234.477 0.0078125C236.076 0.0078125 237.522 0.344374 238.818 1.0138C240.111 1.68322 241.195 2.64852 242.075 3.906L239.333 6.92396C238.084 5.20417 236.536 4.34612 234.689 4.34612C233.546 4.34612 232.527 4.6457 231.629 5.24115C230.731 5.8403 230.034 6.67246 229.533 7.74132C229.033 8.81018 228.781 10.027 228.781 11.388C228.781 12.7491 229.033 13.9658 229.533 15.0347C230.034 16.1036 230.735 16.9357 231.629 17.5349C232.527 18.1303 233.546 18.4299 234.689 18.4299C236.536 18.4299 238.084 17.5608 239.333 15.8188L242.075 18.8367C241.195 20.1164 240.104 21.0891 238.804 21.7585C237.5 22.428 236.051 22.7645 234.452 22.7645C232.571 22.7682 230.87 22.28 229.347 21.3073Z" fill="#6D6C6C"/>
<path d="M258.801 4.5325H252.894V22.3887H248.673V4.5325H242.791V0.382812H258.805V4.5325H258.801Z" fill="#6D6C6C"/>
<path d="M273.074 17.6732H264.501L262.865 22.3887H258.488L266.717 0.382812H270.938L279.194 22.3887H274.71L273.074 17.6732ZM271.727 13.8046L268.799 5.37945L265.87 13.8046H271.727Z" fill="#6D6C6C"/>
<path d="M298.268 0.382812V22.3887H294.047V4.5325H287.716L287.584 9.1223C287.497 12.2438 287.285 14.7773 286.952 16.7153C286.617 18.6533 286.062 20.1401 285.277 21.1793C284.495 22.2186 283.4 22.7364 281.991 22.7364C281.41 22.7364 280.705 22.6217 279.88 22.3887L280.143 18.08C280.369 18.1651 280.625 18.2058 280.906 18.2058C281.925 18.2058 282.637 17.4883 283.042 16.0532C283.447 14.6182 283.703 12.3696 283.805 9.31093L284.068 0.382812H298.268Z" fill="#6D6C6C"/>
<path d="M306.508 21.2884C304.971 20.3046 303.766 18.9473 302.893 17.2164C302.024 15.4855 301.586 13.5438 301.586 11.3839C301.586 9.22399 302.021 7.28229 302.893 5.55141C303.762 3.82422 304.967 2.46688 306.508 1.47939C308.045 0.495595 309.776 0 311.693 0C313.61 0 315.333 0.491897 316.863 1.47939C318.393 2.46318 319.598 3.82052 320.478 5.55141C321.358 7.28229 321.796 9.22399 321.796 11.3839C321.796 13.5438 321.358 15.4855 320.478 17.2164C319.598 18.9436 318.393 20.3009 316.863 21.2884C315.333 22.2722 313.61 22.7678 311.693 22.7678C309.776 22.7678 308.049 22.2759 306.508 21.2884ZM314.647 17.5345C315.527 16.9353 316.217 16.1032 316.717 15.0343C317.217 13.9654 317.469 12.7486 317.469 11.3876C317.469 10.0266 317.217 8.80976 316.717 7.7409C316.217 6.67205 315.527 5.83989 314.647 5.24074C313.767 4.64528 312.781 4.34571 311.693 4.34571C310.601 4.34571 309.619 4.64528 308.739 5.24074C307.859 5.83989 307.169 6.67205 306.669 7.7409C306.169 8.80976 305.917 10.0266 305.917 11.3876C305.917 12.7486 306.169 13.9654 306.669 15.0343C307.169 16.1032 307.859 16.9353 308.739 17.5345C309.619 18.1299 310.601 18.4295 311.693 18.4295C312.785 18.4295 313.767 18.1299 314.647 17.5345Z" fill="#6D6C6C"/>
<path d="M328.722 21.3073C327.199 20.3346 326.005 18.981 325.133 17.2538C324.264 15.5266 323.826 13.5701 323.826 11.3917C323.826 9.21331 324.26 7.25682 325.133 5.52963C326.002 3.80245 327.199 2.4488 328.722 1.47611C330.241 0.496011 331.953 0.0078125 333.852 0.0078125C335.451 0.0078125 336.897 0.344374 338.193 1.0138C339.486 1.68322 340.57 2.64852 341.45 3.906L338.708 6.92396C337.459 5.20417 335.911 4.34612 334.064 4.34612C332.921 4.34612 331.902 4.6457 331.004 5.24115C330.106 5.8403 329.408 6.67246 328.908 7.74132C328.408 8.81018 328.156 10.027 328.156 11.388C328.156 12.7491 328.408 13.9658 328.908 15.0347C329.408 16.1036 330.109 16.9357 331.004 17.5349C331.902 18.1303 332.921 18.4299 334.064 18.4299C335.911 18.4299 337.459 17.5608 338.708 15.8188L341.45 18.8367C340.57 20.1164 339.478 21.0891 338.179 21.7585C336.875 22.428 335.426 22.7645 333.826 22.7645C331.942 22.7682 330.241 22.28 328.722 21.3073Z" fill="#6D6C6C"/>
<path d="M358.173 4.5325H352.265V22.3887H348.044V4.5325H342.162V0.382812H358.177V4.5325H358.173Z" fill="#6D6C6C"/>
<path d="M374.991 9.40709C376.195 10.6017 376.798 12.3733 376.798 14.7181C376.798 17.2109 376.133 19.1156 374.804 20.4248C373.475 21.7341 371.61 22.3887 369.2 22.3887H360.864V0.382812H365.11V7.61333H369.806C372.059 7.61333 373.786 8.21248 374.991 9.40709ZM371.562 17.6436C372.186 16.9927 372.5 16.0495 372.5 14.8143C372.5 12.5286 371.321 11.3858 368.966 11.3858H365.114V18.6163H368.966C370.072 18.6163 370.938 18.2908 371.562 17.6436Z" fill="#6D6C6C"/>
<path d="M382.957 12.05C383.37 11.3362 383.972 10.5522 384.765 9.69041C385.345 9.06167 385.772 8.53279 386.043 8.10377C386.317 7.67475 386.452 7.18655 386.452 6.64287C386.452 5.86619 386.192 5.25595 385.674 4.80473C385.155 4.35352 384.465 4.12791 383.604 4.12791C382.778 4.12791 382.041 4.33133 381.402 4.74186C380.759 5.14869 380.219 5.72195 379.781 6.45425L376.59 4.22407C377.327 2.88153 378.328 1.84595 379.584 1.10996C380.84 0.37766 382.333 0.0078125 384.056 0.0078125C386.079 0.0078125 387.7 0.5219 388.923 1.55008C390.147 2.57825 390.756 4.00216 390.756 5.82551C390.756 6.68356 390.636 7.43804 390.402 8.08898C390.165 8.73991 389.873 9.28728 389.533 9.73849C389.19 10.1897 388.745 10.7075 388.201 11.2956C387.551 11.9872 387.076 12.5678 386.777 13.0412C386.477 13.5109 386.327 14.0842 386.327 14.7536H382.344C382.34 13.6626 382.545 12.7601 382.957 12.05ZM382.537 21.8103C382.052 21.2555 381.811 20.5787 381.811 19.7835C381.811 18.9884 382.048 18.3226 382.523 17.7864C382.998 17.2538 383.604 16.9838 384.345 16.9838C385.082 16.9838 385.689 17.2501 386.167 17.7864C386.641 18.3226 386.879 18.9847 386.879 19.7835C386.879 20.5787 386.638 21.2555 386.152 21.8103C385.667 22.3651 385.068 22.6425 384.345 22.6425C383.622 22.6425 383.019 22.3651 382.537 21.8103Z" fill="#6D6C6C"/>
<path d="M5.40404 62.5163C3.82671 61.6804 2.5926 60.5228 1.69806 59.0397C0.803511 57.5566 0.358063 55.8849 0.358063 54.0209C0.358063 52.1568 0.803511 50.4851 1.69806 49.002C2.5926 47.519 3.82671 46.3613 5.40404 45.5255C6.98136 44.6896 8.7595 44.2754 10.7421 44.2754C12.7211 44.2754 14.5029 44.6933 16.0802 45.5255C17.6575 46.3613 18.8916 47.519 19.7862 49.002C20.6807 50.4851 21.1262 52.1568 21.1262 54.0209C21.1262 55.8849 20.6807 57.5566 19.7862 59.0397C18.8916 60.5228 17.6575 61.6804 16.0802 62.5163C14.5029 63.3521 12.7247 63.7664 10.7421 63.7664C8.7595 63.7664 6.98136 63.3484 5.40404 62.5163ZM12.8306 58.1077C13.4513 57.7267 13.9479 57.1831 14.3166 56.4841C14.6854 55.7813 14.868 54.9603 14.868 54.0209C14.868 53.0815 14.6854 52.2604 14.3166 51.5577C13.9479 50.855 13.455 50.315 12.8306 49.9341C12.2099 49.5531 11.5125 49.3608 10.7421 49.3608C9.9717 49.3608 9.27432 49.5531 8.65361 49.9341C8.03291 50.315 7.53634 50.8587 7.16757 51.5577C6.7988 52.2604 6.61624 53.0815 6.61624 54.0209C6.61624 54.9603 6.7988 55.7813 7.16757 56.4841C7.53634 57.1868 8.02926 57.7267 8.65361 58.1077C9.27432 58.4886 9.9717 58.681 10.7421 58.681C11.5089 58.681 12.2062 58.4923 12.8306 58.1077Z" fill="#A6A6A6"/>
<path d="M49.043 44.7012V63.3415H23.3567V44.7012H29.4542V58.4669H33.1602V44.7012H39.2577V58.4669H42.9382V44.7012H49.043ZM51.2775 58.4669V66.9882H45.5999V63.3415H42.814V58.4669H51.2775Z" fill="#A6A6A6"/>
<path d="M71.7535 44.699L64.3671 58.731C63.4908 60.399 62.4173 61.6676 61.1467 62.5404C59.8761 63.4096 58.4777 63.846 56.9551 63.846C55.7794 63.846 54.5891 63.5982 53.3806 63.0989L54.8265 58.572C55.5969 58.7865 56.2285 58.89 56.7178 58.89C57.1742 58.89 57.5612 58.8087 57.8862 58.6496C58.2111 58.4906 58.5215 58.2243 58.8209 57.8508L51.7741 44.6953H58.3207L61.9756 52.5509L65.7619 44.6953H71.7535V44.699Z" fill="#A6A6A6"/>
<path d="M98.7291 44.7012V63.3415H73.0464V44.7012H79.144V58.4669H82.8499V44.7012H88.9475V58.4669H92.6279V44.7012H98.7291ZM100.964 58.4669V66.9882H95.286V63.3415H92.5001V58.4669H100.964Z" fill="#A6A6A6"/>
<path d="M116.287 60.0942H109.295L108.061 63.3415H101.752L109.796 44.7012H115.893L123.937 63.3415H117.522L116.287 60.0942ZM114.579 55.5673L112.79 50.8813L111 55.5673H114.579Z" fill="#A6A6A6"/>
<path d="M140.948 58.6V63.3415H125.649V44.7012H140.608V49.4426H131.75V51.6247H139.531V56.1516H131.75V58.6H140.948Z" fill="#A6A6A6"/>
<path d="M169.153 44.7012V63.3415H143.471V44.7012H149.568V58.4669H153.274V44.7012H159.372V58.4669H163.052V44.7012H169.153Z" fill="#A6A6A6"/>
<path d="M187.636 51.9835C188.881 53.0227 189.501 54.5539 189.501 56.577C189.501 58.7591 188.793 60.4345 187.373 61.5958C185.952 62.7571 184.006 63.3415 181.538 63.3415H172.417V44.7012H178.515V50.4264H182.327C184.62 50.4264 186.391 50.9442 187.636 51.9835ZM182.666 58.3485C183.068 57.9491 183.272 57.3943 183.272 56.6842C183.272 55.4415 182.553 54.8202 181.118 54.8202H178.515V58.9477H181.118C181.746 58.9477 182.265 58.748 182.666 58.3485Z" fill="#A6A6A6"/>
<path d="M203.511 62.5274C201.952 61.7026 200.729 60.5487 199.846 59.0656C198.962 57.5825 198.516 55.8997 198.516 54.0209C198.516 52.1383 198.958 50.4555 199.846 48.9762C200.729 47.4931 201.952 46.3391 203.511 45.5144C205.07 44.6896 206.823 44.2754 208.769 44.2754C210.558 44.2754 212.15 44.5935 213.552 45.2333C214.954 45.8731 216.112 46.794 217.021 48.0034L213.103 51.5466C211.964 50.0894 210.624 49.3645 209.079 49.3645C207.783 49.3645 206.739 49.7861 205.95 50.6294C205.162 51.4726 204.767 52.6044 204.767 54.0246C204.767 55.4448 205.162 56.5765 205.95 57.4198C206.739 58.263 207.783 58.6846 209.079 58.6846C210.62 58.6846 211.964 57.956 213.103 56.5025L217.021 60.0457C216.108 61.2551 214.954 62.176 213.552 62.8158C212.15 63.4557 210.555 63.7737 208.769 63.7737C206.827 63.7663 205.074 63.3558 203.511 62.5274Z" fill="#A6A6A6"/>
<path d="M234.192 58.6V63.3415H218.894V44.7012H233.853V49.4426H224.995V51.6247H232.776V56.1516H224.995V58.6H234.192Z" fill="#A6A6A6"/>
<path d="M236.715 44.7012H252.671V49.4426H242.813V51.5988H247.201C249.443 51.5988 251.167 52.0833 252.368 53.0486C253.569 54.0176 254.168 55.4156 254.168 57.2427C254.168 59.1437 253.485 60.6342 252.116 61.7179C250.75 62.8015 248.848 63.3415 246.413 63.3415H236.711V44.7012H236.715ZM245.996 58.9477C246.61 58.9477 247.088 58.8146 247.428 58.5483C247.771 58.282 247.939 57.901 247.939 57.4017C247.939 56.4438 247.289 55.963 245.993 55.963H242.813V58.944H245.996V58.9477Z" fill="#A6A6A6"/>
<path d="M271.654 44.699V63.3393H265.556V58.9196H263.899L261.087 63.3393H254.595L258.225 58.0135C257.034 57.4439 256.118 56.6414 255.479 55.6021C254.84 54.5628 254.519 53.3349 254.519 51.9147C254.519 50.4427 254.866 49.1631 255.556 48.0794C256.249 46.9958 257.235 46.1636 258.513 45.5755C259.791 44.9912 261.299 44.6953 263.033 44.6953H271.654V44.699ZM260.77 51.8075C260.77 53.3867 261.558 54.1782 263.136 54.1782H265.553V49.544H263.136C261.558 49.544 260.77 50.3022 260.77 51.8075Z" fill="#A6A6A6"/>
<path d="M282.797 44.7012H288.895V54.3949L295.23 44.7012H301.064V63.3415H294.967V53.6737L288.657 63.3415H282.794V44.7012H282.797Z" fill="#A6A6A6"/>
<path d="M318.959 55.4334C319.51 56.2138 319.788 57.1014 319.788 58.0963C319.788 59.2688 319.379 60.2858 318.565 61.1439C317.75 62.0056 316.655 62.6603 315.279 63.1152C313.902 63.5664 312.372 63.7957 310.693 63.7957C308.013 63.7957 305.461 63.2557 303.043 62.1721L304.858 57.83C305.716 58.1851 306.611 58.4551 307.538 58.6437C308.465 58.8286 309.342 58.9248 310.167 58.9248C311.167 58.9248 311.978 58.7843 312.599 58.4995C313.219 58.2147 313.533 57.7968 313.533 57.2494C313.533 56.5023 312.927 56.1324 311.719 56.1324H306.749V51.6055H311.193C311.719 51.6055 312.117 51.5094 312.391 51.3133C312.661 51.1173 312.799 50.8436 312.799 50.4886C312.799 50.0263 312.558 49.6712 312.077 49.4234C311.595 49.1756 310.959 49.0499 310.171 49.0499C309.433 49.0499 308.637 49.1571 307.779 49.3679C306.921 49.5825 306.107 49.882 305.333 50.2741L303.518 45.614C305.552 44.6746 307.761 44.2012 310.141 44.2012C311.737 44.2012 313.212 44.4231 314.57 44.8669C315.929 45.3107 317.017 45.9542 317.831 46.7975C318.645 47.6408 319.054 48.6319 319.054 49.7674C319.054 50.6032 318.842 51.3577 318.422 52.0308C318.002 52.704 317.415 53.2476 316.662 53.6545C317.641 54.0576 318.408 54.6494 318.959 55.4334Z" fill="#A6A6A6"/>
<path d="M338.424 63.3415L338.372 54.8461L334.378 61.6624H331.643L327.649 55.1383V63.3415H321.997V44.7012H327.098L333.093 54.6353L338.927 44.7012H344.028L344.079 63.3415H338.424Z" fill="#A6A6A6"/>
<path d="M351.334 62.5163C349.757 61.6804 348.522 60.5228 347.628 59.0397C346.733 57.5566 346.288 55.8849 346.288 54.0209C346.288 52.1568 346.733 50.4851 347.628 49.002C348.522 47.519 349.757 46.3613 351.334 45.5255C352.911 44.6896 354.689 44.2754 356.672 44.2754C358.651 44.2754 360.433 44.6933 362.01 45.5255C363.587 46.3613 364.821 47.519 365.716 49.002C366.611 50.4851 367.056 52.1568 367.056 54.0209C367.056 55.8849 366.611 57.5566 365.716 59.0397C364.821 60.5228 363.587 61.6804 362.01 62.5163C360.433 63.3521 358.655 63.7664 356.672 63.7664C354.689 63.7664 352.911 63.3484 351.334 62.5163ZM358.76 58.1077C359.381 57.7267 359.878 57.1831 360.247 56.4841C360.615 55.7813 360.798 54.9603 360.798 54.0209C360.798 53.0815 360.615 52.2604 360.247 51.5577C359.878 50.855 359.385 50.315 358.76 49.9341C358.136 49.5531 357.442 49.3608 356.672 49.3608C355.902 49.3608 355.204 49.5531 354.583 49.9341C353.963 50.315 353.466 50.8587 353.097 51.5577C352.729 52.2604 352.546 53.0815 352.546 54.0209C352.546 54.9603 352.729 55.7813 353.097 56.4841C353.466 57.1868 353.959 57.7267 354.583 58.1077C355.204 58.4886 355.902 58.681 356.672 58.681C357.442 58.681 358.136 58.4923 358.76 58.1077Z" fill="#A6A6A6"/>
<path d="M384.692 49.5758H379.302V63.3415H373.205V49.5758H367.816V44.7012H384.692V49.5758Z" fill="#A6A6A6"/>
<path d="M398.811 60.0942H391.819L390.585 63.3415H384.276L392.319 44.7012H398.417L406.461 63.3415H400.045L398.811 60.0942ZM397.102 55.5673L395.313 50.8813L393.524 55.5673H397.102Z" fill="#A6A6A6"/>
<path d="M426.308 44.7012V63.3415H420.105V56.4697H414.372V63.3415H408.169V44.7012H414.372V51.3066H420.105V44.7012H426.308Z" fill="#A6A6A6"/>
<path d="M447.708 44.7012V63.3415H441.505V56.4697H435.772V63.3415H429.569V44.7012H435.772V51.3066H441.505V44.7012H447.708Z" fill="#A6A6A6"/>
<path d="M454.989 62.5163C453.411 61.6804 452.177 60.5228 451.283 59.0397C450.388 57.5566 449.943 55.8849 449.943 54.0209C449.943 52.1568 450.388 50.4851 451.283 49.002C452.177 47.519 453.411 46.3613 454.989 45.5255C456.566 44.6896 458.344 44.2754 460.327 44.2754C462.306 44.2754 464.087 44.6933 465.665 45.5255C467.242 46.3613 468.476 47.519 469.371 49.002C470.265 50.4851 470.711 52.1568 470.711 54.0209C470.711 55.8849 470.265 57.5566 469.371 59.0397C468.476 60.5228 467.242 61.6804 465.665 62.5163C464.087 63.3521 462.309 63.7664 460.327 63.7664C458.344 63.7664 456.566 63.3484 454.989 62.5163ZM462.415 58.1077C463.036 57.7267 463.532 57.1831 463.901 56.4841C464.27 55.7813 464.453 54.9603 464.453 54.0209C464.453 53.0815 464.27 52.2604 463.901 51.5577C463.532 50.855 463.039 50.315 462.415 49.9341C461.791 49.5531 461.097 49.3608 460.327 49.3608C459.556 49.3608 458.859 49.5531 458.238 49.9341C457.617 50.315 457.121 50.8587 456.752 51.5577C456.383 52.2604 456.201 53.0815 456.201 54.0209C456.201 54.9603 456.383 55.7813 456.752 56.4841C457.121 57.1868 457.614 57.7267 458.238 58.1077C458.859 58.4886 459.556 58.681 460.327 58.681C461.097 58.681 461.794 58.4923 462.415 58.1077Z" fill="#A6A6A6"/>
<path d="M472.945 44.7003H479.042V54.394L485.377 44.7003H491.212V63.3406H485.114V53.6728L478.805 63.3406H472.941V44.7003H472.945ZM477.677 42.4886C476.782 41.7267 476.337 40.5802 476.337 39.0527H480.463C480.463 39.6556 480.58 40.092 480.817 40.3583C481.054 40.6246 481.47 40.7577 482.066 40.7577C482.661 40.7577 483.084 40.6246 483.34 40.3583C483.592 40.092 483.72 39.6556 483.72 39.0527H487.845C487.845 40.5802 487.389 41.723 486.48 42.4886C485.567 43.2505 484.096 43.6351 482.062 43.6351C480.032 43.6351 478.568 43.2542 477.677 42.4886Z" fill="#A6A6A6"/>
<path d="M498.84 54.1131C499.208 53.5547 499.734 52.9444 500.417 52.2898C500.855 51.8644 501.176 51.5168 501.377 51.2505C501.578 50.9842 501.68 50.6994 501.68 50.3999C501.68 50.0078 501.512 49.7045 501.18 49.4826C500.848 49.2607 500.428 49.1498 499.917 49.1498C499.354 49.1498 498.829 49.3125 498.339 49.6417C497.85 49.9708 497.463 50.411 497.182 50.9583L492.501 48.5876C493.202 47.2377 494.239 46.1836 495.616 45.418C496.992 44.6561 498.686 44.2715 500.702 44.2715C502.841 44.2715 504.576 44.7153 505.908 45.6029C507.241 46.4906 507.906 47.7407 507.906 49.3569C507.906 50.104 507.778 50.7549 507.526 51.3134C507.27 51.8718 506.971 52.3416 506.62 52.7262C506.27 53.1071 505.824 53.5288 505.28 53.9911C504.718 54.4867 504.316 54.8861 504.072 55.1894C503.827 55.4927 503.703 55.8292 503.703 56.2028H498.288C498.285 55.3706 498.471 54.6716 498.84 54.1131ZM498.496 62.6751C497.846 62.0537 497.525 61.2993 497.525 60.4116C497.525 59.5055 497.85 58.7547 498.496 58.1629C499.143 57.5675 499.975 57.2716 500.994 57.2716C502.009 57.2716 502.841 57.5675 503.491 58.1629C504.141 58.7584 504.462 59.5092 504.462 60.4116C504.462 61.2993 504.137 62.0537 503.491 62.6751C502.841 63.2964 502.009 63.6071 500.994 63.6071C499.975 63.6071 499.143 63.2964 498.496 62.6751Z" fill="#A6A6A6"/>
<path d="M24.5509 106.639C25.533 108.067 26.026 109.724 26.026 111.617C26.026 113.67 25.4272 115.449 24.2332 116.954C23.0356 118.46 21.4218 119.614 19.3844 120.416C17.347 121.219 15.1198 121.618 12.699 121.618C10.6471 121.618 8.60603 121.33 6.56865 120.753C4.53127 120.176 2.60343 119.295 0.781479 118.108L2.91744 112.531C4.22822 113.43 5.6741 114.11 7.25508 114.573C8.83605 115.039 10.3805 115.268 11.8885 115.268C13.9404 115.268 15.6419 114.854 16.9929 114.018C18.3438 113.186 19.0229 112.013 19.0229 110.508C19.0229 109.258 18.5592 108.311 17.6355 107.671C16.7081 107.031 15.4484 106.71 13.8565 106.71H6.54309V100.844H13.3343C14.7291 100.844 15.8172 100.522 16.6022 99.8822C17.3835 99.2424 17.7779 98.3584 17.7779 97.2378C17.7779 95.9248 17.2156 94.8967 16.091 94.1607C14.9664 93.4247 13.5206 93.0548 11.7534 93.0548C10.4426 93.0548 9.09164 93.2545 7.69687 93.654C6.30211 94.0534 4.97672 94.6562 3.72436 95.4588L1.63221 89.4007C4.79416 87.5737 8.21169 86.6602 11.8848 86.6602C14.2179 86.6602 16.3722 87.0448 18.3365 87.8141C20.3009 88.5834 21.8672 89.704 23.0356 91.1797C24.204 92.6554 24.7882 94.3678 24.7882 96.3243C24.7882 97.9257 24.4048 99.3533 23.6344 100.603C22.864 101.853 21.8125 102.815 20.4725 103.488C22.2068 104.161 23.565 105.212 24.5509 106.639Z" fill="#74157F"/>
<path d="M58.9159 87.3809V121.037H51.9969V107.238H38.4107V121.037H31.4917V87.3809H38.4107V100.651H51.9969V87.3809H58.9159Z" fill="#74157F"/>
<path d="M86.6393 113.825H72.7537L70.1066 121.037H63.016L76.3429 87.3809H83.178L96.5487 121.037H89.2864L86.6393 113.825ZM84.4632 107.911L79.7203 95.0256L74.9773 107.911H84.4632Z" fill="#74157F"/>
<path d="M100.526 87.3832H107.404V109.308L121.673 87.3832H128.165V121.039H121.33V99.1628L107.061 121.039H100.526V87.3832ZM106.035 77.8633H110.778C110.837 80.2044 112.016 81.3731 114.323 81.3731C115.463 81.3731 116.332 81.0773 116.93 80.4855C117.529 79.8937 117.843 79.0172 117.869 77.8633H122.612C122.582 80.2673 121.885 82.0943 120.52 83.3444C119.154 84.5945 117.087 85.2196 114.327 85.2196C108.854 85.2196 106.094 82.7675 106.035 77.8633Z" fill="#74157F"/>
<path d="M166.868 108.103H172.421V113.344H166.313L165.458 121.037H160.631L161.486 113.344H155.206L154.351 121.037H149.568L150.423 113.344H144.825V108.103H150.978L151.876 100.314H146.278V95.0737H152.431L153.285 87.3809H158.068L157.214 95.0737H163.494L164.348 87.3809H169.131L168.277 95.0737H173.83L173.874 100.314H167.722L166.868 108.103ZM162.041 108.103L162.939 100.314H156.659L155.761 108.103H162.041Z" fill="#74157F"/>
<path d="M201.298 93.7274H191.729V121.037H184.894V93.7274H175.367V87.3809H201.298V93.7274Z" fill="#74157F"/>
<path d="M228.529 101.18C230.479 103.007 231.454 105.714 231.454 109.305C231.454 113.119 230.38 116.029 228.23 118.034C226.079 120.038 223.052 121.037 219.153 121.037H205.654V87.3809H212.533V98.4393H220.139C223.783 98.4393 226.579 99.3528 228.529 101.18ZM222.976 113.777C223.987 112.782 224.491 111.34 224.491 109.45C224.491 105.955 222.581 104.209 218.766 104.209H212.53V115.267H218.766C220.562 115.267 221.964 114.772 222.976 113.777ZM235.258 87.3809H242.137V121.037H235.258V87.3809Z" fill="#74157F"/>
<path d="M276.995 87.3809V121.037H270.076V107.238H256.49V121.037H249.571V87.3809H256.49V100.651H270.076V87.3809H276.995Z" fill="#74157F"/>
<path d="M307.625 114.787V121.037H284.473V87.3809H307.07V93.6313H291.348V100.939H305.234V106.998H291.348V114.787H307.625Z" fill="#74157F"/>
<path d="M340.049 107.478H335.693V121.037H328.901V107.478H324.458L317.751 121.037H309.762L318.733 103.44L310.317 87.3809H317.623L324.33 100.988H328.901V87.3809H335.693V100.988H340.136L346.887 87.3809H354.193L345.821 103.44L354.748 121.037H346.756L340.049 107.478Z" fill="#74157F"/>
<path d="M381.23 114.787V121.037H358.074V87.3809H380.671V93.6313H364.949V100.939H378.835V106.998H364.949V114.787H381.23Z" fill="#74157F"/>
<path d="M413.482 87.3809V121.037H406.647V93.7274H396.394L396.182 100.747C396.04 105.522 395.697 109.394 395.156 112.36C394.616 115.327 393.71 117.601 392.443 119.188C391.176 120.774 389.402 121.57 387.124 121.57C386.185 121.57 385.046 121.392 383.706 121.041L384.133 114.454C384.502 114.583 384.915 114.646 385.371 114.646C387.021 114.646 388.175 113.548 388.832 111.354C389.486 109.157 389.898 105.722 390.07 101.039L390.497 87.3846H413.482V87.3809Z" fill="#74157F"/>
<path d="M444.112 114.787V121.037H420.959V87.3809H443.557V93.6313H427.835V100.939H441.72V106.998H427.835V114.787H444.112Z" fill="#74157F"/>
<path d="M470.791 106.639C471.773 108.067 472.266 109.724 472.266 111.617C472.266 113.67 471.667 115.449 470.473 116.954C469.275 118.46 467.661 119.614 465.624 120.416C463.587 121.219 461.359 121.618 458.939 121.618C456.887 121.618 454.846 121.33 452.808 120.753C450.771 120.176 448.843 119.295 447.021 118.108L449.157 112.531C450.468 113.43 451.914 114.11 453.495 114.573C455.076 115.039 456.62 115.268 458.128 115.268C460.18 115.268 461.882 114.854 463.233 114.018C464.583 113.186 465.263 112.013 465.263 110.508C465.263 109.258 464.799 108.311 463.875 107.671C462.948 107.031 461.688 106.71 460.096 106.71H452.79V100.844H459.581C460.976 100.844 462.064 100.522 462.849 99.8822C463.631 99.2424 464.025 98.3584 464.025 97.2378C464.025 95.9248 463.463 94.8967 462.338 94.1607C461.213 93.4247 459.768 93.0548 458 93.0548C456.69 93.0548 455.339 93.2545 453.94 93.654C452.545 94.0534 451.22 94.6563 449.968 95.4588L447.876 89.4007C451.038 87.5737 454.455 86.6602 458.128 86.6602C460.465 86.6602 462.615 87.0448 464.58 87.8141C466.544 88.5834 468.111 89.704 469.279 91.1797C470.447 92.6554 471.032 94.3678 471.032 96.3243C471.032 97.9257 470.648 99.3533 469.878 100.603C469.107 101.853 468.056 102.815 466.716 103.488C468.446 104.161 469.805 105.212 470.791 106.639Z" fill="#74157F"/>
<path d="M505.156 87.3809V121.037H498.237V107.238H484.651V121.037H477.732V87.3809H484.651V100.651H498.237V87.3809H505.156Z" fill="#74157F"/>
<path d="M532.88 113.825H518.998L516.351 121.037H509.26L522.587 87.3809H529.422L542.793 121.037H535.531L532.88 113.825ZM530.7 107.911L525.957 95.0256L521.214 107.911H530.7Z" fill="#74157F"/>
<path d="M569.107 87.3826V121.039H562.272V112.096H555.948L550.65 121.039H543.344L549.58 110.894C547.558 109.965 546.006 108.564 544.925 106.685C543.841 104.81 543.3 102.557 543.3 99.9315C543.3 97.3352 543.826 95.1013 544.881 93.2225C545.933 91.3474 547.43 89.905 549.369 88.8953C551.304 87.8856 553.582 87.3789 556.204 87.3789H569.107V87.3826ZM551.87 95.2677C550.829 96.2922 550.311 97.816 550.311 99.8354C550.311 101.792 550.807 103.297 551.808 104.355C552.804 105.413 554.272 105.942 556.207 105.942H562.272V93.7292H556.375C554.411 93.7292 552.907 94.2433 551.87 95.2677Z" fill="#74157F"/>
<path d="M10.0846 174.46H6.36406V188.115H3.70598V174.46H0V171.287H10.0846V174.46Z" fill="#757575"/>
<path d="M21.4657 181.054C21.8417 181.742 22.0316 182.592 22.0316 183.602C22.0316 185.093 21.6409 186.254 20.8596 187.09C20.0782 187.922 18.9646 188.34 17.5114 188.34H11.779V171.512H17.1937C18.5447 171.512 19.5962 171.889 20.352 172.643C21.1042 173.398 21.4803 174.471 21.4803 175.865C21.4803 176.697 21.3379 177.433 21.0494 178.065C20.761 178.698 20.3557 179.201 19.8372 179.567C20.5456 179.867 21.0859 180.362 21.4657 181.054ZM14.4517 178.48H16.9601C17.5479 178.48 17.9897 178.306 18.2891 177.962C18.5885 177.618 18.7382 177.108 18.7382 176.434C18.7382 175.776 18.5849 175.273 18.2818 174.918C17.9788 174.567 17.537 174.389 16.9601 174.389H14.4517V178.48ZM19.3041 183.288C19.3041 181.893 18.6725 181.194 17.4092 181.194H14.4517V185.451H17.4092C18.6725 185.451 19.3041 184.73 19.3041 183.288Z" fill="#757575"/>
<path d="M26.4386 187.277C25.471 186.522 24.7116 185.487 24.1639 184.163C23.6162 182.839 23.3423 181.356 23.3423 179.703C23.3423 178.053 23.6162 176.566 24.1639 175.242C24.7116 173.922 25.471 172.883 26.4386 172.128C27.4061 171.374 28.4942 171 29.7028 171C30.9113 171 31.9957 171.377 32.9596 172.128C33.9236 172.883 34.683 173.918 35.2343 175.242C35.7893 176.566 36.0632 178.049 36.0632 179.703C36.0632 181.352 35.7857 182.839 35.2343 184.163C34.6794 185.483 33.9236 186.522 32.9596 187.277C31.9957 188.031 30.9113 188.405 29.7028 188.405C28.4942 188.405 27.4098 188.028 26.4386 187.277ZM31.5649 184.403C32.1199 183.948 32.5544 183.309 32.8684 182.491C33.1824 181.674 33.343 180.745 33.343 179.703C33.343 178.66 33.186 177.731 32.8684 176.914C32.5544 176.096 32.1162 175.46 31.5649 175.002C31.0099 174.547 30.3892 174.318 29.7028 174.318C29.0163 174.318 28.3956 174.547 27.8406 175.002C27.2857 175.457 26.8512 176.096 26.5372 176.914C26.2232 177.731 26.0625 178.66 26.0625 179.703C26.0625 180.745 26.2195 181.674 26.5372 182.491C26.8512 183.309 27.2857 183.945 27.8406 184.403C28.3956 184.858 29.0127 185.087 29.7028 185.087C30.3928 185.087 31.0099 184.858 31.5649 184.403Z" fill="#757575"/>
<path d="M47.0132 171.287V188.115H44.3551V183.644H41.8978L39.8385 188.115H36.9979L39.4223 183.045C38.6373 182.579 38.0312 181.88 37.6113 180.94C37.1914 180.001 36.9796 178.876 36.9796 177.563C36.9796 176.265 37.1841 175.148 37.593 174.209C38.002 173.269 38.5825 172.552 39.3383 172.045C40.0905 171.542 40.9777 171.287 41.9964 171.287H47.0132ZM40.3132 175.23C39.9079 175.744 39.7071 176.502 39.7071 177.512C39.7071 178.488 39.9006 179.243 40.2876 179.771C40.6747 180.3 41.2442 180.567 42 180.567H44.3587V174.46H42.0658C41.299 174.46 40.7148 174.716 40.3132 175.23Z" fill="#757575"/>
<path d="M65.2215 171.287V188.115H62.5452V174.46H57.2947V188.115H54.6184V171.287H65.2215Z" fill="#757575"/>
<path d="M75.8286 172.034C76.5881 172.53 77.1723 173.236 77.5812 174.15C77.9901 175.063 78.1946 176.147 78.1946 177.393C78.1946 178.628 77.9901 179.705 77.5812 180.626C77.1723 181.546 76.5881 182.253 75.8286 182.741C75.0692 183.229 74.1746 183.473 73.145 183.473H70.8009V188.111H68.11V171.283H73.145C74.1783 171.287 75.0692 171.535 75.8286 172.034ZM74.8428 179.546C75.2627 179.039 75.4745 178.325 75.4745 177.393C75.4745 176.446 75.2627 175.721 74.8428 175.218C74.4229 174.715 73.8058 174.46 72.9989 174.46H70.8045V180.3H72.9989C73.8058 180.304 74.4192 180.049 74.8428 179.546Z" fill="#757575"/>
<path d="M82.4258 187.277C81.4583 186.522 80.6988 185.487 80.1511 184.163C79.6034 182.839 79.3296 181.356 79.3296 179.703C79.3296 178.053 79.6034 176.566 80.1511 175.242C80.6988 173.922 81.4583 172.883 82.4258 172.128C83.3934 171.374 84.4815 171 85.69 171C86.8986 171 87.983 171.377 88.9469 172.128C89.9108 172.883 90.6703 173.918 91.2216 175.242C91.7766 176.566 92.0504 178.049 92.0504 179.703C92.0504 181.352 91.7729 182.839 91.2216 184.163C90.6666 185.483 89.9108 186.522 88.9469 187.277C87.983 188.031 86.8986 188.405 85.69 188.405C84.4815 188.405 83.3934 188.028 82.4258 187.277ZM87.5485 184.403C88.1035 183.948 88.538 183.309 88.852 182.491C89.166 181.674 89.3266 180.745 89.3266 179.703C89.3266 178.66 89.1696 177.731 88.852 176.914C88.538 176.096 88.0998 175.46 87.5485 175.002C86.9935 174.547 86.3728 174.318 85.6864 174.318C84.9999 174.318 84.3792 174.547 83.8242 175.002C83.2693 175.457 82.8348 176.096 82.5208 176.914C82.2068 177.731 82.0461 178.66 82.0461 179.703C82.0461 180.745 82.2031 181.674 82.5208 182.491C82.8348 183.309 83.2693 183.945 83.8242 184.403C84.3792 184.858 84.9963 185.087 85.6864 185.087C86.3764 185.087 86.9971 184.858 87.5485 184.403Z" fill="#757575"/>
<path d="M94.128 171.287H103.515V174.386H96.8043V177.848H100.028C101.434 177.848 102.508 178.274 103.241 179.12C103.979 179.971 104.348 181.195 104.348 182.797C104.348 184.48 103.939 185.785 103.117 186.717C102.296 187.645 101.142 188.111 99.645 188.111H94.128V171.287ZM99.4953 185.23C100.182 185.23 100.707 185.034 101.073 184.642C101.438 184.25 101.62 183.677 101.62 182.923C101.62 181.447 100.912 180.711 99.4953 180.711H96.8043V185.23H99.4953Z" fill="#757575"/>
<path d="M116.474 171.287V188.115H113.816V174.46H109.829L109.745 177.97C109.69 180.359 109.555 182.294 109.347 183.777C109.135 185.26 108.784 186.395 108.292 187.191C107.799 187.986 107.109 188.381 106.221 188.381C105.856 188.381 105.414 188.293 104.892 188.119L105.057 184.827C105.199 184.89 105.36 184.923 105.538 184.923C106.181 184.923 106.63 184.376 106.886 183.278C107.141 182.179 107.302 180.459 107.368 178.122L107.536 171.295H116.474V171.287Z" fill="#757575"/>
<path d="M128.384 184.99V188.115H119.38V171.287H128.169V174.412H122.057V178.066H127.457V181.095H122.057V184.99H128.384Z" fill="#757575"/>
<path d="M141.141 188.115L141.123 178.044L137.702 186.336H136.504L133.083 178.237V188.115H130.556V171.287H132.783L137.136 181.743L141.422 171.287H143.649L143.668 188.115H141.141Z" fill="#757575"/>
<path d="M154.432 184.509H149.032L148.002 188.115H145.245L150.43 171.287H153.088L158.288 188.115H155.465L154.432 184.509ZM153.585 181.554L151.741 175.111L149.897 181.554H153.585Z" fill="#757575"/>
<path d="M175.116 188.115L175.101 178.044L171.68 186.336H170.482L167.061 178.237V188.115H164.535V171.287H166.762L171.114 181.743L175.401 171.287H177.628L177.642 188.115H175.116Z" fill="#757575"/>
<path d="M182.816 187.277C181.849 186.522 181.089 185.487 180.541 184.163C179.994 182.839 179.72 181.356 179.72 179.703C179.72 178.053 179.994 176.566 180.541 175.242C181.089 173.922 181.849 172.883 182.816 172.128C183.784 171.374 184.872 171 186.08 171C187.289 171 188.373 171.377 189.337 172.128C190.301 172.883 191.061 173.918 191.612 175.242C192.167 176.566 192.444 178.049 192.444 179.703C192.444 181.352 192.167 182.839 191.612 184.163C191.057 185.483 190.301 186.522 189.337 187.277C188.373 188.031 187.289 188.405 186.08 188.405C184.875 188.405 183.787 188.028 182.816 187.277ZM187.942 184.403C188.497 183.948 188.932 183.309 189.246 182.491C189.56 181.674 189.721 180.745 189.721 179.703C189.721 178.66 189.564 177.731 189.246 176.914C188.928 176.096 188.494 175.46 187.942 175.002C187.387 174.547 186.767 174.318 186.08 174.318C185.394 174.318 184.773 174.547 184.218 175.002C183.663 175.457 183.229 176.096 182.915 176.914C182.601 177.731 182.44 178.66 182.44 179.703C182.44 180.745 182.597 181.674 182.915 182.491C183.232 183.309 183.663 183.945 184.218 184.403C184.773 184.858 185.39 185.087 186.08 185.087C186.77 185.087 187.387 184.858 187.942 184.403Z" fill="#757575"/>
<path d="M204.654 181.336H202.96V188.115H200.32V181.336H198.593L195.986 188.115H192.879L196.366 179.316L193.094 171.287H195.935L198.542 178.092H200.32V171.287H202.96V178.092H204.687L207.312 171.287H210.153L206.896 179.316L210.368 188.115H207.261L204.654 181.336Z" fill="#757575"/>
<path d="M220.668 184.99V188.115H211.664V171.287H220.453V174.412H214.341V178.066H219.741V181.095H214.341V184.99H220.668Z" fill="#757575"/>
<path d="M231.735 174.46H228.014V188.115H225.356V174.46H221.65V171.287H231.735V174.46Z" fill="#757575"/>
<path d="M240.414 187.287C239.457 186.543 238.701 185.508 238.154 184.187C237.606 182.863 237.332 181.369 237.332 179.705C237.332 178.037 237.606 176.542 238.154 175.222C238.701 173.902 239.453 172.866 240.414 172.123C241.37 171.376 242.447 171.006 243.645 171.006C244.653 171.006 245.562 171.261 246.376 171.775C247.19 172.289 247.873 173.025 248.428 173.987L246.701 176.295C245.916 174.982 244.941 174.323 243.777 174.323C243.057 174.323 242.415 174.553 241.849 175.008C241.283 175.463 240.845 176.102 240.527 176.92C240.209 177.737 240.052 178.665 240.052 179.708C240.052 180.751 240.209 181.68 240.527 182.497C240.845 183.314 241.283 183.951 241.849 184.409C242.415 184.868 243.057 185.093 243.777 185.093C244.938 185.093 245.912 184.428 246.701 183.096L248.428 185.404C247.873 186.38 247.187 187.128 246.369 187.642C245.547 188.156 244.635 188.411 243.627 188.411C242.444 188.403 241.37 188.03 240.414 187.287Z" fill="#757575"/>
<path d="M254.694 181.336H252.832V188.115H250.155V171.287H252.832V178.092H254.759L257.816 171.287H260.656L256.852 179.413L260.773 188.115H257.717L254.694 181.336Z" fill="#757575"/>
<path d="M269.752 172.034C270.511 172.53 271.095 173.236 271.504 174.15C271.913 175.063 272.118 176.147 272.118 177.393C272.118 178.628 271.913 179.705 271.504 180.626C271.095 181.546 270.511 182.253 269.752 182.741C268.992 183.229 268.098 183.473 267.068 183.473H264.724V188.111H262.033V171.283H267.068C268.098 171.287 268.992 171.535 269.752 172.034ZM268.762 179.546C269.182 179.039 269.394 178.325 269.394 177.393C269.394 176.446 269.182 175.721 268.762 175.218C268.342 174.715 267.725 174.46 266.918 174.46H264.724V180.3H266.918C267.729 180.304 268.342 180.049 268.762 179.546Z" fill="#757575"/>
<path d="M282.794 178.188C283.553 179.102 283.933 180.456 283.933 182.253C283.933 184.161 283.513 185.615 282.677 186.617C281.841 187.62 280.665 188.119 279.146 188.119H273.896V171.291H276.572V176.82H279.529C280.946 176.816 282.034 177.275 282.794 178.188ZM280.632 184.487C281.026 183.991 281.224 183.27 281.224 182.323C281.224 180.578 280.482 179.705 278.996 179.705H276.572V185.234H278.996C279.694 185.23 280.241 184.983 280.632 184.487ZM285.411 171.287H288.088V188.115H285.411V171.287Z" fill="#757575"/>
<path d="M300.663 180.833C301.039 181.521 301.229 182.372 301.229 183.381C301.229 184.872 300.838 186.033 300.057 186.869C299.276 187.701 298.162 188.119 296.709 188.119H290.976V171.291H296.391C297.742 171.291 298.794 171.668 299.549 172.423C300.302 173.177 300.678 174.25 300.678 175.644C300.678 176.476 300.535 177.212 300.247 177.845C299.958 178.477 299.553 178.98 299.035 179.346C299.743 179.646 300.283 180.141 300.663 180.833ZM293.649 178.259H296.157C296.745 178.259 297.187 178.085 297.486 177.741C297.786 177.397 297.936 176.887 297.936 176.214C297.936 175.555 297.782 175.052 297.479 174.697C297.176 174.346 296.734 174.168 296.157 174.168H293.649V178.259ZM298.501 183.067C298.501 181.673 297.87 180.974 296.606 180.974H293.649V185.231H296.606C297.87 185.231 298.501 184.509 298.501 183.067Z" fill="#757575"/>
<path d="M311.226 184.509H305.825L304.796 188.115H302.039L307.224 171.287H309.882L315.081 188.115H312.259L311.226 184.509ZM310.379 181.554L308.535 175.111L306.691 181.554H310.379Z" fill="#757575"/>
<path d="M324.933 174.46H321.212V188.115H318.554V174.46H314.848V171.287H324.933V174.46Z" fill="#757575"/>
<path d="M335.524 178.189C336.284 179.102 336.663 180.456 336.663 182.253C336.663 184.162 336.243 185.615 335.407 186.618C334.571 187.62 333.396 188.119 331.877 188.119H326.626V171.291H329.303V176.82H332.26C333.677 176.817 334.765 177.275 335.524 178.189ZM333.363 184.487C333.757 183.992 333.954 183.27 333.954 182.324C333.954 180.578 333.213 179.705 331.727 179.705H329.303V185.234H331.727C332.424 185.231 332.972 184.983 333.363 184.487Z" fill="#757575"/>
<path d="M340.888 187.287C339.932 186.543 339.176 185.508 338.628 184.187C338.081 182.863 337.807 181.369 337.807 179.705C337.807 178.037 338.081 176.542 338.628 175.222C339.176 173.902 339.928 172.866 340.888 172.123C341.845 171.376 342.922 171.006 344.12 171.006C345.127 171.006 346.037 171.261 346.851 171.775C347.665 172.289 348.348 173.025 348.903 173.987L347.176 176.295C346.391 174.982 345.416 174.323 344.251 174.323C343.532 174.323 342.889 174.553 342.323 175.008C341.757 175.463 341.319 176.102 341.002 176.92C340.684 177.737 340.527 178.665 340.527 179.708C340.527 180.751 340.684 181.68 341.002 182.497C341.319 183.314 341.757 183.951 342.323 184.409C342.889 184.868 343.532 185.093 344.251 185.093C345.412 185.093 346.387 184.428 347.176 183.096L348.903 185.404C348.348 186.38 347.661 187.128 346.843 187.642C346.022 188.156 345.109 188.411 344.101 188.411C342.918 188.403 341.849 188.03 340.888 187.287Z" fill="#757575"/>
<path d="M359.721 171.287V188.115H357.063V183.644H354.606L352.546 188.115H349.706L352.13 183.045C351.345 182.579 350.739 181.88 350.319 180.94C349.899 180.001 349.688 178.876 349.688 177.563C349.688 176.265 349.892 175.148 350.301 174.209C350.71 173.269 351.29 172.552 352.046 172.045C352.798 171.542 353.686 171.287 354.704 171.287H359.721ZM353.017 175.23C352.612 175.744 352.411 176.502 352.411 177.512C352.411 178.488 352.605 179.243 352.992 179.771C353.379 180.3 353.949 180.567 354.704 180.567H357.063V174.46H354.77C354.007 174.46 353.423 174.716 353.017 175.23Z" fill="#757575"/>
<path d="M377.013 180.833C377.389 181.521 377.579 182.372 377.579 183.381C377.579 184.872 377.188 186.033 376.407 186.869C375.626 187.701 374.512 188.119 373.059 188.119H367.326V171.291H372.741C374.092 171.291 375.144 171.668 375.899 172.423C376.652 173.177 377.028 174.25 377.028 175.644C377.028 176.476 376.885 177.212 376.597 177.845C376.308 178.477 375.903 178.98 375.385 179.346C376.093 179.646 376.637 180.141 377.013 180.833ZM370.003 178.259H372.511C373.099 178.259 373.541 178.085 373.84 177.741C374.14 177.397 374.289 176.887 374.289 176.214C374.289 175.555 374.136 175.052 373.833 174.697C373.53 174.346 373.088 174.168 372.511 174.168H370.003V178.259ZM374.855 183.067C374.855 181.673 374.224 180.974 372.96 180.974H370.003V185.231H372.96C374.224 185.231 374.855 184.509 374.855 183.067Z" fill="#757575"/>
<path d="M394.955 181.336H393.261V188.115H390.621V181.336H388.894L386.287 188.115H383.18L386.667 179.316L383.395 171.287H386.236L388.843 178.092H390.621V171.287H393.261V178.092H394.988L397.613 171.287H400.454L397.197 179.316L400.669 188.115H397.562L394.955 181.336Z" fill="#757575"/>
<path d="M410.969 184.99V188.115H401.965V171.287H410.754V174.412H404.642V178.066H410.042V181.095H404.642V184.99H410.969Z" fill="#757575"/>
<path d="M423.515 171.287V188.115H420.857V174.46H416.87L416.786 177.97C416.731 180.359 416.596 182.294 416.388 183.777C416.176 185.26 415.826 186.395 415.333 187.191C414.84 187.986 414.15 188.381 413.266 188.381C412.901 188.381 412.459 188.293 411.937 188.119L412.105 184.827C412.247 184.89 412.408 184.923 412.587 184.923C413.23 184.923 413.679 184.376 413.934 183.278C414.19 182.179 414.351 180.459 414.416 178.122L414.584 171.295H423.515V171.287Z" fill="#757575"/>
<path d="M435.425 184.99V188.115H426.421V171.287H435.21V174.412H429.098V178.066H434.494V181.095H429.094V184.99H435.425Z" fill="#757575"/>
<path d="M445.798 180.916C446.182 181.629 446.372 182.458 446.372 183.405C446.372 184.429 446.138 185.32 445.674 186.075C445.211 186.829 444.579 187.406 443.79 187.806C442.998 188.205 442.133 188.405 441.191 188.405C440.395 188.405 439.599 188.261 438.806 187.972C438.014 187.684 437.266 187.244 436.554 186.652L437.386 183.863C437.894 184.311 438.456 184.651 439.073 184.884C439.686 185.117 440.289 185.232 440.877 185.232C441.673 185.232 442.337 185.025 442.863 184.607C443.389 184.189 443.652 183.604 443.652 182.854C443.652 182.229 443.473 181.755 443.111 181.437C442.75 181.115 442.26 180.956 441.64 180.956H438.799V178.023H441.439C441.983 178.023 442.407 177.864 442.71 177.543C443.013 177.221 443.166 176.781 443.166 176.222C443.166 175.564 442.947 175.053 442.509 174.684C442.071 174.314 441.508 174.129 440.822 174.129C440.311 174.129 439.785 174.229 439.245 174.428C438.701 174.628 438.186 174.928 437.7 175.331L436.886 172.302C438.116 171.388 439.445 170.93 440.873 170.93C441.782 170.93 442.618 171.122 443.381 171.507C444.144 171.891 444.754 172.453 445.207 173.189C445.66 173.925 445.89 174.783 445.89 175.764C445.89 176.566 445.74 177.28 445.441 177.905C445.141 178.53 444.732 179.011 444.21 179.347C444.889 179.68 445.419 180.205 445.798 180.916Z" fill="#757575"/>
<path d="M450.783 187.277C449.815 186.522 449.056 185.487 448.508 184.163C447.96 182.839 447.686 181.356 447.686 179.703C447.686 178.053 447.96 176.566 448.508 175.242C449.056 173.922 449.815 172.883 450.783 172.128C451.75 171.374 452.838 171 454.047 171C455.255 171 456.34 171.377 457.304 172.128C458.268 172.883 459.027 173.918 459.578 175.242C460.133 176.566 460.411 178.049 460.411 179.703C460.411 181.352 460.133 182.839 459.578 184.163C459.023 185.483 458.268 186.522 457.304 187.277C456.34 188.031 455.255 188.405 454.047 188.405C452.842 188.405 451.754 188.028 450.783 187.277ZM455.909 184.403C456.464 183.948 456.898 183.309 457.212 182.491C457.526 181.674 457.687 180.745 457.687 179.703C457.687 178.66 457.53 177.731 457.212 176.914C456.895 176.096 456.46 175.46 455.909 175.002C455.354 174.547 454.733 174.318 454.047 174.318C453.36 174.318 452.74 174.547 452.185 175.002C451.63 175.457 451.195 176.096 450.881 176.914C450.567 177.731 450.407 178.66 450.407 179.703C450.407 180.745 450.564 181.674 450.881 182.491C451.199 183.309 451.63 183.945 452.185 184.403C452.74 184.858 453.357 185.087 454.047 185.087C454.737 185.087 455.354 184.858 455.909 184.403Z" fill="#757575"/>
<path d="M474.15 184.942V191.599H471.656V188.115H463.448V191.599H460.954L460.969 184.942H461.433C462.13 184.909 462.623 184.173 462.912 182.73C463.2 181.288 463.375 179.228 463.445 176.55L463.576 171.287H472.514V184.942H474.15ZM465.478 181.95C465.299 183.303 465.029 184.302 464.664 184.942H469.863V174.46H465.876L465.825 176.912C465.77 178.917 465.654 180.596 465.478 181.95Z" fill="#757575"/>
<path d="M484.965 184.99V188.115H475.961V171.287H484.749V174.412H478.637V178.066H484.037V181.095H478.637V184.99H484.965Z" fill="#757575"/>
<path d="M499.311 184.905C498.263 186.181 496.762 186.888 494.801 187.032V188.859H492.326V187.006C490.354 186.847 488.846 186.129 487.798 184.853C486.75 183.581 486.228 181.843 486.228 179.65C486.228 177.438 486.75 175.703 487.798 174.446C488.846 173.188 490.354 172.471 492.326 172.293V170.562H494.801V172.271C496.762 172.43 498.266 173.151 499.311 174.435C500.359 175.718 500.881 177.456 500.881 179.65C500.881 181.88 500.359 183.633 499.311 184.905ZM492.326 183.981V175.352C491.139 175.511 490.263 175.94 489.693 176.639C489.124 177.338 488.839 178.34 488.839 179.657C488.835 182.187 490 183.629 492.326 183.981ZM497.423 182.671C498 181.958 498.288 180.944 498.288 179.631C498.288 177.068 497.124 175.641 494.801 175.352V183.981C495.973 183.822 496.85 183.385 497.423 182.671Z" fill="#757575"/>
<path d="M502.889 171.287H505.565V182.249L511.115 171.287H513.642V188.115H510.984V177.175L505.434 188.115H502.893V171.287H502.889Z" fill="#757575"/>
<path d="M528.724 184.942V191.673H526.249V188.115H516.529V171.287H519.206V184.942H524.39V171.287H527.067V184.942H528.724Z" fill="#757575"/>
<path d="M530.499 171.287H533.176V182.249L538.726 171.287H541.252V188.115H538.594V177.175L533.044 188.115H530.503V171.287H530.499Z" fill="#757575"/>
<path d="M553.027 174.46H549.307V188.115H546.649V174.46H542.943V171.287H553.027V174.46Z" fill="#757575"/>
<path d="M563.725 184.99V188.115H554.721V171.287H563.51V174.412H557.397V178.066H562.798V181.095H557.397V184.99H563.725Z" fill="#757575"/>
<path d="M26.464 204.713V233.191H18.0771V212.158H10.3767V233.191H1.99356V204.713H26.464Z" fill="#A67DB6"/>
<path d="M49.2367 206.015C50.971 206.884 52.311 208.13 53.2494 209.758C54.1877 211.385 54.6587 213.282 54.6587 215.453C54.6587 217.624 54.1877 219.522 53.2494 221.149C52.311 222.776 50.971 224.023 49.2367 224.892C47.5024 225.761 45.465 226.194 43.1282 226.194H39.477V233.191H30.9441V204.713H43.1245C45.465 204.713 47.5024 205.146 49.2367 206.015ZM45.1875 217.916C45.7644 217.332 46.0565 216.515 46.0565 215.457C46.0565 214.399 45.768 213.578 45.1875 212.994C44.6106 212.409 43.7416 212.121 42.5842 212.121H39.477V218.793H42.5842C43.7416 218.789 44.6106 218.497 45.1875 217.916Z" fill="#A67DB6"/>
<path d="M63.1151 231.927C60.9463 230.651 59.2484 228.883 58.018 226.62C56.7875 224.356 56.1741 221.801 56.1741 218.953C56.1741 216.105 56.7875 213.549 58.018 211.286C59.2484 209.022 60.9463 207.251 63.1151 205.979C65.2839 204.703 67.7302 204.066 70.454 204.066C73.1778 204.066 75.6241 204.703 77.793 205.979C79.9618 207.254 81.6596 209.022 82.89 211.286C84.1205 213.549 84.7339 216.105 84.7339 218.953C84.7339 221.801 84.1205 224.356 82.89 226.62C81.6596 228.883 79.9618 230.655 77.793 231.927C75.6241 233.203 73.1778 233.839 70.454 233.839C67.7302 233.839 65.2839 233.203 63.1151 231.927ZM73.3275 225.196C74.1819 224.611 74.8647 223.787 75.3685 222.714C75.8761 221.642 76.128 220.388 76.128 218.953C76.128 217.514 75.8761 216.26 75.3685 215.191C74.861 214.119 74.1819 213.294 73.3275 212.71C72.4731 212.125 71.5129 211.833 70.454 211.833C69.3952 211.833 68.4349 212.125 67.5805 212.71C66.7261 213.294 66.0434 214.119 65.5395 215.191C65.032 216.264 64.78 217.518 64.78 218.953C64.78 220.391 65.032 221.645 65.5395 222.714C66.047 223.787 66.7261 224.611 67.5805 225.196C68.4349 225.78 69.3952 226.072 70.454 226.072C71.5129 226.069 72.4731 225.776 73.3275 225.196Z" fill="#A67DB6"/>
<path d="M110.504 220.805C111.249 221.929 111.625 223.309 111.625 224.936C111.625 227.485 110.727 229.5 108.931 230.976C107.134 232.455 104.6 233.195 101.321 233.195H87.8011V204.717H100.635C103.768 204.717 106.196 205.368 107.919 206.67C109.643 207.971 110.504 209.802 110.504 212.162C110.504 213.519 110.219 214.71 109.654 215.742C109.088 216.774 108.284 217.613 107.251 218.264C108.675 218.83 109.759 219.677 110.504 220.805ZM96.1915 215.657H99.8062C101.205 215.657 101.902 214.965 101.902 213.582C101.902 212.143 101.201 211.426 99.8062 211.426H96.1915V215.657ZM103.023 224.2C103.023 222.736 102.322 222.003 100.927 222.003H96.1915V226.479H100.927C102.322 226.479 103.023 225.72 103.023 224.2Z" fill="#A67DB6"/>
<path d="M135.697 225.949V233.191H114.659V204.713H135.226V211.954H123.046V215.291H133.744V222.207H123.046V225.949H135.697Z" fill="#A67DB6"/>
<path d="M157.458 206.015C159.193 206.884 160.533 208.13 161.471 209.758C162.409 211.385 162.88 213.282 162.88 215.453C162.88 217.624 162.409 219.522 161.471 221.149C160.533 222.776 159.193 224.023 157.458 224.892C155.724 225.761 153.687 226.194 151.35 226.194H147.699V233.191H139.169V204.713H151.35C153.687 204.713 155.724 205.146 157.458 206.015ZM153.409 217.916C153.986 217.332 154.278 216.515 154.278 215.457C154.278 214.399 153.99 213.578 153.409 212.994C152.832 212.409 151.963 212.121 150.806 212.121H147.699V218.793H150.806C151.963 218.789 152.832 218.497 153.409 217.916Z" fill="#A67DB6"/>
<path d="M186.376 215.842C188.089 217.428 188.943 219.77 188.943 222.862C188.943 226.198 187.968 228.753 186.015 230.528C184.061 232.304 181.389 233.195 177.989 233.195H165.447V204.717H173.834V213.464H179.077C182.232 213.46 184.667 214.255 186.376 215.842ZM179.545 225.565C180.1 224.955 180.377 224.108 180.377 223.021C180.377 221.123 179.388 220.173 177.412 220.173H173.834V226.479H177.412C178.281 226.479 178.99 226.175 179.545 225.565Z" fill="#A67DB6"/>
<path d="M228.018 204.713L217.861 226.153C216.656 228.701 215.181 230.643 213.432 231.971C211.683 233.298 209.762 233.964 207.666 233.964C206.053 233.964 204.413 233.583 202.752 232.825L204.738 225.909C205.797 226.234 206.666 226.397 207.341 226.397C207.969 226.397 208.503 226.275 208.952 226.031C209.397 225.787 209.824 225.38 210.233 224.81L200.547 204.713H209.547L214.571 216.714L219.778 204.713H228.018Z" fill="#A67DB6"/>
<path d="M248.078 206.015C249.812 206.884 251.152 208.13 252.091 209.758C253.029 211.385 253.5 213.282 253.5 215.453C253.5 217.624 253.029 219.522 252.091 221.149C251.152 222.776 249.812 224.023 248.078 224.892C246.344 225.761 244.306 226.194 241.97 226.194H238.318V233.191H229.789V204.713H241.97C244.306 204.713 246.344 205.146 248.078 206.015ZM244.029 217.916C244.606 217.332 244.898 216.515 244.898 215.457C244.898 214.399 244.609 213.578 244.029 212.994C243.452 212.409 242.583 212.121 241.426 212.121H238.318V218.793H241.426C242.583 218.789 243.452 218.497 244.029 217.916Z" fill="#A67DB6"/>
<path d="M261.96 231.927C259.791 230.651 258.093 228.883 256.862 226.62C255.632 224.356 255.019 221.801 255.019 218.953C255.019 216.105 255.632 213.549 256.862 211.286C258.093 209.022 259.791 207.251 261.96 205.979C264.128 204.703 266.575 204.066 269.298 204.066C272.022 204.066 274.469 204.703 276.637 205.979C278.806 207.254 280.504 209.022 281.735 211.286C282.965 213.549 283.578 216.105 283.578 218.953C283.578 221.801 282.965 224.356 281.735 226.62C280.504 228.883 278.806 230.655 276.637 231.927C274.469 233.203 272.022 233.839 269.298 233.839C266.575 233.839 264.128 233.203 261.96 231.927ZM272.172 225.196C273.026 224.611 273.709 223.787 274.213 222.714C274.721 221.642 274.972 220.388 274.972 218.953C274.972 217.514 274.721 216.26 274.213 215.191C273.706 214.119 273.026 213.294 272.172 212.71C271.318 212.125 270.357 211.833 269.298 211.833C268.236 211.833 267.279 212.125 266.425 212.71C265.571 213.294 264.888 214.119 264.384 215.191C263.876 216.264 263.625 217.518 263.625 218.953C263.625 220.391 263.876 221.645 264.384 222.714C264.891 223.787 265.571 224.611 266.425 225.196C267.279 225.78 268.236 226.072 269.298 226.072C270.357 226.069 271.314 225.776 272.172 225.196Z" fill="#A67DB6"/>
<path d="M309.349 220.805C310.094 221.929 310.47 223.309 310.47 224.936C310.47 227.485 309.571 229.5 307.775 230.976C305.979 232.455 303.441 233.195 300.166 233.195H286.646V204.717H299.48C302.612 204.717 305.04 205.368 306.764 206.67C308.487 207.971 309.349 209.802 309.349 212.162C309.349 213.519 309.064 214.71 308.498 215.742C307.932 216.774 307.129 217.613 306.096 218.264C307.516 218.83 308.6 219.677 309.349 220.805ZM295.032 215.657H298.647C300.045 215.657 300.743 214.965 300.743 213.582C300.743 212.143 300.042 211.426 298.647 211.426H295.032V215.657ZM301.864 224.2C301.864 222.736 301.163 222.003 299.768 222.003H295.032V226.479H299.768C301.166 226.479 301.864 225.72 301.864 224.2Z" fill="#A67DB6"/>
<path d="M334.542 225.949V233.191H313.504V204.713H334.071V211.954H321.891V215.291H332.589V222.207H321.891V225.949H334.542Z" fill="#A67DB6"/>
<path d="M362.952 204.713V233.191H354.423V222.695H346.544V233.191H338.014V204.713H346.544V214.802H354.423V204.713H362.952Z" fill="#A67DB6"/>
<path d="M388.365 215.842C390.077 217.428 390.932 219.77 390.932 222.862C390.932 226.198 389.957 228.753 388.003 230.528C386.05 232.304 383.377 233.195 379.978 233.195H367.436V204.717H375.823V213.464H381.062C384.221 213.46 386.652 214.255 388.365 215.842ZM381.533 225.565C382.088 224.955 382.366 224.108 382.366 223.021C382.366 221.123 381.376 220.173 379.401 220.173H375.823V226.479H379.401C380.267 226.479 380.978 226.175 381.533 225.565Z" fill="#A67DB6"/>
<path d="M429.463 222.898H427.258V233.191H418.944V222.898H416.665L412.474 233.191H402.678L409.473 218.22L403.039 204.713H411.93L416.45 215.331H418.944V204.713H427.258V215.331H429.605L434.195 204.713H443.086L436.689 218.22L443.447 233.191H433.651L429.463 222.898Z" fill="#A67DB6"/>
<path d="M466.227 225.949V233.191H445.188V204.713H465.756V211.954H453.575V215.291H464.273V222.207H453.575V225.949H466.227Z" fill="#A67DB6"/>
<path d="M494.385 204.713V233.191H485.998V212.158H480.215L480.142 215.453C480.047 219.522 479.755 222.858 479.273 225.461C478.791 228.065 477.947 230.092 476.743 231.542C475.538 232.991 473.814 233.72 471.572 233.72C470.441 233.72 469.236 233.542 467.958 233.191L468.392 225.502C468.706 225.583 469.017 225.624 469.331 225.624C470.221 225.624 470.904 225.217 471.372 224.404C471.843 223.59 472.16 222.506 472.328 221.149C472.496 219.792 472.617 218.016 472.69 215.819L473.015 204.713H494.385Z" fill="#A67DB6"/>
<path d="M519.904 225.949V233.191H498.865V204.713H519.432V211.954H507.252V215.291H517.95V222.207H507.252V225.949H519.904Z" fill="#A67DB6"/>
<path d="M543.49 221.106C544.25 222.3 544.629 223.654 544.629 225.174C544.629 226.964 544.071 228.518 542.95 229.831C541.829 231.147 540.325 232.149 538.43 232.841C536.538 233.533 534.435 233.88 532.12 233.88C528.433 233.88 524.927 233.052 521.601 231.399L524.095 224.767C525.274 225.311 526.505 225.722 527.783 226.006C529.061 226.291 530.266 226.435 531.397 226.435C532.77 226.435 533.884 226.217 534.742 225.784C535.596 225.352 536.023 224.712 536.023 223.872C536.023 222.733 535.191 222.164 533.53 222.164H526.698V215.247H532.807C533.53 215.247 534.077 215.1 534.45 214.8C534.822 214.5 535.008 214.082 535.008 213.539C535.008 212.832 534.676 212.292 534.015 211.911C533.351 211.53 532.478 211.342 531.394 211.342C530.382 211.342 529.283 211.505 528.104 211.83C526.921 212.156 525.804 212.618 524.741 213.213L522.247 206.094C525.044 204.655 528.078 203.938 531.357 203.938C533.548 203.938 535.582 204.278 537.447 204.955C539.313 205.631 540.81 206.615 541.931 207.902C543.052 209.189 543.611 210.702 543.611 212.44C543.611 213.716 543.322 214.866 542.742 215.898C542.165 216.93 541.354 217.755 540.321 218.38C541.676 219.005 542.731 219.911 543.49 221.106Z" fill="#A67DB6"/>
<path d="M565.522 228.228H555.908L554.21 233.191H545.535L556.594 204.713H564.981L576.041 233.191H567.219L565.522 228.228ZM563.17 221.312L560.713 214.151L558.256 221.312H563.17Z" fill="#A67DB6"/>
<path d="M1.12453 251.117H3.66577V259.213L8.93447 251.117H11.3333V263.544H8.81033V255.467L3.53798 263.544H1.12453V251.117Z" fill="#929292"/>
<path d="M27.7309 258.169C28.0888 258.679 28.2677 259.304 28.2677 260.051C28.2677 261.153 27.8952 262.011 27.154 262.625C26.4129 263.239 25.354 263.55 23.9775 263.55H18.5372V251.123H23.6781C24.9597 251.123 25.9601 251.4 26.6757 251.959C27.3914 252.514 27.7492 253.309 27.7492 254.337C27.7492 254.951 27.6141 255.495 27.3403 255.961C27.0664 256.427 26.683 256.797 26.1901 257.07C26.8583 257.292 27.3731 257.658 27.7309 258.169ZM21.0748 256.268H23.4554C24.014 256.268 24.4339 256.142 24.7187 255.887C25.0035 255.631 25.1459 255.258 25.1459 254.759C25.1459 254.274 24.9998 253.901 24.7114 253.642C24.4229 253.383 24.0031 253.25 23.459 253.25H21.0784V256.268H21.0748ZM25.6826 259.818C25.6826 258.79 25.0838 258.272 23.8862 258.272H21.0784V261.416H23.8862C25.0838 261.416 25.6826 260.883 25.6826 259.818Z" fill="#929292"/>
<path d="M36.9212 262.93C36.012 262.379 35.2964 261.617 34.7743 260.641C34.2521 259.664 33.9929 258.562 33.9929 257.33C33.9929 256.099 34.2521 254.997 34.7743 254.02C35.2964 253.044 36.0084 252.282 36.9212 251.731C37.8303 251.18 38.8527 250.906 39.9882 250.906C40.9448 250.906 41.8101 251.095 42.5842 251.476C43.3583 251.853 44.0082 252.4 44.534 253.111L42.8946 254.816C42.1461 253.847 41.2223 253.358 40.1196 253.358C39.4369 253.358 38.8271 253.528 38.2904 253.865C37.7537 254.202 37.3374 254.671 37.038 255.278C36.7386 255.881 36.5889 256.569 36.5889 257.338C36.5889 258.107 36.7386 258.795 37.038 259.398C37.3374 260.001 37.7573 260.471 38.2904 260.811C38.8235 261.151 39.4369 261.317 40.1196 261.317C41.2223 261.317 42.1497 260.826 42.8946 259.845L44.534 261.55C44.0082 262.272 43.3546 262.823 42.5769 263.2C41.7992 263.577 40.9302 263.77 39.9736 263.77C38.8454 263.758 37.8303 263.481 36.9212 262.93Z" fill="#929292"/>
<path d="M55.7762 251.117V263.544H53.2532V253.462H49.4669L49.3865 256.055C49.3354 257.819 49.2076 259.246 49.0068 260.341C48.806 261.436 48.4737 262.275 48.0064 262.864C47.539 263.448 46.8855 263.744 46.042 263.744C45.6952 263.744 45.2753 263.677 44.7787 263.548L44.9357 261.114C45.0708 261.162 45.2242 261.184 45.3921 261.184C46.0019 261.184 46.4291 260.778 46.67 259.968C46.911 259.158 47.0644 257.889 47.1264 256.158L47.2834 251.117H55.7762Z" fill="#929292"/>
<path d="M68.5037 251.117L63.8046 260.951C63.3519 261.898 62.8078 262.616 62.1725 263.1C61.5372 263.585 60.8435 263.829 60.0986 263.829C59.5217 263.829 58.9193 263.688 58.3022 263.404L58.9193 261.221C59.3611 261.377 59.7299 261.451 60.022 261.451C60.336 261.451 60.6208 261.366 60.8727 261.192C61.1246 261.022 61.3547 260.752 61.5664 260.386L61.6614 260.245L57.3091 251.121H60.0366L62.9721 257.797L65.999 251.121H68.5037V251.117Z" fill="#929292"/>
<path d="M79.0268 251.117V263.544H76.5038V259.069C75.5472 259.461 74.6599 259.653 73.8384 259.653C72.356 259.653 71.2205 259.254 70.4318 258.455C69.6432 257.656 69.2488 256.506 69.2488 255V251.113H71.7718V254.682C71.7718 255.533 71.9726 256.177 72.3779 256.609C72.7832 257.042 73.3674 257.256 74.1378 257.256C74.9776 257.256 75.7662 257.072 76.5038 256.705V251.113H79.0268V251.117Z" fill="#929292"/>
<path d="M89.2468 260.881H84.1205L83.142 263.544H80.524L85.4459 251.117H87.9689L92.9053 263.544H90.2253L89.2468 260.881ZM88.4435 258.699L86.6909 253.943L84.9384 258.699H88.4435Z" fill="#929292"/>
<path d="M102.924 261.236V263.544H94.3763V251.117H102.719V253.425H96.9139V256.125H102.04V258.363H96.9139V261.24H102.924V261.236Z" fill="#929292"/>
<path d="M111.621 262.922C110.701 262.368 109.982 261.598 109.459 260.622C108.937 259.646 108.678 258.547 108.678 257.33C108.678 256.113 108.937 255.015 109.459 254.039C109.982 253.062 110.701 252.297 111.621 251.738C112.541 251.183 113.574 250.902 114.721 250.902C115.867 250.902 116.897 251.18 117.813 251.738C118.73 252.293 119.449 253.062 119.975 254.039C120.501 255.015 120.764 256.113 120.764 257.33C120.764 258.547 120.501 259.646 119.975 260.622C119.449 261.598 118.73 262.364 117.813 262.922C116.897 263.477 115.867 263.758 114.721 263.758C113.574 263.758 112.541 263.481 111.621 262.922ZM116.488 260.799C117.014 260.463 117.426 259.993 117.726 259.387C118.025 258.78 118.175 258.096 118.175 257.327C118.175 256.557 118.025 255.869 117.726 255.267C117.426 254.664 117.014 254.194 116.488 253.854C115.962 253.517 115.374 253.347 114.721 253.347C114.067 253.347 113.479 253.517 112.954 253.854C112.428 254.19 112.015 254.66 111.716 255.267C111.416 255.869 111.267 256.557 111.267 257.327C111.267 258.096 111.416 258.784 111.716 259.387C112.015 259.989 112.428 260.459 112.954 260.799C113.479 261.136 114.067 261.306 114.721 261.306C115.374 261.306 115.962 261.14 116.488 260.799Z" fill="#929292"/>
<path d="M122.732 251.117H131.644V253.407H125.273V255.962H128.333C129.669 255.962 130.684 256.277 131.385 256.902C132.086 257.53 132.433 258.433 132.433 259.616C132.433 260.859 132.042 261.824 131.264 262.509C130.487 263.196 129.388 263.537 127.967 263.537H122.732V251.117ZM127.829 261.414C128.482 261.414 128.979 261.27 129.326 260.977C129.673 260.689 129.848 260.264 129.848 259.709C129.848 258.621 129.176 258.074 127.829 258.074H125.273V261.41H127.829V261.414Z" fill="#929292"/>
<path d="M144.501 251.117V263.544H141.945V258.448H136.928V263.544H134.372V251.117H136.928V256.018H141.945V251.117H144.501Z" fill="#929292"/>
<path d="M154.738 260.881H149.612L148.634 263.544H146.016L150.938 251.117H153.461L158.397 263.544H155.717L154.738 260.881ZM153.932 258.699L152.179 253.943L150.426 258.699H153.932Z" fill="#929292"/>
<path d="M167.189 251.668C167.908 252.034 168.463 252.556 168.854 253.229C169.244 253.902 169.438 254.701 169.438 255.625C169.438 256.535 169.244 257.334 168.854 258.015C168.463 258.695 167.912 259.217 167.189 259.575C166.47 259.938 165.619 260.115 164.64 260.115H162.417V263.54H159.861V251.113H164.64C165.619 251.117 166.47 251.302 167.189 251.668ZM166.25 257.216C166.648 256.842 166.849 256.313 166.849 255.625C166.849 254.926 166.648 254.39 166.25 254.02C165.852 253.647 165.268 253.462 164.498 253.462H162.417V257.774H164.498C165.268 257.774 165.852 257.589 166.25 257.216Z" fill="#929292"/>
<path d="M180.859 251.117L176.16 260.951C175.707 261.898 175.163 262.616 174.528 263.1C173.892 263.585 173.202 263.829 172.454 263.829C171.877 263.829 171.274 263.688 170.654 263.404L171.271 261.221C171.713 261.377 172.081 261.451 172.373 261.451C172.691 261.451 172.972 261.366 173.224 261.192C173.476 261.022 173.706 260.752 173.918 260.386L174.013 260.245L169.661 251.121H172.388L175.324 257.797L178.351 251.121H180.859V251.117Z" fill="#929292"/>
<path d="M191.915 258.536H190.305V263.544H187.796V258.536H186.157L183.682 263.544H180.731L184.043 257.046L180.936 251.117H183.634L186.11 256.14H187.796V251.117H190.305V256.14H191.944L194.438 251.117H197.136L194.044 257.046L197.341 263.544H194.391L191.915 258.536Z" fill="#929292"/>
<path d="M207.119 261.236V263.544H198.571V251.117H206.914V253.425H201.109V256.125H206.235V258.363H201.109V261.24H207.119V261.236Z" fill="#929292"/>
<path d="M219.314 251.117V263.544H216.758V258.448H211.741V263.544H209.185V251.117H211.741V256.018H216.758V251.117H219.314Z" fill="#929292"/>
<path d="M222.074 251.117H224.615V259.213L229.884 251.117H232.283V263.544H229.76V255.467L224.491 263.544H222.077V251.117H222.074Z" fill="#929292"/>
<path d="M243.839 251.117V263.544H241.316V260.241H238.983L237.026 263.544H234.327L236.631 259.798C235.883 259.454 235.31 258.936 234.912 258.244C234.514 257.553 234.313 256.72 234.313 255.751C234.313 254.793 234.506 253.969 234.897 253.273C235.284 252.582 235.839 252.049 236.555 251.676C237.27 251.302 238.11 251.117 239.078 251.117H243.839ZM237.475 254.028C237.091 254.405 236.898 254.967 236.898 255.714C236.898 256.436 237.08 256.994 237.449 257.382C237.818 257.774 238.358 257.967 239.074 257.967H241.312V253.458H239.136C238.413 253.462 237.858 253.651 237.475 254.028Z" fill="#929292"/>
<path d="M262.453 261.199V266.118H260.087V263.544H252.295V266.118H249.929L249.944 261.199H250.386C251.046 261.177 251.517 260.629 251.788 259.564C252.058 258.499 252.229 256.979 252.292 255L252.419 251.113H260.905V261.195H262.453V261.199ZM254.219 258.991C254.051 259.99 253.792 260.729 253.445 261.203H258.382V253.462H254.599L254.552 255.274C254.497 256.75 254.387 257.989 254.219 258.991Z" fill="#929292"/>
<path d="M272.72 261.236V263.544H264.173V251.117H272.516V253.425H266.71V256.125H271.837V258.363H266.71V261.24H272.72V261.236Z" fill="#929292"/>
<path d="M286.339 261.174C285.346 262.114 283.918 262.639 282.056 262.746V264.096H279.705V262.728C277.832 262.609 276.401 262.081 275.407 261.137C274.414 260.198 273.918 258.915 273.918 257.295C273.918 255.66 274.414 254.38 275.407 253.452C276.401 252.524 277.836 251.995 279.705 251.862V250.582H282.056V251.843C283.918 251.962 285.346 252.494 286.339 253.441C287.332 254.388 287.829 255.671 287.829 257.295C287.833 258.941 287.336 260.235 286.339 261.174ZM279.709 260.49V254.118C278.584 254.236 277.752 254.554 277.208 255.068C276.663 255.582 276.397 256.326 276.397 257.295C276.397 259.166 277.5 260.231 279.709 260.49ZM284.55 259.525C285.098 259 285.372 258.249 285.372 257.28C285.372 255.386 284.269 254.332 282.06 254.121V260.494C283.174 260.372 284.002 260.05 284.55 259.525Z" fill="#929292"/>
<path d="M289.738 251.117H292.279V259.213L297.548 251.117H299.947V263.544H297.424V255.467L292.155 263.544H289.742V251.117H289.738Z" fill="#929292"/>
<path d="M314.267 261.199V266.17H311.916V263.544H302.689V251.117H305.23V261.199H310.152V251.117H312.694V261.199H314.267Z" fill="#929292"/>
<path d="M315.954 251.117H318.495V259.213L323.764 251.117H326.163V263.544H323.64V255.467L318.371 263.544H315.958V251.117H315.954Z" fill="#929292"/>
<path d="M337.343 253.462H333.808V263.544H331.285V253.462H327.769V251.117H337.343V253.462Z" fill="#929292"/>
<path d="M345.875 260.881H340.749L339.771 263.544H337.153L342.074 251.117H344.597L349.534 263.544H346.854L345.875 260.881ZM345.072 258.699L343.32 253.943L341.571 258.699H345.072Z" fill="#929292"/>
<path d="M353.306 260.712C353.59 261.026 353.733 261.437 353.733 261.947C353.733 262.184 353.707 262.421 353.652 262.657C353.601 262.894 353.485 263.249 353.306 263.722L352.407 266.278H350.845L351.538 263.456C351.276 263.338 351.067 263.145 350.914 262.879C350.761 262.613 350.684 262.302 350.684 261.947C350.684 261.437 350.83 261.026 351.119 260.712C351.407 260.398 351.772 260.242 352.214 260.242C352.659 260.242 353.021 260.401 353.306 260.712Z" fill="#929292"/>
<path d="M370.167 251.117V263.544H367.626V253.462H362.642V263.544H360.101V251.117H370.167Z" fill="#929292"/>
<path d="M375.082 262.922C374.161 262.368 373.442 261.598 372.92 260.622C372.398 259.646 372.139 258.547 372.139 257.33C372.139 256.113 372.398 255.015 372.92 254.039C373.442 253.062 374.161 252.297 375.082 251.738C376.002 251.183 377.035 250.902 378.181 250.902C379.328 250.902 380.358 251.18 381.274 251.738C382.19 252.293 382.91 253.062 383.436 254.039C383.961 255.015 384.224 256.113 384.224 257.33C384.224 258.547 383.961 259.646 383.436 260.622C382.91 261.598 382.19 262.364 381.274 262.922C380.358 263.477 379.328 263.758 378.181 263.758C377.035 263.758 376.002 263.481 375.082 262.922ZM379.945 260.799C380.471 260.463 380.883 259.993 381.183 259.387C381.482 258.784 381.632 258.096 381.632 257.327C381.632 256.557 381.482 255.869 381.183 255.267C380.883 254.664 380.471 254.194 379.945 253.854C379.419 253.513 378.831 253.347 378.178 253.347C377.524 253.347 376.936 253.517 376.411 253.854C375.885 254.19 375.472 254.66 375.173 255.267C374.873 255.869 374.724 256.557 374.724 257.327C374.724 258.096 374.873 258.784 375.173 259.387C375.472 259.989 375.885 260.459 376.411 260.799C376.936 261.14 377.524 261.306 378.178 261.306C378.831 261.306 379.419 261.14 379.945 260.799Z" fill="#929292"/>
<path d="M395.718 251.117V263.544H393.195V253.462H389.409L389.329 256.055C389.277 257.819 389.15 259.246 388.949 260.341C388.748 261.436 388.416 262.275 387.948 262.864C387.481 263.448 386.824 263.744 385.984 263.744C385.637 263.744 385.217 263.677 384.721 263.548L384.878 261.114C385.013 261.162 385.166 261.184 385.334 261.184C385.944 261.184 386.371 260.778 386.612 259.968C386.853 259.158 387.006 257.889 387.068 256.158L387.225 251.117H395.718Z" fill="#929292"/>
<path d="M408.45 251.117L403.751 260.951C403.298 261.898 402.754 262.616 402.119 263.1C401.483 263.585 400.79 263.829 400.045 263.829C399.468 263.829 398.866 263.688 398.249 263.404L398.862 261.221C399.304 261.377 399.673 261.451 399.965 261.451C400.279 261.451 400.563 261.366 400.815 261.192C401.067 261.022 401.297 260.752 401.509 260.386L401.604 260.245L397.252 251.121H399.979L402.915 257.797L405.942 251.121H408.45V251.117Z" fill="#929292"/>
<path d="M418.969 251.117V263.544H416.446V259.069C415.49 259.461 414.603 259.653 413.781 259.653C412.299 259.653 411.163 259.254 410.374 258.455C409.586 257.656 409.191 256.506 409.191 255V251.113H411.714V254.682C411.714 255.533 411.915 256.177 412.321 256.609C412.726 257.042 413.31 257.256 414.08 257.256C414.92 257.256 415.709 257.072 416.446 256.705V251.113H418.969V251.117Z" fill="#929292"/>
<path d="M421.715 251.117H424.256V259.213L429.525 251.117H431.923V263.544H429.401V255.467L424.132 263.544H421.715V251.117Z" fill="#929292"/>
<path d="M443.403 258.536H441.636V263.544H439.095V251.117H441.636V256.14H443.465L446.368 251.117H449.066L445.455 257.116L449.176 263.544H446.273L443.403 258.536Z" fill="#929292"/>
<path d="M452.495 262.922C451.575 262.368 450.855 261.598 450.333 260.622C449.811 259.646 449.552 258.547 449.552 257.33C449.552 256.113 449.811 255.015 450.333 254.039C450.855 253.062 451.575 252.297 452.495 251.738C453.415 251.183 454.448 250.902 455.595 250.902C456.741 250.902 457.771 251.18 458.687 251.738C459.604 252.293 460.323 253.062 460.849 254.039C461.375 255.015 461.637 256.113 461.637 257.33C461.637 258.547 461.375 259.646 460.849 260.622C460.323 261.598 459.604 262.364 458.687 262.922C457.771 263.477 456.741 263.758 455.595 263.758C454.448 263.758 453.415 263.481 452.495 262.922ZM457.362 260.799C457.888 260.463 458.3 259.993 458.6 259.387C458.899 258.784 459.049 258.096 459.049 257.327C459.049 256.557 458.899 255.869 458.6 255.267C458.3 254.664 457.888 254.194 457.362 253.854C456.836 253.513 456.248 253.347 455.595 253.347C454.941 253.347 454.353 253.517 453.827 253.854C453.302 254.19 452.889 254.66 452.59 255.267C452.29 255.869 452.141 256.557 452.141 257.327C452.141 258.096 452.29 258.784 452.59 259.387C452.889 259.989 453.302 260.459 453.827 260.799C454.353 261.14 454.941 261.306 455.595 261.306C456.245 261.306 456.836 261.14 457.362 260.799Z" fill="#929292"/>
<path d="M473.734 251.117V263.544H471.178V258.448H466.161V263.544H463.605V251.117H466.161V256.018H471.178V251.117H473.734Z" fill="#929292"/>
<path d="M478.663 262.93C477.754 262.379 477.038 261.617 476.516 260.641C475.994 259.664 475.735 258.562 475.735 257.33C475.735 256.099 475.994 254.997 476.516 254.02C477.038 253.044 477.75 252.282 478.663 251.731C479.572 251.18 480.594 250.906 481.73 250.906C482.686 250.906 483.552 251.095 484.326 251.476C485.1 251.853 485.746 252.4 486.272 253.111L484.633 254.816C483.884 253.847 482.96 253.358 481.858 253.358C481.175 253.358 480.565 253.528 480.028 253.865C479.492 254.202 479.075 254.671 478.776 255.278C478.477 255.881 478.327 256.569 478.327 257.338C478.327 258.107 478.477 258.795 478.776 259.398C479.075 260.001 479.495 260.471 480.028 260.811C480.561 261.151 481.175 261.317 481.858 261.317C482.96 261.317 483.888 260.826 484.633 259.845L486.272 261.55C485.746 262.272 485.093 262.823 484.315 263.2C483.537 263.577 482.668 263.77 481.712 263.77C480.591 263.758 479.572 263.481 478.663 262.93Z" fill="#929292"/>
<path d="M497.693 251.117L492.994 260.951C492.541 261.898 491.997 262.616 491.362 263.1C490.727 263.585 490.033 263.829 489.288 263.829C488.711 263.829 488.109 263.688 487.492 263.404L488.105 261.221C488.547 261.377 488.916 261.451 489.208 261.451C489.522 261.451 489.807 261.366 490.058 261.192C490.31 261.022 490.54 260.752 490.752 260.386L490.847 260.245L486.495 251.121H489.222L492.158 257.797L495.185 251.121H497.693V251.117Z" fill="#929292"/>
<path d="M508.577 251.117V263.544H506.054V253.462H502.268L502.188 256.055C502.137 257.819 502.009 259.246 501.808 260.341C501.607 261.436 501.275 262.275 500.808 262.864C500.34 263.448 499.683 263.744 498.843 263.744C498.496 263.744 498.077 263.677 497.58 263.548L497.737 261.114C497.872 261.162 498.025 261.184 498.193 261.184C498.803 261.184 499.23 260.778 499.471 259.968C499.712 259.158 499.866 257.889 499.928 256.158L500.085 251.117H508.577Z" fill="#929292"/>
<path d="M519.783 256.214C520.502 256.887 520.864 257.889 520.864 259.213C520.864 260.622 520.466 261.695 519.673 262.435C518.881 263.174 517.76 263.544 516.321 263.544H511.337V251.117H513.879V255.2H516.687C518.03 255.2 519.063 255.537 519.783 256.214ZM517.731 260.863C518.103 260.497 518.289 259.964 518.289 259.265C518.289 257.974 517.585 257.331 516.175 257.331H513.871V261.414H516.175C516.84 261.414 517.358 261.229 517.731 260.863Z" fill="#929292"/>
<path d="M529.995 253.462H526.461V263.544H523.938V253.462H520.422V251.117H529.995V253.462Z" fill="#929292"/>
<path d="M538.528 260.881H533.402L532.423 263.544H529.805L534.727 251.117H537.25L542.187 263.544H539.507L538.528 260.881ZM537.725 258.699L535.972 253.943L534.223 258.699H537.725Z" fill="#929292"/>
<path d="M555.232 261.199V266.17H552.881V263.544H543.654V251.117H546.196V261.199H551.117V251.117H553.659V261.199H555.232Z" fill="#929292"/>
<path d="M556.919 251.117H559.46V259.213L564.729 251.117H567.128V263.544H564.605V255.467L559.336 263.544H556.923V251.117H556.919Z" fill="#929292"/>
<path d="M582.61 251.738C583.497 252.293 584.194 253.062 584.698 254.039C585.202 255.015 585.454 256.113 585.454 257.33C585.454 258.547 585.202 259.646 584.698 260.622C584.194 261.598 583.497 262.364 582.61 262.922C581.722 263.477 580.726 263.758 579.619 263.758C578.63 263.758 577.728 263.536 576.906 263.093C576.085 262.649 575.409 262.027 574.88 261.228C574.347 260.43 574.011 259.516 573.861 258.484H572.412V263.544H569.87V251.117H572.412V255.999H573.894C574.062 255.004 574.413 254.12 574.942 253.343C575.471 252.567 576.143 251.967 576.954 251.542C577.764 251.117 578.652 250.902 579.619 250.902C580.722 250.902 581.719 251.183 582.61 251.738ZM581.273 260.811C581.766 260.478 582.157 260.012 582.442 259.409C582.726 258.806 582.869 258.114 582.869 257.33C582.869 256.55 582.726 255.858 582.442 255.252C582.157 254.649 581.77 254.179 581.273 253.85C580.78 253.517 580.225 253.354 579.616 253.354C579.006 253.354 578.454 253.521 577.958 253.85C577.465 254.183 577.074 254.649 576.789 255.252C576.505 255.855 576.362 256.546 576.362 257.33C576.362 258.111 576.505 258.802 576.789 259.409C577.074 260.012 577.461 260.481 577.958 260.811C578.451 261.143 579.006 261.306 579.616 261.306C580.229 261.306 580.78 261.14 581.273 260.811Z" fill="#929292"/>
<path d="M3.29354 289.559C2.38439 289.008 1.66875 288.246 1.14662 287.27C0.624501 286.293 0.365265 285.191 0.365265 283.959C0.365265 282.728 0.624501 281.626 1.14662 280.649C1.66875 279.673 2.38073 278.911 3.29354 278.36C4.20269 277.809 5.22503 277.535 6.36055 277.535C7.31717 277.535 8.18251 277.724 8.95657 278.105C9.73062 278.482 10.3805 279.029 10.9063 279.739L9.26692 281.444C8.51842 280.475 7.59466 279.987 6.492 279.987C5.80922 279.987 5.19947 280.157 4.66274 280.494C4.12601 280.83 3.70977 281.3 3.41038 281.907C3.11098 282.51 2.96128 283.198 2.96128 283.967C2.96128 284.736 3.11098 285.424 3.41038 286.027C3.70977 286.63 4.12966 287.099 4.66274 287.44C5.19582 287.78 5.80922 287.946 6.492 287.946C7.59466 287.946 8.52207 287.454 9.26692 286.474L10.9063 288.179C10.3805 288.901 9.72697 289.452 8.94926 289.829C8.17156 290.206 7.30257 290.398 6.34595 290.398C5.21773 290.387 4.20269 290.11 3.29354 289.559Z" fill="#929292"/>
<path d="M22.6373 277.746V290.173H20.0961V280.091H15.1122V290.173H12.5709V277.746H22.6373Z" fill="#929292"/>
<path d="M33.9304 287.865V290.173H25.3829V277.746H33.726V280.054H27.9205V282.754H33.0468V284.991H27.9205V287.869H33.9304V287.865Z" fill="#929292"/>
<path d="M47.5756 287.828V292.799H45.2242V290.173H35.9976V277.746H38.5388V287.828H43.4606V277.746H46.0019V287.828H47.5756Z" fill="#929292"/>
<path d="M49.2624 277.746H51.8036V285.842L57.0723 277.746H59.4712V290.173H56.9482V282.096L51.6795 290.173H49.266V277.746H49.2624Z" fill="#929292"/>
<path d="M69.6909 287.51H64.5646L63.5861 290.173H60.9682L65.89 277.746H68.413L73.3494 290.173H70.6695L69.6909 287.51ZM68.884 285.328L67.1314 280.572L65.3788 285.328H68.884Z" fill="#929292"/>
<path d="M84.7522 277.746V290.173H82.2292V280.091H78.4429L78.3625 282.684C78.3114 284.448 78.1836 285.875 77.9828 286.97C77.782 288.065 77.4497 288.904 76.9824 289.492C76.515 290.077 75.8615 290.373 75.018 290.373C74.6712 290.373 74.2513 290.306 73.7547 290.177L73.9117 287.743C74.0468 287.791 74.2002 287.813 74.3681 287.813C74.9779 287.813 75.4051 287.407 75.646 286.597C75.887 285.787 76.0404 284.518 76.1024 282.787L76.2594 277.746H84.7522Z" fill="#929292"/>
<path d="M87.5122 277.746H90.0535V285.842L95.3222 277.746H97.721V290.173H95.198V282.096L89.9293 290.173H87.5159V277.746H87.5122Z" fill="#929292"/>
<path d="M102.632 289.559C101.723 289.008 101.007 288.246 100.485 287.27C99.9628 286.293 99.7035 285.191 99.7035 283.959C99.7035 282.728 99.9628 281.626 100.485 280.649C101.007 279.673 101.719 278.911 102.632 278.36C103.541 277.809 104.563 277.535 105.699 277.535C106.655 277.535 107.521 277.724 108.295 278.105C109.069 278.482 109.719 279.029 110.245 279.739L108.605 281.444C107.857 280.475 106.933 279.987 105.83 279.987C105.147 279.987 104.538 280.157 104.001 280.494C103.464 280.83 103.048 281.3 102.749 281.907C102.449 282.51 102.3 283.198 102.3 283.967C102.3 284.736 102.449 285.424 102.749 286.027C103.048 286.63 103.468 287.099 104.001 287.44C104.534 287.78 105.147 287.946 105.83 287.946C106.933 287.946 107.86 287.454 108.605 286.474L110.245 288.179C109.719 288.901 109.065 289.452 108.288 289.829C107.51 290.206 106.641 290.398 105.684 290.398C104.56 290.387 103.541 290.11 102.632 289.559Z" fill="#929292"/>
<path d="M120.242 280.091H116.707V290.173H114.184V280.091H110.668V277.746H120.242V280.091Z" fill="#929292"/>
<path d="M128.775 287.51H123.648L122.67 290.173H120.052L124.974 277.746H127.497L132.433 290.173H129.753L128.775 287.51ZM127.971 285.328L126.219 280.572L124.466 285.328H127.971Z" fill="#929292"/>
<path d="M138.366 277.746H140.908V285.842L146.176 277.746H148.575V290.173H146.048V282.096L140.78 290.173H138.366V277.746Z" fill="#929292"/>
<path d="M165.272 282.184L169.354 290.172H164.111L161.468 284.558H160.168V290.172H155.516V274.639H160.168V280.43H161.588L164.528 274.639H169.376L165.272 282.184Z" fill="#757575"/>
<path d="M179.665 287.465H174.418L173.491 290.172H168.759L174.791 274.639H179.366L185.397 290.172H180.589L179.665 287.465ZM178.384 283.693L177.044 279.787L175.7 283.693H178.384Z" fill="#757575"/>
<path d="M198.137 274.639V290.172H193.562V285.202C192.642 285.512 191.806 285.668 191.057 285.668C189.034 285.668 187.49 285.128 186.435 284.048C185.376 282.968 184.846 281.392 184.846 279.321V274.639H189.421V278.744C189.421 279.691 189.604 280.39 189.973 280.841C190.342 281.292 190.9 281.518 191.649 281.518C192.423 281.518 193.062 281.399 193.562 281.163V274.639H198.137Z" fill="#757575"/>
<path d="M212.059 286.222V290.172H200.583V274.639H211.803V278.589H205.158V280.408H210.993V284.181H205.158V286.222H212.059Z" fill="#757575"/>
<path d="M216.948 289.497C215.78 288.809 214.863 287.847 214.199 286.612C213.534 285.377 213.202 283.975 213.202 282.407C213.202 280.839 213.534 279.437 214.199 278.202C214.863 276.967 215.78 276.005 216.948 275.317C218.116 274.629 219.431 274.285 220.891 274.285C222.231 274.285 223.429 274.551 224.48 275.084C225.532 275.617 226.401 276.386 227.084 277.392L224.144 280.343C223.29 279.13 222.286 278.524 221.129 278.524C220.157 278.524 219.372 278.875 218.781 279.578C218.189 280.28 217.894 281.223 217.894 282.407C217.894 283.591 218.189 284.534 218.781 285.236C219.372 285.939 220.154 286.29 221.129 286.29C222.286 286.29 223.29 285.684 224.144 284.471L227.084 287.422C226.401 288.428 225.532 289.197 224.48 289.73C223.429 290.263 222.231 290.529 220.891 290.529C219.431 290.529 218.116 290.185 216.948 289.497Z" fill="#757575"/>
<path d="M240.133 278.7H236.091V290.172H231.516V278.7H227.474V274.639H240.133V278.7Z" fill="#757575"/>
<path d="M254.055 283.415C254.464 284.029 254.665 284.78 254.665 285.668C254.665 287.058 254.175 288.157 253.197 288.963C252.218 289.769 250.835 290.172 249.046 290.172H241.67V274.639H248.669C250.378 274.639 251.704 274.994 252.642 275.704C253.58 276.414 254.051 277.413 254.051 278.7C254.051 279.439 253.898 280.09 253.588 280.652C253.277 281.215 252.843 281.673 252.277 282.028C253.055 282.339 253.646 282.801 254.055 283.415ZM246.245 280.608H248.217C248.98 280.608 249.36 280.231 249.36 279.476C249.36 278.692 248.98 278.3 248.217 278.3H246.245V280.608ZM249.973 285.268C249.973 284.469 249.593 284.07 248.83 284.07H246.249V286.511H248.83C249.59 286.511 249.973 286.097 249.973 285.268Z" fill="#757575"/>
<path d="M267.795 286.222V290.172H256.319V274.639H267.539V278.589H260.894V280.408H266.729V284.181H260.894V286.222H267.795Z" fill="#757575"/>
<path d="M283.294 274.639V290.172H278.642V284.447H274.344V290.172H269.693V274.639H274.344V280.142H278.642V274.639H283.294Z" fill="#757575"/>
<path d="M299.341 274.639V290.172H294.69V284.447H290.392V290.172H285.741V274.639H290.392V280.142H294.69V274.639H299.341Z" fill="#757575"/>
<path d="M315.589 274.639L310.05 286.333C309.393 287.724 308.589 288.782 307.636 289.507C306.683 290.231 305.635 290.594 304.493 290.594C303.613 290.594 302.718 290.387 301.813 289.973L302.897 286.2C303.474 286.378 303.949 286.466 304.317 286.466C304.661 286.466 304.953 286.4 305.194 286.267C305.438 286.134 305.668 285.912 305.895 285.601L300.611 274.639H305.522L308.264 281.185L311.105 274.639H315.589Z" fill="#757575"/>
<path d="M333.491 275.328C334.648 276.023 335.554 276.989 336.211 278.224C336.868 279.459 337.197 280.854 337.197 282.407C337.197 283.96 336.868 285.355 336.211 286.59C335.554 287.825 334.648 288.791 333.491 289.486C332.333 290.181 331.034 290.529 329.588 290.529C328.354 290.529 327.222 290.274 326.196 289.763C325.17 289.253 324.308 288.539 323.614 287.622C322.917 286.705 322.439 285.647 322.176 284.449H321.131V290.174H316.557V274.64H321.131V280.144H322.216C322.504 278.975 322.997 277.95 323.695 277.07C324.392 276.19 325.246 275.506 326.258 275.017C327.269 274.529 328.379 274.285 329.591 274.285C331.034 274.285 332.333 274.633 333.491 275.328ZM331.066 285.813C331.512 285.495 331.866 285.044 332.122 284.46C332.377 283.875 332.505 283.191 332.505 282.407C332.505 281.623 332.377 280.939 332.122 280.354C331.866 279.77 331.512 279.319 331.066 279.001C330.621 278.683 330.128 278.524 329.588 278.524C329.036 278.524 328.536 278.683 328.091 279.001C327.645 279.319 327.291 279.77 327.036 280.354C326.78 280.939 326.652 281.623 326.652 282.407C326.652 283.191 326.78 283.875 327.036 284.46C327.291 285.044 327.645 285.495 328.091 285.813C328.536 286.131 329.036 286.29 329.588 286.29C330.128 286.29 330.621 286.131 331.066 285.813Z" fill="#757575"/>
<path d="M356.559 278.7H352.517V290.172H347.942V278.7H343.9V274.639H356.559V278.7Z" fill="#757575"/>
<path d="M369.572 286.222V290.172H358.096V274.639H369.317V278.589H362.671V280.408H368.506V284.181H362.671V286.222H369.572Z" fill="#757575"/>
<path d="M381.442 275.349C382.388 275.822 383.118 276.503 383.629 277.39C384.14 278.278 384.4 279.314 384.4 280.497C384.4 281.681 384.144 282.716 383.629 283.604C383.118 284.491 382.388 285.172 381.442 285.645C380.496 286.119 379.386 286.355 378.108 286.355H376.119V290.172H371.467V274.639H378.112C379.383 274.639 380.496 274.875 381.442 275.349ZM379.233 281.84C379.547 281.522 379.708 281.074 379.708 280.497C379.708 279.92 379.551 279.473 379.233 279.155C378.919 278.836 378.444 278.677 377.813 278.677H376.119V282.317H377.813C378.444 282.317 378.919 282.158 379.233 281.84Z" fill="#757575"/>
<path d="M394.85 287.465H389.606L388.679 290.172H383.947L389.979 274.639H394.554L400.586 290.172H395.773L394.85 287.465ZM393.568 283.693L392.228 279.787L390.888 283.693H393.568Z" fill="#757575"/>
<path d="M415.216 274.639V290.172H410.641V278.7H406.442V290.172H401.867V274.639H415.216Z" fill="#757575"/>
<path d="M417.658 274.639H422.233V282.716L426.984 274.639H431.361V290.172H426.786V282.117L422.054 290.172H417.658V274.639Z" fill="#757575"/>
<path d="M450.746 275.328C451.903 276.023 452.808 276.989 453.466 278.224C454.123 279.459 454.452 280.854 454.452 282.407C454.452 283.96 454.123 285.355 453.466 286.59C452.808 287.825 451.903 288.791 450.746 289.486C449.588 290.181 448.288 290.529 446.842 290.529C445.608 290.529 444.476 290.274 443.45 289.763C442.424 289.253 441.563 288.539 440.869 287.622C440.172 286.705 439.693 285.647 439.43 284.449H438.386V290.174H433.811V274.64H438.386V280.144H439.471C439.759 278.975 440.252 277.95 440.949 277.07C441.647 276.19 442.501 275.506 443.512 275.017C444.524 274.529 445.634 274.285 446.846 274.285C448.285 274.285 449.588 274.633 450.746 275.328ZM448.317 285.813C448.763 285.495 449.117 285.044 449.373 284.46C449.628 283.875 449.756 283.191 449.756 282.407C449.756 281.623 449.628 280.939 449.373 280.354C449.117 279.77 448.763 279.319 448.317 279.001C447.872 278.683 447.379 278.524 446.839 278.524C446.287 278.524 445.787 278.683 445.342 279.001C444.896 279.319 444.542 279.77 444.287 280.354C444.031 280.939 443.903 281.623 443.903 282.407C443.903 283.191 444.031 283.875 444.287 284.46C444.542 285.044 444.896 285.495 445.342 285.813C445.787 286.131 446.287 286.29 446.839 286.29C447.379 286.29 447.872 286.131 448.317 285.813Z" fill="#757575"/>
</svg>
